<svg xmlns="http://www.w3.org/2000/svg" xmlns:xlink="http://www.w3.org/1999/xlink" contentStyleType="text/css" data-diagram-type="CLASS" height="618px" preserveAspectRatio="none" style="width:1090px;height:618px;background:#FFFFFF;" version="1.1" viewBox="0 0 1090 618" width="1090px" zoomAndPan="magnify"><?plantuml 1.2026.6?><defs/><g><g class="title" data-source-line="5"><text fill="#000000" font-family="Verdana" font-size="22" font-weight="700" lengthAdjust="spacing" textLength="290.7165" x="398.7718" y="35.4209">Backer &#31995;&#32479;&#26500;&#20214;&#22270;&#65288;&#39030;&#23618;&#65289;</text></g><!--cluster UI--><g class="cluster" data-qualified-name="UI" data-source-line="7" id="ent0001"><path d="M324.76,64.8994 L381.7598,64.8994 A3.75,3.75 0 0 1 384.2598,67.3994 L391.2598,87.1962 L596.76,87.1962 A2.5,2.5 0 0 1 599.26,89.6962 L599.26,157.3994 A2.5,2.5 0 0 1 596.76,159.8994 L324.76,159.8994 A2.5,2.5 0 0 1 322.26,157.3994 L322.26,67.3994 A2.5,2.5 0 0 1 324.76,64.8994" fill="#E8F0FE" style="stroke:#000000;stroke-width:1;"/><line style="stroke:#000000;stroke-width:1;" x1="322.26" x2="391.2598" y1="87.1962" y2="87.1962"/><text fill="#000000" font-family="Verdana" font-size="14" font-weight="700" lengthAdjust="spacing" textLength="55.9998" x="326.26" y="79.8945">&#29992;&#25143;&#25509;&#21475;</text></g><!--cluster Core--><g class="cluster" data-qualified-name="Core" data-source-line="12" id="ent0004"><path d="M353.76,214.1994 L410.7598,214.1994 A3.75,3.75 0 0 1 413.2598,216.6994 L420.2598,236.4963 L673.76,236.4963 A2.5,2.5 0 0 1 676.26,238.9963 L676.26,321.2894 A2.5,2.5 0 0 1 673.76,323.7894 L353.76,323.7894 A2.5,2.5 0 0 1 351.26,321.2894 L351.26,216.6994 A2.5,2.5 0 0 1 353.76,214.1994" fill="#FFF3E0" style="stroke:#000000;stroke-width:1;"/><line style="stroke:#000000;stroke-width:1;" x1="351.26" x2="420.2598" y1="236.4963" y2="236.4963"/><text fill="#000000" font-family="Verdana" font-size="14" font-weight="700" lengthAdjust="spacing" textLength="55.9998" x="355.26" y="229.1945">&#26680;&#24515;&#24341;&#25806;</text></g><!--cluster ????--><g class="cluster" data-qualified-name="...." data-source-line="17" id="ent0007"><path d="M253.76,372.7894 L310.7598,372.7894 A3.75,3.75 0 0 1 313.2598,375.2894 L320.2598,395.0863 L761.76,395.0863 A2.5,2.5 0 0 1 764.26,397.5863 L764.26,479.8894 A2.5,2.5 0 0 1 761.76,482.3894 L253.76,482.3894 A2.5,2.5 0 0 1 251.26,479.8894 L251.26,375.2894 A2.5,2.5 0 0 1 253.76,372.7894" fill="#E8F5E9" style="stroke:#000000;stroke-width:1;"/><line style="stroke:#000000;stroke-width:1;" x1="251.26" x2="320.2598" y1="395.0863" y2="395.0863"/><text fill="#000000" font-family="Verdana" font-size="14" font-weight="700" lengthAdjust="spacing" textLength="55.9998" x="255.26" y="387.7845">&#21151;&#33021;&#27169;&#22359;</text></g><!--cluster Schedule--><g class="cluster" data-qualified-name="Schedule" data-source-line="24" id="ent0012"><path d="M702.76,57.6094 L759.7598,57.6094 A3.75,3.75 0 0 1 762.2598,60.1094 L769.2598,79.9063 L1030.76,79.9063 A2.5,2.5 0 0 1 1033.26,82.4063 L1033.26,321.2894 A2.5,2.5 0 0 1 1030.76,323.7894 L702.76,323.7894 A2.5,2.5 0 0 1 700.26,321.2894 L700.26,60.1094 A2.5,2.5 0 0 1 702.76,57.6094" fill="#F3E5F5" style="stroke:#000000;stroke-width:1;"/><line style="stroke:#000000;stroke-width:1;" x1="700.26" x2="769.2598" y1="79.9063" y2="79.9063"/><text fill="#000000" font-family="Verdana" font-size="14" font-weight="700" lengthAdjust="spacing" textLength="55.9998" x="704.26" y="72.6045">&#35843;&#24230;&#31995;&#32479;</text></g><!--cluster Infra--><g class="cluster" data-qualified-name="Infra" data-source-line="30" id="ent0016"><path d="M790.76,372.7894 L847.7598,372.7894 A3.75,3.75 0 0 1 850.2598,375.2894 L857.2598,395.0863 L1072.76,395.0863 A2.5,2.5 0 0 1 1075.26,397.5863 L1075.26,479.8894 A2.5,2.5 0 0 1 1072.76,482.3894 L790.76,482.3894 A2.5,2.5 0 0 1 788.26,479.8894 L788.26,375.2894 A2.5,2.5 0 0 1 790.76,372.7894" fill="#FCE4EC" style="stroke:#000000;stroke-width:1;"/><line style="stroke:#000000;stroke-width:1;" x1="788.26" x2="857.2598" y1="395.0863" y2="395.0863"/><text fill="#000000" font-family="Verdana" font-size="14" font-weight="700" lengthAdjust="spacing" textLength="55.9998" x="792.26" y="387.7845">&#22522;&#30784;&#35774;&#26045;</text></g><!--class cli--><g class="entity" data-qualified-name="UI.cli" data-source-line="8" id="ent0002"><rect fill="#F1F1F1" height="44" rx="2.5" ry="2.5" style="stroke:#333333;stroke-width:1;" width="96.1541" x="338.18" y="99.8994"/><ellipse cx="351.18" cy="113.8994" fill="#FFFFFF" rx="9" ry="9" style="stroke:#000000;stroke-width:1;"/><path d="M354.5863,115.8681 C353.8675,116.54 352.5706,117.7119 350.8206,117.7119 C348.6019,117.7119 347.6331,115.7744 347.6331,113.8213 C347.6331,111.4306 349.1175,110.165 350.7581,110.165 C352.7738,110.165 352.9925,111.6806 353.1644,112.7744 L354.5863,112.5869 C354.4925,112.0088 354.4144,111.4306 354.4144,110.4619 C354.4144,109.79 354.4613,109.2431 354.4925,108.8213 L353.0863,108.8213 L352.9769,109.7744 C352.3831,109.2431 351.7425,108.6963 350.5238,108.6963 C348.4769,108.6963 346.0706,110.5244 346.0706,113.8369 C346.0706,116.7744 347.8363,119.165 350.8363,119.165 C353.2738,119.165 354.9769,117.54 355.5706,116.9619 L354.5863,115.8681 Z " fill="#000000"/><text fill="#000000" font-family="Verdana" font-size="14" lengthAdjust="spacing" textLength="68.1541" x="363.18" y="118.7461">CLI &#21629;&#20196;&#34892;</text><line style="stroke:#333333;stroke-width:1;" x1="339.18" x2="433.3341" y1="127.8994" y2="127.8994"/><line style="stroke:#333333;stroke-width:1;" x1="339.18" x2="433.3341" y1="135.8994" y2="135.8994"/></g><!--class gui--><g class="entity" data-qualified-name="UI.gui" data-source-line="9" id="ent0003"><rect fill="#F1F1F1" height="44" rx="2.5" ry="2.5" style="stroke:#333333;stroke-width:1;" width="113.6746" x="469.42" y="99.8994"/><ellipse cx="482.42" cy="113.8994" fill="#FFFFFF" rx="9" ry="9" style="stroke:#000000;stroke-width:1;"/><path d="M485.8262,115.8681 C485.1075,116.54 483.8106,117.7119 482.0606,117.7119 C479.8419,117.7119 478.8731,115.7744 478.8731,113.8213 C478.8731,111.4306 480.3575,110.165 481.9981,110.165 C484.0137,110.165 484.2325,111.6806 484.4044,112.7744 L485.8262,112.5869 C485.7325,112.0088 485.6544,111.4306 485.6544,110.4619 C485.6544,109.79 485.7012,109.2431 485.7325,108.8213 L484.3262,108.8213 L484.2169,109.7744 C483.6231,109.2431 482.9825,108.6963 481.7637,108.6963 C479.7169,108.6963 477.3106,110.5244 477.3106,113.8369 C477.3106,116.7744 479.0762,119.165 482.0762,119.165 C484.5137,119.165 486.2169,117.54 486.8106,116.9619 L485.8262,115.8681 Z " fill="#000000"/><text fill="#000000" font-family="Verdana" font-size="14" lengthAdjust="spacing" textLength="85.6746" x="494.42" y="118.7461">GUI &#22270;&#24418;&#30028;&#38754;</text><line style="stroke:#333333;stroke-width:1;" x1="470.42" x2="582.0946" y1="127.8994" y2="127.8994"/><line style="stroke:#333333;stroke-width:1;" x1="470.42" x2="582.0946" y1="135.8994" y2="135.8994"/></g><!--class backup_engine--><g class="entity" data-qualified-name="Core.backup_engine" data-source-line="13" id="ent0005"><rect fill="#F1F1F1" height="58.5938" rx="2.5" ry="2.5" style="stroke:#333333;stroke-width:1;" width="127.7295" x="532.39" y="249.1994"/><ellipse cx="545.39" cy="270.4963" fill="#FFFFFF" rx="9" ry="9" style="stroke:#000000;stroke-width:1;"/><path d="M548.7963,272.465 C548.0775,273.1369 546.7806,274.3088 545.0306,274.3088 C542.8119,274.3088 541.8431,272.3713 541.8431,270.4181 C541.8431,268.0275 543.3275,266.7619 544.9681,266.7619 C546.9838,266.7619 547.2025,268.2775 547.3744,269.3713 L548.7963,269.1838 C548.7025,268.6056 548.6244,268.0275 548.6244,267.0588 C548.6244,266.3869 548.6713,265.84 548.7025,265.4181 L547.2963,265.4181 L547.1869,266.3713 C546.5931,265.84 545.9525,265.2931 544.7338,265.2931 C542.6869,265.2931 540.2806,267.1213 540.2806,270.4338 C540.2806,273.3713 542.0463,275.7619 545.0463,275.7619 C547.4838,275.7619 549.1869,274.1369 549.7806,273.5588 L548.7963,272.465 Z " fill="#000000"/><text fill="#000000" font-family="Verdana" font-size="14" lengthAdjust="spacing" textLength="99.7295" x="557.39" y="267.1945">BackupEngine</text><text fill="#000000" font-family="Verdana" font-size="14" lengthAdjust="spacing" textLength="55.9998" x="579.2549" y="283.4914">&#22791;&#20221;&#24341;&#25806;</text><line style="stroke:#333333;stroke-width:1;" x1="533.39" x2="659.1195" y1="291.7931" y2="291.7931"/><line style="stroke:#333333;stroke-width:1;" x1="533.39" x2="659.1195" y1="299.7931" y2="299.7931"/></g><!--class restore_engine--><g class="entity" data-qualified-name="Core.restore_engine" data-source-line="14" id="ent0006"><rect fill="#F1F1F1" height="58.5938" rx="2.5" ry="2.5" style="stroke:#333333;stroke-width:1;" width="130.04" x="367.24" y="249.1994"/><ellipse cx="380.24" cy="270.4963" fill="#FFFFFF" rx="9" ry="9" style="stroke:#000000;stroke-width:1;"/><path d="M383.6463,272.465 C382.9275,273.1369 381.6306,274.3088 379.8806,274.3088 C377.6619,274.3088 376.6931,272.3713 376.6931,270.4181 C376.6931,268.0275 378.1775,266.7619 379.8181,266.7619 C381.8338,266.7619 382.0525,268.2775 382.2244,269.3713 L383.6463,269.1838 C383.5525,268.6056 383.4744,268.0275 383.4744,267.0588 C383.4744,266.3869 383.5213,265.84 383.5525,265.4181 L382.1463,265.4181 L382.0369,266.3713 C381.4431,265.84 380.8025,265.2931 379.5838,265.2931 C377.5369,265.2931 375.1306,267.1213 375.1306,270.4338 C375.1306,273.3713 376.8963,275.7619 379.8963,275.7619 C382.3338,275.7619 384.0369,274.1369 384.6306,273.5588 L383.6463,272.465 Z " fill="#000000"/><text fill="#000000" font-family="Verdana" font-size="14" lengthAdjust="spacing" textLength="102.04" x="392.24" y="267.1945">RestoreEngine</text><text fill="#000000" font-family="Verdana" font-size="14" lengthAdjust="spacing" textLength="55.9998" x="415.2601" y="283.4914">&#24674;&#22797;&#24341;&#25806;</text><line style="stroke:#333333;stroke-width:1;" x1="368.24" x2="496.28" y1="291.7931" y2="291.7931"/><line style="stroke:#333333;stroke-width:1;" x1="368.24" x2="496.28" y1="299.7931" y2="299.7931"/></g><!--class compress--><g class="entity" data-qualified-name=".....compress" data-source-line="18" id="ent0008"><rect fill="#F1F1F1" height="58.5938" rx="2.5" ry="2.5" style="stroke:#333333;stroke-width:1;" width="112.1436" x="517.19" y="407.7894"/><ellipse cx="530.19" cy="429.0863" fill="#FFFFFF" rx="9" ry="9" style="stroke:#000000;stroke-width:1;"/><path d="M533.5963,431.055 C532.8775,431.7269 531.5806,432.8988 529.8306,432.8988 C527.6119,432.8988 526.6431,430.9613 526.6431,429.0081 C526.6431,426.6175 528.1275,425.3519 529.7681,425.3519 C531.7838,425.3519 532.0025,426.8675 532.1744,427.9613 L533.5963,427.7738 C533.5025,427.1956 533.4244,426.6175 533.4244,425.6488 C533.4244,424.9769 533.4713,424.43 533.5025,424.0081 L532.0963,424.0081 L531.9869,424.9613 C531.3931,424.43 530.7525,423.8831 529.5338,423.8831 C527.4869,423.8831 525.0806,425.7113 525.0806,429.0238 C525.0806,431.9613 526.8463,434.3519 529.8463,434.3519 C532.2838,434.3519 533.9869,432.7269 534.5806,432.1488 L533.5963,431.055 Z " fill="#000000"/><text fill="#000000" font-family="Verdana" font-size="14" lengthAdjust="spacing" textLength="84.1436" x="542.19" y="425.7845">Compressor</text><text fill="#000000" font-family="Verdana" font-size="14" lengthAdjust="spacing" textLength="55.9998" x="556.2619" y="442.0814">&#21387;&#32553;&#27169;&#22359;</text><line style="stroke:#333333;stroke-width:1;" x1="518.19" x2="628.3336" y1="450.3831" y2="450.3831"/><line style="stroke:#333333;stroke-width:1;" x1="518.19" x2="628.3336" y1="458.3831" y2="458.3831"/></g><!--class crypto--><g class="entity" data-qualified-name=".....crypto" data-source-line="19" id="ent0009"><rect fill="#F1F1F1" height="58.5938" rx="2.5" ry="2.5" style="stroke:#333333;stroke-width:1;" width="96.1543" x="386.18" y="407.7894"/><ellipse cx="399.18" cy="429.0863" fill="#FFFFFF" rx="9" ry="9" style="stroke:#000000;stroke-width:1;"/><path d="M402.5863,431.055 C401.8675,431.7269 400.5706,432.8988 398.8206,432.8988 C396.6019,432.8988 395.6331,430.9613 395.6331,429.0081 C395.6331,426.6175 397.1175,425.3519 398.7581,425.3519 C400.7738,425.3519 400.9925,426.8675 401.1644,427.9613 L402.5863,427.7738 C402.4925,427.1956 402.4144,426.6175 402.4144,425.6488 C402.4144,424.9769 402.4613,424.43 402.4925,424.0081 L401.0863,424.0081 L400.9769,424.9613 C400.3831,424.43 399.7425,423.8831 398.5238,423.8831 C396.4769,423.8831 394.0706,425.7113 394.0706,429.0238 C394.0706,431.9613 395.8363,434.3519 398.8363,434.3519 C401.2738,434.3519 402.9769,432.7269 403.5706,432.1488 L402.5863,431.055 Z " fill="#000000"/><text fill="#000000" font-family="Verdana" font-size="14" lengthAdjust="spacing" textLength="68.1543" x="411.18" y="425.7845">Encryptor</text><text fill="#000000" font-family="Verdana" font-size="14" lengthAdjust="spacing" textLength="55.9998" x="417.2573" y="442.0814">&#21152;&#23494;&#27169;&#22359;</text><line style="stroke:#333333;stroke-width:1;" x1="387.18" x2="481.3343" y1="450.3831" y2="450.3831"/><line style="stroke:#333333;stroke-width:1;" x1="387.18" x2="481.3343" y1="458.3831" y2="458.3831"/></g><!--class pack--><g class="entity" data-qualified-name=".....pack" data-source-line="20" id="ent0010"><rect fill="#F1F1F1" height="58.5938" rx="2.5" ry="2.5" style="stroke:#333333;stroke-width:1;" width="83.9998" x="267.26" y="407.7894"/><ellipse cx="280.26" cy="429.0863" fill="#FFFFFF" rx="9" ry="9" style="stroke:#000000;stroke-width:1;"/><path d="M283.6663,431.055 C282.9475,431.7269 281.6506,432.8988 279.9006,432.8988 C277.6819,432.8988 276.7131,430.9613 276.7131,429.0081 C276.7131,426.6175 278.1975,425.3519 279.8381,425.3519 C281.8538,425.3519 282.0725,426.8675 282.2444,427.9613 L283.6663,427.7738 C283.5725,427.1956 283.4944,426.6175 283.4944,425.6488 C283.4944,424.9769 283.5413,424.43 283.5725,424.0081 L282.1663,424.0081 L282.0569,424.9613 C281.4631,424.43 280.8225,423.8831 279.6038,423.8831 C277.5569,423.8831 275.1506,425.7113 275.1506,429.0238 C275.1506,431.9613 276.9163,434.3519 279.9163,434.3519 C282.3538,434.3519 284.0569,432.7269 284.6506,432.1488 L283.6663,431.055 Z " fill="#000000"/><text fill="#000000" font-family="Verdana" font-size="14" lengthAdjust="spacing" textLength="47.1953" x="296.6622" y="425.7845">Packer</text><text fill="#000000" font-family="Verdana" font-size="14" lengthAdjust="spacing" textLength="55.9998" x="292.26" y="442.0814">&#25171;&#21253;&#27169;&#22359;</text><line style="stroke:#333333;stroke-width:1;" x1="268.26" x2="350.2598" y1="450.3831" y2="450.3831"/><line style="stroke:#333333;stroke-width:1;" x1="268.26" x2="350.2598" y1="458.3831" y2="458.3831"/></g><!--class filter--><g class="entity" data-qualified-name=".....filter" data-source-line="21" id="ent0011"><rect fill="#F1F1F1" height="58.5938" rx="2.5" ry="2.5" style="stroke:#333333;stroke-width:1;" width="83.9998" x="664.26" y="407.7894"/><ellipse cx="677.26" cy="429.0863" fill="#FFFFFF" rx="9" ry="9" style="stroke:#000000;stroke-width:1;"/><path d="M680.6663,431.055 C679.9475,431.7269 678.6506,432.8988 676.9006,432.8988 C674.6819,432.8988 673.7131,430.9613 673.7131,429.0081 C673.7131,426.6175 675.1975,425.3519 676.8381,425.3519 C678.8538,425.3519 679.0725,426.8675 679.2444,427.9613 L680.6663,427.7738 C680.5725,427.1956 680.4944,426.6175 680.4944,425.6488 C680.4944,424.9769 680.5413,424.43 680.5725,424.0081 L679.1663,424.0081 L679.0569,424.9613 C678.4631,424.43 677.8225,423.8831 676.6038,423.8831 C674.5569,423.8831 672.1506,425.7113 672.1506,429.0238 C672.1506,431.9613 673.9163,434.3519 676.9163,434.3519 C679.3538,434.3519 681.0569,432.7269 681.6506,432.1488 L680.6663,431.055 Z " fill="#000000"/><text fill="#000000" font-family="Verdana" font-size="14" lengthAdjust="spacing" textLength="35.6904" x="699.4147" y="425.7845">Filter</text><text fill="#000000" font-family="Verdana" font-size="14" lengthAdjust="spacing" textLength="55.9998" x="689.26" y="442.0814">&#36807;&#28388;&#27169;&#22359;</text><line style="stroke:#333333;stroke-width:1;" x1="665.26" x2="747.2598" y1="450.3831" y2="450.3831"/><line style="stroke:#333333;stroke-width:1;" x1="665.26" x2="747.2598" y1="458.3831" y2="458.3831"/></g><!--class scheduler--><g class="entity" data-qualified-name="Schedule.scheduler" data-source-line="25" id="ent0013"><rect fill="#F1F1F1" height="58.5938" rx="2.5" ry="2.5" style="stroke:#333333;stroke-width:1;" width="149.8369" x="716.34" y="92.6094"/><ellipse cx="729.34" cy="113.9063" fill="#FFFFFF" rx="9" ry="9" style="stroke:#000000;stroke-width:1;"/><path d="M732.7463,115.875 C732.0275,116.5469 730.7306,117.7188 728.9806,117.7188 C726.7619,117.7188 725.7931,115.7813 725.7931,113.8281 C725.7931,111.4375 727.2775,110.1719 728.9181,110.1719 C730.9338,110.1719 731.1525,111.6875 731.3244,112.7813 L732.7463,112.5938 C732.6525,112.0156 732.5744,111.4375 732.5744,110.4688 C732.5744,109.7969 732.6213,109.25 732.6525,108.8281 L731.2463,108.8281 L731.1369,109.7813 C730.5431,109.25 729.9025,108.7031 728.6838,108.7031 C726.6369,108.7031 724.2306,110.5313 724.2306,113.8438 C724.2306,116.7813 725.9963,119.1719 728.9963,119.1719 C731.4338,119.1719 733.1369,117.5469 733.7306,116.9688 L732.7463,115.875 Z " fill="#000000"/><text fill="#000000" font-family="Verdana" font-size="14" lengthAdjust="spacing" textLength="121.8369" x="741.34" y="110.6045">BackupScheduler</text><text fill="#000000" font-family="Verdana" font-size="14" lengthAdjust="spacing" textLength="41.9998" x="781.2585" y="126.9014">&#35843;&#24230;&#22120;</text><line style="stroke:#333333;stroke-width:1;" x1="717.34" x2="865.1769" y1="135.2031" y2="135.2031"/><line style="stroke:#333333;stroke-width:1;" x1="717.34" x2="865.1769" y1="143.2031" y2="143.2031"/></g><!--class retention--><g class="entity" data-qualified-name="Schedule.retention" data-source-line="26" id="ent0014"><rect fill="#F1F1F1" height="58.5938" rx="2.5" ry="2.5" style="stroke:#333333;stroke-width:1;" width="136.9033" x="880.81" y="249.1994"/><ellipse cx="893.81" cy="270.4963" fill="#FFFFFF" rx="9" ry="9" style="stroke:#000000;stroke-width:1;"/><path d="M897.2163,272.465 C896.4975,273.1369 895.2006,274.3088 893.4506,274.3088 C891.2319,274.3088 890.2631,272.3713 890.2631,270.4181 C890.2631,268.0275 891.7475,266.7619 893.3881,266.7619 C895.4038,266.7619 895.6225,268.2775 895.7944,269.3713 L897.2163,269.1838 C897.1225,268.6056 897.0444,268.0275 897.0444,267.0588 C897.0444,266.3869 897.0913,265.84 897.1225,265.4181 L895.7163,265.4181 L895.6069,266.3713 C895.0131,265.84 894.3725,265.2931 893.1538,265.2931 C891.1069,265.2931 888.7006,267.1213 888.7006,270.4338 C888.7006,273.3713 890.4663,275.7619 893.4663,275.7619 C895.9038,275.7619 897.6069,274.1369 898.2006,273.5588 L897.2163,272.465 Z " fill="#000000"/><text fill="#000000" font-family="Verdana" font-size="14" lengthAdjust="spacing" textLength="108.9033" x="905.81" y="267.1945">RetentionPolicy</text><text fill="#000000" font-family="Verdana" font-size="14" lengthAdjust="spacing" textLength="55.9998" x="932.2618" y="283.4914">&#20445;&#30041;&#31574;&#30053;</text><line style="stroke:#333333;stroke-width:1;" x1="881.81" x2="1016.7133" y1="291.7931" y2="291.7931"/><line style="stroke:#333333;stroke-width:1;" x1="881.81" x2="1016.7133" y1="299.7931" y2="299.7931"/></g><!--class store--><g class="entity" data-qualified-name="Schedule.store" data-source-line="27" id="ent0015"><rect fill="#F1F1F1" height="58.5938" rx="2.5" ry="2.5" style="stroke:#333333;stroke-width:1;" width="129.6436" x="716.44" y="249.1994"/><ellipse cx="729.44" cy="270.4963" fill="#FFFFFF" rx="9" ry="9" style="stroke:#000000;stroke-width:1;"/><path d="M732.8462,272.465 C732.1275,273.1369 730.8306,274.3088 729.0806,274.3088 C726.8619,274.3088 725.8931,272.3713 725.8931,270.4181 C725.8931,268.0275 727.3775,266.7619 729.0181,266.7619 C731.0337,266.7619 731.2525,268.2775 731.4244,269.3713 L732.8462,269.1838 C732.7525,268.6056 732.6744,268.0275 732.6744,267.0588 C732.6744,266.3869 732.7212,265.84 732.7525,265.4181 L731.3462,265.4181 L731.2369,266.3713 C730.6431,265.84 730.0025,265.2931 728.7837,265.2931 C726.7369,265.2931 724.3306,267.1213 724.3306,270.4338 C724.3306,273.3713 726.0962,275.7619 729.0962,275.7619 C731.5337,275.7619 733.2369,274.1369 733.8306,273.5588 L732.8462,272.465 Z " fill="#000000"/><text fill="#000000" font-family="Verdana" font-size="14" lengthAdjust="spacing" textLength="101.6436" x="741.44" y="267.1945">ScheduleStore</text><text fill="#000000" font-family="Verdana" font-size="14" lengthAdjust="spacing" textLength="55.9998" x="764.2619" y="283.4914">&#35745;&#21010;&#23384;&#20648;</text><line style="stroke:#333333;stroke-width:1;" x1="717.44" x2="845.0836" y1="291.7931" y2="291.7931"/><line style="stroke:#333333;stroke-width:1;" x1="717.44" x2="845.0836" y1="299.7931" y2="299.7931"/></g><!--class fs--><g class="entity" data-qualified-name="Infra.fs" data-source-line="31" id="ent0017"><rect fill="#F1F1F1" height="58.5938" rx="2.5" ry="2.5" style="stroke:#333333;stroke-width:1;" width="125.0361" x="933.74" y="407.7894"/><ellipse cx="946.74" cy="429.0863" fill="#FFFFFF" rx="9" ry="9" style="stroke:#000000;stroke-width:1;"/><path d="M950.1463,431.055 C949.4275,431.7269 948.1306,432.8988 946.3806,432.8988 C944.1619,432.8988 943.1931,430.9613 943.1931,429.0081 C943.1931,426.6175 944.6775,425.3519 946.3181,425.3519 C948.3338,425.3519 948.5525,426.8675 948.7244,427.9613 L950.1463,427.7738 C950.0525,427.1956 949.9744,426.6175 949.9744,425.6488 C949.9744,424.9769 950.0213,424.43 950.0525,424.0081 L948.6463,424.0081 L948.5369,424.9613 C947.9431,424.43 947.3025,423.8831 946.0838,423.8831 C944.0369,423.8831 941.6306,425.7113 941.6306,429.0238 C941.6306,431.9613 943.3963,434.3519 946.3963,434.3519 C948.8338,434.3519 950.5369,432.7269 951.1306,432.1488 L950.1463,431.055 Z " fill="#000000"/><text fill="#000000" font-family="Verdana" font-size="14" lengthAdjust="spacing" textLength="97.0361" x="958.74" y="425.7845">FSAbstraction</text><text fill="#000000" font-family="Verdana" font-size="14" lengthAdjust="spacing" textLength="83.9996" x="965.2582" y="442.0814">&#25991;&#20214;&#31995;&#32479;&#25277;&#35937;</text><line style="stroke:#333333;stroke-width:1;" x1="934.74" x2="1057.7761" y1="450.3831" y2="450.3831"/><line style="stroke:#333333;stroke-width:1;" x1="934.74" x2="1057.7761" y1="458.3831" y2="458.3831"/></g><!--class metadata--><g class="entity" data-qualified-name="Infra.metadata" data-source-line="32" id="ent0018"><rect fill="#F1F1F1" height="58.5938" rx="2.5" ry="2.5" style="stroke:#333333;stroke-width:1;" width="94.2949" x="804.11" y="407.7894"/><ellipse cx="817.11" cy="429.0863" fill="#FFFFFF" rx="9" ry="9" style="stroke:#000000;stroke-width:1;"/><path d="M820.5163,431.055 C819.7975,431.7269 818.5006,432.8988 816.7506,432.8988 C814.5319,432.8988 813.5631,430.9613 813.5631,429.0081 C813.5631,426.6175 815.0475,425.3519 816.6881,425.3519 C818.7038,425.3519 818.9225,426.8675 819.0944,427.9613 L820.5163,427.7738 C820.4225,427.1956 820.3444,426.6175 820.3444,425.6488 C820.3444,424.9769 820.3913,424.43 820.4225,424.0081 L819.0163,424.0081 L818.9069,424.9613 C818.3131,424.43 817.6725,423.8831 816.4538,423.8831 C814.4069,423.8831 812.0006,425.7113 812.0006,429.0238 C812.0006,431.9613 813.7663,434.3519 816.7663,434.3519 C819.2038,434.3519 820.9069,432.7269 821.5006,432.1488 L820.5163,431.055 Z " fill="#000000"/><text fill="#000000" font-family="Verdana" font-size="14" lengthAdjust="spacing" textLength="66.2949" x="829.11" y="425.7845">Metadata</text><text fill="#000000" font-family="Verdana" font-size="14" lengthAdjust="spacing" textLength="41.9998" x="841.2576" y="442.0814">&#20803;&#25968;&#25454;</text><line style="stroke:#333333;stroke-width:1;" x1="805.11" x2="897.4049" y1="450.3831" y2="450.3831"/><line style="stroke:#333333;stroke-width:1;" x1="805.11" x2="897.4049" y1="458.3831" y2="458.3831"/></g><!--class storage--><g class="entity" data-qualified-name="storage" data-source-line="35" id="ent0019"><rect fill="#F1F1F1" height="58.5938" rx="2.5" ry="2.5" style="stroke:#333333;stroke-width:1;" width="94.9236" x="261.8" y="545.3894"/><ellipse cx="274.8" cy="566.6863" fill="#FFFFFF" rx="9" ry="9" style="stroke:#000000;stroke-width:1;"/><path d="M278.2063,568.655 C277.4875,569.3269 276.1906,570.4988 274.4406,570.4988 C272.2219,570.4988 271.2531,568.5613 271.2531,566.6081 C271.2531,564.2175 272.7375,562.9519 274.3781,562.9519 C276.3938,562.9519 276.6125,564.4675 276.7844,565.5613 L278.2063,565.3738 C278.1125,564.7956 278.0344,564.2175 278.0344,563.2488 C278.0344,562.5769 278.0813,562.03 278.1125,561.6081 L276.7063,561.6081 L276.5969,562.5613 C276.0031,562.03 275.3625,561.4831 274.1438,561.4831 C272.0969,561.4831 269.6906,563.3113 269.6906,566.6238 C269.6906,569.5613 271.4563,571.9519 274.4563,571.9519 C276.8938,571.9519 278.5969,570.3269 279.1906,569.7488 L278.2063,568.655 Z " fill="#000000"/><text fill="#000000" font-family="Verdana" font-size="14" lengthAdjust="spacing" textLength="55.9998" x="292.2619" y="563.3845">&#25991;&#20214;&#23384;&#20648;</text><text fill="#000000" font-family="Verdana" font-size="14" lengthAdjust="spacing" textLength="66.9236" x="286.8" y="579.6814">(&#26412;&#22320;&#30913;&#30424;)</text><line style="stroke:#333333;stroke-width:1;" x1="262.8" x2="355.7236" y1="587.9831" y2="587.9831"/><line style="stroke:#333333;stroke-width:1;" x1="262.8" x2="355.7236" y1="595.9831" y2="595.9831"/></g><!--link cli to backup_engine--><g class="link" data-entity-1="ent0002" data-entity-2="ent0005" data-link-type="dependency" data-source-line="37" id="lnk20"><path codeLine="37" d="M389.8,144.1994 C393.92,161.7494 402.57,185.6994 420.26,198.1994 C437.56,210.4294 495.77,197.8894 515.26,206.1994 C537.32,215.5994 554.1233,229.7972 568.8533,245.2772" fill="none" id="cli-to-backup_engine" style="stroke:#000000;stroke-width:1;"/><polygon fill="#000000" points="572.3,248.8994,568.9937,239.6221,568.8533,245.2772,563.1982,245.1368,572.3,248.8994" style="stroke:#000000;stroke-width:1;stroke-linejoin:miter;stroke-miterlimit:10;"/><text fill="#000000" font-family="Verdana" font-size="13" lengthAdjust="spacing" textLength="52.0001" x="421.26" y="194.2663">&#25191;&#34892;&#22791;&#20221;</text></g><!--link cli to restore_engine--><g class="link" data-entity-1="ent0002" data-entity-2="ent0006" data-link-type="dependency" data-source-line="38" id="lnk21"><path codeLine="38" d="M342.17,144.2594 C320.38,157.9794 300.93,177.1294 312.26,198.1994 C324.26,220.5194 341.2917,235.089 362.6917,247.579" fill="none" id="cli-to-restore_engine" style="stroke:#000000;stroke-width:1;"/><polygon fill="#000000" points="367.01,250.0994,361.2533,242.1081,362.6917,247.579,357.2208,249.0174,367.01,250.0994" style="stroke:#000000;stroke-width:1;stroke-linejoin:miter;stroke-miterlimit:10;"/><text fill="#000000" font-family="Verdana" font-size="13" lengthAdjust="spacing" textLength="52.0001" x="313.26" y="194.2663">&#25191;&#34892;&#24674;&#22797;</text></g><!--link gui to backup_engine--><g class="link" data-entity-1="ent0003" data-entity-2="ent0005" data-link-type="dependency" data-source-line="39" id="lnk22"><path codeLine="39" d="M538.77,144.1594 C544.97,155.0594 552.37,168.6594 558.26,181.1994 C568.72,203.4894 577.1343,224.8103 584.3043,244.1803" fill="none" id="gui-to-backup_engine" style="stroke:#000000;stroke-width:1;"/><polygon fill="#000000" points="586.04,248.8694,586.667,239.0405,584.3043,244.1803,579.1645,241.8176,586.04,248.8694" style="stroke:#000000;stroke-width:1;stroke-linejoin:miter;stroke-miterlimit:10;"/><text fill="#000000" font-family="Verdana" font-size="13" lengthAdjust="spacing" textLength="52.0001" x="566.22" y="194.2663">&#25191;&#34892;&#22791;&#20221;</text></g><!--link gui to restore_engine--><g class="link" data-entity-1="ent0003" data-entity-2="ent0006" data-link-type="dependency" data-source-line="40" id="lnk23"><path codeLine="40" d="M513.19,144.3994 C496.64,171.6094 470.6774,214.3069 452.2874,244.5569" fill="none" id="gui-to-restore_engine" style="stroke:#000000;stroke-width:1;"/><polygon fill="#000000" points="449.69,248.8294,457.7832,243.2169,452.2874,244.5569,450.9473,239.0611,449.69,248.8294" style="stroke:#000000;stroke-width:1;stroke-linejoin:miter;stroke-miterlimit:10;"/><text fill="#000000" font-family="Verdana" font-size="13" lengthAdjust="spacing" textLength="52.0001" x="491.44" y="194.2663">&#25191;&#34892;&#24674;&#22797;</text></g><!--link backup_engine to filter--><g class="link" data-entity-1="ent0005" data-entity-2="ent0011" data-link-type="dependency" data-source-line="42" id="lnk24"><path codeLine="42" d="M648.56,308.1994 C664.83,316.4694 683.03,325.0694 700.26,331.7894 C712.31,336.4994 720.46,329.4594 728.26,339.7894 C742.92,359.2294 736.7956,382.272 726.4256,402.902" fill="none" id="backup_engine-to-filter" style="stroke:#000000;stroke-width:1;"/><polygon fill="#000000" points="724.18,407.3694,731.796,401.1246,726.4256,402.902,724.6482,397.5317,724.18,407.3694" style="stroke:#000000;stroke-width:1;stroke-linejoin:miter;stroke-miterlimit:10;"/><text fill="#000000" font-family="Verdana" font-size="13" lengthAdjust="spacing" textLength="52.0001" x="736.3" y="352.8563">&#31579;&#36873;&#25991;&#20214;</text></g><!--link backup_engine to compress--><g class="link" data-entity-1="ent0005" data-entity-2="ent0008" data-link-type="dependency" data-source-line="43" id="lnk25"><path codeLine="43" d="M643.77,308.1794 C660.44,322.0294 672.7,339.3894 662.26,356.7894 C658.37,363.2694 653.37,360.3494 647.26,364.7894 C630.08,377.2694 616.3787,389.9776 602.8887,403.8276" fill="none" id="backup_engine-to-compress" style="stroke:#000000;stroke-width:1;"/><polygon fill="#000000" points="599.4,407.4094,608.545,403.7531,602.8887,403.8276,602.8142,398.1712,599.4,407.4094" style="stroke:#000000;stroke-width:1;stroke-linejoin:miter;stroke-miterlimit:10;"/><text fill="#000000" font-family="Verdana" font-size="13" lengthAdjust="spacing" textLength="52.0001" x="667.11" y="352.8563">&#21387;&#32553;&#25968;&#25454;</text></g><!--link backup_engine to crypto--><g class="link" data-entity-1="ent0005" data-entity-2="ent0009" data-link-type="dependency" data-source-line="44" id="lnk26"><path codeLine="44" d="M593.31,308.1094 C590.02,324.9194 583.03,345.0994 568.26,356.7894 C544.05,375.9494 526.73,350.7094 499.26,364.7894 C480.33,374.4894 467.1787,388.1184 455.7187,403.4084" fill="none" id="backup_engine-to-crypto" style="stroke:#000000;stroke-width:1;"/><polygon fill="#000000" points="452.72,407.4094,461.3185,402.6067,455.7187,403.4084,454.917,397.8087,452.72,407.4094" style="stroke:#000000;stroke-width:1;stroke-linejoin:miter;stroke-miterlimit:10;"/><text fill="#000000" font-family="Verdana" font-size="13" lengthAdjust="spacing" textLength="52.0001" x="583.17" y="352.8563">&#21152;&#23494;&#25968;&#25454;</text></g><!--link backup_engine to pack--><g class="link" data-entity-1="ent0005" data-entity-2="ent0010" data-link-type="dependency" data-source-line="45" id="lnk27"><path codeLine="45" d="M553.19,308.2794 C521.69,329.0694 483,353.9794 474.26,356.7894 C451.77,364.0294 389.24,353.9394 368.26,364.7894 C349.99,374.2394 337.9898,387.8934 327.8098,403.3534" fill="none" id="backup_engine-to-pack" style="stroke:#000000;stroke-width:1;"/><polygon fill="#000000" points="325.06,407.5294,333.3504,402.2124,327.8098,403.3534,326.6688,397.8128,325.06,407.5294" style="stroke:#000000;stroke-width:1;stroke-linejoin:miter;stroke-miterlimit:10;"/><text fill="#000000" font-family="Verdana" font-size="13" lengthAdjust="spacing" textLength="52.0001" x="505.25" y="352.8563">&#25171;&#21253;&#24402;&#26723;</text></g><!--link backup_engine to fs--><g class="link" data-entity-1="ent0005" data-entity-2="ent0017" data-link-type="dependency" data-source-line="46" id="lnk28"><path codeLine="46" d="M643,308.2894 C660.35,317.5294 680.6,326.6894 700.26,331.7894 C741.16,342.4094 851.17,323.7294 890.26,339.7894 C924.76,353.9594 951.9993,380.7649 971.3093,403.6949" fill="none" id="backup_engine-to-fs" style="stroke:#000000;stroke-width:1;"/><polygon fill="#000000" points="974.53,407.5194,971.7923,398.0587,971.3093,403.6949,965.6731,403.2118,974.53,407.5194" style="stroke:#000000;stroke-width:1;stroke-linejoin:miter;stroke-miterlimit:10;"/><text fill="#000000" font-family="Verdana" font-size="13" lengthAdjust="spacing" textLength="52.0001" x="918.47" y="352.8563">&#35835;&#20889;&#25991;&#20214;</text></g><!--link backup_engine to metadata--><g class="link" data-entity-1="ent0005" data-entity-2="ent0018" data-link-type="dependency" data-source-line="47" id="lnk29"><path codeLine="47" d="M643.9,308.2694 C661.08,317.3294 681,326.3794 700.26,331.7894 C721.08,337.6494 779.06,328.0994 797.26,339.7894 C821.13,355.1194 833.7889,380.1899 841.6289,402.5999" fill="none" id="backup_engine-to-metadata" style="stroke:#000000;stroke-width:1;"/><polygon fill="#000000" points="843.28,407.3194,844.0836,397.5034,841.6289,402.5999,836.5324,400.1451,843.28,407.3194" style="stroke:#000000;stroke-width:1;stroke-linejoin:miter;stroke-miterlimit:10;"/><text fill="#000000" font-family="Verdana" font-size="13" lengthAdjust="spacing" textLength="65.0001" x="815.95" y="352.8563">&#20445;&#23384;&#20803;&#25968;&#25454;</text></g><!--link restore_engine to crypto--><g class="link" data-entity-1="ent0006" data-entity-2="ent0009" data-link-type="dependency" data-source-line="49" id="lnk30"><path codeLine="49" d="M367.03,283.3094 C288.37,289.4294 163.08,304.5494 134.26,339.7894 C129.47,345.6394 129.01,351.3594 134.26,356.7894 C152.34,375.4994 344.6,353.9694 368.26,364.7894 C388.04,373.8394 401.6739,387.8616 413.2739,403.5216" fill="none" id="restore_engine-to-crypto" style="stroke:#000000;stroke-width:1;"/><polygon fill="#000000" points="416.25,407.5394,414.1072,397.9265,413.2739,403.5216,407.6787,402.6883,416.25,407.5394" style="stroke:#000000;stroke-width:1;stroke-linejoin:miter;stroke-miterlimit:10;"/><text fill="#000000" font-family="Verdana" font-size="13" lengthAdjust="spacing" textLength="52.0001" x="135.26" y="352.8563">&#35299;&#23494;&#25968;&#25454;</text></g><!--link restore_engine to compress--><g class="link" data-entity-1="ent0006" data-entity-2="ent0008" data-link-type="dependency" data-source-line="50" id="lnk31"><path codeLine="50" d="M366.78,283.8394 C291.19,291.1194 182.75,309.9194 228.26,356.7894 C238.79,367.6394 486.34,358.8794 500.26,364.7894 C521.29,373.7194 536.4727,387.9153 549.5227,403.6053" fill="none" id="restore_engine-to-compress" style="stroke:#000000;stroke-width:1;"/><polygon fill="#000000" points="552.72,407.4494,550.0401,397.9721,549.5227,403.6053,543.8896,403.0878,552.72,407.4494" style="stroke:#000000;stroke-width:1;stroke-linejoin:miter;stroke-miterlimit:10;"/><text fill="#000000" font-family="Verdana" font-size="13" lengthAdjust="spacing" textLength="52.0001" x="229.26" y="352.8563">&#35299;&#21387;&#25968;&#25454;</text></g><!--link restore_engine to pack--><g class="link" data-entity-1="ent0006" data-entity-2="ent0010" data-link-type="dependency" data-source-line="51" id="lnk32"><path codeLine="51" d="M366.88,280.5894 C272.65,283.7094 105.8,295.5194 68.26,339.7894 C11,407.3194 178.6426,427.5645 261.9826,433.4945" fill="none" id="restore_engine-to-pack" style="stroke:#000000;stroke-width:1;"/><polygon fill="#000000" points="266.97,433.8494,258.2766,429.2207,261.9826,433.4945,257.7088,437.2005,266.97,433.8494" style="stroke:#000000;stroke-width:1;stroke-linejoin:miter;stroke-miterlimit:10;"/><text fill="#000000" font-family="Verdana" font-size="13" lengthAdjust="spacing" textLength="52.0001" x="69.26" y="352.8563">&#35299;&#21253;&#24402;&#26723;</text></g><!--link restore_engine to fs--><g class="link" data-entity-1="ent0006" data-entity-2="ent0017" data-link-type="dependency" data-source-line="52" id="lnk33"><path codeLine="52" d="M419.91,308.1594 C414.97,324.5694 412.97,344.3094 425.26,356.7894 C434.82,366.5194 903.55,359.8294 916.26,364.7894 C938.62,373.5194 955.366,387.8686 969.846,403.6186" fill="none" id="restore_engine-to-fs" style="stroke:#000000;stroke-width:1;"/><polygon fill="#000000" points="973.23,407.2994,970.0834,397.9667,969.846,403.6186,964.1941,403.3811,973.23,407.2994" style="stroke:#000000;stroke-width:1;stroke-linejoin:miter;stroke-miterlimit:10;"/><text fill="#000000" font-family="Verdana" font-size="13" lengthAdjust="spacing" textLength="39" x="426.26" y="352.8563">&#20889;&#25991;&#20214;</text></g><!--link restore_engine to metadata--><g class="link" data-entity-1="ent0006" data-entity-2="ent0018" data-link-type="dependency" data-source-line="53" id="lnk34"><path codeLine="53" d="M366.97,299.9094 C331.98,314.0394 300.18,334.3094 322.26,356.7894 C330.86,365.5494 752.73,360.5594 764.26,364.7894 C788.09,373.5494 806.6034,388.275 822.5434,404.115" fill="none" id="restore_engine-to-metadata" style="stroke:#000000;stroke-width:1;"/><polygon fill="#000000" points="826.09,407.6394,822.5256,398.4582,822.5434,404.115,816.8865,404.1328,826.09,407.6394" style="stroke:#000000;stroke-width:1;stroke-linejoin:miter;stroke-miterlimit:10;"/><text fill="#000000" font-family="Verdana" font-size="13" lengthAdjust="spacing" textLength="65.0001" x="323.26" y="352.8563">&#24674;&#22797;&#20803;&#25968;&#25454;</text></g><!--link pack to storage--><g class="link" data-entity-1="ent0010" data-entity-2="ent0019" data-link-type="dependency" data-source-line="55" id="lnk35"><path codeLine="55" d="M309.26,466.8494 C309.26,489.8594 309.26,516.9694 309.26,539.9694" fill="none" id="pack-to-storage" style="stroke:#000000;stroke-width:1;"/><polygon fill="#000000" points="309.26,544.9694,313.26,535.9694,309.26,539.9694,305.26,535.9694,309.26,544.9694" style="stroke:#000000;stroke-width:1;stroke-linejoin:miter;stroke-miterlimit:10;"/><text fill="#000000" font-family="Verdana" font-size="13" lengthAdjust="spacing" textLength="78.0001" x="310.26" y="511.4563">&#36755;&#20986;&#24402;&#26723;&#25991;&#20214;</text></g><!--link scheduler to backup_engine--><g class="link" data-entity-1="ent0013" data-entity-2="ent0005" data-link-type="dependency" data-source-line="56" id="lnk36"><path codeLine="56" d="M755.04,151.6194 C720.01,179.3794 671.158,218.113 636.208,245.823" fill="none" id="scheduler-to-backup_engine" style="stroke:#000000;stroke-width:1;"/><polygon fill="#000000" points="632.29,248.9294,641.8274,246.4723,636.208,245.823,636.8573,240.2036,632.29,248.9294" style="stroke:#000000;stroke-width:1;stroke-linejoin:miter;stroke-miterlimit:10;"/><text fill="#000000" font-family="Verdana" font-size="13" lengthAdjust="spacing" textLength="52.0001" x="717.96" y="194.2663">&#35302;&#21457;&#22791;&#20221;</text></g><!--link scheduler to retention--><g class="link" data-entity-1="ent0013" data-entity-2="ent0014" data-link-type="dependency" data-source-line="57" id="lnk37"><path codeLine="57" d="M828.27,151.5494 C839.48,160.6894 851.64,171.0694 862.26,181.1994 C884.92,202.8094 905.364,225.5549 922.294,245.2849" fill="none" id="scheduler-to-retention" style="stroke:#000000;stroke-width:1;"/><polygon fill="#000000" points="925.55,249.0794,922.7248,239.6444,922.294,245.2849,916.6536,244.8541,925.55,249.0794" style="stroke:#000000;stroke-width:1;stroke-linejoin:miter;stroke-miterlimit:10;"/><text fill="#000000" font-family="Verdana" font-size="13" lengthAdjust="spacing" textLength="52.0001" x="878.35" y="194.2663">&#28165;&#29702;&#24555;&#29031;</text></g><!--link scheduler to store--><g class="link" data-entity-1="ent0013" data-entity-2="ent0015" data-link-type="dependency" data-source-line="58" id="lnk38"><path codeLine="58" d="M789.4,151.6194 C787.6,179.3794 785.2223,216.2298 783.4323,243.9398" fill="none" id="scheduler-to-store" style="stroke:#000000;stroke-width:1;"/><polygon fill="#000000" points="783.11,248.9294,787.6818,240.2059,783.4323,243.9398,779.6985,239.6902,783.11,248.9294" style="stroke:#000000;stroke-width:1;stroke-linejoin:miter;stroke-miterlimit:10;"/><text fill="#000000" font-family="Verdana" font-size="13" lengthAdjust="spacing" textLength="65.0001" x="788.45" y="194.2663">&#25345;&#20037;&#21270;&#35745;&#21010;</text></g><?plantuml-src XPJVJzDG5CVV-rTSnui-a62GH7qmqQKr99eGYMyafdHbD7JjqdOFn9W0Sy1W3W4t8O1GDXX6-HKJHBgnVsRtjZpnBtZlRRksK7Hxs_cSSxxddE_TFMDSp8WWA_EImkWJafBbDJu319dNzHUgbXArf2gh6kZffvzR22zCf3KrfwGyZ7j8lWnZI8Oi0X8MDM3_icnh6ttxsB7EuCRbTNF-oZo3fpFNpIB3P373fqMGiBySeFdVgBm7bse9mElWxI3eOHzpVHmBtZF0RGWIoLU302wtEbRTCKkK4sGf2B_4MRW7REtQbTBLrYubqZc9-H1gXNREOJiFcnMqMgP0KjL4B9xZ-jc-S3CoG2xBAcb94KSKM9_hMArGsYWDlnDfFCXw8-e6BkYdeUbTMFyKIjFSk9yNLWONjfry2nsOSEjhWeu_m3w9ZAzciZXVLpMifxneDx_xCDc45mnmLX6qoQn1wOKTU3mRfcaaO8VejR3UuYei5K8WKHTWd2GR17FQSyYgXx0n6eYCuvpauSM-Ut_A30lZOYedasNtimFSmErb-mJfGBFX-W5DrVr0UD66g1YIgWofiYHCZYYTzfPTMRSFgtPbprkrHmH9VeDXSWFSvCY4yolmS0tEU7t8xz6ZR5_OvfHpT8cgBOeCAcCQZqT8ie_OP7W4RlZvg6vel41QuarMiM7EFFilj9nJqrrKw42lHODFyGQFxrF8eye9-dH4cOptEn7YeMurL-c8SXzj_eIR9tPjsjvOUz1LZWMJ10dqzZwB-XCy1QZOm8_6jN4NYhgnIxckPV3J-Nyf7_ftAIPQWoIubi6WVRXnDLLq9upXV6DZqZCztLGSIKrDEDVkTt7ak5GWyJfihI2p5gUFT7IEBJYxVgSs_rAOnFOZv_4FoJ0t5X8Hw3HgWS0uC9YPeEN5kr5l689rXud1w3J1A354Q1RlNokOXJOXa6Spql1o5SvTk0szejrN6kiQfx4FbvOzrqJHxaiblSyBzkTPsFvX5netC2gP8ANfpfy2B5NTzyly1G00?></g></svg>