<svg xmlns="http://www.w3.org/2000/svg" xmlns:xlink="http://www.w3.org/1999/xlink" contentStyleType="text/css" data-diagram-type="CLASS" height="1173px" preserveAspectRatio="none" style="width:2975px;height:1173px;background:#FFFFFF;" version="1.1" viewBox="0 0 2975 1173" width="2975px" zoomAndPan="magnify"><?plantuml 1.2026.6?><defs/><g><g class="title" data-source-line="5"><text fill="#000000" font-family="Verdana" font-size="22" font-weight="700" lengthAdjust="spacing" textLength="374.0012" x="1299.7014" y="35.4209">&#23376;&#31995;&#32479;&#19971;&#65306;&#25991;&#20214;&#31995;&#32479;&#25277;&#35937;&#23376;&#31995;&#32479;&#26500;&#20214;&#22270;</text></g><!--cluster ?????????--><g class="cluster" data-qualified-name="........." data-source-line="7" id="ent0001"><path d="M13.5,144.8794 L140.4995,144.8794 A3.75,3.75 0 0 1 142.9995,147.3794 L149.9995,167.1762 L2731.5,167.1762 A2.5,2.5 0 0 1 2734,169.6762 L2734,1156.1294 A2.5,2.5 0 0 1 2731.5,1158.6294 L13.5,1158.6294 A2.5,2.5 0 0 1 11,1156.1294 L11,147.3794 A2.5,2.5 0 0 1 13.5,144.8794" fill="#FFFFFF" style="stroke:#000000;stroke-width:1;"/><line style="stroke:#000000;stroke-width:1;" x1="11" x2="149.9995" y1="167.1762" y2="167.1762"/><text fill="#000000" font-family="Verdana" font-size="14" font-weight="700" lengthAdjust="spacing" textLength="125.9995" x="15" y="159.8745">&#25991;&#20214;&#31995;&#32479;&#25277;&#35937;&#23376;&#31995;&#32479;</text></g><!--cluster InterfaceLayer--><g class="cluster" data-qualified-name="..........InterfaceLayer" data-source-line="9" id="ent0002"><path d="M564.5,187.8794 L607.4998,187.8794 A3.75,3.75 0 0 1 609.9998,190.3794 L616.9998,210.1762 L989.5,210.1762 A2.5,2.5 0 0 1 992,212.6762 L992,392.7594 A2.5,2.5 0 0 1 989.5,395.2594 L564.5,395.2594 A2.5,2.5 0 0 1 562,392.7594 L562,190.3794 A2.5,2.5 0 0 1 564.5,187.8794" fill="#E8F0FE" style="stroke:#000000;stroke-width:1;"/><line style="stroke:#000000;stroke-width:1;" x1="562" x2="616.9998" y1="210.1762" y2="210.1762"/><text fill="#000000" font-family="Verdana" font-size="14" font-weight="700" lengthAdjust="spacing" textLength="41.9998" x="566" y="202.8745">&#25509;&#21475;&#23618;</text></g><!--cluster Platform--><g class="cluster" data-qualified-name="..........Platform" data-source-line="20" id="ent0004"><path d="M922.5,630.8994 L1090.9459,630.8994 A3.75,3.75 0 0 1 1093.4459,633.3994 L1100.4459,653.1963 L1287.5,653.1963 A2.5,2.5 0 0 1 1290,655.6963 L1290,804.8894 A2.5,2.5 0 0 1 1287.5,807.3894 L922.5,807.3894 A2.5,2.5 0 0 1 920,804.8894 L920,633.3994 A2.5,2.5 0 0 1 922.5,630.8994" fill="#FCE4EC" style="stroke:#000000;stroke-width:1;"/><line style="stroke:#000000;stroke-width:1;" x1="920" x2="1100.4459" y1="653.1963" y2="653.1963"/><text fill="#000000" font-family="Verdana" font-size="14" font-weight="700" lengthAdjust="spacing" textLength="167.4459" x="924" y="645.8945">&#24179;&#21488;&#26816;&#27979;&#65288;platform.h&#65289;</text></g><!--cluster LocalFs--><g class="cluster" data-qualified-name="..........LocalFs" data-source-line="30" id="ent0006"><path d="M37.5,428.2594 L189.0889,428.2594 A3.75,3.75 0 0 1 191.5889,430.7594 L198.5889,466.8531 L893.5,466.8531 A2.5,2.5 0 0 1 896,469.3531 L896,957.5394 A2.5,2.5 0 0 1 893.5,960.0394 L37.5,960.0394 A2.5,2.5 0 0 1 35,957.5394 L35,430.7594 A2.5,2.5 0 0 1 37.5,428.2594" fill="#E8F5E9" style="stroke:#000000;stroke-width:1;"/><line style="stroke:#000000;stroke-width:1;" x1="35" x2="198.5889" y1="466.8531" y2="466.8531"/><text fill="#000000" font-family="Verdana" font-size="14" font-weight="700" lengthAdjust="spacing" textLength="150.5889" x="39" y="443.2545">LocalFsAbstraction</text><text fill="#000000" font-family="Verdana" font-size="14" font-weight="700" lengthAdjust="spacing" textLength="111.9995" x="58.2947" y="459.5514">&#26412;&#22320;&#25991;&#20214;&#31995;&#32479;&#23454;&#29616;</text></g><!--cluster MetadataPkg--><g class="cluster" data-qualified-name="..........MetadataPkg" data-source-line="42" id="ent0013"><path d="M1316.5,648.3494 L1392.6748,648.3494 A3.75,3.75 0 0 1 1395.1748,650.8494 L1402.1748,686.9431 L2148.5,686.9431 A2.5,2.5 0 0 1 2151,689.4431 L2151,957.5394 A2.5,2.5 0 0 1 2148.5,960.0394 L1316.5,960.0394 A2.5,2.5 0 0 1 1314,957.5394 L1314,650.8494 A2.5,2.5 0 0 1 1316.5,648.3494" fill="#FFF3E0" style="stroke:#000000;stroke-width:1;"/><line style="stroke:#000000;stroke-width:1;" x1="1314" x2="1402.1748" y1="686.9431" y2="686.9431"/><text fill="#000000" font-family="Verdana" font-size="14" font-weight="700" lengthAdjust="spacing" textLength="75.1748" x="1318" y="663.3445">Metadata</text><text fill="#000000" font-family="Verdana" font-size="14" font-weight="700" lengthAdjust="spacing" textLength="69.9997" x="1320.5876" y="679.6414">&#20803;&#25968;&#25454;&#27169;&#22359;</text></g><!--cluster SpecialFile--><g class="cluster" data-qualified-name="..........SpecialFile" data-source-line="50" id="ent0019"><path d="M37.5,1009.0394 L124.0996,1009.0394 A3.75,3.75 0 0 1 126.5996,1011.5394 L133.5996,1047.6331 L1160.5,1047.6331 A2.5,2.5 0 0 1 1163,1050.1331 L1163,1132.1294 A2.5,2.5 0 0 1 1160.5,1134.6294 L37.5,1134.6294 A2.5,2.5 0 0 1 35,1132.1294 L35,1011.5394 A2.5,2.5 0 0 1 37.5,1009.0394" fill="#F3E5F5" style="stroke:#000000;stroke-width:1;"/><line style="stroke:#000000;stroke-width:1;" x1="35" x2="133.5996" y1="1047.6331" y2="1047.6331"/><text fill="#000000" font-family="Verdana" font-size="14" font-weight="700" lengthAdjust="spacing" textLength="85.5996" x="39" y="1024.0345">SpecialFile</text><text fill="#000000" font-family="Verdana" font-size="14" font-weight="700" lengthAdjust="spacing" textLength="83.9996" x="39.8" y="1040.3314">&#29305;&#27530;&#25991;&#20214;&#22788;&#29702;</text></g><!--cluster PathMapperPkg--><g class="cluster" data-qualified-name="..........PathMapperPkg" data-source-line="58" id="ent0025"><path d="M2177.5,648.3494 L2274.6885,648.3494 A3.75,3.75 0 0 1 2277.1885,650.8494 L2284.1885,686.9431 L2707.5,686.9431 A2.5,2.5 0 0 1 2710,689.4431 L2710,957.5394 A2.5,2.5 0 0 1 2707.5,960.0394 L2177.5,960.0394 A2.5,2.5 0 0 1 2175,957.5394 L2175,650.8494 A2.5,2.5 0 0 1 2177.5,648.3494" fill="#E0F7FA" style="stroke:#000000;stroke-width:1;"/><line style="stroke:#000000;stroke-width:1;" x1="2175" x2="2284.1885" y1="686.9431" y2="686.9431"/><text fill="#000000" font-family="Verdana" font-size="14" font-weight="700" lengthAdjust="spacing" textLength="96.1885" x="2179" y="663.3445">PathMapper</text><text fill="#000000" font-family="Verdana" font-size="14" font-weight="700" lengthAdjust="spacing" textLength="83.9996" x="2185.0944" y="679.6414">&#36335;&#24452;&#26144;&#23556;&#24037;&#20855;</text></g><!--class FSAbstraction--><g class="entity" data-qualified-name="..........InterfaceLayer.FSAbstraction" data-source-line="10" id="ent0003"><rect fill="#F1F1F1" height="156.375" rx="2.5" ry="2.5" style="stroke:#333333;stroke-width:1;" width="398.165" x="577.92" y="222.8794"/><ellipse cx="717.2528" cy="244.1762" fill="#FFFFFF" rx="9" ry="9" style="stroke:#000000;stroke-width:1;"/><path d="M713.9559,238.52 L713.9559,239.9106 L716.1434,239.9106 L713.2371,247.0356 L712.2528,247.0356 L712.2528,248.4262 L716.284,248.4262 L716.284,247.0356 L714.7684,247.0356 L715.4246,245.3637 L719.2528,245.3637 L719.9246,247.0356 L718.4246,247.0356 L718.4246,248.4262 L722.4559,248.4262 L722.4559,247.0356 L721.5028,247.0356 L718.0496,238.52 L713.9559,238.52 Z M718.7059,243.9731 L716.0028,243.9731 L717.3465,240.7231 L718.7059,243.9731 Z " fill="#000000"/><text fill="#000000" font-family="Verdana" font-size="14" font-style="italic" lengthAdjust="spacing" textLength="97.0361" x="742.2345" y="240.8745">FSAbstraction</text><text fill="#000000" font-family="Verdana" font-size="14" font-style="italic" lengthAdjust="spacing" textLength="111.9995" x="734.7528" y="257.1714">&#25991;&#20214;&#31995;&#32479;&#25277;&#35937;&#25509;&#21475;</text><line style="stroke:#333333;stroke-width:1;" x1="578.92" x2="975.085" y1="265.4731" y2="265.4731"/><line style="stroke:#333333;stroke-width:1;" x1="578.92" x2="975.085" y1="273.4731" y2="273.4731"/><g data-visibility-modifier="PUBLIC_METHOD"><ellipse cx="588.92" cy="287.1216" fill="#FFFFFF" rx="3" ry="3" style="stroke:#000000;stroke-width:1;"/></g><text fill="#000000" font-family="Verdana" font-size="14" lengthAdjust="spacing" textLength="303.2832" x="595.92" y="290.4682">walk(root) : Expected&lt;vector&lt;FileEntry&gt;&gt;</text><g data-visibility-modifier="PUBLIC_METHOD"><ellipse cx="588.92" cy="303.4184" fill="#FFFFFF" rx="3" ry="3" style="stroke:#000000;stroke-width:1;"/></g><text fill="#000000" font-family="Verdana" font-size="14" lengthAdjust="spacing" textLength="275.7549" x="595.92" y="306.7651">read(path) : Expected&lt;vector&lt;char&gt;&gt;</text><g data-visibility-modifier="PUBLIC_METHOD"><ellipse cx="588.92" cy="319.7153" fill="#FFFFFF" rx="3" ry="3" style="stroke:#000000;stroke-width:1;"/></g><text fill="#000000" font-family="Verdana" font-size="14" lengthAdjust="spacing" textLength="290.582" x="595.92" y="323.062">write(path, data, type) : Expected&lt;void&gt;</text><g data-visibility-modifier="PUBLIC_METHOD"><ellipse cx="588.92" cy="336.0122" fill="#FFFFFF" rx="3" ry="3" style="stroke:#000000;stroke-width:1;"/></g><text fill="#000000" font-family="Verdana" font-size="14" lengthAdjust="spacing" textLength="215.0518" x="595.92" y="339.3589">mkdir(path) : Expected&lt;void&gt;</text><g data-visibility-modifier="PUBLIC_METHOD"><ellipse cx="588.92" cy="352.3091" fill="#FFFFFF" rx="3" ry="3" style="stroke:#000000;stroke-width:1;"/></g><text fill="#000000" font-family="Verdana" font-size="14" lengthAdjust="spacing" textLength="309.5723" x="595.92" y="355.6557">readMetadata(path) : Expected&lt;Metadata&gt;</text><g data-visibility-modifier="PUBLIC_METHOD"><ellipse cx="588.92" cy="368.6059" fill="#FFFFFF" rx="3" ry="3" style="stroke:#000000;stroke-width:1;"/></g><text fill="#000000" font-family="Verdana" font-size="14" lengthAdjust="spacing" textLength="374.165" x="595.92" y="371.9526">restoreMetadata(path, meta, own) : Expected&lt;void&gt;</text></g><!--class PlatformMacros--><g class="entity" data-qualified-name="..........Platform.PlatformMacros" data-source-line="21" id="ent0005"><rect fill="#F1F1F1" height="125.4844" rx="2.5" ry="2.5" style="stroke:#333333;stroke-width:1;" width="338.6484" x="935.68" y="665.8994"/><ellipse cx="1066.2544" cy="679.8994" fill="#FFFFFF" rx="9" ry="9" style="stroke:#000000;stroke-width:1;"/><path d="M1069.6606,681.8681 C1068.9419,682.54 1067.645,683.7119 1065.895,683.7119 C1063.6762,683.7119 1062.7075,681.7744 1062.7075,679.8213 C1062.7075,677.4306 1064.1919,676.165 1065.8325,676.165 C1067.8481,676.165 1068.0669,677.6806 1068.2387,678.7744 L1069.6606,678.5869 C1069.5669,678.0088 1069.4887,677.4306 1069.4887,676.4619 C1069.4887,675.79 1069.5356,675.2431 1069.5669,674.8213 L1068.1606,674.8213 L1068.0512,675.7744 C1067.4575,675.2431 1066.8169,674.6963 1065.5981,674.6963 C1063.5512,674.6963 1061.145,676.5244 1061.145,679.8369 C1061.145,682.7744 1062.9106,685.165 1065.9106,685.165 C1068.3481,685.165 1070.0512,683.54 1070.645,682.9619 L1069.6606,681.8681 Z " fill="#000000"/><text fill="#000000" font-family="Verdana" font-size="14" lengthAdjust="spacing" textLength="69.9997" x="1083.7544" y="684.7461">&#24179;&#21488;&#23439;&#23450;&#20041;</text><line style="stroke:#333333;stroke-width:1;" x1="936.68" x2="1273.3284" y1="693.8994" y2="693.8994"/><line style="stroke:#333333;stroke-width:1;" x1="936.68" x2="1273.3284" y1="701.8994" y2="701.8994"/><text fill="#000000" font-family="Verdana" font-size="14" lengthAdjust="spacing" textLength="325.1992" x="941.68" y="718.8945">BACKER_PLATFORM_POSIX = 1 (Linux/macOS)</text><text fill="#000000" font-family="Verdana" font-size="14" lengthAdjust="spacing" textLength="326.6484" x="941.68" y="735.1914">BACKER_PLATFORM_WINDOWS = 1 (Windows)</text><text fill="#000000" font-family="Verdana" font-size="14" lengthAdjust="spacing" textLength="233.6179" x="941.68" y="751.4882">BACKER_STAT_ATIME(st) &#24179;&#21488;&#36866;&#37197;</text><text fill="#000000" font-family="Verdana" font-size="14" lengthAdjust="spacing" textLength="236.1199" x="941.68" y="767.7851">BACKER_STAT_MTIME(st) &#24179;&#21488;&#36866;&#37197;</text><text fill="#000000" font-family="Verdana" font-size="14" lengthAdjust="spacing" textLength="233.8162" x="941.68" y="784.082">BACKER_STAT_CTIME(st) &#24179;&#21488;&#36866;&#37197;</text></g><!--class LocalFsClass--><g class="entity" data-qualified-name="..........LocalFs.LocalFsClass" data-source-line="31" id="ent0007"><rect fill="#F1F1F1" height="76.5938" rx="2.5" ry="2.5" style="stroke:#333333;stroke-width:1;" width="205.7372" x="674.13" y="479.2594"/><ellipse cx="707.7232" cy="493.2594" fill="#FFFFFF" rx="9" ry="9" style="stroke:#000000;stroke-width:1;"/><path d="M711.1294,495.2281 C710.4107,495.9 709.1138,497.0719 707.3638,497.0719 C705.145,497.0719 704.1763,495.1344 704.1763,493.1813 C704.1763,490.7906 705.6607,489.525 707.3013,489.525 C709.3169,489.525 709.5357,491.0406 709.7075,492.1344 L711.1294,491.9469 C711.0357,491.3688 710.9575,490.7906 710.9575,489.8219 C710.9575,489.15 711.0044,488.6031 711.0357,488.1813 L709.6294,488.1813 L709.52,489.1344 C708.9263,488.6031 708.2857,488.0563 707.0669,488.0563 C705.02,488.0563 702.6138,489.8844 702.6138,493.1969 C702.6138,496.1344 704.3794,498.525 707.3794,498.525 C709.8169,498.525 711.52,496.9 712.1138,496.3219 L711.1294,495.2281 Z " fill="#000000"/><text fill="#000000" font-family="Verdana" font-size="14" lengthAdjust="spacing" textLength="131.9746" x="724.2994" y="498.1061">LocalFsAbstraction</text><line style="stroke:#333333;stroke-width:1;" x1="675.13" x2="878.8672" y1="507.2594" y2="507.2594"/><text fill="#000000" font-family="Verdana" font-size="14" lengthAdjust="spacing" textLength="181.0358" x="680.13" y="524.2545">&#23454;&#29616;&#20840;&#37096;FSAbstraction&#26041;&#27861;</text><text fill="#000000" font-family="Verdana" font-size="14" lengthAdjust="spacing" textLength="193.7372" x="680.13" y="540.5514">&#20351;&#29992;std::filesystem + POSIX</text><line style="stroke:#333333;stroke-width:1;" x1="675.13" x2="878.8672" y1="547.8531" y2="547.8531"/></g><!--class walkImpl--><g class="entity" data-qualified-name="..........LocalFs.walkImpl" data-source-line="35" id="ent0008"><rect fill="#F1F1F1" height="74.8906" rx="2.5" ry="2.5" style="stroke:#333333;stroke-width:1;" width="221.8535" x="469.07" y="691.1994"/><ellipse cx="482.07" cy="720.6447" fill="#FFFFFF" rx="9" ry="9" style="stroke:#000000;stroke-width:1;"/><path d="M485.4763,722.6134 C484.7575,723.2853 483.4606,724.4572 481.7106,724.4572 C479.4919,724.4572 478.5231,722.5197 478.5231,720.5666 C478.5231,718.1759 480.0075,716.9103 481.6481,716.9103 C483.6638,716.9103 483.8825,718.4259 484.0544,719.5197 L485.4763,719.3322 C485.3825,718.7541 485.3044,718.1759 485.3044,717.2072 C485.3044,716.5353 485.3513,715.9884 485.3825,715.5666 L483.9763,715.5666 L483.8669,716.5197 C483.2731,715.9884 482.6325,715.4416 481.4138,715.4416 C479.3669,715.4416 476.9606,717.2697 476.9606,720.5822 C476.9606,723.5197 478.7263,725.9103 481.7263,725.9103 C484.1638,725.9103 485.8669,724.2853 486.4606,723.7072 L485.4763,722.6134 Z " fill="#000000"/><text fill="#000000" font-family="Verdana" font-size="14" lengthAdjust="spacing" textLength="42.9502" x="569.5217" y="709.1945">walk()</text><text fill="#000000" font-family="Verdana" font-size="14" lengthAdjust="spacing" textLength="193.8535" x="494.07" y="725.4914">recursive_directory_iterator</text><text fill="#000000" font-family="Verdana" font-size="14" lengthAdjust="spacing" textLength="118.2957" x="531.8489" y="741.7882">+ lstat() &#31867;&#22411;&#26816;&#27979;</text><line style="stroke:#333333;stroke-width:1;" x1="470.07" x2="689.9235" y1="750.09" y2="750.09"/><line style="stroke:#333333;stroke-width:1;" x1="470.07" x2="689.9235" y1="758.09" y2="758.09"/></g><!--class readImpl--><g class="entity" data-qualified-name="..........LocalFs.readImpl" data-source-line="36" id="ent0009"><rect fill="#F1F1F1" height="58.5938" rx="2.5" ry="2.5" style="stroke:#333333;stroke-width:1;" width="162.6953" x="271.65" y="699.3494"/><ellipse cx="284.65" cy="720.6463" fill="#FFFFFF" rx="9" ry="9" style="stroke:#000000;stroke-width:1;"/><path d="M288.0563,722.615 C287.3375,723.2869 286.0406,724.4588 284.2906,724.4588 C282.0719,724.4588 281.1031,722.5213 281.1031,720.5681 C281.1031,718.1775 282.5875,716.9119 284.2281,716.9119 C286.2438,716.9119 286.4625,718.4275 286.6344,719.5213 L288.0563,719.3338 C287.9625,718.7556 287.8844,718.1775 287.8844,717.2088 C287.8844,716.5369 287.9313,715.99 287.9625,715.5681 L286.5563,715.5681 L286.4469,716.5213 C285.8531,715.99 285.2125,715.4431 283.9938,715.4431 C281.9469,715.4431 279.5406,717.2713 279.5406,720.5838 C279.5406,723.5213 281.3063,725.9119 284.3063,725.9119 C286.7438,725.9119 288.4469,724.2869 289.0406,723.7088 L288.0563,722.615 Z " fill="#000000"/><text fill="#000000" font-family="Verdana" font-size="14" lengthAdjust="spacing" textLength="42.7588" x="342.6183" y="717.3445">read()</text><text fill="#000000" font-family="Verdana" font-size="14" lengthAdjust="spacing" textLength="134.6953" x="296.65" y="733.6414">ifstream + prealloc</text><line style="stroke:#333333;stroke-width:1;" x1="272.65" x2="433.3453" y1="741.9431" y2="741.9431"/><line style="stroke:#333333;stroke-width:1;" x1="272.65" x2="433.3453" y1="749.9431" y2="749.9431"/></g><!--class writeImpl--><g class="entity" data-qualified-name="..........LocalFs.writeImpl" data-source-line="37" id="ent0010"><rect fill="#F1F1F1" height="74.8906" rx="2.5" ry="2.5" style="stroke:#333333;stroke-width:1;" width="186.0811" x="50.96" y="691.1994"/><ellipse cx="63.96" cy="720.6447" fill="#FFFFFF" rx="9" ry="9" style="stroke:#000000;stroke-width:1;"/><path d="M67.3663,722.6134 C66.6475,723.2853 65.3506,724.4572 63.6006,724.4572 C61.3819,724.4572 60.4131,722.5197 60.4131,720.5666 C60.4131,718.1759 61.8975,716.9103 63.5381,716.9103 C65.5538,716.9103 65.7725,718.4259 65.9444,719.5197 L67.3663,719.3322 C67.2725,718.7541 67.1944,718.1759 67.1944,717.2072 C67.1944,716.5353 67.2413,715.9884 67.2725,715.5666 L65.8663,715.5666 L65.7569,716.5197 C65.1631,715.9884 64.5225,715.4416 63.3038,715.4416 C61.2569,715.4416 58.8506,717.2697 58.8506,720.5822 C58.8506,723.5197 60.6163,725.9103 63.6163,725.9103 C66.0538,725.9103 67.7569,724.2853 68.3506,723.7072 L67.3663,722.6134 Z " fill="#000000"/><text fill="#000000" font-family="Verdana" font-size="14" lengthAdjust="spacing" textLength="46.1221" x="131.9395" y="709.1945">write()</text><text fill="#000000" font-family="Verdana" font-size="14" lengthAdjust="spacing" textLength="158.0811" x="75.96" y="725.4914">ofstream 64KB chunks</text><text fill="#000000" font-family="Verdana" font-size="14" lengthAdjust="spacing" textLength="100.782" x="104.6095" y="741.7882">&#25353;FileType&#20998;&#27966;</text><line style="stroke:#333333;stroke-width:1;" x1="51.96" x2="236.0411" y1="750.09" y2="750.09"/><line style="stroke:#333333;stroke-width:1;" x1="51.96" x2="236.0411" y1="758.09" y2="758.09"/></g><!--class mkdirImpl--><g class="entity" data-qualified-name="..........LocalFs.mkdirImpl" data-source-line="38" id="ent0011"><rect fill="#F1F1F1" height="58.5938" rx="2.5" ry="2.5" style="stroke:#333333;stroke-width:1;" width="154.1982" x="725.9" y="699.3494"/><ellipse cx="738.9" cy="720.6463" fill="#FFFFFF" rx="9" ry="9" style="stroke:#000000;stroke-width:1;"/><path d="M742.3063,722.615 C741.5875,723.2869 740.2906,724.4588 738.5406,724.4588 C736.3219,724.4588 735.3531,722.5213 735.3531,720.5681 C735.3531,718.1775 736.8375,716.9119 738.4781,716.9119 C740.4938,716.9119 740.7125,718.4275 740.8844,719.5213 L742.3063,719.3338 C742.2125,718.7556 742.1344,718.1775 742.1344,717.2088 C742.1344,716.5369 742.1813,715.99 742.2125,715.5681 L740.8063,715.5681 L740.6969,716.5213 C740.1031,715.99 739.4625,715.4431 738.2438,715.4431 C736.1969,715.4431 733.7906,717.2713 733.7906,720.5838 C733.7906,723.5213 735.5563,725.9119 738.5563,725.9119 C740.9938,725.9119 742.6969,724.2869 743.2906,723.7088 L742.3063,722.615 Z " fill="#000000"/><text fill="#000000" font-family="Verdana" font-size="14" lengthAdjust="spacing" textLength="51.2012" x="788.3985" y="717.3445">mkdir()</text><text fill="#000000" font-family="Verdana" font-size="14" lengthAdjust="spacing" textLength="126.1982" x="750.9" y="733.6414">create_directories</text><line style="stroke:#333333;stroke-width:1;" x1="726.9" x2="879.0982" y1="741.9431" y2="741.9431"/><line style="stroke:#333333;stroke-width:1;" x1="726.9" x2="879.0982" y1="749.9431" y2="749.9431"/></g><!--class makeFileEntry--><g class="entity" data-qualified-name="..........LocalFs.makeFileEntry" data-source-line="39" id="ent0012"><rect fill="#F1F1F1" height="58.5938" rx="2.5" ry="2.5" style="stroke:#333333;stroke-width:1;" width="209.7194" x="607.14" y="885.4394"/><ellipse cx="620.14" cy="906.7362" fill="#FFFFFF" rx="9" ry="9" style="stroke:#000000;stroke-width:1;"/><path d="M623.5463,908.705 C622.8275,909.3769 621.5306,910.5487 619.7806,910.5487 C617.5619,910.5487 616.5931,908.6112 616.5931,906.6581 C616.5931,904.2675 618.0775,903.0019 619.7181,903.0019 C621.7338,903.0019 621.9525,904.5175 622.1244,905.6112 L623.5463,905.4237 C623.4525,904.8456 623.3744,904.2675 623.3744,903.2987 C623.3744,902.6269 623.4213,902.08 623.4525,901.6581 L622.0463,901.6581 L621.9369,902.6112 C621.3431,902.08 620.7025,901.5331 619.4838,901.5331 C617.4369,901.5331 615.0306,903.3612 615.0306,906.6737 C615.0306,909.6112 616.7963,912.0019 619.7963,912.0019 C622.2338,912.0019 623.9369,910.3769 624.5306,909.7987 L623.5463,908.705 Z " fill="#000000"/><text fill="#000000" font-family="Verdana" font-size="14" lengthAdjust="spacing" textLength="111.5557" x="667.2219" y="903.4345">makeFileEntry()</text><text fill="#000000" font-family="Verdana" font-size="14" lengthAdjust="spacing" textLength="181.7194" x="632.14" y="919.7314">lstat + &#25552;&#21462;UID/GID/&#26102;&#38388;&#25139;</text><line style="stroke:#333333;stroke-width:1;" x1="608.14" x2="815.8594" y1="928.0331" y2="928.0331"/><line style="stroke:#333333;stroke-width:1;" x1="608.14" x2="815.8594" y1="936.0331" y2="936.0331"/></g><!--class readMetaFree--><g class="entity" data-qualified-name="..........MetadataPkg.readMetaFree" data-source-line="43" id="ent0014"><rect fill="#F1F1F1" height="58.5938" rx="2.5" ry="2.5" style="stroke:#333333;stroke-width:1;" width="137.0537" x="1330.47" y="699.3494"/><ellipse cx="1343.47" cy="720.6463" fill="#FFFFFF" rx="9" ry="9" style="stroke:#000000;stroke-width:1;"/><path d="M1346.8763,722.615 C1346.1575,723.2869 1344.8606,724.4588 1343.1106,724.4588 C1340.8919,724.4588 1339.9231,722.5213 1339.9231,720.5681 C1339.9231,718.1775 1341.4075,716.9119 1343.0481,716.9119 C1345.0638,716.9119 1345.2825,718.4275 1345.4544,719.5213 L1346.8763,719.3338 C1346.7825,718.7556 1346.7044,718.1775 1346.7044,717.2088 C1346.7044,716.5369 1346.7513,715.99 1346.7825,715.5681 L1345.3763,715.5681 L1345.2669,716.5213 C1344.6731,715.99 1344.0325,715.4431 1342.8138,715.4431 C1340.7669,715.4431 1338.3606,717.2713 1338.3606,720.5838 C1338.3606,723.5213 1340.1263,725.9119 1343.1263,725.9119 C1345.5638,725.9119 1347.2669,724.2869 1347.8606,723.7088 L1346.8763,722.615 Z " fill="#000000"/><text fill="#000000" font-family="Verdana" font-size="14" lengthAdjust="spacing" textLength="109.0537" x="1355.47" y="717.3445">readMetadata()</text><text fill="#000000" font-family="Verdana" font-size="14" lengthAdjust="spacing" textLength="107.3718" x="1356.3109" y="733.6414">lstat + &#25552;&#21462;&#23383;&#27573;</text><line style="stroke:#333333;stroke-width:1;" x1="1331.47" x2="1466.5237" y1="741.9431" y2="741.9431"/><line style="stroke:#333333;stroke-width:1;" x1="1331.47" x2="1466.5237" y1="749.9431" y2="749.9431"/></g><!--class restoreMetaFree--><g class="entity" data-qualified-name="..........MetadataPkg.restoreMetaFree" data-source-line="44" id="ent0015"><rect fill="#F1F1F1" height="58.5938" rx="2.5" ry="2.5" style="stroke:#333333;stroke-width:1;" width="238.2051" x="1502.9" y="699.3494"/><ellipse cx="1515.9" cy="720.6463" fill="#FFFFFF" rx="9" ry="9" style="stroke:#000000;stroke-width:1;"/><path d="M1519.3063,722.615 C1518.5875,723.2869 1517.2906,724.4588 1515.5406,724.4588 C1513.3219,724.4588 1512.3531,722.5213 1512.3531,720.5681 C1512.3531,718.1775 1513.8375,716.9119 1515.4781,716.9119 C1517.4938,716.9119 1517.7125,718.4275 1517.8844,719.5213 L1519.3063,719.3338 C1519.2125,718.7556 1519.1344,718.1775 1519.1344,717.2088 C1519.1344,716.5369 1519.1813,715.99 1519.2125,715.5681 L1517.8063,715.5681 L1517.6969,716.5213 C1517.1031,715.99 1516.4625,715.4431 1515.2438,715.4431 C1513.1969,715.4431 1510.7906,717.2713 1510.7906,720.5838 C1510.7906,723.5213 1512.5563,725.9119 1515.5563,725.9119 C1517.9938,725.9119 1519.6969,724.2869 1520.2906,723.7088 L1519.3063,722.615 Z " fill="#000000"/><text fill="#000000" font-family="Verdana" font-size="14" lengthAdjust="spacing" textLength="127.3057" x="1569.3497" y="717.3445">restoreMetadata()</text><text fill="#000000" font-family="Verdana" font-size="14" lengthAdjust="spacing" textLength="210.2051" x="1527.9" y="733.6414">lchown&#8594;fchmodat&#8594;utimensat</text><line style="stroke:#333333;stroke-width:1;" x1="1503.9" x2="1740.1051" y1="741.9431" y2="741.9431"/><line style="stroke:#333333;stroke-width:1;" x1="1503.9" x2="1740.1051" y1="749.9431" y2="749.9431"/></g><!--class metaToJson--><g class="entity" data-qualified-name="..........MetadataPkg.metaToJson" data-source-line="45" id="ent0016"><rect fill="#F1F1F1" height="58.5938" rx="2.5" ry="2.5" style="stroke:#333333;stroke-width:1;" width="152.7559" x="1775.62" y="699.3494"/><ellipse cx="1788.62" cy="720.6463" fill="#FFFFFF" rx="9" ry="9" style="stroke:#000000;stroke-width:1;"/><path d="M1792.0263,722.615 C1791.3075,723.2869 1790.0106,724.4588 1788.2606,724.4588 C1786.0419,724.4588 1785.0731,722.5213 1785.0731,720.5681 C1785.0731,718.1775 1786.5575,716.9119 1788.1981,716.9119 C1790.2138,716.9119 1790.4325,718.4275 1790.6044,719.5213 L1792.0263,719.3338 C1791.9325,718.7556 1791.8544,718.1775 1791.8544,717.2088 C1791.8544,716.5369 1791.9013,715.99 1791.9325,715.5681 L1790.5263,715.5681 L1790.4169,716.5213 C1789.8231,715.99 1789.1825,715.4431 1787.9638,715.4431 C1785.9169,715.4431 1783.5106,717.2713 1783.5106,720.5838 C1783.5106,723.5213 1785.2763,725.9119 1788.2763,725.9119 C1790.7138,725.9119 1792.4169,724.2869 1793.0106,723.7088 L1792.0263,722.615 Z " fill="#000000"/><text fill="#000000" font-family="Verdana" font-size="14" lengthAdjust="spacing" textLength="124.7559" x="1800.62" y="717.3445">metadataToJson()</text><text fill="#000000" font-family="Verdana" font-size="14" lengthAdjust="spacing" textLength="41.9998" x="1841.998" y="733.6414">&#24207;&#21015;&#21270;</text><line style="stroke:#333333;stroke-width:1;" x1="1776.62" x2="1927.3759" y1="741.9431" y2="741.9431"/><line style="stroke:#333333;stroke-width:1;" x1="1776.62" x2="1927.3759" y1="749.9431" y2="749.9431"/></g><!--class metaFromJson--><g class="entity" data-qualified-name="..........MetadataPkg.metaFromJson" data-source-line="46" id="ent0017"><rect fill="#F1F1F1" height="58.5938" rx="2.5" ry="2.5" style="stroke:#333333;stroke-width:1;" width="171.6504" x="1963.17" y="699.3494"/><ellipse cx="1976.17" cy="720.6463" fill="#FFFFFF" rx="9" ry="9" style="stroke:#000000;stroke-width:1;"/><path d="M1979.5763,722.615 C1978.8575,723.2869 1977.5606,724.4588 1975.8106,724.4588 C1973.5919,724.4588 1972.6231,722.5213 1972.6231,720.5681 C1972.6231,718.1775 1974.1075,716.9119 1975.7481,716.9119 C1977.7638,716.9119 1977.9825,718.4275 1978.1544,719.5213 L1979.5763,719.3338 C1979.4825,718.7556 1979.4044,718.1775 1979.4044,717.2088 C1979.4044,716.5369 1979.4513,715.99 1979.4825,715.5681 L1978.0763,715.5681 L1977.9669,716.5213 C1977.3731,715.99 1976.7325,715.4431 1975.5138,715.4431 C1973.4669,715.4431 1971.0606,717.2713 1971.0606,720.5838 C1971.0606,723.5213 1972.8263,725.9119 1975.8263,725.9119 C1978.2638,725.9119 1979.9669,724.2869 1980.5606,723.7088 L1979.5763,722.615 Z " fill="#000000"/><text fill="#000000" font-family="Verdana" font-size="14" lengthAdjust="spacing" textLength="143.6504" x="1988.17" y="717.3445">metadataFromJson()</text><text fill="#000000" font-family="Verdana" font-size="14" lengthAdjust="spacing" textLength="55.9998" x="2031.9953" y="733.6414">&#21453;&#24207;&#21015;&#21270;</text><line style="stroke:#333333;stroke-width:1;" x1="1964.17" x2="2133.8204" y1="741.9431" y2="741.9431"/><line style="stroke:#333333;stroke-width:1;" x1="1964.17" x2="2133.8204" y1="749.9431" y2="749.9431"/></g><!--class canRestore--><g class="entity" data-qualified-name="..........MetadataPkg.canRestore" data-source-line="47" id="ent0018"><rect fill="#F1F1F1" height="58.5938" rx="2.5" ry="2.5" style="stroke:#333333;stroke-width:1;" width="192.7871" x="1525.61" y="885.4394"/><ellipse cx="1538.61" cy="906.7362" fill="#FFFFFF" rx="9" ry="9" style="stroke:#000000;stroke-width:1;"/><path d="M1542.0163,908.705 C1541.2975,909.3769 1540.0006,910.5487 1538.2506,910.5487 C1536.0319,910.5487 1535.0631,908.6112 1535.0631,906.6581 C1535.0631,904.2675 1536.5475,903.0019 1538.1881,903.0019 C1540.2038,903.0019 1540.4225,904.5175 1540.5944,905.6112 L1542.0163,905.4237 C1541.9225,904.8456 1541.8444,904.2675 1541.8444,903.2987 C1541.8444,902.6269 1541.8913,902.08 1541.9225,901.6581 L1540.5163,901.6581 L1540.4069,902.6112 C1539.8131,902.08 1539.1725,901.5331 1537.9538,901.5331 C1535.9069,901.5331 1533.5006,903.3612 1533.5006,906.6737 C1533.5006,909.6112 1535.2663,912.0019 1538.2663,912.0019 C1540.7038,912.0019 1542.4069,910.3769 1543.0006,909.7987 L1542.0163,908.705 Z " fill="#000000"/><text fill="#000000" font-family="Verdana" font-size="14" lengthAdjust="spacing" textLength="164.7871" x="1550.61" y="903.4345">canRestoreOwnership()</text><text fill="#000000" font-family="Verdana" font-size="14" lengthAdjust="spacing" textLength="84.3757" x="1590.8157" y="919.7314">&#26816;&#26597;root&#26435;&#38480;</text><line style="stroke:#333333;stroke-width:1;" x1="1526.61" x2="1717.3971" y1="928.0331" y2="928.0331"/><line style="stroke:#333333;stroke-width:1;" x1="1526.61" x2="1717.3971" y1="936.0331" y2="936.0331"/></g><!--class detectSpecial--><g class="entity" data-qualified-name="..........SpecialFile.detectSpecial" data-source-line="51" id="ent0020"><rect fill="#F1F1F1" height="58.5938" rx="2.5" ry="2.5" style="stroke:#333333;stroke-width:1;" width="161.8476" x="748.08" y="1060.0394"/><ellipse cx="761.08" cy="1081.3362" fill="#FFFFFF" rx="9" ry="9" style="stroke:#000000;stroke-width:1;"/><path d="M764.4863,1083.305 C763.7675,1083.9769 762.4706,1085.1487 760.7206,1085.1487 C758.5019,1085.1487 757.5331,1083.2112 757.5331,1081.2581 C757.5331,1078.8675 759.0175,1077.6019 760.6581,1077.6019 C762.6738,1077.6019 762.8925,1079.1175 763.0644,1080.2112 L764.4863,1080.0237 C764.3925,1079.4456 764.3144,1078.8675 764.3144,1077.8987 C764.3144,1077.2269 764.3613,1076.68 764.3925,1076.2581 L762.9863,1076.2581 L762.8769,1077.2112 C762.2831,1076.68 761.6425,1076.1331 760.4238,1076.1331 C758.3769,1076.1331 755.9706,1077.9612 755.9706,1081.2737 C755.9706,1084.2112 757.7363,1086.6019 760.7363,1086.6019 C763.1738,1086.6019 764.8769,1084.9769 765.4706,1084.3987 L764.4863,1083.305 Z " fill="#000000"/><text fill="#000000" font-family="Verdana" font-size="14" lengthAdjust="spacing" textLength="114.4951" x="782.7562" y="1078.0345">detectFileType()</text><text fill="#000000" font-family="Verdana" font-size="14" lengthAdjust="spacing" textLength="133.8476" x="773.08" y="1094.3314">S_ISREG/DIR/LNK&#31561;</text><line style="stroke:#333333;stroke-width:1;" x1="749.08" x2="908.9276" y1="1102.6331" y2="1102.6331"/><line style="stroke:#333333;stroke-width:1;" x1="749.08" x2="908.9276" y1="1110.6331" y2="1110.6331"/></g><!--class readSym--><g class="entity" data-qualified-name="..........SpecialFile.readSym" data-source-line="52" id="ent0021"><rect fill="#F1F1F1" height="58.5938" rx="2.5" ry="2.5" style="stroke:#333333;stroke-width:1;" width="191.0234" x="246.49" y="1060.0394"/><ellipse cx="259.49" cy="1081.3362" fill="#FFFFFF" rx="9" ry="9" style="stroke:#000000;stroke-width:1;"/><path d="M262.8963,1083.305 C262.1775,1083.9769 260.8806,1085.1487 259.1306,1085.1487 C256.9119,1085.1487 255.9431,1083.2112 255.9431,1081.2581 C255.9431,1078.8675 257.4275,1077.6019 259.0681,1077.6019 C261.0838,1077.6019 261.3025,1079.1175 261.4744,1080.2112 L262.8963,1080.0237 C262.8025,1079.4456 262.7244,1078.8675 262.7244,1077.8987 C262.7244,1077.2269 262.7713,1076.68 262.8025,1076.2581 L261.3963,1076.2581 L261.2869,1077.2112 C260.6931,1076.68 260.0525,1076.1331 258.8338,1076.1331 C256.7869,1076.1331 254.3806,1077.9612 254.3806,1081.2737 C254.3806,1084.2112 256.1463,1086.6019 259.1463,1086.6019 C261.5838,1086.6019 263.2869,1084.9769 263.8806,1084.3987 L262.8963,1083.305 Z " fill="#000000"/><text fill="#000000" font-family="Verdana" font-size="14" lengthAdjust="spacing" textLength="98.3281" x="303.8377" y="1078.0345">readSymlink()</text><text fill="#000000" font-family="Verdana" font-size="14" lengthAdjust="spacing" textLength="163.0234" x="271.49" y="1094.3314">readlink / read_symlink</text><line style="stroke:#333333;stroke-width:1;" x1="247.49" x2="436.5134" y1="1102.6331" y2="1102.6331"/><line style="stroke:#333333;stroke-width:1;" x1="247.49" x2="436.5134" y1="1110.6331" y2="1110.6331"/></g><!--class createSym--><g class="entity" data-qualified-name="..........SpecialFile.createSym" data-source-line="53" id="ent0022"><rect fill="#F1F1F1" height="58.5938" rx="2.5" ry="2.5" style="stroke:#333333;stroke-width:1;" width="201.3184" x="945.34" y="1060.0394"/><ellipse cx="958.34" cy="1081.3362" fill="#FFFFFF" rx="9" ry="9" style="stroke:#000000;stroke-width:1;"/><path d="M961.7463,1083.305 C961.0275,1083.9769 959.7306,1085.1487 957.9806,1085.1487 C955.7619,1085.1487 954.7931,1083.2112 954.7931,1081.2581 C954.7931,1078.8675 956.2775,1077.6019 957.9181,1077.6019 C959.9338,1077.6019 960.1525,1079.1175 960.3244,1080.2112 L961.7463,1080.0237 C961.6525,1079.4456 961.5744,1078.8675 961.5744,1077.8987 C961.5744,1077.2269 961.6213,1076.68 961.6525,1076.2581 L960.2463,1076.2581 L960.1369,1077.2112 C959.5431,1076.68 958.9025,1076.1331 957.6838,1076.1331 C955.6369,1076.1331 953.2306,1077.9612 953.2306,1081.2737 C953.2306,1084.2112 954.9963,1086.6019 957.9963,1086.6019 C960.4338,1086.6019 962.1369,1084.9769 962.7306,1084.3987 L961.7463,1083.305 Z " fill="#000000"/><text fill="#000000" font-family="Verdana" font-size="14" lengthAdjust="spacing" textLength="111.2412" x="1001.3786" y="1078.0345">createSymlink()</text><text fill="#000000" font-family="Verdana" font-size="14" lengthAdjust="spacing" textLength="173.3184" x="970.34" y="1094.3314">symlink / create_symlink</text><line style="stroke:#333333;stroke-width:1;" x1="946.34" x2="1145.6584" y1="1102.6331" y2="1102.6331"/><line style="stroke:#333333;stroke-width:1;" x1="946.34" x2="1145.6584" y1="1110.6331" y2="1110.6331"/></g><!--class createFifo--><g class="entity" data-qualified-name="..........SpecialFile.createFifo" data-source-line="54" id="ent0023"><rect fill="#F1F1F1" height="58.5938" rx="2.5" ry="2.5" style="stroke:#333333;stroke-width:1;" width="160.576" x="50.71" y="1060.0394"/><ellipse cx="63.71" cy="1081.3362" fill="#FFFFFF" rx="9" ry="9" style="stroke:#000000;stroke-width:1;"/><path d="M67.1163,1083.305 C66.3975,1083.9769 65.1006,1085.1487 63.3506,1085.1487 C61.1319,1085.1487 60.1631,1083.2112 60.1631,1081.2581 C60.1631,1078.8675 61.6475,1077.6019 63.2881,1077.6019 C65.3038,1077.6019 65.5225,1079.1175 65.6944,1080.2112 L67.1163,1080.0237 C67.0225,1079.4456 66.9444,1078.8675 66.9444,1077.8987 C66.9444,1077.2269 66.9913,1076.68 67.0225,1076.2581 L65.6163,1076.2581 L65.5069,1077.2112 C64.9131,1076.68 64.2725,1076.1331 63.0538,1076.1331 C61.0069,1076.1331 58.6006,1077.9612 58.6006,1081.2737 C58.6006,1084.2112 60.3663,1086.6019 63.3663,1086.6019 C65.8038,1086.6019 67.5069,1084.9769 68.1006,1084.3987 L67.1163,1083.305 Z " fill="#000000"/><text fill="#000000" font-family="Verdana" font-size="14" lengthAdjust="spacing" textLength="81.1084" x="101.4438" y="1078.0345">createFifo()</text><text fill="#000000" font-family="Verdana" font-size="14" lengthAdjust="spacing" textLength="132.576" x="75.71" y="1094.3314">mkfifo &#65288;&#20165;POSIX&#65289;</text><line style="stroke:#333333;stroke-width:1;" x1="51.71" x2="210.286" y1="1102.6331" y2="1102.6331"/><line style="stroke:#333333;stroke-width:1;" x1="51.71" x2="210.286" y1="1110.6331" y2="1110.6331"/></g><!--class createDev--><g class="entity" data-qualified-name="..........SpecialFile.createDev" data-source-line="55" id="ent0024"><rect fill="#F1F1F1" height="58.5938" rx="2.5" ry="2.5" style="stroke:#333333;stroke-width:1;" width="241.0418" x="472.48" y="1060.0394"/><ellipse cx="485.48" cy="1081.3362" fill="#FFFFFF" rx="9" ry="9" style="stroke:#000000;stroke-width:1;"/><path d="M488.8863,1083.305 C488.1675,1083.9769 486.8706,1085.1487 485.1206,1085.1487 C482.9019,1085.1487 481.9331,1083.2112 481.9331,1081.2581 C481.9331,1078.8675 483.4175,1077.6019 485.0581,1077.6019 C487.0738,1077.6019 487.2925,1079.1175 487.4644,1080.2112 L488.8863,1080.0237 C488.7925,1079.4456 488.7144,1078.8675 488.7144,1077.8987 C488.7144,1077.2269 488.7613,1076.68 488.7925,1076.2581 L487.3863,1076.2581 L487.2769,1077.2112 C486.6831,1076.68 486.0425,1076.1331 484.8238,1076.1331 C482.7769,1076.1331 480.3706,1077.9612 480.3706,1081.2737 C480.3706,1084.2112 482.1363,1086.6019 485.1363,1086.6019 C487.5738,1086.6019 489.2769,1084.9769 489.8706,1084.3987 L488.8863,1083.305 Z " fill="#000000"/><text fill="#000000" font-family="Verdana" font-size="14" lengthAdjust="spacing" textLength="103.5508" x="552.2255" y="1078.0345">createDevice()</text><text fill="#000000" font-family="Verdana" font-size="14" lengthAdjust="spacing" textLength="213.0418" x="497.48" y="1094.3314">makedev+mknod &#65288;&#20165;POSIX&#65289;</text><line style="stroke:#333333;stroke-width:1;" x1="473.48" x2="712.5218" y1="1102.6331" y2="1102.6331"/><line style="stroke:#333333;stroke-width:1;" x1="473.48" x2="712.5218" y1="1110.6331" y2="1110.6331"/></g><!--class PathMapper--><g class="entity" data-qualified-name="..........PathMapperPkg.PathMapper" data-source-line="59" id="ent0026"><rect fill="#F1F1F1" height="58.5938" rx="2.5" ry="2.5" style="stroke:#333333;stroke-width:1;" width="112.1846" x="2581.91" y="699.3494"/><ellipse cx="2594.91" cy="720.6463" fill="#FFFFFF" rx="9" ry="9" style="stroke:#000000;stroke-width:1;"/><path d="M2598.3163,722.615 C2597.5975,723.2869 2596.3006,724.4588 2594.5506,724.4588 C2592.3319,724.4588 2591.3631,722.5213 2591.3631,720.5681 C2591.3631,718.1775 2592.8475,716.9119 2594.4881,716.9119 C2596.5038,716.9119 2596.7225,718.4275 2596.8944,719.5213 L2598.3163,719.3338 C2598.2225,718.7556 2598.1444,718.1775 2598.1444,717.2088 C2598.1444,716.5369 2598.1913,715.99 2598.2225,715.5681 L2596.8163,715.5681 L2596.7069,716.5213 C2596.1131,715.99 2595.4725,715.4431 2594.2538,715.4431 C2592.2069,715.4431 2589.8006,717.2713 2589.8006,720.5838 C2589.8006,723.5213 2591.5663,725.9119 2594.5663,725.9119 C2597.0038,725.9119 2598.7069,724.2869 2599.3006,723.7088 L2598.3163,722.615 Z " fill="#000000"/><text fill="#000000" font-family="Verdana" font-size="14" lengthAdjust="spacing" textLength="84.1846" x="2606.91" y="717.3445">PathMapper</text><text fill="#000000" font-family="Verdana" font-size="14" lengthAdjust="spacing" textLength="69.9997" x="2614.0024" y="733.6414">&#38745;&#24577;&#24037;&#20855;&#31867;</text><line style="stroke:#333333;stroke-width:1;" x1="2582.91" x2="2693.0946" y1="741.9431" y2="741.9431"/><line style="stroke:#333333;stroke-width:1;" x1="2582.91" x2="2693.0946" y1="749.9431" y2="749.9431"/></g><!--class srcToRel--><g class="entity" data-qualified-name="..........PathMapperPkg.srcToRel" data-source-line="60" id="ent0027"><rect fill="#F1F1F1" height="58.5938" rx="2.5" ry="2.5" style="stroke:#333333;stroke-width:1;" width="159.9268" x="2191.04" y="699.3494"/><ellipse cx="2204.04" cy="720.6463" fill="#FFFFFF" rx="9" ry="9" style="stroke:#000000;stroke-width:1;"/><path d="M2207.4463,722.615 C2206.7275,723.2869 2205.4306,724.4588 2203.6806,724.4588 C2201.4619,724.4588 2200.4931,722.5213 2200.4931,720.5681 C2200.4931,718.1775 2201.9775,716.9119 2203.6181,716.9119 C2205.6338,716.9119 2205.8525,718.4275 2206.0244,719.5213 L2207.4463,719.3338 C2207.3525,718.7556 2207.2744,718.1775 2207.2744,717.2088 C2207.2744,716.5369 2207.3213,715.99 2207.3525,715.5681 L2205.9463,715.5681 L2205.8369,716.5213 C2205.2431,715.99 2204.6025,715.4431 2203.3838,715.4431 C2201.3369,715.4431 2198.9306,717.2713 2198.9306,720.5838 C2198.9306,723.5213 2200.6963,725.9119 2203.6963,725.9119 C2206.1338,725.9119 2207.8369,724.2869 2208.4306,723.7088 L2207.4463,722.615 Z " fill="#000000"/><text fill="#000000" font-family="Verdana" font-size="14" lengthAdjust="spacing" textLength="131.9268" x="2216.04" y="717.3445">sourceToRelative()</text><text fill="#000000" font-family="Verdana" font-size="14" lengthAdjust="spacing" textLength="123.73" x="2220.1384" y="733.6414">&#32477;&#23545;&#36335;&#24452;&#8594;&#30456;&#23545;&#36335;&#24452;</text><line style="stroke:#333333;stroke-width:1;" x1="2192.04" x2="2349.9668" y1="741.9431" y2="741.9431"/><line style="stroke:#333333;stroke-width:1;" x1="2192.04" x2="2349.9668" y1="749.9431" y2="749.9431"/></g><!--class relToBackup--><g class="entity" data-qualified-name="..........PathMapperPkg.relToBackup" data-source-line="61" id="ent0028"><rect fill="#F1F1F1" height="58.5938" rx="2.5" ry="2.5" style="stroke:#333333;stroke-width:1;" width="160.9043" x="2385.55" y="699.3494"/><ellipse cx="2398.55" cy="720.6463" fill="#FFFFFF" rx="9" ry="9" style="stroke:#000000;stroke-width:1;"/><path d="M2401.9563,722.615 C2401.2375,723.2869 2399.9406,724.4588 2398.1906,724.4588 C2395.9719,724.4588 2395.0031,722.5213 2395.0031,720.5681 C2395.0031,718.1775 2396.4875,716.9119 2398.1281,716.9119 C2400.1438,716.9119 2400.3625,718.4275 2400.5344,719.5213 L2401.9563,719.3338 C2401.8625,718.7556 2401.7844,718.1775 2401.7844,717.2088 C2401.7844,716.5369 2401.8313,715.99 2401.8625,715.5681 L2400.4563,715.5681 L2400.3469,716.5213 C2399.7531,715.99 2399.1125,715.4431 2397.8938,715.4431 C2395.8469,715.4431 2393.4406,717.2713 2393.4406,720.5838 C2393.4406,723.5213 2395.2063,725.9119 2398.2063,725.9119 C2400.6438,725.9119 2402.3469,724.2869 2402.9406,723.7088 L2401.9563,722.615 Z " fill="#000000"/><text fill="#000000" font-family="Verdana" font-size="14" lengthAdjust="spacing" textLength="132.9043" x="2410.55" y="717.3445">relativeToBackup()</text><text fill="#000000" font-family="Verdana" font-size="14" lengthAdjust="spacing" textLength="123.73" x="2415.1372" y="733.6414">&#30456;&#23545;&#36335;&#24452;&#8594;&#22791;&#20221;&#36335;&#24452;</text><line style="stroke:#333333;stroke-width:1;" x1="2386.55" x2="2545.4543" y1="741.9431" y2="741.9431"/><line style="stroke:#333333;stroke-width:1;" x1="2386.55" x2="2545.4543" y1="749.9431" y2="749.9431"/></g><!--class backupToRel--><g class="entity" data-qualified-name="..........PathMapperPkg.backupToRel" data-source-line="62" id="ent0029"><rect fill="#F1F1F1" height="58.5938" rx="2.5" ry="2.5" style="stroke:#333333;stroke-width:1;" width="164.1582" x="2190.92" y="885.4394"/><ellipse cx="2203.92" cy="906.7362" fill="#FFFFFF" rx="9" ry="9" style="stroke:#000000;stroke-width:1;"/><path d="M2207.3263,908.705 C2206.6075,909.3769 2205.3106,910.5487 2203.5606,910.5487 C2201.3419,910.5487 2200.3731,908.6112 2200.3731,906.6581 C2200.3731,904.2675 2201.8575,903.0019 2203.4981,903.0019 C2205.5138,903.0019 2205.7325,904.5175 2205.9044,905.6112 L2207.3263,905.4237 C2207.2325,904.8456 2207.1544,904.2675 2207.1544,903.2987 C2207.1544,902.6269 2207.2013,902.08 2207.2325,901.6581 L2205.8263,901.6581 L2205.7169,902.6112 C2205.1231,902.08 2204.4825,901.5331 2203.2638,901.5331 C2201.2169,901.5331 2198.8106,903.3612 2198.8106,906.6737 C2198.8106,909.6112 2200.5763,912.0019 2203.5763,912.0019 C2206.0138,912.0019 2207.7169,910.3769 2208.3106,909.7987 L2207.3263,908.705 Z " fill="#000000"/><text fill="#000000" font-family="Verdana" font-size="14" lengthAdjust="spacing" textLength="136.1582" x="2215.92" y="903.4345">backupToRelative()</text><text fill="#000000" font-family="Verdana" font-size="14" lengthAdjust="spacing" textLength="123.73" x="2222.1341" y="919.7314">&#22791;&#20221;&#36335;&#24452;&#8594;&#30456;&#23545;&#36335;&#24452;</text><line style="stroke:#333333;stroke-width:1;" x1="2191.92" x2="2354.0782" y1="928.0331" y2="928.0331"/><line style="stroke:#333333;stroke-width:1;" x1="2191.92" x2="2354.0782" y1="936.0331" y2="936.0331"/></g><!--class relToSrc--><g class="entity" data-qualified-name="..........PathMapperPkg.relToSrc" data-source-line="63" id="ent0030"><rect fill="#F1F1F1" height="58.5938" rx="2.5" ry="2.5" style="stroke:#333333;stroke-width:1;" width="157.5479" x="2390.23" y="885.4394"/><ellipse cx="2403.23" cy="906.7362" fill="#FFFFFF" rx="9" ry="9" style="stroke:#000000;stroke-width:1;"/><path d="M2406.6363,908.705 C2405.9175,909.3769 2404.6206,910.5487 2402.8706,910.5487 C2400.6519,910.5487 2399.6831,908.6112 2399.6831,906.6581 C2399.6831,904.2675 2401.1675,903.0019 2402.8081,903.0019 C2404.8238,903.0019 2405.0425,904.5175 2405.2144,905.6112 L2406.6363,905.4237 C2406.5425,904.8456 2406.4644,904.2675 2406.4644,903.2987 C2406.4644,902.6269 2406.5113,902.08 2406.5425,901.6581 L2405.1363,901.6581 L2405.0269,902.6112 C2404.4331,902.08 2403.7925,901.5331 2402.5738,901.5331 C2400.5269,901.5331 2398.1206,903.3612 2398.1206,906.6737 C2398.1206,909.6112 2399.8863,912.0019 2402.8863,912.0019 C2405.3238,912.0019 2407.0269,910.3769 2407.6206,909.7987 L2406.6363,908.705 Z " fill="#000000"/><text fill="#000000" font-family="Verdana" font-size="14" lengthAdjust="spacing" textLength="129.5479" x="2415.23" y="903.4345">relativeToSource()</text><text fill="#000000" font-family="Verdana" font-size="14" lengthAdjust="spacing" textLength="109.73" x="2425.1389" y="919.7314">&#30456;&#23545;&#36335;&#24452;&#8594;&#28304;&#36335;&#24452;</text><line style="stroke:#333333;stroke-width:1;" x1="2391.23" x2="2546.7779" y1="928.0331" y2="928.0331"/><line style="stroke:#333333;stroke-width:1;" x1="2391.23" x2="2546.7779" y1="936.0331" y2="936.0331"/></g><g class="entity" data-qualified-name="GMN47" data-source-line="94" id="ent0048"><path d="M2749.59,632.8494 L2749.59,824.4431 L2960.4041,824.4431 L2960.4041,642.8494 L2950.4041,632.8494 L2749.59,632.8494" fill="#FFFFFF" style="stroke:#000000;stroke-width:1;"/><path d="M2950.4041,632.8494 L2950.4041,642.8494 L2960.4041,642.8494 L2950.4041,632.8494" fill="#FFFFFF" style="stroke:#000000;stroke-width:1;"/><text fill="#000000" font-family="Verdana" font-size="13" font-weight="700" lengthAdjust="spacing" textLength="91.0001" x="2755.59" y="649.9163">&#24179;&#21488;&#24046;&#24322;&#35828;&#26126;&#65306;</text><text fill="#000000" font-family="Verdana" font-size="13" font-weight="700" lengthAdjust="spacing" textLength="169.0318" x="2755.59" y="665.0491">POSIX (Linux/macOS)&#65306;</text><text fill="#000000" font-family="Verdana" font-size="13" lengthAdjust="spacing" textLength="142.086" x="2755.59" y="680.1819">&#183; lstat() &#19981;&#36319;&#38543;&#31526;&#21495;&#38142;&#25509;</text><text fill="#000000" font-family="Verdana" font-size="13" lengthAdjust="spacing" textLength="189.8141" x="2755.59" y="695.3147">&#183; &#23436;&#25972; UID/GID/&#26435;&#38480;/&#32435;&#31186;&#26102;&#38388;&#25139;</text><text fill="#000000" font-family="Verdana" font-size="13" lengthAdjust="spacing" textLength="143.1016" x="2755.59" y="710.4475">&#183; &#25903;&#25345; mkfifo + mknod</text><text fill="#000000" font-family="Verdana" font-size="13" lengthAdjust="spacing" textLength="125.6139" x="2755.59" y="725.5803">&#183; root&#26435;&#38480;&#21487;&#24674;&#22797;&#23646;&#20027;</text><text fill="#000000" font-family="Verdana" font-size="13" lengthAdjust="spacing" textLength="4.1323" x="2755.59" y="740.7131">&#160;</text><text fill="#000000" font-family="Verdana" font-size="13" font-weight="700" lengthAdjust="spacing" textLength="79.0347" x="2755.59" y="755.846">Windows&#65306;</text><text fill="#000000" font-family="Verdana" font-size="13" lengthAdjust="spacing" textLength="171.1075" x="2755.59" y="770.9788">&#183; symlink_status() &#26816;&#27979;&#31867;&#22411;</text><text fill="#000000" font-family="Verdana" font-size="13" lengthAdjust="spacing" textLength="169.5587" x="2755.59" y="786.1116">&#183; FIFO/&#35774;&#22791;&#25991;&#20214;&#8594;&#19981;&#25903;&#25345;&#38169;&#35823;</text><text fill="#000000" font-family="Verdana" font-size="13" lengthAdjust="spacing" textLength="115.4576" x="2755.59" y="801.2444">&#183; UID/GID &#22266;&#23450;&#20026; 0</text><text fill="#000000" font-family="Verdana" font-size="13" lengthAdjust="spacing" textLength="86.2647" x="2755.59" y="816.3772">&#183; &#26435;&#38480;&#24674;&#22797;&#21463;&#38480;</text></g><g class="entity" data-qualified-name="GMN50" data-source-line="109" id="ent0051"><path d="M472.8,57.6094 L472.8,97.875 A0,0 0 0 0 472.8,97.875 L773,97.875 L777,222.5494 L781,97.875 L1081.1994,97.875 A0,0 0 0 0 1081.1994,97.875 L1081.1994,67.6094 L1071.1994,57.6094 L472.8,57.6094 A0,0 0 0 0 472.8,57.6094" fill="#FFFFFF" style="stroke:#000000;stroke-width:1;"/><path d="M1071.1994,57.6094 L1071.1994,67.6094 L1081.1994,67.6094 L1071.1994,57.6094" fill="#FFFFFF" style="stroke:#000000;stroke-width:1;"/><text fill="#000000" font-family="Verdana" font-size="13" font-weight="700" lengthAdjust="spacing" textLength="78.0001" x="478.8" y="74.6763">&#20027;&#35201;&#35843;&#29992;&#32773;&#65306;</text><text fill="#000000" font-family="Verdana" font-size="13" lengthAdjust="spacing" textLength="587.3994" x="478.8" y="89.8091">BackupEngine / RestoreEngine / TarPacker / ZipPacker / handleBackup() / handleRestore()</text></g><!--reverse link FSAbstraction to LocalFsClass--><g class="link" data-entity-1="ent0003" data-entity-2="ent0007" data-link-type="extension" data-source-line="68" id="lnk32"><path codeLine="68" d="M777,397.4994 C777,431.3394 777,451.4794 777,478.9194" fill="none" id="FSAbstraction-backto-LocalFsClass" style="stroke:#000000;stroke-width:1;"/><polygon fill="none" points="777,379.4994,771,397.4994,783,397.4994,777,379.4994" style="stroke:#000000;stroke-width:1;stroke-linejoin:miter;stroke-miterlimit:10;"/></g><!--link LocalFsClass to walkImpl--><g class="link" data-entity-1="ent0007" data-entity-2="ent0008" data-link-type="dependency" data-source-line="71" id="lnk33"><path codeLine="71" d="M741.78,555.9294 C705.81,594.1094 653.7489,649.3703 618.0089,687.3003" fill="none" id="LocalFsClass-to-walkImpl" style="stroke:#000000;stroke-width:1;"/><polygon fill="#000000" points="614.58,690.9394,623.6633,687.1323,618.0089,687.3003,617.8408,681.646,614.58,690.9394" style="stroke:#000000;stroke-width:1;stroke-linejoin:miter;stroke-miterlimit:10;"/></g><!--link LocalFsClass to readImpl--><g class="link" data-entity-1="ent0007" data-entity-2="ent0009" data-link-type="dependency" data-source-line="72" id="lnk34"><path codeLine="72" d="M673.93,537.6994 C607.01,553.3794 519.94,580.1094 452,622.8994 C420.24,642.9094 394.7694,671.4747 376.5894,694.9747" fill="none" id="LocalFsClass-to-readImpl" style="stroke:#000000;stroke-width:1;"/><polygon fill="#000000" points="373.53,698.9294,382.2008,694.2584,376.5894,694.9747,375.8732,689.3633,373.53,698.9294" style="stroke:#000000;stroke-width:1;stroke-linejoin:miter;stroke-miterlimit:10;"/></g><!--link LocalFsClass to writeImpl--><g class="link" data-entity-1="ent0007" data-entity-2="ent0010" data-link-type="dependency" data-source-line="73" id="lnk35"><path codeLine="73" d="M673.87,522.2694 C564.15,529.9594 388.25,553.1994 254,622.8994 C222.29,639.3694 196.6275,663.9908 176.3875,687.0608" fill="none" id="LocalFsClass-to-writeImpl" style="stroke:#000000;stroke-width:1;"/><polygon fill="#000000" points="173.09,690.8194,182.0323,686.692,176.3875,687.0608,176.0186,681.416,173.09,690.8194" style="stroke:#000000;stroke-width:1;stroke-linejoin:miter;stroke-miterlimit:10;"/></g><!--link LocalFsClass to mkdirImpl--><g class="link" data-entity-1="ent0007" data-entity-2="ent0011" data-link-type="dependency" data-source-line="74" id="lnk36"><path codeLine="74" d="M781.65,555.9294 C786.75,596.9294 794.1918,656.8577 798.8218,694.0177" fill="none" id="LocalFsClass-to-mkdirImpl" style="stroke:#000000;stroke-width:1;"/><polygon fill="#000000" points="799.44,698.9794,802.2965,689.5539,798.8218,694.0177,794.3579,690.543,799.44,698.9794" style="stroke:#000000;stroke-width:1;stroke-linejoin:miter;stroke-miterlimit:10;"/></g><!--link walkImpl to makeFileEntry--><g class="link" data-entity-1="ent0008" data-entity-2="ent0012" data-link-type="dependency" data-source-line="76" id="lnk37"><path codeLine="76" d="M606.39,766.4594 C631.45,801.3994 665.6658,849.1265 688.5758,881.0665" fill="none" id="walkImpl-to-makeFileEntry" style="stroke:#000000;stroke-width:1;"/><polygon fill="#000000" points="691.49,885.1294,689.4947,875.4848,688.5758,881.0665,682.994,880.1476,691.49,885.1294" style="stroke:#000000;stroke-width:1;stroke-linejoin:miter;stroke-miterlimit:10;"/></g><!--link makeFileEntry to detectSpecial--><g class="link" data-entity-1="ent0012" data-entity-2="ent0020" data-link-type="dependency" data-source-line="77" id="lnk38"><path codeLine="77" d="M731.32,944.2394 C753,976.2194 785.1546,1023.6505 806.8446,1055.6505" fill="none" id="makeFileEntry-to-detectSpecial" style="stroke:#000000;stroke-width:1;"/><polygon fill="#000000" points="809.65,1059.7894,807.9114,1050.0952,806.8446,1055.6505,801.2893,1054.5838,809.65,1059.7894" style="stroke:#000000;stroke-width:1;stroke-linejoin:miter;stroke-miterlimit:10;"/><text fill="#000000" font-family="Verdana" font-size="13" lengthAdjust="spacing" textLength="52.0001" x="764.49" y="989.1063">&#26816;&#27979;&#31867;&#22411;</text></g><!--link writeImpl to createSym--><g class="link" data-entity-1="ent0010" data-entity-2="ent0022" data-link-type="dependency" data-source-line="79" id="lnk39"><path codeLine="79" d="M175.85,766.4794 C196.02,787.1994 223.92,811.4394 254,824.4394 C491.92,927.2994 598.84,776.4194 834,885.4394 C919.74,925.1894 989.5737,1009.827 1023.1737,1055.657" fill="none" id="writeImpl-to-createSym" style="stroke:#000000;stroke-width:1;"/><polygon fill="#000000" points="1026.13,1059.6894,1024.0345,1050.066,1023.1737,1055.657,1017.5827,1054.7961,1026.13,1059.6894" style="stroke:#000000;stroke-width:1;stroke-linejoin:miter;stroke-miterlimit:10;"/><text fill="#000000" font-family="Verdana" font-size="13" lengthAdjust="spacing" textLength="52.0001" x="945.67" y="919.3063">&#31526;&#21495;&#38142;&#25509;</text></g><!--link writeImpl to createFifo--><g class="link" data-entity-1="ent0010" data-entity-2="ent0023" data-link-type="dependency" data-source-line="80" id="lnk40"><path codeLine="80" d="M142.67,766.3494 C140.07,837.9394 134.5715,989.9027 132.2215,1054.5927" fill="none" id="writeImpl-to-createFifo" style="stroke:#000000;stroke-width:1;"/><polygon fill="#000000" points="132.04,1059.5894,136.3641,1050.7405,132.2215,1054.5927,128.3694,1050.4501,132.04,1059.5894" style="stroke:#000000;stroke-width:1;stroke-linejoin:miter;stroke-miterlimit:10;"/><text fill="#000000" font-family="Verdana" font-size="13" lengthAdjust="spacing" textLength="29.0215" x="139.31" y="919.3063">FIFO</text></g><!--link writeImpl to createDev--><g class="link" data-entity-1="ent0010" data-entity-2="ent0024" data-link-type="dependency" data-source-line="81" id="lnk41"><path codeLine="81" d="M185.63,766.3794 C206.03,784.1594 231.09,805.6694 254,824.4394 C361.31,912.3594 487.6516,1008.814 550.9016,1056.634" fill="none" id="writeImpl-to-createDev" style="stroke:#000000;stroke-width:1;"/><polygon fill="#000000" points="554.89,1059.6494,550.1232,1051.0309,550.9016,1056.634,545.2986,1057.4123,554.89,1059.6494" style="stroke:#000000;stroke-width:1;stroke-linejoin:miter;stroke-miterlimit:10;"/><text fill="#000000" font-family="Verdana" font-size="13" lengthAdjust="spacing" textLength="52.0001" x="435.71" y="919.3063">&#35774;&#22791;&#25991;&#20214;</text></g><!--link LocalFsClass to readMetaFree--><g class="link" data-entity-1="ent0007" data-entity-2="ent0014" data-link-type="dependency" data-source-line="83" id="lnk42"><path codeLine="83" d="M879.97,522.6894 C987.76,530.7394 1159.21,554.2994 1290,622.8994 C1325.33,641.4294 1353.9383,671.0306 1373.9483,695.1606" fill="none" id="LocalFsClass-to-readMetaFree" style="stroke:#000000;stroke-width:1;stroke-dasharray:7,7;"/><polygon fill="#000000" points="1377.14,699.0094,1374.4741,689.5282,1373.9483,695.1606,1368.316,694.6348,1377.14,699.0094" style="stroke:#000000;stroke-width:1;stroke-linejoin:miter;stroke-miterlimit:10;"/><text fill="#000000" font-family="Verdana" font-size="13" lengthAdjust="spacing" textLength="65.0001" x="1239.82" y="598.9163">&#20803;&#25968;&#25454;&#35835;&#21462;</text></g><!--link LocalFsClass to restoreMetaFree--><g class="link" data-entity-1="ent0007" data-entity-2="ent0015" data-link-type="dependency" data-source-line="84" id="lnk43"><path codeLine="84" d="M880.26,526.5494 C1049.94,540.8994 1379.49,574.1194 1485,622.8994 C1526.17,641.9394 1562.9013,671.7539 1589.0413,695.6739" fill="none" id="LocalFsClass-to-restoreMetaFree" style="stroke:#000000;stroke-width:1;stroke-dasharray:7,7;"/><polygon fill="#000000" points="1592.73,699.0494,1588.7907,690.0226,1589.0413,695.6739,1583.39,695.9246,1592.73,699.0494" style="stroke:#000000;stroke-width:1;stroke-linejoin:miter;stroke-miterlimit:10;"/><text fill="#000000" font-family="Verdana" font-size="13" lengthAdjust="spacing" textLength="65.0001" x="1417.62" y="598.9163">&#20803;&#25968;&#25454;&#24674;&#22797;</text></g><!--link LocalFsClass to PlatformMacros--><g class="link" data-entity-1="ent0007" data-entity-2="ent0005" data-link-type="dependency" data-source-line="86" id="lnk44"><path codeLine="86" d="M836.02,556.1794 C883.7,586.5694 947.5841,627.2913 1003.3241,662.8313" fill="none" id="LocalFsClass-to-PlatformMacros" style="stroke:#000000;stroke-width:1;stroke-dasharray:7,7;"/><polygon fill="#000000" points="1007.54,665.5194,1002.1018,657.3081,1003.3241,662.8313,997.8008,664.0536,1007.54,665.5194" style="stroke:#000000;stroke-width:1;stroke-linejoin:miter;stroke-miterlimit:10;"/><text fill="#000000" font-family="Verdana" font-size="13" lengthAdjust="spacing" textLength="52.0001" x="902.98" y="598.9163">&#26465;&#20214;&#32534;&#35793;</text></g><!--link restoreMetaFree to canRestore--><g class="link" data-entity-1="ent0015" data-entity-2="ent0018" data-link-type="dependency" data-source-line="88" id="lnk45"><path codeLine="88" d="M1622,758.4094 C1622,792.9994 1622,845.6794 1622,880.1794" fill="none" id="restoreMetaFree-to-canRestore" style="stroke:#000000;stroke-width:1;"/><polygon fill="#000000" points="1622,885.1794,1626,876.1794,1622,880.1794,1618,876.1794,1622,885.1794" style="stroke:#000000;stroke-width:1;stroke-linejoin:miter;stroke-miterlimit:10;"/></g><!--link LocalFsClass to PathMapper--><g class="link" data-entity-1="ent0007" data-entity-2="ent0026" data-link-type="dependency" data-source-line="90" id="lnk46"><path codeLine="90" d="M880.07,519.3994 C1238.5,523.0294 2416.83,541.1594 2564,622.8994 C2593.97,639.5494 2612.5271,669.5471 2624.2571,694.4171" fill="none" id="LocalFsClass-to-PathMapper" style="stroke:#000000;stroke-width:1;"/><polygon fill="#000000" points="2626.39,698.9394,2626.1685,689.093,2624.2571,694.4171,2618.9329,692.5057,2626.39,698.9394" style="stroke:#000000;stroke-width:1;stroke-linejoin:miter;stroke-miterlimit:10;"/><text fill="#000000" font-family="Verdana" font-size="13" lengthAdjust="spacing" textLength="52.0001" x="2497.2" y="598.9163">&#36335;&#24452;&#36716;&#25442;</text></g><!--link LocalFsClass to GMN47--><g class="link" data-entity-1="ent0007" data-entity-2="ent0048" data-link-type="association" data-source-line="94" id="lnk49"><path d="M880.33,519.7194 C1209.44,523.8894 2230.66,540.2394 2558,585.8494 C2626.87,595.4394 2646.86,593.7694 2710,622.8994 C2723.25,629.0194 2736.53,636.4194 2749.37,644.4294" fill="none" id="LocalFsClass-GMN47" style="stroke:#000000;stroke-width:1;stroke-dasharray:7,7;"/></g><?plantuml-src ZLThJzjM6FxkNt76FWpKIvZQxb814eMuoWe5aKoT9gJ8E2V4Ic97jWD5soGebq4B3UjQw0swtldG9Y1ekGIej9yoSPpaK__2tdEExTXnc1OKnVRxF8_VSzxRuGipXRCOvJAIeWf6Mb5paYvbaPoH3EEAfYUmtgDbD1rzUO5z0X19Je_gMbvDs33nQ_ed2APYPZ0YxvShs-LA-Td9tlJdmyVMokydvO_yYNNxgBhrt0LOwpDW8a-E1I47cj8eHYt_0Mz1lmW2GdNetTUay99itMf1ae4Ygedrf2JZFca2WrFXxyHsCGmK11zfn31rIJRv0b2B6EssdoYQEgm6NygrcR0FQ-iXT0QDIvbqgwvfPXkwZC8tSrWsSQ9Z37uqlKDKCZYiclf4LvTBqB6KQCr9PgePGKv9kWSxhYicPk2pA26PqbbaJkImdwWfYJeXcqueUXDr7uXwq8zDYIe6iOx5YpV0D-oZd4LPJFtHnjLJtlIRGB_UI97zRLBOj5vEMX_kV3wSXyGpavgUFP_wVBZ0zdZGVWAvr1E-6EwnjzcE5gUJOe4K7v_i-ndzagnhXXkMAzqzry93yS6-xfWuCDGV7no8Hdv2dUXhrDgdgFcReQma3qJRJa7VY5pl7RWHvVWRYfhGneq6R3JM7OjtnoBzuLO38izTgqtUgiqkDG7s_rzWp-d0u7RsQRAK4Gr_2ZzzHvvkUXEP5DShTpVPPja4LXINmj_xTpUevkNqC92plLoJp6xKfZTyTM6jx5lR3spKoT6dolqDmqnSlfo4EZ0c31Dd8PrOCDmrkGwmGceRLdKivtL36SDnI6LM5HDng09TWgjXzGpA6APajhQXobQPhD_XsSHSfGAHR2xZ5MN51g9A4dp44drz3dup6Krc76flvF2Y0vBcaBwvUEqAabDvDMt05YykqBAEGI6I-JbhvvY_d98QbNWrWf8CCcPzGGes68dP0oGfZTs-GSbimU2uLLWcXPKV8xsXg_2rLZ_MLdUi-Mskv2K5CiMft66Lp4vR3pQjfQAryPoihJAkOnrCZqBXYUA5SBi_DNpz8k0GURzg5J-ukqc1eewnNy3VGAY6d8BMyS_SlQISochm52xpffB5gY6PjfXBQjJBsa8nxGT3KwaSEIYG-LMokC9t0pksPYnHrx8khx0Kf3e0BrcMr27kqC2uYdKZfUGedwRVizUq_LjhqxL7oqoZZWr48WfjKe62Wb0DgvM5VQjucnShUJLJMPvZT0y6ud4XV4cyv8z70fkGHauIKZUYyKXqA7mrr1iP2lLTlrPvpxiZ1zfwZH6DJcGpYcgNd9IWroZ4GXWtkCcDAK1zUy6osSEtyK2t4zqhuAA34gAIr2W_cqx25OAPS5AUPUt1cGXrN93TYySKcIsVPdy2Zvt9fbKjSReC40816OHPrY_bSXXwItMtH8vdh8T_aSqPilkQpExo6UD2M8M4syLlnMv_HBmgjRL7rkGKvqEFQf3miWmjhyiufWrXc6BGyEXIAkKrKjhdda19L9xikRTCoT1bHl17a_DZ6ZsJvLbYUecWGrv1aXrvT83ZmBrI8-o9toKljvbB7avphw9idKsyiWwM6rsAwZAB4KJfAzJPsOagvRVMmYTwAVXcqRbyxjolNVvZcSDn1XsPcuK9LTsSXZdKHE5SLtrc12pkP0Xot5OVCDKRkk0ey-U-zkoxOtPVeS9nYayrFk50odaXmxhr1BZAkpUai5lxynWEgarXj7809qR4WQPsA0amLul746JUY0J_giwVx_ArTK2xCwHQAaF_RuRtTMulnPfwGLujDNb7mq4Ejc3jEJt37AvKIty8GgCaMq6zpGOZKQyukZwMPDMZTzRI2oT7xDFaRf4StcAveMecHYEQQMfPf2Lz1n_8o8wHBY-ZMjgn7jw5_siwGYDTtCpFcBxpPTt-zwvxRZdPMwhkFgizBlY2no2ak6Wzs47kY6SZ9LGvsAwylUVEUmwrxfUinIbaTqvwy8VMnqtrQKGA9RxXP6lzPAyiS4Vj4wtFERjXnwcFUGEyz6KWWz0S2dap1GeOri8TgTr_L2sLED1s7v4d1_IaldU0scsVcLEsHuLLk1Qmca1qumM-_QQMetllBshcDBXVVJF5IxawELjtdlUmi3ggg1W6a9qHxdrCqWS10MaGGZyhEVSw9Qc937RwfVl0fhUsrJtx5m00?></g></svg>