<svg xmlns="http://www.w3.org/2000/svg" xmlns:xlink="http://www.w3.org/1999/xlink" contentStyleType="text/css" data-diagram-type="CLASS" height="1267px" preserveAspectRatio="none" style="width:2395px;height:1267px;background:#FFFFFF;" version="1.1" viewBox="0 0 2395 1267" width="2395px" zoomAndPan="magnify"><?plantuml 1.2026.6?><defs/><g><g class="title" data-source-line="5"><text fill="#000000" font-family="Verdana" font-size="22" font-weight="700" lengthAdjust="spacing" textLength="330.0011" x="1031.4995" y="35.4209">&#23376;&#31995;&#32479;&#19968;&#65306;&#29992;&#25143;&#25509;&#21475;&#23376;&#31995;&#32479;&#26500;&#20214;&#22270;</text></g><!--cluster ???????--><g class="cluster" data-qualified-name="......." data-source-line="7" id="ent0001"><path d="M13.5,57.6094 L112.4996,57.6094 A3.75,3.75 0 0 1 114.9996,60.1094 L121.9996,79.9063 L2377.5,79.9063 A2.5,2.5 0 0 1 2380,82.4063 L2380,1249.5594 A2.5,2.5 0 0 1 2377.5,1252.0594 L13.5,1252.0594 A2.5,2.5 0 0 1 11,1249.5594 L11,60.1094 A2.5,2.5 0 0 1 13.5,57.6094" fill="#FFFFFF" style="stroke:#000000;stroke-width:1;"/><line style="stroke:#000000;stroke-width:1;" x1="11" x2="121.9996" y1="79.9063" y2="79.9063"/><text fill="#000000" font-family="Verdana" font-size="14" font-weight="700" lengthAdjust="spacing" textLength="97.9996" x="15" y="72.6045">&#29992;&#25143;&#25509;&#21475;&#23376;&#31995;&#32479;</text></g><!--cluster CLI--><g class="cluster" data-qualified-name="........CLI" data-source-line="9" id="ent0002"><path d="M37.5,689.8994 L137.778,689.8994 A3.75,3.75 0 0 1 140.278,692.3994 L147.278,712.1963 L1139.5,712.1963 A2.5,2.5 0 0 1 1142,714.6963 L1142,1225.5594 A2.5,2.5 0 0 1 1139.5,1228.0594 L37.5,1228.0594 A2.5,2.5 0 0 1 35,1225.5594 L35,692.3994 A2.5,2.5 0 0 1 37.5,689.8994" fill="#E8F0FE" style="stroke:#000000;stroke-width:1;"/><line style="stroke:#000000;stroke-width:1;" x1="35" x2="147.278" y1="712.1963" y2="712.1963"/><text fill="#000000" font-family="Verdana" font-size="14" font-weight="700" lengthAdjust="spacing" textLength="99.278" x="39" y="704.8945">CLI &#21629;&#20196;&#34892;&#27169;&#22359;</text></g><!--cluster GUI--><g class="cluster" data-qualified-name="........GUI" data-source-line="27" id="ent0016"><path d="M1168.5,100.6094 L1286.442,100.6094 A3.75,3.75 0 0 1 1288.942,103.1094 L1295.942,122.9063 L2353.5,122.9063 A2.5,2.5 0 0 1 2356,125.4063 L2356,802.8094 A2.5,2.5 0 0 1 2353.5,805.3094 L1168.5,805.3094 A2.5,2.5 0 0 1 1166,802.8094 L1166,103.1094 A2.5,2.5 0 0 1 1168.5,100.6094" fill="#E8F5E9" style="stroke:#000000;stroke-width:1;"/><line style="stroke:#000000;stroke-width:1;" x1="1166" x2="1295.942" y1="122.9063" y2="122.9063"/><text fill="#000000" font-family="Verdana" font-size="14" font-weight="700" lengthAdjust="spacing" textLength="116.942" x="1170" y="115.6045">GUI &#22270;&#24418;&#30028;&#38754;&#27169;&#22359;</text></g><!--class CLI11App--><g class="entity" data-qualified-name="........CLI.CLI11App" data-source-line="10" id="ent0003"><rect fill="#F1F1F1" height="56.2656" rx="2.5" ry="2.5" style="stroke:#333333;stroke-width:1;" width="168.0067" x="332" y="724.8994"/><ellipse cx="345" cy="745.0322" fill="#FFFFFF" rx="9" ry="9" style="stroke:#000000;stroke-width:1;"/><path d="M348.4063,747.0009 C347.6875,747.6728 346.3906,748.8447 344.6406,748.8447 C342.4219,748.8447 341.4531,746.9072 341.4531,744.9541 C341.4531,742.5634 342.9375,741.2978 344.5781,741.2978 C346.5938,741.2978 346.8125,742.8134 346.9844,743.9072 L348.4063,743.7197 C348.3125,743.1416 348.2344,742.5634 348.2344,741.5947 C348.2344,740.9228 348.2813,740.3759 348.3125,739.9541 L346.9063,739.9541 L346.7969,740.9072 C346.2031,740.3759 345.5625,739.8291 344.3438,739.8291 C342.2969,739.8291 339.8906,741.6572 339.8906,744.9697 C339.8906,747.9072 341.6563,750.2978 344.6563,750.2978 C347.0938,750.2978 348.7969,748.6728 349.3906,748.0947 L348.4063,747.0009 Z " fill="#000000"/><text fill="#000000" font-family="Verdana" font-size="12" font-style="italic" lengthAdjust="spacing" textLength="50.6839" x="401.6614" y="741.038">&#171;&#22806;&#37096;&#24211;&#187;</text><text fill="#000000" font-family="Verdana" font-size="14" lengthAdjust="spacing" textLength="140.0067" x="357" y="756.8632">CLI::App&#65288;CLI11&#24211;&#65289;</text><line style="stroke:#333333;stroke-width:1;" x1="333" x2="499.0067" y1="765.165" y2="765.165"/><line style="stroke:#333333;stroke-width:1;" x1="333" x2="499.0067" y1="773.165" y2="773.165"/></g><!--class handleBackup--><g class="entity" data-qualified-name="........CLI.handleBackup" data-source-line="11" id="ent0004"><rect fill="#F1F1F1" height="58.5938" rx="2.5" ry="2.5" style="stroke:#333333;stroke-width:1;" width="138.3867" x="746.81" y="868.3094"/><ellipse cx="759.81" cy="889.6063" fill="#FFFFFF" rx="9" ry="9" style="stroke:#000000;stroke-width:1;"/><path d="M763.2163,891.575 C762.4975,892.2469 761.2006,893.4188 759.4506,893.4188 C757.2319,893.4188 756.2631,891.4813 756.2631,889.5281 C756.2631,887.1375 757.7475,885.8719 759.3881,885.8719 C761.4038,885.8719 761.6225,887.3875 761.7944,888.4813 L763.2163,888.2938 C763.1225,887.7156 763.0444,887.1375 763.0444,886.1688 C763.0444,885.4969 763.0913,884.95 763.1225,884.5281 L761.7163,884.5281 L761.6069,885.4813 C761.0131,884.95 760.3725,884.4031 759.1538,884.4031 C757.1069,884.4031 754.7006,886.2313 754.7006,889.5438 C754.7006,892.4813 756.4663,894.8719 759.4663,894.8719 C761.9038,894.8719 763.6069,893.2469 764.2006,892.6688 L763.2163,891.575 Z " fill="#000000"/><text fill="#000000" font-family="Verdana" font-size="14" lengthAdjust="spacing" textLength="110.3867" x="771.81" y="886.3045">handleBackup()</text><text fill="#000000" font-family="Verdana" font-size="14" lengthAdjust="spacing" textLength="83.9996" x="785.0035" y="902.6014">&#25191;&#34892;&#22791;&#20221;&#21629;&#20196;</text><line style="stroke:#333333;stroke-width:1;" x1="747.81" x2="884.1967" y1="910.9031" y2="910.9031"/><line style="stroke:#333333;stroke-width:1;" x1="747.81" x2="884.1967" y1="918.9031" y2="918.9031"/></g><!--class handleRestore--><g class="entity" data-qualified-name="........CLI.handleRestore" data-source-line="12" id="ent0005"><rect fill="#F1F1F1" height="58.5938" rx="2.5" ry="2.5" style="stroke:#333333;stroke-width:1;" width="140.6973" x="433.65" y="868.3094"/><ellipse cx="446.65" cy="889.6063" fill="#FFFFFF" rx="9" ry="9" style="stroke:#000000;stroke-width:1;"/><path d="M450.0563,891.575 C449.3375,892.2469 448.0406,893.4188 446.2906,893.4188 C444.0719,893.4188 443.1031,891.4813 443.1031,889.5281 C443.1031,887.1375 444.5875,885.8719 446.2281,885.8719 C448.2438,885.8719 448.4625,887.3875 448.6344,888.4813 L450.0563,888.2938 C449.9625,887.7156 449.8844,887.1375 449.8844,886.1688 C449.8844,885.4969 449.9313,884.95 449.9625,884.5281 L448.5563,884.5281 L448.4469,885.4813 C447.8531,884.95 447.2125,884.4031 445.9938,884.4031 C443.9469,884.4031 441.5406,886.2313 441.5406,889.5438 C441.5406,892.4813 443.3063,894.8719 446.3063,894.8719 C448.7438,894.8719 450.4469,893.2469 451.0406,892.6688 L450.0563,891.575 Z " fill="#000000"/><text fill="#000000" font-family="Verdana" font-size="14" lengthAdjust="spacing" textLength="112.6973" x="458.65" y="886.3045">handleRestore()</text><text fill="#000000" font-family="Verdana" font-size="14" lengthAdjust="spacing" textLength="83.9996" x="472.9988" y="902.6014">&#25191;&#34892;&#24674;&#22797;&#21629;&#20196;</text><line style="stroke:#333333;stroke-width:1;" x1="434.65" x2="573.3473" y1="910.9031" y2="910.9031"/><line style="stroke:#333333;stroke-width:1;" x1="434.65" x2="573.3473" y1="918.9031" y2="918.9031"/></g><!--class handleSchedule--><g class="entity" data-qualified-name="........CLI.handleSchedule" data-source-line="13" id="ent0006"><rect fill="#F1F1F1" height="58.5938" rx="2.5" ry="2.5" style="stroke:#333333;stroke-width:1;" width="150.9717" x="67.51" y="868.3094"/><ellipse cx="80.51" cy="889.6063" fill="#FFFFFF" rx="9" ry="9" style="stroke:#000000;stroke-width:1;"/><path d="M83.9163,891.575 C83.1975,892.2469 81.9006,893.4188 80.1506,893.4188 C77.9319,893.4188 76.9631,891.4813 76.9631,889.5281 C76.9631,887.1375 78.4475,885.8719 80.0881,885.8719 C82.1038,885.8719 82.3225,887.3875 82.4944,888.4813 L83.9163,888.2938 C83.8225,887.7156 83.7444,887.1375 83.7444,886.1688 C83.7444,885.4969 83.7913,884.95 83.8225,884.5281 L82.4163,884.5281 L82.3069,885.4813 C81.7131,884.95 81.0725,884.4031 79.8538,884.4031 C77.8069,884.4031 75.4006,886.2313 75.4006,889.5438 C75.4006,892.4813 77.1663,894.8719 80.1663,894.8719 C82.6038,894.8719 84.3069,893.2469 84.9006,892.6688 L83.9163,891.575 Z " fill="#000000"/><text fill="#000000" font-family="Verdana" font-size="14" lengthAdjust="spacing" textLength="122.9717" x="92.51" y="886.3045">handleSchedule()</text><text fill="#000000" font-family="Verdana" font-size="14" lengthAdjust="spacing" textLength="83.9996" x="111.996" y="902.6014">&#35745;&#21010;&#31649;&#29702;&#21629;&#20196;</text><line style="stroke:#333333;stroke-width:1;" x1="68.51" x2="217.4817" y1="910.9031" y2="910.9031"/><line style="stroke:#333333;stroke-width:1;" x1="68.51" x2="217.4817" y1="918.9031" y2="918.9031"/></g><!--class handleDaemon--><g class="entity" data-qualified-name="........CLI.handleDaemon" data-source-line="14" id="ent0007"><rect fill="#F1F1F1" height="58.5938" rx="2.5" ry="2.5" style="stroke:#333333;stroke-width:1;" width="145.6875" x="253.16" y="868.3094"/><ellipse cx="266.16" cy="889.6063" fill="#FFFFFF" rx="9" ry="9" style="stroke:#000000;stroke-width:1;"/><path d="M269.5663,891.575 C268.8475,892.2469 267.5506,893.4188 265.8006,893.4188 C263.5819,893.4188 262.6131,891.4813 262.6131,889.5281 C262.6131,887.1375 264.0975,885.8719 265.7381,885.8719 C267.7538,885.8719 267.9725,887.3875 268.1444,888.4813 L269.5663,888.2938 C269.4725,887.7156 269.3944,887.1375 269.3944,886.1688 C269.3944,885.4969 269.4413,884.95 269.4725,884.5281 L268.0663,884.5281 L267.9569,885.4813 C267.3631,884.95 266.7225,884.4031 265.5038,884.4031 C263.4569,884.4031 261.0506,886.2313 261.0506,889.5438 C261.0506,892.4813 262.8163,894.8719 265.8163,894.8719 C268.2538,894.8719 269.9569,893.2469 270.5506,892.6688 L269.5663,891.575 Z " fill="#000000"/><text fill="#000000" font-family="Verdana" font-size="14" lengthAdjust="spacing" textLength="117.6875" x="278.16" y="886.3045">handleDaemon()</text><text fill="#000000" font-family="Verdana" font-size="14" lengthAdjust="spacing" textLength="83.9996" x="295.0039" y="902.6014">&#23432;&#25252;&#36827;&#31243;&#21629;&#20196;</text><line style="stroke:#333333;stroke-width:1;" x1="254.16" x2="397.8475" y1="910.9031" y2="910.9031"/><line style="stroke:#333333;stroke-width:1;" x1="254.16" x2="397.8475" y1="918.9031" y2="918.9031"/></g><!--class BackupOpts--><g class="entity" data-qualified-name="........CLI.BackupOpts" data-source-line="16" id="ent0008"><rect fill="#F1F1F1" height="72.5625" rx="2.5" ry="2.5" style="stroke:#333333;stroke-width:1;" width="133.7656" x="848.12" y="1003.8994"/><ellipse cx="861.12" cy="1032.1806" fill="#FFFFFF" rx="9" ry="9" style="stroke:#000000;stroke-width:1;"/><path d="M864.5263,1034.1494 C863.8075,1034.8213 862.5106,1035.9931 860.7606,1035.9931 C858.5419,1035.9931 857.5731,1034.0556 857.5731,1032.1025 C857.5731,1029.7119 859.0575,1028.4463 860.6981,1028.4463 C862.7138,1028.4463 862.9325,1029.9619 863.1044,1031.0556 L864.5263,1030.8681 C864.4325,1030.29 864.3544,1029.7119 864.3544,1028.7431 C864.3544,1028.0713 864.4013,1027.5244 864.4325,1027.1025 L863.0263,1027.1025 L862.9169,1028.0556 C862.3231,1027.5244 861.6825,1026.9775 860.4638,1026.9775 C858.4169,1026.9775 856.0106,1028.8056 856.0106,1032.1181 C856.0106,1035.0556 857.7763,1037.4463 860.7763,1037.4463 C863.2138,1037.4463 864.9169,1035.8213 865.5106,1035.2431 L864.5263,1034.1494 Z " fill="#000000"/><text fill="#000000" font-family="Verdana" font-size="12" font-style="italic" lengthAdjust="spacing" textLength="50.6839" x="900.6609" y="1020.038">&#171;&#32467;&#26500;&#20307;&#187;</text><text fill="#000000" font-family="Verdana" font-size="14" lengthAdjust="spacing" textLength="105.7656" x="873.12" y="1035.8632">BackupOptions</text><text fill="#000000" font-family="Verdana" font-size="14" lengthAdjust="spacing" textLength="55.9998" x="898.0029" y="1052.1601">&#22791;&#20221;&#37197;&#32622;</text><line style="stroke:#333333;stroke-width:1;" x1="849.12" x2="980.8856" y1="1060.4619" y2="1060.4619"/><line style="stroke:#333333;stroke-width:1;" x1="849.12" x2="980.8856" y1="1068.4619" y2="1068.4619"/></g><!--class RestoreOpts--><g class="entity" data-qualified-name="........CLI.RestoreOpts" data-source-line="17" id="ent0009"><rect fill="#F1F1F1" height="72.5625" rx="2.5" ry="2.5" style="stroke:#333333;stroke-width:1;" width="136.0762" x="202.96" y="1003.8994"/><ellipse cx="215.96" cy="1032.1806" fill="#FFFFFF" rx="9" ry="9" style="stroke:#000000;stroke-width:1;"/><path d="M219.3663,1034.1494 C218.6475,1034.8213 217.3506,1035.9931 215.6006,1035.9931 C213.3819,1035.9931 212.4131,1034.0556 212.4131,1032.1025 C212.4131,1029.7119 213.8975,1028.4463 215.5381,1028.4463 C217.5538,1028.4463 217.7725,1029.9619 217.9444,1031.0556 L219.3663,1030.8681 C219.2725,1030.29 219.1944,1029.7119 219.1944,1028.7431 C219.1944,1028.0713 219.2413,1027.5244 219.2725,1027.1025 L217.8663,1027.1025 L217.7569,1028.0556 C217.1631,1027.5244 216.5225,1026.9775 215.3038,1026.9775 C213.2569,1026.9775 210.8506,1028.8056 210.8506,1032.1181 C210.8506,1035.0556 212.6163,1037.4463 215.6163,1037.4463 C218.0538,1037.4463 219.7569,1035.8213 220.3506,1035.2431 L219.3663,1034.1494 Z " fill="#000000"/><text fill="#000000" font-family="Verdana" font-size="12" font-style="italic" lengthAdjust="spacing" textLength="50.6839" x="256.6562" y="1020.038">&#171;&#32467;&#26500;&#20307;&#187;</text><text fill="#000000" font-family="Verdana" font-size="14" lengthAdjust="spacing" textLength="108.0762" x="227.96" y="1035.8632">RestoreOptions</text><text fill="#000000" font-family="Verdana" font-size="14" lengthAdjust="spacing" textLength="55.9998" x="253.9982" y="1052.1601">&#24674;&#22797;&#37197;&#32622;</text><line style="stroke:#333333;stroke-width:1;" x1="203.96" x2="338.0362" y1="1060.4619" y2="1060.4619"/><line style="stroke:#333333;stroke-width:1;" x1="203.96" x2="338.0362" y1="1068.4619" y2="1068.4619"/></g><!--class buildFilterCLI--><g class="entity" data-qualified-name="........CLI.buildFilterCLI" data-source-line="19" id="ent0010"><rect fill="#F1F1F1" height="58.5938" rx="2.5" ry="2.5" style="stroke:#333333;stroke-width:1;" width="109.04" x="1016.48" y="1010.8894"/><ellipse cx="1029.48" cy="1032.1863" fill="#FFFFFF" rx="9" ry="9" style="stroke:#000000;stroke-width:1;"/><path d="M1032.8863,1034.155 C1032.1675,1034.8269 1030.8706,1035.9988 1029.1206,1035.9988 C1026.9019,1035.9988 1025.9331,1034.0613 1025.9331,1032.1081 C1025.9331,1029.7175 1027.4175,1028.4519 1029.0581,1028.4519 C1031.0738,1028.4519 1031.2925,1029.9675 1031.4644,1031.0613 L1032.8863,1030.8738 C1032.7925,1030.2956 1032.7144,1029.7175 1032.7144,1028.7488 C1032.7144,1028.0769 1032.7613,1027.53 1032.7925,1027.1081 L1031.3863,1027.1081 L1031.2769,1028.0613 C1030.6831,1027.53 1030.0425,1026.9831 1028.8238,1026.9831 C1026.7769,1026.9831 1024.3706,1028.8113 1024.3706,1032.1238 C1024.3706,1035.0613 1026.1363,1037.4519 1029.1363,1037.4519 C1031.5738,1037.4519 1033.2769,1035.8269 1033.8706,1035.2488 L1032.8863,1034.155 Z " fill="#000000"/><text fill="#000000" font-family="Verdana" font-size="14" lengthAdjust="spacing" textLength="81.04" x="1041.48" y="1028.8845">buildFilter()</text><text fill="#000000" font-family="Verdana" font-size="14" lengthAdjust="spacing" textLength="69.9997" x="1047.0002" y="1045.1814">&#36807;&#28388;&#22120;&#24037;&#21378;</text><line style="stroke:#333333;stroke-width:1;" x1="1017.48" x2="1124.52" y1="1053.4831" y2="1053.4831"/><line style="stroke:#333333;stroke-width:1;" x1="1017.48" x2="1124.52" y1="1061.4831" y2="1061.4831"/></g><!--class buildPackerCLI--><g class="entity" data-qualified-name="........CLI.buildPackerCLI" data-source-line="20" id="ent0011"><rect fill="#F1F1F1" height="58.5938" rx="2.5" ry="2.5" style="stroke:#333333;stroke-width:1;" width="120.5449" x="540.73" y="1010.8894"/><ellipse cx="553.73" cy="1032.1863" fill="#FFFFFF" rx="9" ry="9" style="stroke:#000000;stroke-width:1;"/><path d="M557.1363,1034.155 C556.4175,1034.8269 555.1206,1035.9988 553.3706,1035.9988 C551.1519,1035.9988 550.1831,1034.0613 550.1831,1032.1081 C550.1831,1029.7175 551.6675,1028.4519 553.3081,1028.4519 C555.3238,1028.4519 555.5425,1029.9675 555.7144,1031.0613 L557.1363,1030.8738 C557.0425,1030.2956 556.9644,1029.7175 556.9644,1028.7488 C556.9644,1028.0769 557.0113,1027.53 557.0425,1027.1081 L555.6363,1027.1081 L555.5269,1028.0613 C554.9331,1027.53 554.2925,1026.9831 553.0738,1026.9831 C551.0269,1026.9831 548.6206,1028.8113 548.6206,1032.1238 C548.6206,1035.0613 550.3863,1037.4519 553.3863,1037.4519 C555.8238,1037.4519 557.5269,1035.8269 558.1206,1035.2488 L557.1363,1034.155 Z " fill="#000000"/><text fill="#000000" font-family="Verdana" font-size="14" lengthAdjust="spacing" textLength="92.5449" x="565.73" y="1028.8845">buildPacker()</text><text fill="#000000" font-family="Verdana" font-size="14" lengthAdjust="spacing" textLength="69.9997" x="577.0026" y="1045.1814">&#25171;&#21253;&#22120;&#24037;&#21378;</text><line style="stroke:#333333;stroke-width:1;" x1="541.73" x2="660.2749" y1="1053.4831" y2="1053.4831"/><line style="stroke:#333333;stroke-width:1;" x1="541.73" x2="660.2749" y1="1061.4831" y2="1061.4831"/></g><!--class transformFile--><g class="entity" data-qualified-name="........CLI.transformFile" data-source-line="21" id="ent0012"><rect fill="#F1F1F1" height="58.5938" rx="2.5" ry="2.5" style="stroke:#333333;stroke-width:1;" width="132.248" x="373.88" y="1010.8894"/><ellipse cx="386.88" cy="1032.1863" fill="#FFFFFF" rx="9" ry="9" style="stroke:#000000;stroke-width:1;"/><path d="M390.2863,1034.155 C389.5675,1034.8269 388.2706,1035.9988 386.5206,1035.9988 C384.3019,1035.9988 383.3331,1034.0613 383.3331,1032.1081 C383.3331,1029.7175 384.8175,1028.4519 386.4581,1028.4519 C388.4738,1028.4519 388.6925,1029.9675 388.8644,1031.0613 L390.2863,1030.8738 C390.1925,1030.2956 390.1144,1029.7175 390.1144,1028.7488 C390.1144,1028.0769 390.1613,1027.53 390.1925,1027.1081 L388.7863,1027.1081 L388.6769,1028.0613 C388.0831,1027.53 387.4425,1026.9831 386.2238,1026.9831 C384.1769,1026.9831 381.7706,1028.8113 381.7706,1032.1238 C381.7706,1035.0613 383.5363,1037.4519 386.5363,1037.4519 C388.9738,1037.4519 390.6769,1035.8269 391.2706,1035.2488 L390.2863,1034.155 Z " fill="#000000"/><text fill="#000000" font-family="Verdana" font-size="14" lengthAdjust="spacing" textLength="104.248" x="398.88" y="1028.8845">transformFile()</text><text fill="#000000" font-family="Verdana" font-size="14" lengthAdjust="spacing" textLength="88.7164" x="406.6458" y="1045.1814">&#21387;&#32553;/&#35299;&#21387;&#25991;&#20214;</text><line style="stroke:#333333;stroke-width:1;" x1="374.88" x2="505.128" y1="1053.4831" y2="1053.4831"/><line style="stroke:#333333;stroke-width:1;" x1="374.88" x2="505.128" y1="1061.4831" y2="1061.4831"/></g><!--class encryptFileCLI--><g class="entity" data-qualified-name="........CLI.encryptFileCLI" data-source-line="22" id="ent0013"><rect fill="#F1F1F1" height="58.5938" rx="2.5" ry="2.5" style="stroke:#333333;stroke-width:1;" width="116.9697" x="696.52" y="1010.8894"/><ellipse cx="709.52" cy="1032.1863" fill="#FFFFFF" rx="9" ry="9" style="stroke:#000000;stroke-width:1;"/><path d="M712.9263,1034.155 C712.2075,1034.8269 710.9106,1035.9988 709.1606,1035.9988 C706.9419,1035.9988 705.9731,1034.0613 705.9731,1032.1081 C705.9731,1029.7175 707.4575,1028.4519 709.0981,1028.4519 C711.1138,1028.4519 711.3325,1029.9675 711.5044,1031.0613 L712.9263,1030.8738 C712.8325,1030.2956 712.7544,1029.7175 712.7544,1028.7488 C712.7544,1028.0769 712.8013,1027.53 712.8325,1027.1081 L711.4263,1027.1081 L711.3169,1028.0613 C710.7231,1027.53 710.0825,1026.9831 708.8638,1026.9831 C706.8169,1026.9831 704.4106,1028.8113 704.4106,1032.1238 C704.4106,1035.0613 706.1763,1037.4519 709.1763,1037.4519 C711.6138,1037.4519 713.3169,1035.8269 713.9106,1035.2488 L712.9263,1034.155 Z " fill="#000000"/><text fill="#000000" font-family="Verdana" font-size="14" lengthAdjust="spacing" textLength="88.9697" x="721.52" y="1028.8845">encryptFile()</text><text fill="#000000" font-family="Verdana" font-size="14" lengthAdjust="spacing" textLength="55.9998" x="738.005" y="1045.1814">&#21152;&#23494;&#25991;&#20214;</text><line style="stroke:#333333;stroke-width:1;" x1="697.52" x2="812.4897" y1="1053.4831" y2="1053.4831"/><line style="stroke:#333333;stroke-width:1;" x1="697.52" x2="812.4897" y1="1061.4831" y2="1061.4831"/></g><!--class decryptFileCLI--><g class="entity" data-qualified-name="........CLI.decryptFileCLI" data-source-line="23" id="ent0014"><rect fill="#F1F1F1" height="58.5938" rx="2.5" ry="2.5" style="stroke:#333333;stroke-width:1;" width="116.9834" x="50.51" y="1010.8894"/><ellipse cx="63.51" cy="1032.1863" fill="#FFFFFF" rx="9" ry="9" style="stroke:#000000;stroke-width:1;"/><path d="M66.9162,1034.155 C66.1975,1034.8269 64.9006,1035.9988 63.1506,1035.9988 C60.9319,1035.9988 59.9631,1034.0613 59.9631,1032.1081 C59.9631,1029.7175 61.4475,1028.4519 63.0881,1028.4519 C65.1037,1028.4519 65.3225,1029.9675 65.4944,1031.0613 L66.9162,1030.8738 C66.8225,1030.2956 66.7444,1029.7175 66.7444,1028.7488 C66.7444,1028.0769 66.7912,1027.53 66.8225,1027.1081 L65.4162,1027.1081 L65.3069,1028.0613 C64.7131,1027.53 64.0725,1026.9831 62.8538,1026.9831 C60.8069,1026.9831 58.4006,1028.8113 58.4006,1032.1238 C58.4006,1035.0613 60.1663,1037.4519 63.1663,1037.4519 C65.6037,1037.4519 67.3069,1035.8269 67.9006,1035.2488 L66.9162,1034.155 Z " fill="#000000"/><text fill="#000000" font-family="Verdana" font-size="14" lengthAdjust="spacing" textLength="88.9834" x="75.51" y="1028.8845">decryptFile()</text><text fill="#000000" font-family="Verdana" font-size="14" lengthAdjust="spacing" textLength="55.9998" x="92.0018" y="1045.1814">&#35299;&#23494;&#25991;&#20214;</text><line style="stroke:#333333;stroke-width:1;" x1="51.51" x2="166.4934" y1="1053.4831" y2="1053.4831"/><line style="stroke:#333333;stroke-width:1;" x1="51.51" x2="166.4934" y1="1061.4831" y2="1061.4831"/></g><!--class promptPassword--><g class="entity" data-qualified-name="........CLI.promptPassword" data-source-line="24" id="ent0015"><rect fill="#F1F1F1" height="58.5938" rx="2.5" ry="2.5" style="stroke:#333333;stroke-width:1;" width="156.4131" x="353.79" y="1153.4694"/><ellipse cx="366.79" cy="1174.7663" fill="#FFFFFF" rx="9" ry="9" style="stroke:#000000;stroke-width:1;"/><path d="M370.1963,1176.735 C369.4775,1177.4069 368.1806,1178.5788 366.4306,1178.5788 C364.2119,1178.5788 363.2431,1176.6413 363.2431,1174.6881 C363.2431,1172.2975 364.7275,1171.0319 366.3681,1171.0319 C368.3838,1171.0319 368.6025,1172.5475 368.7744,1173.6413 L370.1963,1173.4538 C370.1025,1172.8756 370.0244,1172.2975 370.0244,1171.3288 C370.0244,1170.6569 370.0713,1170.11 370.1025,1169.6881 L368.6963,1169.6881 L368.5869,1170.6413 C367.9931,1170.11 367.3525,1169.5631 366.1338,1169.5631 C364.0869,1169.5631 361.6806,1171.3913 361.6806,1174.7038 C361.6806,1177.6413 363.4463,1180.0319 366.4463,1180.0319 C368.8838,1180.0319 370.5869,1178.4069 371.1806,1177.8288 L370.1963,1176.735 Z " fill="#000000"/><text fill="#000000" font-family="Verdana" font-size="14" lengthAdjust="spacing" textLength="128.4131" x="378.79" y="1171.4645">promptPassword()</text><text fill="#000000" font-family="Verdana" font-size="14" lengthAdjust="spacing" textLength="55.9998" x="414.9967" y="1187.7614">&#23494;&#30721;&#36755;&#20837;</text><line style="stroke:#333333;stroke-width:1;" x1="354.79" x2="509.2031" y1="1196.0631" y2="1196.0631"/><line style="stroke:#333333;stroke-width:1;" x1="354.79" x2="509.2031" y1="1204.0631" y2="1204.0631"/></g><!--class QApp--><g class="entity" data-qualified-name="........GUI.QApp" data-source-line="28" id="ent0017"><rect fill="#F1F1F1" height="72.5625" rx="2.5" ry="2.5" style="stroke:#333333;stroke-width:1;" width="150.0488" x="2037.98" y="135.6094"/><ellipse cx="2050.98" cy="163.8906" fill="#FFFFFF" rx="9" ry="9" style="stroke:#000000;stroke-width:1;"/><path d="M2054.3863,165.8594 C2053.6675,166.5313 2052.3706,167.7031 2050.6206,167.7031 C2048.4019,167.7031 2047.4331,165.7656 2047.4331,163.8125 C2047.4331,161.4219 2048.9175,160.1563 2050.5581,160.1563 C2052.5738,160.1563 2052.7925,161.6719 2052.9644,162.7656 L2054.3863,162.5781 C2054.2925,162 2054.2144,161.4219 2054.2144,160.4531 C2054.2144,159.7813 2054.2613,159.2344 2054.2925,158.8125 L2052.8863,158.8125 L2052.7769,159.7656 C2052.1831,159.2344 2051.5425,158.6875 2050.3238,158.6875 C2048.2769,158.6875 2045.8706,160.5156 2045.8706,163.8281 C2045.8706,166.7656 2047.6363,169.1563 2050.6363,169.1563 C2053.0738,169.1563 2054.7769,167.5313 2055.3706,166.9531 L2054.3863,165.8594 Z " fill="#000000"/><text fill="#000000" font-family="Verdana" font-size="12" font-style="italic" lengthAdjust="spacing" textLength="52.8342" x="2097.5873" y="151.748">&#171;Qt&#26694;&#26550;&#187;</text><text fill="#000000" font-family="Verdana" font-size="14" lengthAdjust="spacing" textLength="89.2432" x="2079.3828" y="167.5732">QApplication</text><text fill="#000000" font-family="Verdana" font-size="14" lengthAdjust="spacing" textLength="122.0488" x="2062.98" y="183.8701">+ QSplashScreen</text><line style="stroke:#333333;stroke-width:1;" x1="2038.98" x2="2187.0288" y1="192.1719" y2="192.1719"/><line style="stroke:#333333;stroke-width:1;" x1="2038.98" x2="2187.0288" y1="200.1719" y2="200.1719"/></g><!--class MainWindow--><g class="entity" data-qualified-name="........GUI.MainWindow" data-source-line="29" id="ent0018"><rect fill="#F1F1F1" height="72.5625" rx="2.5" ry="2.5" style="stroke:#333333;stroke-width:1;" width="124.3535" x="1995.82" y="285.1794"/><ellipse cx="2008.82" cy="313.4606" fill="#FFFFFF" rx="9" ry="9" style="stroke:#000000;stroke-width:1;"/><path d="M2012.2263,315.4294 C2011.5075,316.1013 2010.2106,317.2731 2008.4606,317.2731 C2006.2419,317.2731 2005.2731,315.3356 2005.2731,313.3825 C2005.2731,310.9919 2006.7575,309.7263 2008.3981,309.7263 C2010.4138,309.7263 2010.6325,311.2419 2010.8044,312.3356 L2012.2263,312.1481 C2012.1325,311.57 2012.0544,310.9919 2012.0544,310.0231 C2012.0544,309.3513 2012.1013,308.8044 2012.1325,308.3825 L2010.7263,308.3825 L2010.6169,309.3356 C2010.0231,308.8044 2009.3825,308.2575 2008.1638,308.2575 C2006.1169,308.2575 2003.7106,310.0856 2003.7106,313.3981 C2003.7106,316.3356 2005.4763,318.7263 2008.4763,318.7263 C2010.9138,318.7263 2012.6169,317.1013 2013.2106,316.5231 L2012.2263,315.4294 Z " fill="#000000"/><text fill="#000000" font-family="Verdana" font-size="12" font-style="italic" lengthAdjust="spacing" textLength="100.3535" x="2018.82" y="301.318">&#171;QMainWindow&#187;</text><text fill="#000000" font-family="Verdana" font-size="14" lengthAdjust="spacing" textLength="88.9287" x="2024.5324" y="317.1432">MainWindow</text><text fill="#000000" font-family="Verdana" font-size="14" lengthAdjust="spacing" textLength="41.9998" x="2047.9968" y="333.4401">&#20027;&#31383;&#21475;</text><line style="stroke:#333333;stroke-width:1;" x1="1996.82" x2="2119.1735" y1="341.7419" y2="341.7419"/><line style="stroke:#333333;stroke-width:1;" x1="1996.82" x2="2119.1735" y1="349.7419" y2="349.7419"/></g><!--class TabWidget--><g class="entity" data-qualified-name="........GUI.TabWidget" data-source-line="30" id="ent0019"><rect fill="#F1F1F1" height="72.5625" rx="2.5" ry="2.5" style="stroke:#333333;stroke-width:1;" width="114.6455" x="1739.68" y="434.7394"/><ellipse cx="1752.68" cy="463.0206" fill="#FFFFFF" rx="9" ry="9" style="stroke:#000000;stroke-width:1;"/><path d="M1756.0863,464.9894 C1755.3675,465.6613 1754.0706,466.8331 1752.3206,466.8331 C1750.1019,466.8331 1749.1331,464.8956 1749.1331,462.9425 C1749.1331,460.5519 1750.6175,459.2863 1752.2581,459.2863 C1754.2738,459.2863 1754.4925,460.8019 1754.6644,461.8956 L1756.0863,461.7081 C1755.9925,461.13 1755.9144,460.5519 1755.9144,459.5831 C1755.9144,458.9113 1755.9613,458.3644 1755.9925,457.9425 L1754.5863,457.9425 L1754.4769,458.8956 C1753.8831,458.3644 1753.2425,457.8175 1752.0238,457.8175 C1749.9769,457.8175 1747.5706,459.6456 1747.5706,462.9581 C1747.5706,465.8956 1749.3363,468.2863 1752.3363,468.2863 C1754.7738,468.2863 1756.4769,466.6613 1757.0706,466.0831 L1756.0863,464.9894 Z " fill="#000000"/><text fill="#000000" font-family="Verdana" font-size="12" font-style="italic" lengthAdjust="spacing" textLength="52.8342" x="1781.5857" y="450.878">&#171;Qt&#25511;&#20214;&#187;</text><text fill="#000000" font-family="Verdana" font-size="14" lengthAdjust="spacing" textLength="86.6455" x="1764.68" y="466.7032">QTabWidget</text><text fill="#000000" font-family="Verdana" font-size="14" lengthAdjust="spacing" textLength="55.9998" x="1780.0029" y="483.0001">&#39029;&#31614;&#23481;&#22120;</text><line style="stroke:#333333;stroke-width:1;" x1="1740.68" x2="1853.3255" y1="491.3019" y2="491.3019"/><line style="stroke:#333333;stroke-width:1;" x1="1740.68" x2="1853.3255" y1="499.3019" y2="499.3019"/></g><!--class BackupTab--><g class="entity" data-qualified-name="........GUI.BackupTab" data-source-line="32" id="ent0020"><rect fill="#F1F1F1" height="58.5938" rx="2.5" ry="2.5" style="stroke:#333333;stroke-width:1;" width="105.7656" x="1744.12" y="568.2994"/><ellipse cx="1757.12" cy="589.5963" fill="#FFFFFF" rx="9" ry="9" style="stroke:#000000;stroke-width:1;"/><path d="M1760.5263,591.565 C1759.8075,592.2369 1758.5106,593.4088 1756.7606,593.4088 C1754.5419,593.4088 1753.5731,591.4713 1753.5731,589.5181 C1753.5731,587.1275 1755.0575,585.8619 1756.6981,585.8619 C1758.7138,585.8619 1758.9325,587.3775 1759.1044,588.4713 L1760.5263,588.2838 C1760.4325,587.7056 1760.3544,587.1275 1760.3544,586.1588 C1760.3544,585.4869 1760.4013,584.94 1760.4325,584.5181 L1759.0263,584.5181 L1758.9169,585.4713 C1758.3231,584.94 1757.6825,584.3931 1756.4638,584.3931 C1754.4169,584.3931 1752.0106,586.2213 1752.0106,589.5338 C1752.0106,592.4713 1753.7763,594.8619 1756.7763,594.8619 C1759.2138,594.8619 1760.9169,593.2369 1761.5106,592.6588 L1760.5263,591.565 Z " fill="#000000"/><text fill="#000000" font-family="Verdana" font-size="14" lengthAdjust="spacing" textLength="77.7656" x="1769.12" y="586.2945">BackupTab</text><text fill="#000000" font-family="Verdana" font-size="14" lengthAdjust="spacing" textLength="55.9998" x="1780.0029" y="602.5914">&#22791;&#20221;&#39029;&#31614;</text><line style="stroke:#333333;stroke-width:1;" x1="1745.12" x2="1848.8856" y1="610.8931" y2="610.8931"/><line style="stroke:#333333;stroke-width:1;" x1="1745.12" x2="1848.8856" y1="618.8931" y2="618.8931"/></g><!--class RestoreTab--><g class="entity" data-qualified-name="........GUI.RestoreTab" data-source-line="33" id="ent0021"><rect fill="#F1F1F1" height="58.5938" rx="2.5" ry="2.5" style="stroke:#333333;stroke-width:1;" width="108.0762" x="1557.96" y="568.2994"/><ellipse cx="1570.96" cy="589.5963" fill="#FFFFFF" rx="9" ry="9" style="stroke:#000000;stroke-width:1;"/><path d="M1574.3663,591.565 C1573.6475,592.2369 1572.3506,593.4088 1570.6006,593.4088 C1568.3819,593.4088 1567.4131,591.4713 1567.4131,589.5181 C1567.4131,587.1275 1568.8975,585.8619 1570.5381,585.8619 C1572.5538,585.8619 1572.7725,587.3775 1572.9444,588.4713 L1574.3663,588.2838 C1574.2725,587.7056 1574.1944,587.1275 1574.1944,586.1588 C1574.1944,585.4869 1574.2413,584.94 1574.2725,584.5181 L1572.8663,584.5181 L1572.7569,585.4713 C1572.1631,584.94 1571.5225,584.3931 1570.3038,584.3931 C1568.2569,584.3931 1565.8506,586.2213 1565.8506,589.5338 C1565.8506,592.4713 1567.6163,594.8619 1570.6163,594.8619 C1573.0538,594.8619 1574.7569,593.2369 1575.3506,592.6588 L1574.3663,591.565 Z " fill="#000000"/><text fill="#000000" font-family="Verdana" font-size="14" lengthAdjust="spacing" textLength="80.0762" x="1582.96" y="586.2945">RestoreTab</text><text fill="#000000" font-family="Verdana" font-size="14" lengthAdjust="spacing" textLength="55.9998" x="1594.9982" y="602.5914">&#24674;&#22797;&#39029;&#31614;</text><line style="stroke:#333333;stroke-width:1;" x1="1558.96" x2="1665.0362" y1="610.8931" y2="610.8931"/><line style="stroke:#333333;stroke-width:1;" x1="1558.96" x2="1665.0362" y1="618.8931" y2="618.8931"/></g><!--class ScheduleTabGUI--><g class="entity" data-qualified-name="........GUI.ScheduleTabGUI" data-source-line="34" id="ent0022"><rect fill="#F1F1F1" height="58.5938" rx="2.5" ry="2.5" style="stroke:#333333;stroke-width:1;" width="118.3506" x="1361.82" y="568.2994"/><ellipse cx="1374.82" cy="589.5963" fill="#FFFFFF" rx="9" ry="9" style="stroke:#000000;stroke-width:1;"/><path d="M1378.2263,591.565 C1377.5075,592.2369 1376.2106,593.4088 1374.4606,593.4088 C1372.2419,593.4088 1371.2731,591.4713 1371.2731,589.5181 C1371.2731,587.1275 1372.7575,585.8619 1374.3981,585.8619 C1376.4138,585.8619 1376.6325,587.3775 1376.8044,588.4713 L1378.2263,588.2838 C1378.1325,587.7056 1378.0544,587.1275 1378.0544,586.1588 C1378.0544,585.4869 1378.1013,584.94 1378.1325,584.5181 L1376.7263,584.5181 L1376.6169,585.4713 C1376.0231,584.94 1375.3825,584.3931 1374.1638,584.3931 C1372.1169,584.3931 1369.7106,586.2213 1369.7106,589.5338 C1369.7106,592.4713 1371.4763,594.8619 1374.4763,594.8619 C1376.9138,594.8619 1378.6169,593.2369 1379.2106,592.6588 L1378.2263,591.565 Z " fill="#000000"/><text fill="#000000" font-family="Verdana" font-size="14" lengthAdjust="spacing" textLength="90.3506" x="1386.82" y="586.2945">ScheduleTab</text><text fill="#000000" font-family="Verdana" font-size="14" lengthAdjust="spacing" textLength="55.9998" x="1403.9954" y="602.5914">&#35745;&#21010;&#39029;&#31614;</text><line style="stroke:#333333;stroke-width:1;" x1="1362.82" x2="1479.1706" y1="610.8931" y2="610.8931"/><line style="stroke:#333333;stroke-width:1;" x1="1362.82" x2="1479.1706" y1="618.8931" y2="618.8931"/></g><!--class SettingsTab--><g class="entity" data-qualified-name="........GUI.SettingsTab" data-source-line="35" id="ent0023"><rect fill="#F1F1F1" height="58.5938" rx="2.5" ry="2.5" style="stroke:#333333;stroke-width:1;" width="111.4395" x="1885.28" y="568.2994"/><ellipse cx="1898.28" cy="589.5963" fill="#FFFFFF" rx="9" ry="9" style="stroke:#000000;stroke-width:1;"/><path d="M1901.6863,591.565 C1900.9675,592.2369 1899.6706,593.4088 1897.9206,593.4088 C1895.7019,593.4088 1894.7331,591.4713 1894.7331,589.5181 C1894.7331,587.1275 1896.2175,585.8619 1897.8581,585.8619 C1899.8738,585.8619 1900.0925,587.3775 1900.2644,588.4713 L1901.6863,588.2838 C1901.5925,587.7056 1901.5144,587.1275 1901.5144,586.1588 C1901.5144,585.4869 1901.5613,584.94 1901.5925,584.5181 L1900.1863,584.5181 L1900.0769,585.4713 C1899.4831,584.94 1898.8425,584.3931 1897.6238,584.3931 C1895.5769,584.3931 1893.1706,586.2213 1893.1706,589.5338 C1893.1706,592.4713 1894.9363,594.8619 1897.9363,594.8619 C1900.3738,594.8619 1902.0769,593.2369 1902.6706,592.6588 L1901.6863,591.565 Z " fill="#000000"/><text fill="#000000" font-family="Verdana" font-size="14" lengthAdjust="spacing" textLength="83.4395" x="1910.28" y="586.2945">SettingsTab</text><text fill="#000000" font-family="Verdana" font-size="14" lengthAdjust="spacing" textLength="55.9998" x="1923.9998" y="602.5914">&#35774;&#32622;&#39029;&#31614;</text><line style="stroke:#333333;stroke-width:1;" x1="1886.28" x2="1995.7195" y1="610.8931" y2="610.8931"/><line style="stroke:#333333;stroke-width:1;" x1="1886.28" x2="1995.7195" y1="618.8931" y2="618.8931"/></g><!--class BackupWorker--><g class="entity" data-qualified-name="........GUI.BackupWorker" data-source-line="37" id="ent0024"><rect fill="#F1F1F1" height="72.5625" rx="2.5" ry="2.5" style="stroke:#333333;stroke-width:1;" width="130.3887" x="1859.81" y="716.7494"/><ellipse cx="1872.81" cy="745.0306" fill="#FFFFFF" rx="9" ry="9" style="stroke:#000000;stroke-width:1;"/><path d="M1876.2163,746.9994 C1875.4975,747.6713 1874.2006,748.8431 1872.4506,748.8431 C1870.2319,748.8431 1869.2631,746.9056 1869.2631,744.9525 C1869.2631,742.5619 1870.7475,741.2963 1872.3881,741.2963 C1874.4038,741.2963 1874.6225,742.8119 1874.7944,743.9056 L1876.2163,743.7181 C1876.1225,743.14 1876.0444,742.5619 1876.0444,741.5931 C1876.0444,740.9213 1876.0913,740.3744 1876.1225,739.9525 L1874.7163,739.9525 L1874.6069,740.9056 C1874.0131,740.3744 1873.3725,739.8275 1872.1538,739.8275 C1870.1069,739.8275 1867.7006,741.6556 1867.7006,744.9681 C1867.7006,747.9056 1869.4663,750.2963 1872.4663,750.2963 C1874.9038,750.2963 1876.6069,748.6713 1877.2006,748.0931 L1876.2163,746.9994 Z " fill="#000000"/><text fill="#000000" font-family="Verdana" font-size="12" font-style="italic" lengthAdjust="spacing" textLength="66.3516" x="1902.8286" y="732.888">&#171;QThread&#187;</text><text fill="#000000" font-family="Verdana" font-size="14" lengthAdjust="spacing" textLength="102.3887" x="1884.81" y="748.7132">BackupWorker</text><text fill="#000000" font-family="Verdana" font-size="14" lengthAdjust="spacing" textLength="83.9996" x="1894.0045" y="765.0101">&#21518;&#21488;&#24037;&#20316;&#32447;&#31243;</text><line style="stroke:#333333;stroke-width:1;" x1="1860.81" x2="1989.1987" y1="773.3119" y2="773.3119"/><line style="stroke:#333333;stroke-width:1;" x1="1860.81" x2="1989.1987" y1="781.3119" y2="781.3119"/></g><!--class RestoreWorker--><g class="entity" data-qualified-name="........GUI.RestoreWorker" data-source-line="38" id="ent0025"><rect fill="#F1F1F1" height="58.5938" rx="2.5" ry="2.5" style="stroke:#333333;stroke-width:1;" width="132.6992" x="1380.65" y="723.7294"/><ellipse cx="1393.65" cy="745.0263" fill="#FFFFFF" rx="9" ry="9" style="stroke:#000000;stroke-width:1;"/><path d="M1397.0563,746.995 C1396.3375,747.6669 1395.0406,748.8388 1393.2906,748.8388 C1391.0719,748.8388 1390.1031,746.9013 1390.1031,744.9481 C1390.1031,742.5575 1391.5875,741.2919 1393.2281,741.2919 C1395.2438,741.2919 1395.4625,742.8075 1395.6344,743.9013 L1397.0563,743.7138 C1396.9625,743.1356 1396.8844,742.5575 1396.8844,741.5888 C1396.8844,740.9169 1396.9313,740.37 1396.9625,739.9481 L1395.5563,739.9481 L1395.4469,740.9013 C1394.8531,740.37 1394.2125,739.8231 1392.9938,739.8231 C1390.9469,739.8231 1388.5406,741.6513 1388.5406,744.9638 C1388.5406,747.9013 1390.3063,750.2919 1393.3063,750.2919 C1395.7438,750.2919 1397.4469,748.6669 1398.0406,748.0888 L1397.0563,746.995 Z " fill="#000000"/><text fill="#000000" font-family="Verdana" font-size="14" lengthAdjust="spacing" textLength="104.6992" x="1405.65" y="741.7245">RestoreWorker</text><text fill="#000000" font-family="Verdana" font-size="14" lengthAdjust="spacing" textLength="83.9996" x="1415.9998" y="758.0214">&#21518;&#21488;&#24674;&#22797;&#32447;&#31243;</text><line style="stroke:#333333;stroke-width:1;" x1="1381.65" x2="1512.3492" y1="766.3231" y2="766.3231"/><line style="stroke:#333333;stroke-width:1;" x1="1381.65" x2="1512.3492" y1="774.3231" y2="774.3231"/></g><!--class FilterDialog--><g class="entity" data-qualified-name="........GUI.FilterDialog" data-source-line="40" id="ent0026"><rect fill="#F1F1F1" height="72.5625" rx="2.5" ry="2.5" style="stroke:#333333;stroke-width:1;" width="125.9996" x="2025" y="716.7494"/><ellipse cx="2038" cy="745.0306" fill="#FFFFFF" rx="9" ry="9" style="stroke:#000000;stroke-width:1;"/><path d="M2041.4063,746.9994 C2040.6875,747.6713 2039.3906,748.8431 2037.6406,748.8431 C2035.4219,748.8431 2034.4531,746.9056 2034.4531,744.9525 C2034.4531,742.5619 2035.9375,741.2963 2037.5781,741.2963 C2039.5938,741.2963 2039.8125,742.8119 2039.9844,743.9056 L2041.4063,743.7181 C2041.3125,743.14 2041.2344,742.5619 2041.2344,741.5931 C2041.2344,740.9213 2041.2813,740.3744 2041.3125,739.9525 L2039.9063,739.9525 L2039.7969,740.9056 C2039.2031,740.3744 2038.5625,739.8275 2037.3438,739.8275 C2035.2969,739.8275 2032.8906,741.6556 2032.8906,744.9681 C2032.8906,747.9056 2034.6563,750.2963 2037.6563,750.2963 C2040.0938,750.2963 2041.7969,748.6713 2042.3906,748.0931 L2041.4063,746.9994 Z " fill="#000000"/><text fill="#000000" font-family="Verdana" font-size="12" font-style="italic" lengthAdjust="spacing" textLength="62.3496" x="2067.825" y="732.888">&#171;QDialog&#187;</text><text fill="#000000" font-family="Verdana" font-size="14" lengthAdjust="spacing" textLength="80.2813" x="2058.8592" y="748.7132">FilterDialog</text><text fill="#000000" font-family="Verdana" font-size="14" lengthAdjust="spacing" textLength="97.9996" x="2050" y="765.0101">&#36807;&#28388;&#26465;&#20214;&#32534;&#36753;&#22120;</text><line style="stroke:#333333;stroke-width:1;" x1="2026" x2="2149.9996" y1="773.3119" y2="773.3119"/><line style="stroke:#333333;stroke-width:1;" x1="2026" x2="2149.9996" y1="781.3119" y2="781.3119"/></g><!--class ScheduleEditDialog--><g class="entity" data-qualified-name="........GUI.ScheduleEditDialog" data-source-line="41" id="ent0027"><rect fill="#F1F1F1" height="58.5938" rx="2.5" ry="2.5" style="stroke:#333333;stroke-width:1;" width="164.0352" x="1181.98" y="723.7294"/><ellipse cx="1194.98" cy="745.0263" fill="#FFFFFF" rx="9" ry="9" style="stroke:#000000;stroke-width:1;"/><path d="M1198.3863,746.995 C1197.6675,747.6669 1196.3706,748.8388 1194.6206,748.8388 C1192.4019,748.8388 1191.4331,746.9013 1191.4331,744.9481 C1191.4331,742.5575 1192.9175,741.2919 1194.5581,741.2919 C1196.5738,741.2919 1196.7925,742.8075 1196.9644,743.9013 L1198.3863,743.7138 C1198.2925,743.1356 1198.2144,742.5575 1198.2144,741.5888 C1198.2144,740.9169 1198.2613,740.37 1198.2925,739.9481 L1196.8863,739.9481 L1196.7769,740.9013 C1196.1831,740.37 1195.5425,739.8231 1194.3238,739.8231 C1192.2769,739.8231 1189.8706,741.6513 1189.8706,744.9638 C1189.8706,747.9013 1191.6363,750.2919 1194.6363,750.2919 C1197.0738,750.2919 1198.7769,748.6669 1199.3706,748.0888 L1198.3863,746.995 Z " fill="#000000"/><text fill="#000000" font-family="Verdana" font-size="14" lengthAdjust="spacing" textLength="136.0352" x="1206.98" y="741.7245">ScheduleEditDialog</text><text fill="#000000" font-family="Verdana" font-size="14" lengthAdjust="spacing" textLength="97.9996" x="1225.9978" y="758.0214">&#35745;&#21010;&#32534;&#36753;&#23545;&#35805;&#26694;</text><line style="stroke:#333333;stroke-width:1;" x1="1182.98" x2="1345.0152" y1="766.3231" y2="766.3231"/><line style="stroke:#333333;stroke-width:1;" x1="1182.98" x2="1345.0152" y1="774.3231" y2="774.3231"/></g><!--class ProgressWidget--><g class="entity" data-qualified-name="........GUI.ProgressWidget" data-source-line="43" id="ent0028"><rect fill="#F1F1F1" height="58.5938" rx="2.5" ry="2.5" style="stroke:#333333;stroke-width:1;" width="138.2158" x="1686.89" y="723.7294"/><ellipse cx="1699.89" cy="745.0263" fill="#FFFFFF" rx="9" ry="9" style="stroke:#000000;stroke-width:1;"/><path d="M1703.2963,746.995 C1702.5775,747.6669 1701.2806,748.8388 1699.5306,748.8388 C1697.3119,748.8388 1696.3431,746.9013 1696.3431,744.9481 C1696.3431,742.5575 1697.8275,741.2919 1699.4681,741.2919 C1701.4838,741.2919 1701.7025,742.8075 1701.8744,743.9013 L1703.2963,743.7138 C1703.2025,743.1356 1703.1244,742.5575 1703.1244,741.5888 C1703.1244,740.9169 1703.1713,740.37 1703.2025,739.9481 L1701.7963,739.9481 L1701.6869,740.9013 C1701.0931,740.37 1700.4525,739.8231 1699.2338,739.8231 C1697.1869,739.8231 1694.7806,741.6513 1694.7806,744.9638 C1694.7806,747.9013 1696.5463,750.2919 1699.5463,750.2919 C1701.9838,750.2919 1703.6869,748.6669 1704.2806,748.0888 L1703.2963,746.995 Z " fill="#000000"/><text fill="#000000" font-family="Verdana" font-size="14" lengthAdjust="spacing" textLength="110.2158" x="1711.89" y="741.7245">ProgressWidget</text><text fill="#000000" font-family="Verdana" font-size="14" lengthAdjust="spacing" textLength="55.9998" x="1738.998" y="758.0214">&#36827;&#24230;&#32452;&#20214;</text><line style="stroke:#333333;stroke-width:1;" x1="1687.89" x2="1824.1058" y1="766.3231" y2="766.3231"/><line style="stroke:#333333;stroke-width:1;" x1="1687.89" x2="1824.1058" y1="774.3231" y2="774.3231"/></g><!--class LogWidget--><g class="entity" data-qualified-name="........GUI.LogWidget" data-source-line="44" id="ent0029"><rect fill="#F1F1F1" height="58.5938" rx="2.5" ry="2.5" style="stroke:#333333;stroke-width:1;" width="102.8604" x="1548.57" y="723.7294"/><ellipse cx="1561.57" cy="745.0263" fill="#FFFFFF" rx="9" ry="9" style="stroke:#000000;stroke-width:1;"/><path d="M1564.9763,746.995 C1564.2575,747.6669 1562.9606,748.8388 1561.2106,748.8388 C1558.9919,748.8388 1558.0231,746.9013 1558.0231,744.9481 C1558.0231,742.5575 1559.5075,741.2919 1561.1481,741.2919 C1563.1638,741.2919 1563.3825,742.8075 1563.5544,743.9013 L1564.9763,743.7138 C1564.8825,743.1356 1564.8044,742.5575 1564.8044,741.5888 C1564.8044,740.9169 1564.8513,740.37 1564.8825,739.9481 L1563.4763,739.9481 L1563.3669,740.9013 C1562.7731,740.37 1562.1325,739.8231 1560.9138,739.8231 C1558.8669,739.8231 1556.4606,741.6513 1556.4606,744.9638 C1556.4606,747.9013 1558.2263,750.2919 1561.2263,750.2919 C1563.6638,750.2919 1565.3669,748.6669 1565.9606,748.0888 L1564.9763,746.995 Z " fill="#000000"/><text fill="#000000" font-family="Verdana" font-size="14" lengthAdjust="spacing" textLength="74.8604" x="1573.57" y="741.7245">LogWidget</text><text fill="#000000" font-family="Verdana" font-size="14" lengthAdjust="spacing" textLength="55.9998" x="1583.0003" y="758.0214">&#26085;&#24535;&#32452;&#20214;</text><line style="stroke:#333333;stroke-width:1;" x1="1549.57" x2="1650.4304" y1="766.3231" y2="766.3231"/><line style="stroke:#333333;stroke-width:1;" x1="1549.57" x2="1650.4304" y1="774.3231" y2="774.3231"/></g><!--class GuiStyle--><g class="entity" data-qualified-name="........GUI.GuiStyle" data-source-line="46" id="ent0030"><rect fill="#F1F1F1" height="58.5938" rx="2.5" ry="2.5" style="stroke:#333333;stroke-width:1;" width="111.9996" x="2155" y="292.1594"/><ellipse cx="2168" cy="313.4563" fill="#FFFFFF" rx="9" ry="9" style="stroke:#000000;stroke-width:1;"/><path d="M2171.4063,315.425 C2170.6875,316.0969 2169.3906,317.2688 2167.6406,317.2688 C2165.4219,317.2688 2164.4531,315.3313 2164.4531,313.3781 C2164.4531,310.9875 2165.9375,309.7219 2167.5781,309.7219 C2169.5938,309.7219 2169.8125,311.2375 2169.9844,312.3313 L2171.4063,312.1438 C2171.3125,311.5656 2171.2344,310.9875 2171.2344,310.0188 C2171.2344,309.3469 2171.2813,308.8 2171.3125,308.3781 L2169.9063,308.3781 L2169.7969,309.3313 C2169.2031,308.8 2168.5625,308.2531 2167.3438,308.2531 C2165.2969,308.2531 2162.8906,310.0813 2162.8906,313.3938 C2162.8906,316.3313 2164.6563,318.7219 2167.6563,318.7219 C2170.0938,318.7219 2171.7969,317.0969 2172.3906,316.5188 L2171.4063,315.425 Z " fill="#000000"/><text fill="#000000" font-family="Verdana" font-size="14" lengthAdjust="spacing" textLength="62.2207" x="2190.8895" y="310.1545">gui_style</text><text fill="#000000" font-family="Verdana" font-size="14" lengthAdjust="spacing" textLength="83.9996" x="2180" y="326.4514">&#30028;&#38754;&#26679;&#24335;&#27169;&#22359;</text><line style="stroke:#333333;stroke-width:1;" x1="2156" x2="2265.9996" y1="334.7531" y2="334.7531"/><line style="stroke:#333333;stroke-width:1;" x1="2156" x2="2265.9996" y1="342.7531" y2="342.7531"/></g><!--class Resources--><g class="entity" data-qualified-name="........GUI.Resources" data-source-line="47" id="ent0031"><rect fill="#F1F1F1" height="58.5938" rx="2.5" ry="2.5" style="stroke:#333333;stroke-width:1;" width="154.3213" x="2185.84" y="723.7294"/><ellipse cx="2198.84" cy="745.0263" fill="#FFFFFF" rx="9" ry="9" style="stroke:#000000;stroke-width:1;"/><path d="M2202.2463,746.995 C2201.5275,747.6669 2200.2306,748.8388 2198.4806,748.8388 C2196.2619,748.8388 2195.2931,746.9013 2195.2931,744.9481 C2195.2931,742.5575 2196.7775,741.2919 2198.4181,741.2919 C2200.4338,741.2919 2200.6525,742.8075 2200.8244,743.9013 L2202.2463,743.7138 C2202.1525,743.1356 2202.0744,742.5575 2202.0744,741.5888 C2202.0744,740.9169 2202.1213,740.37 2202.1525,739.9481 L2200.7463,739.9481 L2200.6369,740.9013 C2200.0431,740.37 2199.4025,739.8231 2198.1838,739.8231 C2196.1369,739.8231 2193.7306,741.6513 2193.7306,744.9638 C2193.7306,747.9013 2195.4963,750.2919 2198.4963,750.2919 C2200.9338,750.2919 2202.6369,748.6669 2203.2306,748.0888 L2202.2463,746.995 Z " fill="#000000"/><text fill="#000000" font-family="Verdana" font-size="14" lengthAdjust="spacing" textLength="126.3213" x="2210.84" y="741.7245">resources/app.qrc</text><text fill="#000000" font-family="Verdana" font-size="14" lengthAdjust="spacing" textLength="55.9998" x="2246.0008" y="758.0214">&#22270;&#26631;&#36164;&#28304;</text><line style="stroke:#333333;stroke-width:1;" x1="2186.84" x2="2339.1613" y1="766.3231" y2="766.3231"/><line style="stroke:#333333;stroke-width:1;" x1="2186.84" x2="2339.1613" y1="774.3231" y2="774.3231"/></g><!--link CLI11App to handleBackup--><g class="link" data-entity-1="ent0003" data-entity-2="ent0004" data-link-type="dependency" data-source-line="52" id="lnk32"><path codeLine="52" d="M428.46,781.6094 C438.53,800.6394 454.56,824.8394 476,838.3094 C498.53,852.4694 648.7347,874.4021 741.4847,886.8921" fill="none" id="CLI11App-to-handleBackup" style="stroke:#000000;stroke-width:1;"/><polygon fill="#000000" points="746.44,887.5594,738.0543,882.394,741.4847,886.8921,736.9867,890.3225,746.44,887.5594" style="stroke:#000000;stroke-width:1;stroke-linejoin:miter;stroke-miterlimit:10;"/><text fill="#000000" font-family="Verdana" font-size="13" lengthAdjust="spacing" textLength="65.0001" x="477" y="834.3763">&#35299;&#26512;&#23376;&#21629;&#20196;</text></g><!--link CLI11App to handleRestore--><g class="link" data-entity-1="ent0003" data-entity-2="ent0005" data-link-type="dependency" data-source-line="53" id="lnk33"><path codeLine="53" d="M415.61,781.5494 C416.52,798.9094 419.88,821.1994 430,838.3094 C436.74,849.7094 442.7407,856.5972 453.1007,864.9672" fill="none" id="CLI11App-to-handleRestore" style="stroke:#000000;stroke-width:1;"/><polygon fill="#000000" points="456.99,868.1094,452.5031,859.342,453.1007,864.9672,447.4755,865.5648,456.99,868.1094" style="stroke:#000000;stroke-width:1;stroke-linejoin:miter;stroke-miterlimit:10;"/></g><!--link CLI11App to handleSchedule--><g class="link" data-entity-1="ent0003" data-entity-2="ent0006" data-link-type="dependency" data-source-line="54" id="lnk34"><path codeLine="54" d="M363.36,781.5194 C315.8,806.3594 250.4719,840.4746 202.2419,865.6646" fill="none" id="CLI11App-to-handleSchedule" style="stroke:#000000;stroke-width:1;"/><polygon fill="#000000" points="197.81,867.9794,207.6393,867.3584,202.2419,865.6646,203.9357,860.2673,197.81,867.9794" style="stroke:#000000;stroke-width:1;stroke-linejoin:miter;stroke-miterlimit:10;"/></g><!--link CLI11App to handleDaemon--><g class="link" data-entity-1="ent0003" data-entity-2="ent0007" data-link-type="dependency" data-source-line="55" id="lnk35"><path codeLine="55" d="M398.65,781.5194 C382.91,806.4394 362.4888,838.8012 346.5888,863.9912" fill="none" id="CLI11App-to-handleDaemon" style="stroke:#000000;stroke-width:1;"/><polygon fill="#000000" points="343.92,868.2194,352.1064,862.7437,346.5888,863.9912,345.3414,858.4736,343.92,868.2194" style="stroke:#000000;stroke-width:1;stroke-linejoin:miter;stroke-miterlimit:10;"/></g><!--link handleBackup to BackupOpts--><g class="link" data-entity-1="ent0004" data-entity-2="ent0008" data-link-type="dependency" data-source-line="57" id="lnk36"><path codeLine="57" d="M836.27,927.3894 C851.77,949.3994 870.3509,975.7815 886.9509,999.3515" fill="none" id="handleBackup-to-BackupOpts" style="stroke:#000000;stroke-width:1;"/><polygon fill="#000000" points="889.83,1003.4394,887.918,993.7779,886.9509,999.3515,881.3774,998.3844,889.83,1003.4394" style="stroke:#000000;stroke-width:1;stroke-linejoin:miter;stroke-miterlimit:10;"/><text fill="#000000" font-family="Verdana" font-size="13" lengthAdjust="spacing" textLength="52.0001" x="869.47" y="969.9663">&#22635;&#20805;&#37197;&#32622;</text></g><!--link handleRestore to RestoreOpts--><g class="link" data-entity-1="ent0005" data-entity-2="ent0009" data-link-type="dependency" data-source-line="58" id="lnk37"><path codeLine="58" d="M456.29,927.3894 C419.81,949.3994 373.5913,977.2866 334.5213,1000.8566" fill="none" id="handleRestore-to-RestoreOpts" style="stroke:#000000;stroke-width:1;"/><polygon fill="#000000" points="330.24,1003.4394,340.0125,1002.2154,334.5213,1000.8566,335.88,995.3654,330.24,1003.4394" style="stroke:#000000;stroke-width:1;stroke-linejoin:miter;stroke-miterlimit:10;"/></g><!--link handleBackup to buildFilterCLI--><g class="link" data-entity-1="ent0004" data-entity-2="ent0010" data-link-type="dependency" data-source-line="60" id="lnk38"><path codeLine="60" d="M873.74,927.3494 C891.86,936.5794 911.86,946.9794 930,956.8994 C961.46,974.1094 991.951,991.8462 1019.111,1007.9762" fill="none" id="handleBackup-to-buildFilterCLI" style="stroke:#000000;stroke-width:1;"/><polygon fill="#000000" points="1023.41,1010.5294,1017.7143,1002.4945,1019.111,1007.9762,1013.6293,1009.3729,1023.41,1010.5294" style="stroke:#000000;stroke-width:1;stroke-linejoin:miter;stroke-miterlimit:10;"/><text fill="#000000" font-family="Verdana" font-size="13" lengthAdjust="spacing" textLength="65.0001" x="958.29" y="969.9663">&#21019;&#24314;&#36807;&#28388;&#22120;</text></g><!--link handleBackup to buildPackerCLI--><g class="link" data-entity-1="ent0004" data-entity-2="ent0011" data-link-type="dependency" data-source-line="61" id="lnk39"><path codeLine="61" d="M759.53,927.2894 C742.95,936.2694 724.98,946.5494 709,956.8994 C683.48,973.4394 660.1684,991.081 639.4384,1007.621" fill="none" id="handleBackup-to-buildPackerCLI" style="stroke:#000000;stroke-width:1;"/><polygon fill="#000000" points="635.53,1010.7394,645.0598,1008.2529,639.4384,1007.621,640.0704,1001.9995,635.53,1010.7394" style="stroke:#000000;stroke-width:1;stroke-linejoin:miter;stroke-miterlimit:10;"/><text fill="#000000" font-family="Verdana" font-size="13" lengthAdjust="spacing" textLength="65.0001" x="710" y="969.9663">&#21019;&#24314;&#25171;&#21253;&#22120;</text></g><!--link handleBackup to transformFile--><g class="link" data-entity-1="ent0004" data-entity-2="ent0012" data-link-type="dependency" data-source-line="62" id="lnk40"><path codeLine="62" d="M746.33,919.5094 C712.49,930.0494 671.38,943.4394 635,956.8994 C584.37,975.6394 572.73,982.8994 523,1003.8994 C517.66,1006.1594 516.7455,1006.5528 511.1855,1008.9028" fill="none" id="handleBackup-to-transformFile" style="stroke:#000000;stroke-width:1;"/><polygon fill="#000000" points="506.58,1010.8494,516.4272,1011.03,511.1855,1008.9028,513.3127,1003.6611,506.58,1010.8494" style="stroke:#000000;stroke-width:1;stroke-linejoin:miter;stroke-miterlimit:10;"/><text fill="#000000" font-family="Verdana" font-size="13" lengthAdjust="spacing" textLength="39" x="636" y="969.9663">&#21518;&#21387;&#32553;</text></g><!--link handleBackup to encryptFileCLI--><g class="link" data-entity-1="ent0004" data-entity-2="ent0013" data-link-type="dependency" data-source-line="63" id="lnk41"><path codeLine="63" d="M803.51,927.3894 C792.98,951.6494 779.9915,981.6031 769.4615,1005.8531" fill="none" id="handleBackup-to-encryptFileCLI" style="stroke:#000000;stroke-width:1;"/><polygon fill="#000000" points="767.47,1010.4394,774.7237,1003.7773,769.4615,1005.8531,767.3857,1000.5909,767.47,1010.4394" style="stroke:#000000;stroke-width:1;stroke-linejoin:miter;stroke-miterlimit:10;"/><text fill="#000000" font-family="Verdana" font-size="13" lengthAdjust="spacing" textLength="39" x="790.15" y="969.9663">&#21518;&#21152;&#23494;</text></g><!--link handleRestore to buildPackerCLI--><g class="link" data-entity-1="ent0005" data-entity-2="ent0011" data-link-type="dependency" data-source-line="65" id="lnk42"><path codeLine="65" d="M504.55,927.1294 C505.97,941.9794 509.53,959.9094 518,973.8994 C526.64,988.1794 535.643,997.519 548.793,1007.539" fill="none" id="handleRestore-to-buildPackerCLI" style="stroke:#000000;stroke-width:1;"/><polygon fill="#000000" points="552.77,1010.5694,548.0357,1001.933,548.793,1007.539,543.187,1008.2963,552.77,1010.5694" style="stroke:#000000;stroke-width:1;stroke-linejoin:miter;stroke-miterlimit:10;"/><text fill="#000000" font-family="Verdana" font-size="13" lengthAdjust="spacing" textLength="65.0001" x="519" y="969.9663">&#21019;&#24314;&#25171;&#21253;&#22120;</text></g><!--link handleRestore to transformFile--><g class="link" data-entity-1="ent0005" data-entity-2="ent0012" data-link-type="dependency" data-source-line="66" id="lnk43"><path codeLine="66" d="M460.14,927.1494 C450.78,935.5294 442.18,945.5394 437,956.8994 C429.42,973.5494 429.3754,989.1929 432.0154,1005.5929" fill="none" id="handleRestore-to-transformFile" style="stroke:#000000;stroke-width:1;"/><polygon fill="#000000" points="432.81,1010.5294,435.3288,1001.008,432.0154,1005.5929,427.4305,1002.2795,432.81,1010.5294" style="stroke:#000000;stroke-width:1;stroke-linejoin:miter;stroke-miterlimit:10;"/><text fill="#000000" font-family="Verdana" font-size="13" lengthAdjust="spacing" textLength="39" x="438" y="969.9663">&#39044;&#35299;&#21387;</text></g><!--link handleRestore to decryptFileCLI--><g class="link" data-entity-1="ent0005" data-entity-2="ent0014" data-link-type="dependency" data-source-line="67" id="lnk44"><path codeLine="67" d="M433.29,921.4694 C346.69,949.5394 208.52,994.5994 185,1003.8994 C179.32,1006.1494 178.0451,1006.6152 172.2051,1009.1552" fill="none" id="handleRestore-to-decryptFileCLI" style="stroke:#000000;stroke-width:1;"/><polygon fill="#000000" points="167.62,1011.1494,177.4685,1011.2279,172.2051,1009.1552,174.2778,1003.8917,167.62,1011.1494" style="stroke:#000000;stroke-width:1;stroke-linejoin:miter;stroke-miterlimit:10;"/><text fill="#000000" font-family="Verdana" font-size="13" lengthAdjust="spacing" textLength="39" x="322.26" y="969.9663">&#39044;&#35299;&#23494;</text></g><!--link encryptFileCLI to promptPassword--><g class="link" data-entity-1="ent0013" data-entity-2="ent0015" data-link-type="dependency" data-source-line="69" id="lnk45"><path codeLine="69" d="M696.17,1068.7194 C690.38,1071.3594 684.58,1073.9794 679,1076.4694 C619.16,1103.0994 555.2204,1130.2844 505.5404,1151.1344" fill="none" id="encryptFileCLI-to-promptPassword" style="stroke:#000000;stroke-width:1;"/><polygon fill="#000000" points="500.93,1153.0694,510.7767,1153.2748,505.5404,1151.1344,507.6808,1145.8982,500.93,1153.0694" style="stroke:#000000;stroke-width:1;stroke-linejoin:miter;stroke-miterlimit:10;"/><text fill="#000000" font-family="Verdana" font-size="13" lengthAdjust="spacing" textLength="52.0001" x="605.62" y="1119.5363">&#33719;&#21462;&#23494;&#30721;</text></g><!--link decryptFileCLI to promptPassword--><g class="link" data-entity-1="ent0014" data-entity-2="ent0015" data-link-type="dependency" data-source-line="70" id="lnk46"><path codeLine="70" d="M167.83,1068.7194 C173.62,1071.3594 179.42,1073.9794 185,1076.4694 C244.84,1103.0994 308.7796,1130.2844 358.4596,1151.1344" fill="none" id="decryptFileCLI-to-promptPassword" style="stroke:#000000;stroke-width:1;"/><polygon fill="#000000" points="363.07,1153.0694,356.3192,1145.8982,358.4596,1151.1344,353.2233,1153.2748,363.07,1153.0694" style="stroke:#000000;stroke-width:1;stroke-linejoin:miter;stroke-miterlimit:10;"/></g><!--link QApp to MainWindow--><g class="link" data-entity-1="ent0017" data-entity-2="ent0018" data-link-type="dependency" data-source-line="73" id="lnk47"><path codeLine="73" d="M2099.69,208.6194 C2091.07,231.7294 2081.6463,257.0242 2073.0363,280.1242" fill="none" id="QApp-to-MainWindow" style="stroke:#000000;stroke-width:1;"/><polygon fill="#000000" points="2071.29,284.8094,2078.1814,277.7732,2073.0363,280.1242,2070.6852,274.9791,2071.29,284.8094" style="stroke:#000000;stroke-width:1;stroke-linejoin:miter;stroke-miterlimit:10;"/><text fill="#000000" font-family="Verdana" font-size="13" lengthAdjust="spacing" textLength="26" x="2088.15" y="251.2463">&#21019;&#24314;</text></g><!--link QApp to GuiStyle--><g class="link" data-entity-1="ent0017" data-entity-2="ent0030" data-link-type="dependency" data-source-line="74" id="lnk48"><path codeLine="74" d="M2136.72,208.6194 C2153.72,234.2094 2173.5338,264.0443 2189.3138,287.8043" fill="none" id="QApp-to-GuiStyle" style="stroke:#000000;stroke-width:1;"/><polygon fill="#000000" points="2192.08,291.9694,2190.4329,282.2592,2189.3138,287.8043,2183.7687,286.6852,2192.08,291.9694" style="stroke:#000000;stroke-width:1;stroke-linejoin:miter;stroke-miterlimit:10;"/><text fill="#000000" font-family="Verdana" font-size="13" lengthAdjust="spacing" textLength="78.0001" x="2165.94" y="251.2463">&#24212;&#29992;&#20840;&#23616;&#26679;&#24335;</text></g><!--link MainWindow to TabWidget--><g class="link" data-entity-1="ent0018" data-entity-2="ent0019" data-link-type="dependency" data-source-line="75" id="lnk49"><path codeLine="75" d="M1995.48,357.7994 C1952.65,382.0194 1900.6224,411.4384 1858.9024,435.0284" fill="none" id="MainWindow-to-TabWidget" style="stroke:#000000;stroke-width:1;"/><polygon fill="#000000" points="1854.55,437.4894,1864.3531,436.5415,1858.9024,435.0284,1860.4155,429.5776,1854.55,437.4894" style="stroke:#000000;stroke-width:1;stroke-linejoin:miter;stroke-miterlimit:10;"/><text fill="#000000" font-family="Verdana" font-size="13" lengthAdjust="spacing" textLength="52.0001" x="1936.33" y="400.8063">&#25215;&#36733;&#39029;&#31614;</text></g><!--link TabWidget to BackupTab--><g class="link" data-entity-1="ent0019" data-entity-2="ent0020" data-link-type="dependency" data-source-line="76" id="lnk50"><path codeLine="76" d="M1797,507.7194 C1797,526.8494 1797,545.0894 1797,563.0094" fill="none" id="TabWidget-to-BackupTab" style="stroke:#000000;stroke-width:1;"/><polygon fill="#000000" points="1797,568.0094,1801,559.0094,1797,563.0094,1793,559.0094,1797,568.0094" style="stroke:#000000;stroke-width:1;stroke-linejoin:miter;stroke-miterlimit:10;"/></g><!--link TabWidget to RestoreTab--><g class="link" data-entity-1="ent0019" data-entity-2="ent0021" data-link-type="dependency" data-source-line="77" id="lnk51"><path codeLine="77" d="M1743.99,507.7194 C1715.69,526.7694 1685.4775,547.1168 1658.9075,565.0068" fill="none" id="TabWidget-to-RestoreTab" style="stroke:#000000;stroke-width:1;"/><polygon fill="#000000" points="1654.76,567.7994,1664.4595,566.0907,1658.9075,565.0068,1659.9914,559.4548,1654.76,567.7994" style="stroke:#000000;stroke-width:1;stroke-linejoin:miter;stroke-miterlimit:10;"/></g><!--link TabWidget to ScheduleTabGUI--><g class="link" data-entity-1="ent0019" data-entity-2="ent0022" data-link-type="dependency" data-source-line="78" id="lnk52"><path codeLine="78" d="M1739.48,491.0794 C1669.33,514.3194 1556.0962,551.8367 1485.1162,575.3567" fill="none" id="TabWidget-to-ScheduleTabGUI" style="stroke:#000000;stroke-width:1;"/><polygon fill="#000000" points="1480.37,576.9294,1490.1714,577.8955,1485.1162,575.3567,1487.655,570.3015,1480.37,576.9294" style="stroke:#000000;stroke-width:1;stroke-linejoin:miter;stroke-miterlimit:10;"/></g><!--link TabWidget to SettingsTab--><g class="link" data-entity-1="ent0019" data-entity-2="ent0023" data-link-type="dependency" data-source-line="79" id="lnk53"><path codeLine="79" d="M1838.26,507.7194 C1860.37,526.8494 1883.459,546.8177 1904.169,564.7377" fill="none" id="TabWidget-to-SettingsTab" style="stroke:#000000;stroke-width:1;"/><polygon fill="#000000" points="1907.95,568.0094,1903.7615,559.0956,1904.169,564.7377,1898.5268,565.1452,1907.95,568.0094" style="stroke:#000000;stroke-width:1;stroke-linejoin:miter;stroke-miterlimit:10;"/></g><!--link BackupTab to BackupWorker--><g class="link" data-entity-1="ent0020" data-entity-2="ent0024" data-link-type="dependency" data-source-line="81" id="lnk54"><path codeLine="81" d="M1820.78,627.0994 C1841.81,652.3194 1869.4069,685.3901 1892.0669,712.5501" fill="none" id="BackupTab-to-BackupWorker" style="stroke:#000000;stroke-width:1;"/><polygon fill="#000000" points="1895.27,716.3894,1892.5757,706.9162,1892.0669,712.5501,1886.4329,712.0412,1895.27,716.3894" style="stroke:#000000;stroke-width:1;stroke-linejoin:miter;stroke-miterlimit:10;"/><text fill="#000000" font-family="Verdana" font-size="13" lengthAdjust="spacing" textLength="78.0001" x="1858.16" y="669.9663">&#21551;&#21160;&#21518;&#21488;&#32447;&#31243;</text></g><!--link RestoreTab to RestoreWorker--><g class="link" data-entity-1="ent0021" data-entity-2="ent0025" data-link-type="dependency" data-source-line="82" id="lnk55"><path codeLine="82" d="M1581.35,627.0994 C1551.81,654.5694 1511.0119,692.5049 1481.4219,720.0149" fill="none" id="RestoreTab-to-RestoreWorker" style="stroke:#000000;stroke-width:1;"/><polygon fill="#000000" points="1477.76,723.4194,1487.075,720.2208,1481.4219,720.0149,1481.6278,714.3618,1477.76,723.4194" style="stroke:#000000;stroke-width:1;stroke-linejoin:miter;stroke-miterlimit:10;"/></g><!--link BackupTab to FilterDialog--><g class="link" data-entity-1="ent0020" data-entity-2="ent0026" data-link-type="dependency" data-source-line="83" id="lnk56"><path codeLine="83" d="M1850.1,619.8094 C1856.13,622.2094 1862.2,624.6094 1868,626.8994 C1930.2,651.4094 1950.96,647.0194 2008,681.8994 C2023.76,691.5294 2035.7107,700.9756 2048.9407,713.0056" fill="none" id="BackupTab-to-FilterDialog" style="stroke:#000000;stroke-width:1;"/><polygon fill="#000000" points="2052.64,716.3694,2048.6722,707.3551,2048.9407,713.0056,2043.2902,713.274,2052.64,716.3694" style="stroke:#000000;stroke-width:1;stroke-linejoin:miter;stroke-miterlimit:10;"/><text fill="#000000" font-family="Verdana" font-size="13" lengthAdjust="spacing" textLength="78.0001" x="1992.9" y="669.9663">&#32534;&#36753;&#36807;&#28388;&#26465;&#20214;</text></g><!--link BackupTab to ProgressWidget--><g class="link" data-entity-1="ent0020" data-entity-2="ent0028" data-link-type="dependency" data-source-line="84" id="lnk57"><path codeLine="84" d="M1789.38,627.0994 C1782.04,654.5694 1772.2922,691.0793 1764.9322,718.5893" fill="none" id="BackupTab-to-ProgressWidget" style="stroke:#000000;stroke-width:1;"/><polygon fill="#000000" points="1763.64,723.4194,1769.8301,715.7589,1764.9322,718.5893,1762.1019,713.6914,1763.64,723.4194" style="stroke:#000000;stroke-width:1;stroke-linejoin:miter;stroke-miterlimit:10;"/><text fill="#000000" font-family="Verdana" font-size="13" lengthAdjust="spacing" textLength="52.0001" x="1782.38" y="669.9663">&#26174;&#31034;&#36827;&#24230;</text></g><!--link BackupTab to LogWidget--><g class="link" data-entity-1="ent0020" data-entity-2="ent0029" data-link-type="dependency" data-source-line="85" id="lnk58"><path codeLine="85" d="M1747.56,627.2894 C1723.05,642.3594 1693.53,661.8494 1669,681.8994 C1653.66,694.4294 1641.4727,706.3645 1628.9927,719.6545" fill="none" id="BackupTab-to-LogWidget" style="stroke:#000000;stroke-width:1;"/><polygon fill="#000000" points="1625.57,723.2994,1634.6468,719.4768,1628.9927,719.6545,1628.815,714.0005,1625.57,723.2994" style="stroke:#000000;stroke-width:1;stroke-linejoin:miter;stroke-miterlimit:10;"/><text fill="#000000" font-family="Verdana" font-size="13" lengthAdjust="spacing" textLength="52.0001" x="1700.03" y="669.9663">&#26174;&#31034;&#26085;&#24535;</text></g><!--link RestoreTab to ProgressWidget--><g class="link" data-entity-1="ent0021" data-entity-2="ent0028" data-link-type="dependency" data-source-line="86" id="lnk59"><path codeLine="86" d="M1607.77,627.1094 C1607.11,642.8794 1609.36,661.7094 1621,673.8994 C1635.94,689.5394 1649.27,673.0394 1669,681.8994 C1691.13,691.8194 1708.718,705.3858 1724.678,720.1358" fill="none" id="RestoreTab-to-ProgressWidget" style="stroke:#000000;stroke-width:1;"/><polygon fill="#000000" points="1728.35,723.5294,1724.4553,714.4833,1724.678,720.1358,1719.0255,720.3585,1728.35,723.5294" style="stroke:#000000;stroke-width:1;stroke-linejoin:miter;stroke-miterlimit:10;"/></g><!--link RestoreTab to LogWidget--><g class="link" data-entity-1="ent0021" data-entity-2="ent0029" data-link-type="dependency" data-source-line="87" id="lnk60"><path codeLine="87" d="M1609.46,627.3594 C1608.65,636.7694 1607.77,647.2794 1607,656.8994 C1605.22,679.1794 1603.7266,699.4321 1602.3766,718.3121" fill="none" id="RestoreTab-to-LogWidget" style="stroke:#000000;stroke-width:1;"/><polygon fill="#000000" points="1602.02,723.2994,1606.6517,714.6076,1602.3766,718.3121,1598.6721,714.037,1602.02,723.2994" style="stroke:#000000;stroke-width:1;stroke-linejoin:miter;stroke-miterlimit:10;"/></g><!--link ScheduleTabGUI to ScheduleEditDialog--><g class="link" data-entity-1="ent0022" data-entity-2="ent0027" data-link-type="dependency" data-source-line="89" id="lnk61"><path codeLine="89" d="M1391.84,627.0994 C1363.73,654.5694 1324.996,692.4147 1296.846,719.9247" fill="none" id="ScheduleTabGUI-to-ScheduleEditDialog" style="stroke:#000000;stroke-width:1;"/><polygon fill="#000000" points="1293.27,723.4194,1302.5024,719.9898,1296.846,719.9247,1296.911,714.2682,1293.27,723.4194" style="stroke:#000000;stroke-width:1;stroke-linejoin:miter;stroke-miterlimit:10;"/><text fill="#000000" font-family="Verdana" font-size="13" lengthAdjust="spacing" textLength="52.0001" x="1362.18" y="669.9663">&#32534;&#36753;&#35745;&#21010;</text></g><!--link BackupTab to Resources--><g class="link" data-entity-1="ent0020" data-entity-2="ent0031" data-link-type="dependency" data-source-line="90" id="lnk62"><path codeLine="90" d="M1850.04,621.3194 C1856.03,623.4094 1862.1,625.3294 1868,626.8994 C1999,661.7294 2046.32,622.1594 2168,681.8994 C2190.45,692.9194 2209.1939,706.2133 2226.7339,720.4133" fill="none" id="BackupTab-to-Resources" style="stroke:#000000;stroke-width:1;"/><polygon fill="#000000" points="2230.62,723.5594,2226.1419,714.7875,2226.7339,720.4133,2221.1081,721.0053,2230.62,723.5594" style="stroke:#000000;stroke-width:1;stroke-linejoin:miter;stroke-miterlimit:10;"/><text fill="#000000" font-family="Verdana" font-size="13" lengthAdjust="spacing" textLength="52.0001" x="2147.87" y="669.9663">&#21152;&#36733;&#22270;&#26631;</text></g><!--link MainWindow to Resources--><g class="link" data-entity-1="ent0018" data-entity-2="ent0031" data-link-type="dependency" data-source-line="91" id="lnk63"><path codeLine="91" d="M2074.95,357.9794 C2114.66,441.1994 2210.9463,642.967 2247.1763,718.877" fill="none" id="MainWindow-to-Resources" style="stroke:#000000;stroke-width:1;"/><polygon fill="#000000" points="2249.33,723.3894,2249.0633,713.5441,2247.1763,718.877,2241.8435,716.99,2249.33,723.3894" style="stroke:#000000;stroke-width:1;stroke-linejoin:miter;stroke-miterlimit:10;"/></g><!--link BackupWorker to handleBackup--><g class="link" data-entity-1="ent0024" data-entity-2="ent0004" data-link-type="dependency" data-source-line="94" id="lnk64"><path codeLine="94" d="M1884.99,789.5794 C1872.37,798.8894 1857.83,807.8394 1843,813.3094 C1666.47,878.4394 1091.5194,892.7038 890.4094,895.7438" fill="none" id="BackupWorker-to-handleBackup" style="stroke:#000000;stroke-width:1;stroke-dasharray:7,7;"/><polygon fill="#000000" points="885.41,895.8194,894.4694,899.6829,890.4094,895.7438,894.3485,891.6838,885.41,895.8194" style="stroke:#000000;stroke-width:1;stroke-linejoin:miter;stroke-miterlimit:10;"/><text fill="#000000" font-family="Verdana" font-size="13" lengthAdjust="spacing" textLength="26" x="1815.44" y="834.3763">&#35843;&#29992;</text></g><!--link RestoreWorker to handleRestore--><g class="link" data-entity-1="ent0025" data-entity-2="ent0005" data-link-type="dependency" data-source-line="95" id="lnk65"><path codeLine="95" d="M1415.42,782.6794 C1400.82,794.2394 1382.61,806.4494 1364,813.3094 C1347.39,819.4394 746.61,866.4394 729,868.3094 C677.22,873.8094 623.8571,880.5259 579.5571,886.3659" fill="none" id="RestoreWorker-to-handleRestore" style="stroke:#000000;stroke-width:1;stroke-dasharray:7,7;"/><polygon fill="#000000" points="574.6,887.0194,584.0456,889.8088,579.5571,886.3659,583,881.8774,574.6,887.0194" style="stroke:#000000;stroke-width:1;stroke-linejoin:miter;stroke-miterlimit:10;"/><text fill="#000000" font-family="Verdana" font-size="13" lengthAdjust="spacing" textLength="26" x="1281.64" y="834.3763">&#35843;&#29992;</text></g><?plantuml-src ZLPTRnj557tVNx6a3u1GKo9K2Qmc4hG9GYeY9aLviOIszk2ikjbTTjUgAeJKqjZvQEguJKa0as2d3Z6WEaLLazPV-I-LPzT-ob_edHdlxipk8f6yEBxddBbpvzvpyuwpX9QHR6gAgalsBLKt5KjPbhEQOjkV6LOEMLSDpR3a2n_HdnX4oTxAMqP1purXSrFaLv8SrT6GZ9zLl1STh_F7uDNTy-vltfEcktRgbW_nrjCWvEwl33edkDgN91FKb3oI9nA14_8FaYJB0UZgzIza_AWtw3I6zKstMSTxknEoOila-mkp7yzzE3SB31b-QAgKa4fzQfhdtJNuE3M5szldtNMVCpK58VdA5TpO6TrlGcncXYSlANfEG-I-1VEzzpEwktu4n-B6wg3JOrbG8HuMft-DRCUmKCXtxntWniCOVuoB2onabr2ke565OQkErnvxhRfNASKKV61Sufg2bWsT2E3MchlH69vLlUQ3c023IJoVtUehqr4DtGOwlVke-D3hjIWnYDjGHg-pJLws5odZ-6Q122i09n82eYgypCs2gkNcLCr15Yt5sQhRQU1Vc_Zq49T_ea8S15utHfw7P1dPNT_6cyK4CeD4o8wbwFPtXhKCqlGPSFc1r_thql3eANnoTw0c9rH20F8AICzQTqmdu6_Ky7698tBnoDav9339aGAJYqUOfcKicyuyVBuDGqsFFIvvjNl3_ZOk7bAo207oZyAqVVuDJ5krZti7ti-Rexq3Rk18Y0pSvTbFn85BmqHfQbOXRvtHFv3J2-0pzj92ra98fzGqcxcquzPBxlw9s2jVWYSjgdhEk9tH1wywtj-xO0UK5aO8EVnBvATlA3SNrLmUEHbzL7_fFUlZrcjuPoeHnDZnvICeOgJ9M3y3CEXrAiBrEiGIcfioneqTCi8WJ_7db7BOH7CSBWf55dZ8SLGzRuzvVHWVdXT64swqQ5ZGrt2fIXblFOUk7_H-zzfdu0BSrHY85EV6aeMKNE8OYqhiofoIW18IONDvJLKq8--FhxjNXpVmkZl3_YF_bNWSoOLz4dFnYpIRKvr0aNaZqpf-FJpUWmOJIXgYXSJcBIDl8Tls-mRS4RV_z3eh_eo909vwtSZxB7Vt49_jSgmW9XoMBwZVsiuT3MNqyL3LJd5tYn-jWhf003mBJZSALXRPbnJJdFpUoaBzgtstjZfykUAsAtxb6ORECKpok_Bqz3HTZRXK9Fkj-0AsAlbI2dRVnOipmlwIKp9OZBjVWHNCzaCIrjzL2Q5W2IN4_FqY74Z2t1P9oRZ-3ouMsNgGXFCebbiM2KhY1Y1gQrNSQGVBuZyOWUq7Z613n1c2onC2J09T276ewEjZB3L_AU5g_pCLdXBDPNImmhPI0bPS5I6O91D9bC35vK0QetoAjtRO4f4YOd62ttzqYKJxB-qt1kVg_dN3e3y99DH-0lyWuc8J_tkNJOp4KGauDFUKxAwV3NjZwvR2GDXgn2J5xpch5WCHFuu4UTCDfBc3nfPA7luORpIPQJAxbC8Z-Gp6pYcA2PwOafd9yHOQmOkEHIhoIzzhj9cpHR21JmKmPcNH_28k68boRYTMJ2XYwC3XBQXjHt8Al8nKRgC6ZydiBlheeUTntVQcz9Ywtl3vVUWPsc_2OqnEnZsFGYNX2JYSFqK1y2q0?></g></svg>