<svg xmlns="http://www.w3.org/2000/svg" xmlns:xlink="http://www.w3.org/1999/xlink" contentStyleType="text/css" data-diagram-type="CLASS" height="1368px" preserveAspectRatio="none" style="width:1868px;height:1368px;background:#FFFFFF;" version="1.1" viewBox="0 0 1868 1368" width="1868px" zoomAndPan="magnify"><?plantuml 1.2026.6?><defs/><g><g class="title" data-source-line="5"><text fill="#000000" font-family="Verdana" font-size="22" font-weight="700" lengthAdjust="spacing" textLength="330.0011" x="768.1681" y="35.4209">&#23376;&#31995;&#32479;&#20845;&#65306;&#25991;&#20214;&#36807;&#28388;&#23376;&#31995;&#32479;&#26500;&#20214;&#22270;</text></g><!--cluster ???????--><g class="cluster" data-qualified-name="......." data-source-line="7" id="ent0001"><path d="M235.24,129.7394 L334.2396,129.7394 A3.75,3.75 0 0 1 336.7396,132.2394 L343.7396,152.0362 L1322.24,152.0362 A2.5,2.5 0 0 1 1324.74,154.5362 L1324.74,1350.8894 A2.5,2.5 0 0 1 1322.24,1353.3894 L235.24,1353.3894 A2.5,2.5 0 0 1 232.74,1350.8894 L232.74,132.2394 A2.5,2.5 0 0 1 235.24,129.7394" fill="#FFFFFF" style="stroke:#000000;stroke-width:1;"/><line style="stroke:#000000;stroke-width:1;" x1="232.74" x2="343.7396" y1="152.0362" y2="152.0362"/><text fill="#000000" font-family="Verdana" font-size="14" font-weight="700" lengthAdjust="spacing" textLength="97.9996" x="236.74" y="144.7345">&#25991;&#20214;&#36807;&#28388;&#23376;&#31995;&#32479;</text></g><!--cluster Interface--><g class="cluster" data-qualified-name="........Interface" data-source-line="9" id="ent0002"><path d="M259.24,172.7394 L302.2398,172.7394 A3.75,3.75 0 0 1 304.7398,175.2394 L311.7398,195.0362 L686.24,195.0362 A2.5,2.5 0 0 1 688.74,197.5362 L688.74,477.1694 A2.5,2.5 0 0 1 686.24,479.6694 L259.24,479.6694 A2.5,2.5 0 0 1 256.74,477.1694 L256.74,175.2394 A2.5,2.5 0 0 1 259.24,172.7394" fill="#E8F0FE" style="stroke:#000000;stroke-width:1;"/><line style="stroke:#000000;stroke-width:1;" x1="256.74" x2="311.7398" y1="195.0362" y2="195.0362"/><text fill="#000000" font-family="Verdana" font-size="14" font-weight="700" lengthAdjust="spacing" textLength="41.9998" x="260.74" y="187.7345">&#25509;&#21475;&#23618;</text></g><!--cluster Criteria--><g class="cluster" data-qualified-name="........Criteria" data-source-line="19" id="ent0005"><path d="M828.24,830.2894 L927.2396,830.2894 A3.75,3.75 0 0 1 929.7396,832.7894 L936.7396,852.5863 L1223.24,852.5863 A2.5,2.5 0 0 1 1225.74,855.0863 L1225.74,1326.8894 A2.5,2.5 0 0 1 1223.24,1329.3894 L828.24,1329.3894 A2.5,2.5 0 0 1 825.74,1326.8894 L825.74,832.7894 A2.5,2.5 0 0 1 828.24,830.2894" fill="#FFF3E0" style="stroke:#000000;stroke-width:1;"/><line style="stroke:#000000;stroke-width:1;" x1="825.74" x2="936.7396" y1="852.5863" y2="852.5863"/><text fill="#000000" font-family="Verdana" font-size="14" font-weight="700" lengthAdjust="spacing" textLength="97.9996" x="829.74" y="845.2845">&#36807;&#28388;&#26465;&#20214;&#32467;&#26500;&#20307;</text></g><!--cluster CriteriaFilterPkg--><g class="cluster" data-qualified-name="........CriteriaFilterPkg" data-source-line="42" id="ent0009"><path d="M715.24,329.6294 L817.8084,329.6294 A3.75,3.75 0 0 1 820.3084,332.1294 L827.3084,368.2231 L1298.24,368.2231 A2.5,2.5 0 0 1 1300.74,370.7231 L1300.74,679.8494 A2.5,2.5 0 0 1 1298.24,682.3494 L715.24,682.3494 A2.5,2.5 0 0 1 712.74,679.8494 L712.74,332.1294 A2.5,2.5 0 0 1 715.24,329.6294" fill="#E8F5E9" style="stroke:#000000;stroke-width:1;"/><line style="stroke:#000000;stroke-width:1;" x1="712.74" x2="827.3084" y1="368.2231" y2="368.2231"/><text fill="#000000" font-family="Verdana" font-size="14" font-weight="700" lengthAdjust="spacing" textLength="101.5684" x="716.74" y="344.6245">CriteriaFilter</text><text fill="#000000" font-family="Verdana" font-size="14" font-weight="700" lengthAdjust="spacing" textLength="97.9996" x="718.5244" y="360.9214">&#26465;&#20214;&#36807;&#28388;&#22120;&#23454;&#29616;</text></g><!--class FilterInterface--><g class="entity" data-qualified-name="........Interface.FilterInterface" data-source-line="10" id="ent0003"><rect fill="#F1F1F1" height="74.8906" rx="2.5" ry="2.5" style="stroke:#333333;stroke-width:1;" width="399.3408" x="273.07" y="207.7394"/><ellipse cx="419.9906" cy="229.0362" fill="#FFFFFF" rx="9" ry="9" style="stroke:#000000;stroke-width:1;"/><path d="M416.6937,223.38 L416.6937,224.7706 L418.8812,224.7706 L415.975,231.8956 L414.9906,231.8956 L414.9906,233.2862 L419.0219,233.2862 L419.0219,231.8956 L417.5062,231.8956 L418.1625,230.2237 L421.9906,230.2237 L422.6625,231.8956 L421.1625,231.8956 L421.1625,233.2862 L425.1937,233.2862 L425.1937,231.8956 L424.2406,231.8956 L420.7875,223.38 L416.6937,223.38 Z M421.4437,228.8331 L418.7406,228.8331 L420.0844,225.5831 L421.4437,228.8331 Z " fill="#000000"/><text fill="#000000" font-family="Verdana" font-size="14" font-style="italic" lengthAdjust="spacing" textLength="35.6904" x="468.6452" y="225.7345">Filter</text><text fill="#000000" font-family="Verdana" font-size="14" font-style="italic" lengthAdjust="spacing" textLength="97.9996" x="437.4906" y="242.0314">&#36807;&#28388;&#22120;&#25277;&#35937;&#25509;&#21475;</text><line style="stroke:#333333;stroke-width:1;" x1="274.07" x2="671.4108" y1="250.3331" y2="250.3331"/><line style="stroke:#333333;stroke-width:1;" x1="274.07" x2="671.4108" y1="258.3331" y2="258.3331"/><g data-visibility-modifier="PUBLIC_METHOD"><ellipse cx="284.07" cy="271.9816" fill="#FFFFFF" rx="3" ry="3" style="stroke:#000000;stroke-width:1;"/></g><text fill="#000000" font-family="Verdana" font-size="14" lengthAdjust="spacing" textLength="375.3408" x="291.07" y="275.3282">apply(files : vector&lt;FileEntry&gt;&amp;) : vector&lt;FileEntry&gt;</text></g><!--class NoopFilter--><g class="entity" data-qualified-name="........Interface.NoopFilter" data-source-line="14" id="ent0004"><rect fill="#F1F1F1" height="74.8906" rx="2.5" ry="2.5" style="stroke:#333333;stroke-width:1;" width="219.9007" x="362.79" y="388.7794"/><ellipse cx="432.9" cy="410.0762" fill="#FFFFFF" rx="9" ry="9" style="stroke:#000000;stroke-width:1;"/><path d="M436.3063,412.045 C435.5875,412.7169 434.2906,413.8887 432.5406,413.8887 C430.3219,413.8887 429.3531,411.9512 429.3531,409.9981 C429.3531,407.6075 430.8375,406.3419 432.4781,406.3419 C434.4938,406.3419 434.7125,407.8575 434.8844,408.9512 L436.3063,408.7637 C436.2125,408.1856 436.1344,407.6075 436.1344,406.6387 C436.1344,405.9669 436.1813,405.42 436.2125,404.9981 L434.8063,404.9981 L434.6969,405.9512 C434.1031,405.42 433.4625,404.8731 432.2438,404.8731 C430.1969,404.8731 427.7906,406.7012 427.7906,410.0137 C427.7906,412.9512 429.5563,415.3419 432.5563,415.3419 C434.9938,415.3419 436.6969,413.7169 437.2906,413.1387 L436.3063,412.045 Z " fill="#000000"/><text fill="#000000" font-family="Verdana" font-size="14" lengthAdjust="spacing" textLength="72.1807" x="450.4" y="406.7745">NoopFilter</text><text fill="#000000" font-family="Verdana" font-size="14" lengthAdjust="spacing" textLength="55.9998" x="458.4905" y="423.0714">&#31354;&#36807;&#28388;&#22120;</text><line style="stroke:#333333;stroke-width:1;" x1="363.79" x2="581.6907" y1="431.3731" y2="431.3731"/><line style="stroke:#333333;stroke-width:1;" x1="363.79" x2="581.6907" y1="439.3731" y2="439.3731"/><text fill="#000000" font-family="Verdana" font-size="14" lengthAdjust="spacing" textLength="207.9007" x="368.79" y="456.3682">apply() &#21407;&#26679;&#36820;&#22238;&#65292;&#19981;&#20570;&#20219;&#20309;&#36807;&#28388;</text></g><!--class FilterCriteria--><g class="entity" data-qualified-name="........Criteria.FilterCriteria" data-source-line="20" id="ent0006"><rect fill="#F1F1F1" height="186.6406" rx="2.5" ry="2.5" style="stroke:#333333;stroke-width:1;" width="228.4189" x="940.53" y="865.2894"/><ellipse cx="1007.2702" cy="893.5706" fill="#FFFFFF" rx="9" ry="9" style="stroke:#000000;stroke-width:1;"/><path d="M1010.6765,895.5394 C1009.9577,896.2113 1008.6609,897.3831 1006.9109,897.3831 C1004.6921,897.3831 1003.7234,895.4456 1003.7234,893.4925 C1003.7234,891.1019 1005.2077,889.8363 1006.8484,889.8363 C1008.864,889.8363 1009.0827,891.3519 1009.2546,892.4456 L1010.6765,892.2581 C1010.5827,891.68 1010.5046,891.1019 1010.5046,890.1331 C1010.5046,889.4613 1010.5515,888.9144 1010.5827,888.4925 L1009.1765,888.4925 L1009.0671,889.4456 C1008.4734,888.9144 1007.8327,888.3675 1006.614,888.3675 C1004.5671,888.3675 1002.1609,890.1956 1002.1609,893.5081 C1002.1609,896.4456 1003.9265,898.8363 1006.9265,898.8363 C1009.364,898.8363 1011.0671,897.2113 1011.6609,896.6331 L1010.6765,895.5394 Z " fill="#000000"/><text fill="#000000" font-family="Verdana" font-size="12" font-style="italic" lengthAdjust="spacing" textLength="50.6839" x="1043.1475" y="881.428">&#171;&#32467;&#26500;&#20307;&#187;</text><text fill="#000000" font-family="Verdana" font-size="14" lengthAdjust="spacing" textLength="87.4385" x="1024.7702" y="897.2532">FilterCriteria</text><text fill="#000000" font-family="Verdana" font-size="14" lengthAdjust="spacing" textLength="55.9998" x="1040.4896" y="913.5501">&#36807;&#28388;&#26465;&#20214;</text><line style="stroke:#333333;stroke-width:1;" x1="941.53" x2="1167.9489" y1="921.8519" y2="921.8519"/><text fill="#000000" font-family="Verdana" font-size="14" lengthAdjust="spacing" textLength="194.5918" x="946.53" y="938.847">&#183; pathGlob : vector&lt;string&gt;</text><text fill="#000000" font-family="Verdana" font-size="14" lengthAdjust="spacing" textLength="204.8252" x="946.53" y="955.1439">&#183; fileType : vector&lt;FileType&gt;</text><text fill="#000000" font-family="Verdana" font-size="14" lengthAdjust="spacing" textLength="202.4668" x="946.53" y="971.4407">&#183; nameGlob : vector&lt;string&gt;</text><text fill="#000000" font-family="Verdana" font-size="14" lengthAdjust="spacing" textLength="178.1992" x="946.53" y="987.7376">&#183; timeRange : TimeRange</text><text fill="#000000" font-family="Verdana" font-size="14" lengthAdjust="spacing" textLength="167.7607" x="946.53" y="1004.0345">&#183; sizeRange : SizeRange</text><text fill="#000000" font-family="Verdana" font-size="14" lengthAdjust="spacing" textLength="216.4189" x="946.53" y="1020.3314">&#183; ownerId : optional&lt;uint32_t&gt;</text><text fill="#000000" font-family="Verdana" font-size="14" lengthAdjust="spacing" textLength="107.2832" x="946.53" y="1036.6282">&#183; exclude : bool</text><line style="stroke:#333333;stroke-width:1;" x1="941.53" x2="1167.9489" y1="1043.93" y2="1043.93"/></g><!--class TimeRange--><g class="entity" data-qualified-name="........Criteria.TimeRange" data-source-line="30" id="ent0007"><rect fill="#F1F1F1" height="121.4531" rx="2.5" ry="2.5" style="stroke:#333333;stroke-width:1;" width="184.5186" x="841.48" y="1191.9394"/><ellipse cx="890.3032" cy="1220.2206" fill="#FFFFFF" rx="9" ry="9" style="stroke:#000000;stroke-width:1;"/><path d="M893.7095,1222.1894 C892.9907,1222.8613 891.6939,1224.0331 889.9439,1224.0331 C887.7251,1224.0331 886.7564,1222.0956 886.7564,1220.1425 C886.7564,1217.7519 888.2407,1216.4863 889.8814,1216.4863 C891.897,1216.4863 892.1157,1218.0019 892.2876,1219.0956 L893.7095,1218.9081 C893.6157,1218.33 893.5376,1217.7519 893.5376,1216.7831 C893.5376,1216.1113 893.5845,1215.5644 893.6157,1215.1425 L892.2095,1215.1425 L892.1001,1216.0956 C891.5064,1215.5644 890.8657,1215.0175 889.647,1215.0175 C887.6001,1215.0175 885.1939,1216.8456 885.1939,1220.1581 C885.1939,1223.0956 886.9595,1225.4863 889.9595,1225.4863 C892.397,1225.4863 894.1001,1223.8613 894.6939,1223.2831 L893.7095,1222.1894 Z " fill="#000000"/><text fill="#000000" font-family="Verdana" font-size="12" font-style="italic" lengthAdjust="spacing" textLength="50.6839" x="922.1473" y="1208.078">&#171;&#32467;&#26500;&#20307;&#187;</text><text fill="#000000" font-family="Verdana" font-size="14" lengthAdjust="spacing" textLength="79.3721" x="907.8032" y="1223.9032">TimeRange</text><text fill="#000000" font-family="Verdana" font-size="14" lengthAdjust="spacing" textLength="55.9998" x="919.4894" y="1240.2001">&#26102;&#38388;&#33539;&#22260;</text><line style="stroke:#333333;stroke-width:1;" x1="842.48" x2="1024.9986" y1="1248.5019" y2="1248.5019"/><text fill="#000000" font-family="Verdana" font-size="14" lengthAdjust="spacing" textLength="172.5186" x="847.48" y="1265.497">&#183; beforeSec / beforeNsec</text><text fill="#000000" font-family="Verdana" font-size="14" lengthAdjust="spacing" textLength="148.5244" x="847.48" y="1281.7939">&#183; afterSec / afterNsec</text><text fill="#000000" font-family="Verdana" font-size="14" lengthAdjust="spacing" textLength="152.4551" x="847.48" y="1298.0907">&#183; hasBefore / hasAfter</text><line style="stroke:#333333;stroke-width:1;" x1="842.48" x2="1024.9986" y1="1305.3925" y2="1305.3925"/></g><!--class SizeRange--><g class="entity" data-qualified-name="........Criteria.SizeRange" data-source-line="36" id="ent0008"><rect fill="#F1F1F1" height="105.1563" rx="2.5" ry="2.5" style="stroke:#333333;stroke-width:1;" width="148.8965" x="1061.29" y="1200.0894"/><ellipse cx="1095.6553" cy="1228.3706" fill="#FFFFFF" rx="9" ry="9" style="stroke:#000000;stroke-width:1;"/><path d="M1099.0616,1230.3394 C1098.3428,1231.0113 1097.046,1232.1831 1095.296,1232.1831 C1093.0772,1232.1831 1092.1085,1230.2456 1092.1085,1228.2925 C1092.1085,1225.9019 1093.5928,1224.6363 1095.2335,1224.6363 C1097.2491,1224.6363 1097.4678,1226.1519 1097.6397,1227.2456 L1099.0616,1227.0581 C1098.9678,1226.48 1098.8897,1225.9019 1098.8897,1224.9331 C1098.8897,1224.2613 1098.9366,1223.7144 1098.9678,1223.2925 L1097.5616,1223.2925 L1097.4522,1224.2456 C1096.8585,1223.7144 1096.2178,1223.1675 1094.9991,1223.1675 C1092.9522,1223.1675 1090.546,1224.9956 1090.546,1228.3081 C1090.546,1231.2456 1092.3116,1233.6363 1095.3116,1233.6363 C1097.7491,1233.6363 1099.4522,1232.0113 1100.046,1231.4331 L1099.0616,1230.3394 Z " fill="#000000"/><text fill="#000000" font-family="Verdana" font-size="12" font-style="italic" lengthAdjust="spacing" textLength="50.6839" x="1123.7702" y="1216.228">&#171;&#32467;&#26500;&#20307;&#187;</text><text fill="#000000" font-family="Verdana" font-size="14" lengthAdjust="spacing" textLength="73.418" x="1112.4032" y="1232.0532">SizeRange</text><text fill="#000000" font-family="Verdana" font-size="14" lengthAdjust="spacing" textLength="55.9998" x="1121.1123" y="1248.3501">&#22823;&#23567;&#33539;&#22260;</text><line style="stroke:#333333;stroke-width:1;" x1="1062.29" x2="1209.1865" y1="1256.6519" y2="1256.6519"/><text fill="#000000" font-family="Verdana" font-size="14" lengthAdjust="spacing" textLength="136.8965" x="1067.29" y="1273.647">&#183; minSize / maxSize</text><text fill="#000000" font-family="Verdana" font-size="14" lengthAdjust="spacing" textLength="125.7949" x="1067.29" y="1289.9439">&#183; hasMin / hasMax</text><line style="stroke:#333333;stroke-width:1;" x1="1062.29" x2="1209.1865" y1="1297.2456" y2="1297.2456"/></g><!--class CriteriaFilter--><g class="entity" data-qualified-name="........CriteriaFilterPkg.CriteriaFilter" data-source-line="43" id="ent0010"><rect fill="#F1F1F1" height="91.1875" rx="2.5" ry="2.5" style="stroke:#333333;stroke-width:1;" width="168.2076" x="813.63" y="380.6294"/><ellipse cx="850.3761" cy="401.9263" fill="#FFFFFF" rx="9" ry="9" style="stroke:#000000;stroke-width:1;"/><path d="M853.7824,403.895 C853.0636,404.5669 851.7667,405.7388 850.0167,405.7388 C847.798,405.7388 846.8292,403.8013 846.8292,401.8481 C846.8292,399.4575 848.3136,398.1919 849.9542,398.1919 C851.9699,398.1919 852.1886,399.7075 852.3605,400.8013 L853.7824,400.6138 C853.6886,400.0356 853.6105,399.4575 853.6105,398.4888 C853.6105,397.8169 853.6574,397.27 853.6886,396.8481 L852.2824,396.8481 L852.173,397.8013 C851.5792,397.27 850.9386,396.7231 849.7199,396.7231 C847.673,396.7231 845.2667,398.5513 845.2667,401.8638 C845.2667,404.8013 847.0324,407.1919 850.0324,407.1919 C852.4699,407.1919 854.173,405.5669 854.7667,404.9888 L853.7824,403.895 Z " fill="#000000"/><text fill="#000000" font-family="Verdana" font-size="14" lengthAdjust="spacing" textLength="87.4385" x="867.653" y="398.6245">CriteriaFilter</text><text fill="#000000" font-family="Verdana" font-size="14" lengthAdjust="spacing" textLength="69.9997" x="876.3724" y="414.9214">&#26465;&#20214;&#36807;&#28388;&#22120;</text><line style="stroke:#333333;stroke-width:1;" x1="814.63" x2="980.8376" y1="423.2231" y2="423.2231"/><text fill="#000000" font-family="Verdana" font-size="14" lengthAdjust="spacing" textLength="156.2076" x="819.63" y="440.2182">&#21253;&#21547;&#38454;&#27573;&#65288;AND + OR&#65289;</text><text fill="#000000" font-family="Verdana" font-size="14" lengthAdjust="spacing" textLength="104.7467" x="819.63" y="456.5151">&#25490;&#38500;&#38454;&#27573;&#65288;OR&#65289;</text><line style="stroke:#333333;stroke-width:1;" x1="814.63" x2="980.8376" y1="463.8169" y2="463.8169"/></g><!--class matchesMethod--><g class="entity" data-qualified-name="........CriteriaFilterPkg.matchesMethod" data-source-line="47" id="ent0011"><rect fill="#F1F1F1" height="58.5938" rx="2.5" ry="2.5" style="stroke:#333333;stroke-width:1;" width="99.1074" x="848.18" y="607.7494"/><ellipse cx="861.18" cy="629.0463" fill="#FFFFFF" rx="9" ry="9" style="stroke:#000000;stroke-width:1;"/><path d="M864.5863,631.015 C863.8675,631.6869 862.5706,632.8588 860.8206,632.8588 C858.6019,632.8588 857.6331,630.9213 857.6331,628.9681 C857.6331,626.5775 859.1175,625.3119 860.7581,625.3119 C862.7738,625.3119 862.9925,626.8275 863.1644,627.9213 L864.5863,627.7338 C864.4925,627.1556 864.4144,626.5775 864.4144,625.6088 C864.4144,624.9369 864.4613,624.39 864.4925,623.9681 L863.0863,623.9681 L862.9769,624.9213 C862.3831,624.39 861.7425,623.8431 860.5238,623.8431 C858.4769,623.8431 856.0706,625.6713 856.0706,628.9838 C856.0706,631.9213 857.8363,634.3119 860.8363,634.3119 C863.2738,634.3119 864.9769,632.6869 865.5706,632.1088 L864.5863,631.015 Z " fill="#000000"/><text fill="#000000" font-family="Verdana" font-size="14" lengthAdjust="spacing" textLength="71.1074" x="873.18" y="625.7445">matches()</text><text fill="#000000" font-family="Verdana" font-size="14" lengthAdjust="spacing" textLength="69.9997" x="873.7339" y="642.0414">&#21333;&#26465;&#20214;&#21305;&#37197;</text><line style="stroke:#333333;stroke-width:1;" x1="849.18" x2="946.2874" y1="650.3431" y2="650.3431"/><line style="stroke:#333333;stroke-width:1;" x1="849.18" x2="946.2874" y1="658.3431" y2="658.3431"/></g><!--class applyMethod--><g class="entity" data-qualified-name="........CriteriaFilterPkg.applyMethod" data-source-line="48" id="ent0012"><rect fill="#F1F1F1" height="58.5938" rx="2.5" ry="2.5" style="stroke:#333333;stroke-width:1;" width="83.9998" x="728.74" y="607.7494"/><ellipse cx="741.74" cy="629.0463" fill="#FFFFFF" rx="9" ry="9" style="stroke:#000000;stroke-width:1;"/><path d="M745.1463,631.015 C744.4275,631.6869 743.1306,632.8588 741.3806,632.8588 C739.1619,632.8588 738.1931,630.9213 738.1931,628.9681 C738.1931,626.5775 739.6775,625.3119 741.3181,625.3119 C743.3338,625.3119 743.5525,626.8275 743.7244,627.9213 L745.1463,627.7338 C745.0525,627.1556 744.9744,626.5775 744.9744,625.6088 C744.9744,624.9369 745.0213,624.39 745.0525,623.9681 L743.6463,623.9681 L743.5369,624.9213 C742.9431,624.39 742.3025,623.8431 741.0838,623.8431 C739.0369,623.8431 736.6306,625.6713 736.6306,628.9838 C736.6306,631.9213 738.3963,634.3119 741.3963,634.3119 C743.8338,634.3119 745.5369,632.6869 746.1306,632.1088 L745.1463,631.015 Z " fill="#000000"/><text fill="#000000" font-family="Verdana" font-size="14" lengthAdjust="spacing" textLength="49.4512" x="757.0143" y="625.7445">apply()</text><text fill="#000000" font-family="Verdana" font-size="14" lengthAdjust="spacing" textLength="55.9998" x="753.74" y="642.0414">&#25191;&#34892;&#36807;&#28388;</text><line style="stroke:#333333;stroke-width:1;" x1="729.74" x2="811.7398" y1="650.3431" y2="650.3431"/><line style="stroke:#333333;stroke-width:1;" x1="729.74" x2="811.7398" y1="658.3431" y2="658.3431"/></g><!--class globToRegex--><g class="entity" data-qualified-name="........CriteriaFilterPkg.globToRegex" data-source-line="50" id="ent0013"><rect fill="#F1F1F1" height="58.5938" rx="2.5" ry="2.5" style="stroke:#333333;stroke-width:1;" width="151.73" x="981.87" y="607.7494"/><ellipse cx="994.87" cy="629.0463" fill="#FFFFFF" rx="9" ry="9" style="stroke:#000000;stroke-width:1;"/><path d="M998.2763,631.015 C997.5575,631.6869 996.2606,632.8588 994.5106,632.8588 C992.2919,632.8588 991.3231,630.9213 991.3231,628.9681 C991.3231,626.5775 992.8075,625.3119 994.4481,625.3119 C996.4638,625.3119 996.6825,626.8275 996.8544,627.9213 L998.2763,627.7338 C998.1825,627.1556 998.1044,626.5775 998.1044,625.6088 C998.1044,624.9369 998.1513,624.39 998.1825,623.9681 L996.7763,623.9681 L996.6669,624.9213 C996.0731,624.39 995.4325,623.8431 994.2138,623.8431 C992.1669,623.8431 989.7606,625.6713 989.7606,628.9838 C989.7606,631.9213 991.5263,634.3119 994.5263,634.3119 C996.9638,634.3119 998.6669,632.6869 999.2606,632.1088 L998.2763,631.015 Z " fill="#000000"/><text fill="#000000" font-family="Verdana" font-size="14" lengthAdjust="spacing" textLength="102.3955" x="1017.5372" y="625.7445">globToRegex()</text><text fill="#000000" font-family="Verdana" font-size="14" lengthAdjust="spacing" textLength="123.73" x="1006.87" y="642.0414">&#36890;&#37197;&#31526;&#8594;&#27491;&#21017;&#34920;&#36798;&#24335;</text><line style="stroke:#333333;stroke-width:1;" x1="982.87" x2="1132.6" y1="650.3431" y2="650.3431"/><line style="stroke:#333333;stroke-width:1;" x1="982.87" x2="1132.6" y1="658.3431" y2="658.3431"/></g><!--class matchGlob--><g class="entity" data-qualified-name="........CriteriaFilterPkg.matchGlob" data-source-line="51" id="ent0014"><rect fill="#F1F1F1" height="58.5938" rx="2.5" ry="2.5" style="stroke:#333333;stroke-width:1;" width="115.3906" x="1169.04" y="607.7494"/><ellipse cx="1182.04" cy="629.0463" fill="#FFFFFF" rx="9" ry="9" style="stroke:#000000;stroke-width:1;"/><path d="M1185.4463,631.015 C1184.7275,631.6869 1183.4306,632.8588 1181.6806,632.8588 C1179.4619,632.8588 1178.4931,630.9213 1178.4931,628.9681 C1178.4931,626.5775 1179.9775,625.3119 1181.6181,625.3119 C1183.6338,625.3119 1183.8525,626.8275 1184.0244,627.9213 L1185.4463,627.7338 C1185.3525,627.1556 1185.2744,626.5775 1185.2744,625.6088 C1185.2744,624.9369 1185.3213,624.39 1185.3525,623.9681 L1183.9463,623.9681 L1183.8369,624.9213 C1183.2431,624.39 1182.6025,623.8431 1181.3838,623.8431 C1179.3369,623.8431 1176.9306,625.6713 1176.9306,628.9838 C1176.9306,631.9213 1178.6963,634.3119 1181.6963,634.3119 C1184.1338,634.3119 1185.8369,632.6869 1186.4306,632.1088 L1185.4463,631.015 Z " fill="#000000"/><text fill="#000000" font-family="Verdana" font-size="14" lengthAdjust="spacing" textLength="87.3906" x="1194.04" y="625.7445">matchGlob()</text><text fill="#000000" font-family="Verdana" font-size="14" lengthAdjust="spacing" textLength="69.9997" x="1202.7355" y="642.0414">&#36890;&#37197;&#31526;&#21305;&#37197;</text><line style="stroke:#333333;stroke-width:1;" x1="1170.04" x2="1283.4306" y1="650.3431" y2="650.3431"/><line style="stroke:#333333;stroke-width:1;" x1="1170.04" x2="1283.4306" y1="658.3431" y2="658.3431"/></g><g class="entity" data-qualified-name="GMN26" data-source-line="72" id="ent0027"><path d="M11,548.8194 L11,725.2803 A0,0 0 0 0 11,725.2803 L216.4757,725.2803 A0,0 0 0 0 216.4757,725.2803 L216.4757,641.0494 L728.27,637.0494 L216.4757,633.0494 L216.4757,558.8194 L206.4757,548.8194 L11,548.8194 A0,0 0 0 0 11,548.8194" fill="#FFFFFF" style="stroke:#000000;stroke-width:1;"/><path d="M206.4757,548.8194 L206.4757,558.8194 L216.4757,558.8194 L206.4757,548.8194" fill="#FFFFFF" style="stroke:#000000;stroke-width:1;"/><text fill="#000000" font-family="Verdana" font-size="13" font-weight="700" lengthAdjust="spacing" textLength="130.0002" x="17" y="565.8863">&#36807;&#28388;&#36923;&#36753;&#65288;&#20004;&#38454;&#27573;&#65289;&#65306;</text><text fill="#000000" font-family="Verdana" font-size="13" lengthAdjust="spacing" textLength="4.1323" x="17" y="581.0191">&#160;</text><text fill="#000000" font-family="Verdana" font-size="13" font-weight="700" lengthAdjust="spacing" textLength="139.0519" x="17" y="596.1519">&#31532;&#19968;&#38454;&#27573; &#8212; &#21253;&#21547;&#36807;&#28388;&#65306;</text><text fill="#000000" font-family="Verdana" font-size="13" lengthAdjust="spacing" textLength="167.6354" x="17" y="611.2847">1. &#30830;&#23450;&#26377;include&#26465;&#20214;&#30340;&#32500;&#24230;</text><text fill="#000000" font-family="Verdana" font-size="13" lengthAdjust="spacing" textLength="172.5358" x="17" y="626.4175">2. &#23545;&#27599;&#20010;&#26465;&#30446;&#65292;&#25152;&#26377;&#27963;&#36291;&#32500;&#24230;</text><text fill="#000000" font-family="Verdana" font-size="13" lengthAdjust="spacing" textLength="106.628" x="29.397" y="641.5503">&#24517;&#39035;&#28385;&#36275;&#65288;AND&#65289;</text><text fill="#000000" font-family="Verdana" font-size="13" lengthAdjust="spacing" textLength="139.8009" x="17" y="656.6831">3. &#21516;&#32500;&#24230;&#20869;&#22810;&#20010;&#26465;&#20214;OR</text><text fill="#000000" font-family="Verdana" font-size="13" lengthAdjust="spacing" textLength="167.6354" x="17" y="671.816">4. &#26080;include&#26465;&#20214;&#30340;&#32500;&#24230;&#36339;&#36807;</text><text fill="#000000" font-family="Verdana" font-size="13" lengthAdjust="spacing" textLength="4.1323" x="17" y="686.9488">&#160;</text><text fill="#000000" font-family="Verdana" font-size="13" font-weight="700" lengthAdjust="spacing" textLength="139.0519" x="17" y="702.0816">&#31532;&#20108;&#38454;&#27573; &#8212; &#25490;&#38500;&#36807;&#28388;&#65306;</text><text fill="#000000" font-family="Verdana" font-size="13" lengthAdjust="spacing" textLength="184.4757" x="17" y="717.2144">5. &#20219;&#19968;exclude&#26465;&#20214;&#21305;&#37197;&#21363;&#21076;&#38500;</text></g><g class="entity" data-qualified-name="GMN29" data-source-line="86" id="ent0030"><path d="M1626.14,802.2794 L1626.14,1114.9356 L1853.3373,1114.9356 L1853.3373,812.2794 L1843.3373,802.2794 L1626.14,802.2794" fill="#FFFFFF" style="stroke:#000000;stroke-width:1;"/><path d="M1843.3373,802.2794 L1843.3373,812.2794 L1853.3373,812.2794 L1843.3373,802.2794" fill="#FFFFFF" style="stroke:#000000;stroke-width:1;"/><text fill="#000000" font-family="Verdana" font-size="13" font-weight="700" lengthAdjust="spacing" textLength="91.0001" x="1632.14" y="819.3463">&#20845;&#22823;&#36807;&#28388;&#32500;&#24230;&#65306;</text><text fill="#000000" font-family="Verdana" font-size="13" lengthAdjust="spacing" textLength="4.1323" x="1632.14" y="834.4791">&#160;</text><text fill="#000000" font-family="Verdana" font-size="13" lengthAdjust="spacing" textLength="12.4033" x="1632.14" y="849.6119">1.</text><text fill="#000000" font-family="Verdana" font-size="13" font-weight="700" lengthAdjust="spacing" textLength="52.0001" x="1648.6756" y="849.6119">&#36335;&#24452;&#36807;&#28388;</text><text fill="#000000" font-family="Verdana" font-size="13" lengthAdjust="spacing" textLength="69.5894" x="1704.808" y="849.6119">(pathGlob)</text><text fill="#000000" font-family="Verdana" font-size="13" lengthAdjust="spacing" textLength="12.397" x="1632.14" y="864.7447">&#160;&#160;&#160;</text><text fill="#000000" font-family="Verdana" font-size="13" lengthAdjust="spacing" text-decoration="line-through" textLength="89.8574" x="1644.537" y="864.7447">include-path /</text><text fill="#000000" font-family="Verdana" font-size="13" lengthAdjust="spacing" textLength="85.1855" x="1738.5267" y="864.7447">exclude-path</text><text fill="#000000" font-family="Verdana" font-size="13" lengthAdjust="spacing" textLength="4.1323" x="1632.14" y="879.8775">&#160;</text><text fill="#000000" font-family="Verdana" font-size="13" lengthAdjust="spacing" textLength="12.4033" x="1632.14" y="895.0103">2.</text><text fill="#000000" font-family="Verdana" font-size="13" font-weight="700" lengthAdjust="spacing" textLength="52.0001" x="1648.6756" y="895.0103">&#31867;&#22411;&#36807;&#28388;</text><text fill="#000000" font-family="Verdana" font-size="13" lengthAdjust="spacing" textLength="61.8262" x="1704.808" y="895.0103">(fileType)</text><text fill="#000000" font-family="Verdana" font-size="13" lengthAdjust="spacing" textLength="12.397" x="1632.14" y="910.1431">&#160;&#160;&#160;</text><text fill="#000000" font-family="Verdana" font-size="13" lengthAdjust="spacing" text-decoration="line-through" textLength="89.3433" x="1644.537" y="910.1431">include-type /</text><text fill="#000000" font-family="Verdana" font-size="13" lengthAdjust="spacing" textLength="84.6714" x="1738.0126" y="910.1431">exclude-type</text><text fill="#000000" font-family="Verdana" font-size="13" lengthAdjust="spacing" textLength="99.2711" x="1644.537" y="925.276">&#25903;&#25345;7&#31181;&#25991;&#20214;&#31867;&#22411;</text><text fill="#000000" font-family="Verdana" font-size="13" lengthAdjust="spacing" textLength="4.1323" x="1632.14" y="940.4088">&#160;</text><text fill="#000000" font-family="Verdana" font-size="13" lengthAdjust="spacing" textLength="12.4033" x="1632.14" y="955.5416">3.</text><text fill="#000000" font-family="Verdana" font-size="13" font-weight="700" lengthAdjust="spacing" textLength="52.0001" x="1648.6756" y="955.5416">&#21517;&#31216;&#36807;&#28388;</text><text fill="#000000" font-family="Verdana" font-size="13" lengthAdjust="spacing" textLength="76.9019" x="1704.808" y="955.5416">(nameGlob)</text><text fill="#000000" font-family="Verdana" font-size="13" lengthAdjust="spacing" textLength="12.397" x="1632.14" y="970.6744">&#160;&#160;&#160;</text><text fill="#000000" font-family="Verdana" font-size="13" lengthAdjust="spacing" text-decoration="line-through" textLength="97.1699" x="1644.537" y="970.6744">include-name /</text><text fill="#000000" font-family="Verdana" font-size="13" lengthAdjust="spacing" textLength="92.498" x="1745.8392" y="970.6744">exclude-name</text><text fill="#000000" font-family="Verdana" font-size="13" lengthAdjust="spacing" textLength="4.1323" x="1632.14" y="985.8072">&#160;</text><text fill="#000000" font-family="Verdana" font-size="13" lengthAdjust="spacing" textLength="12.4033" x="1632.14" y="1000.94">4.</text><text fill="#000000" font-family="Verdana" font-size="13" font-weight="700" lengthAdjust="spacing" textLength="52.0001" x="1648.6756" y="1000.94">&#26102;&#38388;&#36807;&#28388;</text><text fill="#000000" font-family="Verdana" font-size="13" lengthAdjust="spacing" textLength="81.0024" x="1704.808" y="1000.94">(timeRange)</text><text fill="#000000" font-family="Verdana" font-size="13" lengthAdjust="spacing" textLength="12.397" x="1632.14" y="1016.0728">&#160;&#160;&#160;</text><text fill="#000000" font-family="Verdana" font-size="13" lengthAdjust="spacing" text-decoration="line-through" textLength="97.3604" x="1644.537" y="1016.0728">mtime-before /</text><text fill="#000000" font-family="Verdana" font-size="13" lengthAdjust="spacing" textLength="77.708" x="1746.0296" y="1016.0728">mtime-after</text><text fill="#000000" font-family="Verdana" font-size="13" lengthAdjust="spacing" textLength="4.1323" x="1632.14" y="1031.2056">&#160;</text><text fill="#000000" font-family="Verdana" font-size="13" lengthAdjust="spacing" textLength="12.4033" x="1632.14" y="1046.3385">5.</text><text fill="#000000" font-family="Verdana" font-size="13" font-weight="700" lengthAdjust="spacing" textLength="52.0001" x="1648.6756" y="1046.3385">&#22823;&#23567;&#36807;&#28388;</text><text fill="#000000" font-family="Verdana" font-size="13" lengthAdjust="spacing" textLength="76.8384" x="1704.808" y="1046.3385">(sizeRange)</text><text fill="#000000" font-family="Verdana" font-size="13" lengthAdjust="spacing" textLength="12.397" x="1632.14" y="1061.4713">&#160;&#160;&#160;</text><text fill="#000000" font-family="Verdana" font-size="13" lengthAdjust="spacing" text-decoration="line-through" textLength="62.9243" x="1644.537" y="1061.4713">size-min /</text><text fill="#000000" font-family="Verdana" font-size="13" lengthAdjust="spacing" textLength="58.2207" x="1711.5936" y="1061.4713">size-max</text><text fill="#000000" font-family="Verdana" font-size="13" lengthAdjust="spacing" textLength="4.1323" x="1632.14" y="1076.6041">&#160;</text><text fill="#000000" font-family="Verdana" font-size="13" lengthAdjust="spacing" textLength="12.4033" x="1632.14" y="1091.7369">6.</text><text fill="#000000" font-family="Verdana" font-size="13" font-weight="700" lengthAdjust="spacing" textLength="52.0001" x="1648.6756" y="1091.7369">&#23646;&#20027;&#36807;&#28388;</text><text fill="#000000" font-family="Verdana" font-size="13" lengthAdjust="spacing" textLength="62.3975" x="1704.808" y="1091.7369">(ownerId)</text><text fill="#000000" font-family="Verdana" font-size="13" lengthAdjust="spacing" textLength="49.5498" x="1644.537" y="1106.8697">--owner</text></g><g class="entity" data-qualified-name="GMN32" data-source-line="109" id="ent0033"><path d="M1340.38,930.9094 L1340.38,986.3078 A0,0 0 0 0 1340.38,986.3078 L1591.089,986.3078 A0,0 0 0 0 1591.089,986.3078 L1591.089,940.9094 L1581.089,930.9094 L1449.64,930.9094 L1248.16,666.6894 L1441.64,930.9094 L1340.38,930.9094 A0,0 0 0 0 1340.38,930.9094" fill="#FFFFFF" style="stroke:#000000;stroke-width:1;"/><path d="M1581.089,930.9094 L1581.089,940.9094 L1591.089,940.9094 L1581.089,930.9094" fill="#FFFFFF" style="stroke:#000000;stroke-width:1;"/><text fill="#000000" font-family="Verdana" font-size="13" font-weight="700" lengthAdjust="spacing" textLength="65.0001" x="1346.38" y="947.9763">&#24179;&#21488;&#24046;&#24322;&#65306;</text><text fill="#000000" font-family="Verdana" font-size="13" lengthAdjust="spacing" textLength="229.709" x="1346.38" y="963.1091">POSIX &#8594; fnmatch(FNM_PATHNAME)</text><text fill="#000000" font-family="Verdana" font-size="13" lengthAdjust="spacing" textLength="191.2549" x="1346.38" y="978.2419">Windows &#8594; std::regex_match</text></g><g class="entity" data-qualified-name="GMN35" data-source-line="115" id="ent0036"><path d="M269.17,57.6094 L269.17,82.7422 A0,0 0 0 0 269.17,82.7422 L468.74,82.7422 L472.74,207.4894 L476.74,82.7422 L676.3107,82.7422 A0,0 0 0 0 676.3107,82.7422 L676.3107,67.6094 L666.3107,57.6094 L269.17,57.6094 A0,0 0 0 0 269.17,57.6094" fill="#FFFFFF" style="stroke:#000000;stroke-width:1;"/><path d="M666.3107,57.6094 L666.3107,67.6094 L676.3107,67.6094 L666.3107,57.6094" fill="#FFFFFF" style="stroke:#000000;stroke-width:1;"/><text fill="#000000" font-family="Verdana" font-size="13" font-weight="700" lengthAdjust="spacing" textLength="52.0001" x="275.17" y="74.6763">&#35843;&#29992;&#32773;&#65306;</text><text fill="#000000" font-family="Verdana" font-size="13" lengthAdjust="spacing" textLength="330.0083" x="331.3024" y="74.6763">BackupEngine / buildFilter() &#24037;&#21378; / GUI::FilterDialog</text></g><!--reverse link FilterInterface to NoopFilter--><g class="link" data-entity-1="ent0003" data-entity-2="ent0004" data-link-type="extension" data-source-line="56" id="lnk16"><path codeLine="56" d="M472.74,300.8494 C472.74,331.6394 472.74,357.4394 472.74,388.2994" fill="none" id="FilterInterface-backto-NoopFilter" style="stroke:#000000;stroke-width:1;"/><polygon fill="none" points="472.74,282.8494,466.74,300.8494,478.74,300.8494,472.74,282.8494" style="stroke:#000000;stroke-width:1;stroke-linejoin:miter;stroke-miterlimit:10;"/></g><!--reverse link FilterInterface to CriteriaFilter--><g class="link" data-entity-1="ent0003" data-entity-2="ent0010" data-link-type="extension" data-source-line="57" id="lnk18"><path codeLine="57" d="M603.9736,289.025 C637.1136,300.535 656.15,307.9294 688.74,321.6294 C730.45,339.1794 775.58,361.1394 813.18,380.3294" fill="none" id="FilterInterface-backto-CriteriaFilter" style="stroke:#000000;stroke-width:1;"/><polygon fill="none" points="586.97,283.1194,602.0051,294.6929,605.9422,283.3571,586.97,283.1194" style="stroke:#000000;stroke-width:1;stroke-linejoin:miter;stroke-miterlimit:10;"/></g><!--link FilterCriteria to TimeRange--><g class="link" data-entity-1="ent0006" data-entity-2="ent0007" data-link-type="dependency" data-source-line="60" id="lnk19"><path codeLine="60" d="M1016.29,1052.4194 C997.39,1098.0194 977.0932,1147.0099 960.4732,1187.1399" fill="none" id="FilterCriteria-to-TimeRange" style="stroke:#000000;stroke-width:1;"/><polygon fill="#000000" points="958.56,1191.7594,965.6993,1184.9748,960.4732,1187.1399,958.3081,1181.9137,958.56,1191.7594" style="stroke:#000000;stroke-width:1;stroke-linejoin:miter;stroke-miterlimit:10;"/><text fill="#000000" font-family="Verdana" font-size="13" lengthAdjust="spacing" textLength="26" x="977.33" y="1158.0063">&#21253;&#21547;</text></g><!--link FilterCriteria to SizeRange--><g class="link" data-entity-1="ent0006" data-entity-2="ent0008" data-link-type="dependency" data-source-line="61" id="lnk20"><path codeLine="61" d="M1080.48,1052.4194 C1094,1101.1894 1108.744,1154.3212 1120.054,1195.1112" fill="none" id="FilterCriteria-to-SizeRange" style="stroke:#000000;stroke-width:1;"/><polygon fill="#000000" points="1121.39,1199.9294,1122.8398,1190.1878,1120.054,1195.1112,1115.1307,1192.3254,1121.39,1199.9294" style="stroke:#000000;stroke-width:1;stroke-linejoin:miter;stroke-miterlimit:10;"/><text fill="#000000" font-family="Verdana" font-size="13" lengthAdjust="spacing" textLength="26" x="1110.54" y="1158.0063">&#21253;&#21547;</text></g><!--link CriteriaFilter to matchesMethod--><g class="link" data-entity-1="ent0010" data-entity-2="ent0011" data-link-type="dependency" data-source-line="64" id="lnk21"><path codeLine="64" d="M897.74,472.2794 C897.74,513.2894 897.74,567.5794 897.74,602.4394" fill="none" id="CriteriaFilter-to-matchesMethod" style="stroke:#000000;stroke-width:1;"/><polygon fill="#000000" points="897.74,607.4394,901.74,598.4394,897.74,602.4394,893.74,598.4394,897.74,607.4394" style="stroke:#000000;stroke-width:1;stroke-linejoin:miter;stroke-miterlimit:10;"/><text fill="#000000" font-family="Verdana" font-size="13" lengthAdjust="spacing" textLength="78.0001" x="898.74" y="514.8863">&#26816;&#26597;&#21333;&#20010;&#26465;&#20214;</text></g><!--link CriteriaFilter to applyMethod--><g class="link" data-entity-1="ent0010" data-entity-2="ent0012" data-link-type="dependency" data-source-line="65" id="lnk22"><path codeLine="65" d="M857.54,472.0394 C849.86,481.5494 842.21,491.7694 835.74,501.8194 C813.52,536.3194 795.8253,574.9491 784.1053,602.8691" fill="none" id="CriteriaFilter-to-applyMethod" style="stroke:#000000;stroke-width:1;"/><polygon fill="#000000" points="782.17,607.4794,789.3417,600.7291,784.1053,602.8691,781.9652,597.6326,782.17,607.4794" style="stroke:#000000;stroke-width:1;stroke-linejoin:miter;stroke-miterlimit:10;"/><text fill="#000000" font-family="Verdana" font-size="13" lengthAdjust="spacing" textLength="52.0001" x="836.74" y="514.8863">&#36807;&#28388;&#20837;&#21475;</text></g><!--link CriteriaFilter to globToRegex--><g class="link" data-entity-1="ent0010" data-entity-2="ent0013" data-link-type="dependency" data-source-line="66" id="lnk23"><path codeLine="66" d="M957.01,472.0994 C967.25,481.2994 977.3,491.3894 985.74,501.8194 C1012.34,534.7194 1031.8324,574.3414 1044.1924,602.8714" fill="none" id="CriteriaFilter-to-globToRegex" style="stroke:#000000;stroke-width:1;"/><polygon fill="#000000" points="1046.18,607.4594,1046.2726,597.611,1044.1924,602.8714,1038.9319,600.7912,1046.18,607.4594" style="stroke:#000000;stroke-width:1;stroke-linejoin:miter;stroke-miterlimit:10;"/><text fill="#000000" font-family="Verdana" font-size="13" lengthAdjust="spacing" textLength="54.0694" x="999.1" y="514.8863">&#36716;&#25442;glob</text></g><!--link CriteriaFilter to matchGlob--><g class="link" data-entity-1="ent0010" data-entity-2="ent0014" data-link-type="dependency" data-source-line="67" id="lnk24"><path codeLine="67" d="M982.23,456.8194 C1034.13,477.5594 1100.12,508.7194 1150.74,548.8194 C1171.99,565.6594 1188.9018,585.0437 1203.0418,603.3337" fill="none" id="CriteriaFilter-to-matchGlob" style="stroke:#000000;stroke-width:1;"/><polygon fill="#000000" points="1206.1,607.2894,1203.7599,597.7226,1203.0418,603.3337,1197.4307,602.6156,1206.1,607.2894" style="stroke:#000000;stroke-width:1;stroke-linejoin:miter;stroke-miterlimit:10;"/><text fill="#000000" font-family="Verdana" font-size="13" lengthAdjust="spacing" textLength="82.38" x="1107.87" y="514.8863">&#21517;&#31216;/&#36335;&#24452;&#21305;&#37197;</text></g><!--link matchesMethod to FilterCriteria--><g class="link" data-entity-1="ent0011" data-entity-2="ent0006" data-link-type="dependency" data-source-line="69" id="lnk25"><path codeLine="69" d="M911.81,666.6894 C933.52,710.8894 973.9457,793.1515 1007.0157,860.4815" fill="none" id="matchesMethod-to-FilterCriteria" style="stroke:#000000;stroke-width:1;"/><polygon fill="#000000" points="1009.22,864.9694,1008.8426,855.1278,1007.0157,860.4815,1001.662,858.6546,1009.22,864.9694" style="stroke:#000000;stroke-width:1;stroke-linejoin:miter;stroke-miterlimit:10;"/><text fill="#000000" font-family="Verdana" font-size="13" lengthAdjust="spacing" textLength="52.0001" x="963.18" y="768.3463">&#35835;&#21462;&#26465;&#20214;</text></g><!--link FilterCriteria to GMN29--><g class="link" data-entity-1="ent0006" data-entity-2="ent0030" data-link-type="association" data-source-line="86" id="lnk31"><path d="M1159.15,864.9294 C1209.99,825.5194 1274.3,784.1394 1340.24,763.7794 C1446.83,730.8794 1491.27,714.2794 1591.24,763.7794 C1610.48,773.3094 1627.92,786.6594 1643.5,801.9594" fill="none" id="FilterCriteria-GMN29" style="stroke:#000000;stroke-width:1;stroke-dasharray:7,7;"/></g><?plantuml-src XLPRJnj757xVNp4bKWkg34beUa5WYIHsoWCN0LNxW8JMzjYiijwrrai3RICvW9EujO4c91He8Mv8e2qn82W6belKdn9vTjTF_8NERIysHe47XZdV-RupvyoPin_fOp09GKeM9KL8tvUKbAY9IH2LnNJwjgh5e7P7bLKDN6kdFvSWOlH-GbF7bHY7XM-GNq7G9Ls60BsRj_OCorX3sNSN9ylcooSLuy0-Vs8Qwwx9N9t1csZbJ11Ic4rCGD3K4DW4VXG403pGx1iqznhjJZK1CGrw51rgSJ4AmRNGb-7huH160_mZHjAw9aPr5Yze2aio1eued7nfq_pvrDujCZBAn10U7-C1u5CWfbBoP7DSac4QT83lOLHNjKuCXo55roQ37xSqsgNU3mNwXyVGfwef9mxhhsCt52hl6Lrbfji2qEoQ-Qfido-WbTMBatpbi80UBLSCetBwWd5mBQxdPeePpJ-AEAcMyPna_FGv5RkZILX84d7Xmk7sq7KkMPCh1-FaZF7uKkMIT7QwxC6W6_r_PHo9FdPFLYDUVd1H92KHz20agyEJALYRGhBZ0obY4dw0HvUIS51K4eHes5bxvhJqWsiUSjQUMNsWuDB7i55DwPAgY7BdkAJexJT7TPy6d8ZAup524L5LkK61NU4HnLmyg2xks_bfjB9FS-RQhavN1CPL3Gx1A6ZZwxuqZ7fsCOxppSnqMMiT4zEtgHCsutKtGJI8qJtzY8BMDz3Ed2z6rtPrZ4b98IYiaHGdoAecW5v9OUgzuiGLbzAvDKuZi6lbzW8ghLgpEpMNb247xYTeYzyAVLLxMpz0s83AFG_APz7yFzNV3ipIlnSdJxlxxk9kxn-yECbnW3dxhBgqxW8yqqD_14bHZux1T7CBJcdX1TD7-QDgja35kRaNwcDgpE_7-nk7dDkmYtaMCdMX5kxWzqZW9XXM1s42JX2_QcOPYrXRRzy_VcQ-UusUBjd5JVli39tCKHeV_5Ayf9zgEEeZ9W1QFLo_Jq1NLnUmZ0qpTqwMWk-r2eod0Zy5wvzFeIxbLw1SPdxPI4LAHrIYxf4918A-7khWjMk46lBrEaTn6VGuMvtUj7UchOLDgb4V9FQkgHPcC5zdpBKtkAwLmxzPQHjv-Gg6VVZbovBPqWZjgmj1dswPXJ_9tfNnyCSFpHUiZPqskxoDpcPOlGIXDc3YKfSJhB1jeBcNF7f1KNK8P1ZNWHglkMa0T4Q2BFPgnh3FViLNldBeNlyS7kMTRP6Wm83MrbRbCCECu7rcWUUQ-JjG06wq0gjOGgLby_USfD07b4-avHdBs4V7Rp7ePYj0sqVczXnBihLImdFEp6MmZxblsELf5qcwzZnRBHgcKRGFzbZNigvinoJpUOR4bKRhosx9-WUn_RDMO2w-QXo3NTx3WVjETfptdOmz0_KdkzKAo10-pF2vu6zyLDX3kGNi940b1aZ6UTurAJ564rzR92QCFvVmcynqM5o-bED4alBGsZC8iO1cPyYsiEm40lo40MB0ht4WmEEZ6mBBDZdbhe5MV_4pERFu4fDE1hIVYMmmaBcmRUOVVM5j5DZ76sCLM3d8aUYLzQium_oI2Z7Kg90DWHKEC_69wcDoPxvBbIHRWOWp1fqDEYq5LZ8I4vjxFYRtyy1b8Zk191rdpZzuf67hvunYTxLoQFWf-2U4Iq3_hwz-HDLrDKdAxtzY2T_H7fhRGUKIEfdoRjX0_r3FTm0_xY2kK8VcS5_lw43tyDTztRqX8lMjfCJK1scAIUknZWwDF2gZ55mlhgifx-9vJp3hUlecsfai5mVa2tyy5L8Iaa8o6HcNv1Zp91-avJTeTWflt_kcfwE3RT-LH5bDU9h_0m00?></g></svg>