<svg xmlns="http://www.w3.org/2000/svg" xmlns:xlink="http://www.w3.org/1999/xlink" contentStyleType="text/css" data-diagram-type="DESCRIPTION" height="848px" preserveAspectRatio="none" style="width:773px;height:848px;background:#FFFFFF;" version="1.1" viewBox="0 0 773 848" width="773px" zoomAndPan="magnify"><?plantuml 1.2026.6?><defs/><g><!--cluster ???????--><g class="cluster" data-qualified-name="......." data-source-line="11" id="ent0007"><rect fill="#FFFFFF" height="730" rx="2.5" ry="2.5" style="stroke:#000000;stroke-width:1;" width="472.58" x="142.14" y="12"/><text fill="#000000" font-family="Verdana" font-size="14" font-weight="700" lengthAdjust="spacing" textLength="97.9996" x="329.4302" y="26.9951">&#26680;&#24515;&#24341;&#25806;&#23376;&#31995;&#32479;</text></g><!--entity CE1--><g class="entity" data-qualified-name="........CE1" data-source-line="12" id="ent0008"><ellipse cx="517.0137" cy="70.9957" fill="#FFFFFF" rx="76.0737" ry="24.2657" style="stroke:#000000;stroke-width:1;"/><text fill="#000000" font-family="Verdana" font-size="14" lengthAdjust="spacing" textLength="66.5615" x="483.7329" y="64.8604">UC-CE-01</text><text fill="#000000" font-family="Verdana" font-size="14" lengthAdjust="spacing" textLength="111.9995" x="461.0139" y="81.1573">&#39564;&#35777;&#28304;&#36335;&#24452;&#26377;&#25928;&#24615;</text></g><!--entity CE2--><g class="entity" data-qualified-name="........CE2" data-source-line="13" id="ent0009"><ellipse cx="517.0114" cy="355.0021" fill="#FFFFFF" rx="59.7014" ry="36.0021" style="stroke:#000000;stroke-width:1;"/><text fill="#000000" font-family="Verdana" font-size="14" lengthAdjust="spacing" textLength="66.5615" x="483.7306" y="341.0797">UC-CE-02</text><text fill="#000000" font-family="Verdana" font-size="14" lengthAdjust="spacing" textLength="83.9996" x="475.0116" y="357.3765">&#36941;&#21382;&#28304;&#30446;&#24405;&#26641;</text><text fill="#000000" font-family="Verdana" font-size="14" lengthAdjust="spacing" textLength="83.9996" x="475.0116" y="373.6734">&#25910;&#38598;&#25991;&#20214;&#26465;&#30446;</text></g><!--entity CE3--><g class="entity" data-qualified-name="........CE3" data-source-line="14" id="ent0010"><ellipse cx="517.0114" cy="684.0014" fill="#FFFFFF" rx="59.7014" ry="25.0014" style="stroke:#000000;stroke-width:1;"/><text fill="#000000" font-family="Verdana" font-size="14" lengthAdjust="spacing" textLength="66.5615" x="483.7306" y="678.9854">UC-CE-03</text><text fill="#000000" font-family="Verdana" font-size="14" lengthAdjust="spacing" textLength="83.9996" x="475.0116" y="695.2823">&#31579;&#36873;&#25991;&#20214;&#26465;&#30446;</text></g><!--entity CE4--><g class="entity" data-qualified-name="........CE4" data-source-line="15" id="ent0011"><ellipse cx="234.2237" cy="320.9957" fill="#FFFFFF" rx="76.0737" ry="24.2657" style="stroke:#000000;stroke-width:1;"/><text fill="#000000" font-family="Verdana" font-size="14" lengthAdjust="spacing" textLength="66.5615" x="200.9429" y="314.8604">UC-CE-04</text><text fill="#000000" font-family="Verdana" font-size="14" lengthAdjust="spacing" textLength="111.9995" x="178.2239" y="331.1573">&#25191;&#34892;&#30446;&#24405;&#38236;&#20687;&#22797;&#21046;</text></g><!--entity CE5--><g class="entity" data-qualified-name="........CE5" data-source-line="16" id="ent0012"><ellipse cx="234.2237" cy="519.9957" fill="#FFFFFF" rx="76.0737" ry="24.2657" style="stroke:#000000;stroke-width:1;"/><text fill="#000000" font-family="Verdana" font-size="14" lengthAdjust="spacing" textLength="66.5615" x="200.9429" y="513.8604">UC-CE-05</text><text fill="#000000" font-family="Verdana" font-size="14" lengthAdjust="spacing" textLength="111.9995" x="178.2239" y="530.1573">&#25191;&#34892;&#25171;&#21253;&#24402;&#26723;&#20889;&#20837;</text></g><!--entity CE6--><g class="entity" data-qualified-name="........CE6" data-source-line="17" id="ent0013"><ellipse cx="517.0066" cy="165.0024" fill="#FFFFFF" rx="81.7166" ry="34.6924" style="stroke:#000000;stroke-width:1;"/><text fill="#000000" font-family="Verdana" font-size="14" lengthAdjust="spacing" textLength="66.5615" x="483.7259" y="149.0788">UC-CE-06</text><text fill="#000000" font-family="Verdana" font-size="14" lengthAdjust="spacing" textLength="69.9997" x="482.0068" y="165.3756">&#25353;&#31867;&#22411;&#21019;&#24314;</text><text fill="#000000" font-family="Verdana" font-size="14" lengthAdjust="spacing" textLength="121.4331" x="456.2901" y="181.6725">&#25991;&#20214;/&#30446;&#24405;/&#29305;&#27530;&#25991;&#20214;</text></g><!--entity CE7--><g class="entity" data-qualified-name="........CE7" data-source-line="18" id="ent0014"><ellipse cx="517.0083" cy="259.0013" fill="#FFFFFF" rx="67.7983" ry="24.5513" style="stroke:#000000;stroke-width:1;"/><text fill="#000000" font-family="Verdana" font-size="14" lengthAdjust="spacing" textLength="66.5615" x="483.7275" y="253.3066">UC-CE-07</text><text fill="#000000" font-family="Verdana" font-size="14" lengthAdjust="spacing" textLength="97.9996" x="468.0085" y="269.6035">&#24674;&#22797;&#25991;&#20214;&#20803;&#25968;&#25454;</text></g><!--entity CE8--><g class="entity" data-qualified-name="........CE8" data-source-line="19" id="ent0015"><ellipse cx="517.0114" cy="572.0014" fill="#FFFFFF" rx="59.7014" ry="25.0014" style="stroke:#000000;stroke-width:1;"/><text fill="#000000" font-family="Verdana" font-size="14" lengthAdjust="spacing" textLength="66.5615" x="483.7306" y="566.9854">UC-CE-08</text><text fill="#000000" font-family="Verdana" font-size="14" lengthAdjust="spacing" textLength="83.9996" x="475.0116" y="583.2823">&#29983;&#25104;&#25805;&#20316;&#32479;&#35745;</text></g><!--entity CE9--><g class="entity" data-qualified-name="........CE9" data-source-line="20" id="ent0016"><ellipse cx="517.0112" cy="465.9989" fill="#FFFFFF" rx="55.0912" ry="33.3189" style="stroke:#000000;stroke-width:1;"/><text fill="#000000" font-family="Verdana" font-size="14" lengthAdjust="spacing" textLength="66.5615" x="483.7305" y="455.4716">UC-CE-09</text><text fill="#000000" font-family="Verdana" font-size="14" lengthAdjust="spacing" textLength="83.9996" x="475.0114" y="471.7685">&#36339;&#36807;&#22833;&#36133;&#25991;&#20214;</text><text fill="#000000" font-family="Verdana" font-size="14" lengthAdjust="spacing" textLength="55.9998" x="489.0114" y="488.0653">&#32487;&#32493;&#25191;&#34892;</text></g><!--entity CE10--><g class="entity" data-qualified-name="........CE10" data-source-line="21" id="ent0017"><ellipse cx="234.2241" cy="612.9972" fill="#FFFFFF" rx="55.7241" ry="33.6872" style="stroke:#000000;stroke-width:1;"/><text fill="#000000" font-family="Verdana" font-size="14" lengthAdjust="spacing" textLength="66.5615" x="200.9433" y="601.9931">UC-CE-10</text><text fill="#000000" font-family="Verdana" font-size="14" lengthAdjust="spacing" textLength="83.9996" x="192.2242" y="618.29">&#33258;&#21160;&#21629;&#21517;&#24555;&#29031;</text><text fill="#000000" font-family="Verdana" font-size="14" lengthAdjust="spacing" textLength="60.7166" x="203.8658" y="634.5868">/&#36824;&#21407;&#30446;&#24405;</text></g><!--entity cli_gui--><g class="entity" data-qualified-name="cli_gui" data-source-line="4" id="ent0001"><ellipse cx="53.0729" cy="490.35" fill="#FFFFFF" rx="8" ry="8" style="stroke:#000000;stroke-width:1;"/><path d="M53.0729,498.35 L53.0729,525.35 M40.0729,506.35 L66.0729,506.35 M53.0729,525.35 L40.0729,540.35 M53.0729,525.35 L66.0729,540.35" fill="none" style="stroke:#000000;stroke-width:1;"/><text fill="#000000" font-family="Verdana" font-size="14" lengthAdjust="spacing" textLength="60.5459" x="22.8" y="555.3451">CLI / GUI</text></g><!--entity comp--><g class="entity" data-qualified-name="comp" data-source-line="5" id="ent0002"><ellipse cx="53.0718" cy="378.35" fill="#FFFFFF" rx="8" ry="8" style="stroke:#000000;stroke-width:1;"/><path d="M53.0718,386.35 L53.0718,413.35 M40.0718,394.35 L66.0718,394.35 M53.0718,413.35 L40.0718,428.35 M53.0718,413.35 L66.0718,428.35" fill="none" style="stroke:#000000;stroke-width:1;"/><text fill="#000000" font-family="Verdana" font-size="14" lengthAdjust="spacing" textLength="84.1436" x="11" y="443.3451">Compressor</text></g><!--entity enc--><g class="entity" data-qualified-name="enc" data-source-line="6" id="ent0003"><ellipse cx="53.0671" cy="266.35" fill="#FFFFFF" rx="8" ry="8" style="stroke:#000000;stroke-width:1;"/><path d="M53.0671,274.35 L53.0671,301.35 M40.0671,282.35 L66.0671,282.35 M53.0671,301.35 L40.0671,316.35 M53.0671,301.35 L66.0671,316.35" fill="none" style="stroke:#000000;stroke-width:1;"/><text fill="#000000" font-family="Verdana" font-size="14" lengthAdjust="spacing" textLength="68.1543" x="18.99" y="331.3451">Encryptor</text></g><!--entity pack--><g class="entity" data-qualified-name="pack" data-source-line="7" id="ent0004"><ellipse cx="517.0077" cy="767.35" fill="#FFFFFF" rx="8" ry="8" style="stroke:#000000;stroke-width:1;"/><path d="M517.0077,775.35 L517.0077,802.35 M504.0077,783.35 L530.0077,783.35 M517.0077,802.35 L504.0077,817.35 M517.0077,802.35 L530.0077,817.35" fill="none" style="stroke:#000000;stroke-width:1;"/><text fill="#000000" font-family="Verdana" font-size="14" lengthAdjust="spacing" textLength="47.1953" x="493.41" y="832.3451">Packer</text></g><!--entity filter--><g class="entity" data-qualified-name="filter" data-source-line="8" id="ent0005"><ellipse cx="710.2452" cy="654.35" fill="#FFFFFF" rx="8" ry="8" style="stroke:#000000;stroke-width:1;"/><path d="M710.2452,662.35 L710.2452,689.35 M697.2452,670.35 L723.2452,670.35 M710.2452,689.35 L697.2452,704.35 M710.2452,689.35 L723.2452,704.35" fill="none" style="stroke:#000000;stroke-width:1;"/><text fill="#000000" font-family="Verdana" font-size="14" lengthAdjust="spacing" textLength="35.6904" x="692.4" y="719.3451">Filter</text></g><!--entity fs--><g class="entity" data-qualified-name="fs" data-source-line="9" id="ent0006"><ellipse cx="710.2381" cy="229.35" fill="#FFFFFF" rx="8" ry="8" style="stroke:#000000;stroke-width:1;"/><path d="M710.2381,237.35 L710.2381,264.35 M697.2381,245.35 L723.2381,245.35 M710.2381,264.35 L697.2381,279.35 M710.2381,264.35 L723.2381,279.35" fill="none" style="stroke:#000000;stroke-width:1;"/><text fill="#000000" font-family="Verdana" font-size="14" lengthAdjust="spacing" textLength="97.0361" x="661.72" y="294.3451">FSAbstraction</text></g><!--link cli_gui to CE4--><g class="link" data-entity-1="ent0001" data-entity-2="ent0011" data-link-type="dependency" data-source-line="24" id="lnk18"><path d="M83.65,487.14 C119.83,446.96 176.8147,383.656 208.6747,348.266" fill="none" id="cli_gui-to-CE4" style="stroke:#000000;stroke-width:1;"/><polygon fill="#000000" points="212.02,344.55,203.0256,348.5625,208.6747,348.266,208.9712,353.9151,212.02,344.55" style="stroke:#000000;stroke-width:1;stroke-linejoin:miter;stroke-miterlimit:10;"/></g><!--link cli_gui to CE5--><g class="link" data-entity-1="ent0001" data-entity-2="ent0012" data-link-type="dependency" data-source-line="25" id="lnk19"><path d="M83.65,520 C103.93,520 126.79,520 152.97,520" fill="none" id="cli_gui-to-CE5" style="stroke:#000000;stroke-width:1;"/><polygon fill="#000000" points="157.97,520,148.97,516,152.97,520,148.97,524,157.97,520" style="stroke:#000000;stroke-width:1;stroke-linejoin:miter;stroke-miterlimit:10;"/></g><!--link cli_gui to CE10--><g class="link" data-entity-1="ent0001" data-entity-2="ent0017" data-link-type="dependency" data-source-line="26" id="lnk20"><path d="M83.7,535.61 C98.79,543.54 117.43,553.32 134.14,562 C152.85,571.72 169.1428,580.1247 186.7928,589.1947" fill="none" id="cli_gui-to-CE10" style="stroke:#000000;stroke-width:1;"/><polygon fill="#000000" points="191.24,591.48,185.0633,583.8087,186.7928,589.1947,181.4068,590.9242,191.24,591.48" style="stroke:#000000;stroke-width:1;stroke-linejoin:miter;stroke-miterlimit:10;"/></g><!--link CE4 to CE1--><g class="link" data-entity-1="ent0011" data-entity-2="ent0008" data-link-type="dependency" data-source-line="28" id="lnk21"><path d="M243.26,296.59 C257.16,257.99 289.16,182.79 340.29,139 C372.34,111.55 411.8967,95.8535 448.0267,85.6935" fill="none" id="CE4-to-CE1" style="stroke:#000000;stroke-width:1;stroke-dasharray:7,7;"/><polygon fill="#000000" points="452.84,84.34,443.0932,82.9257,448.0267,85.6935,445.2589,90.627,452.84,84.34" style="stroke:#000000;stroke-width:1;stroke-linejoin:miter;stroke-miterlimit:10;"/><text fill="#000000" font-family="Verdana" font-size="13" lengthAdjust="spacing" textLength="63.0068" x="341.29" y="98.3369">&#171;include&#187;</text></g><!--link CE4 to CE2--><g class="link" data-entity-1="ent0011" data-entity-2="ent0009" data-link-type="dependency" data-source-line="29" id="lnk22"><path d="M310.39,322.92 C340.06,324.33 374.37,326.77 405.29,331 C423.71,333.52 438.7295,336.3636 456.5195,340.3236" fill="none" id="CE4-to-CE2" style="stroke:#000000;stroke-width:1;stroke-dasharray:7,7;"/><polygon fill="#000000" points="461.4,341.41,453.4841,335.5501,456.5195,340.3236,451.7459,343.3589,461.4,341.41" style="stroke:#000000;stroke-width:1;stroke-linejoin:miter;stroke-miterlimit:10;"/><text fill="#000000" font-family="Verdana" font-size="13" lengthAdjust="spacing" textLength="63.0068" x="341.29" y="321.0069">&#171;include&#187;</text></g><!--link CE4 to CE3--><g class="link" data-entity-1="ent0011" data-entity-2="ent0010" data-link-type="dependency" data-source-line="30" id="lnk23"><path d="M247.49,345.22 C262.85,375.84 289.63,430.32 310.29,478 C324.89,511.7 317.93,525.86 340.29,555 C360.85,581.8 433.9742,631.2206 478.9042,660.3406" fill="none" id="CE4-to-CE3" style="stroke:#000000;stroke-width:1;stroke-dasharray:7,7;"/><polygon fill="#000000" points="483.1,663.06,477.723,654.8084,478.9042,660.3406,473.372,661.5218,483.1,663.06" style="stroke:#000000;stroke-width:1;stroke-linejoin:miter;stroke-miterlimit:10;"/><text fill="#000000" font-family="Verdana" font-size="13" lengthAdjust="spacing" textLength="63.0068" x="341.29" y="551.0669">&#171;include&#187;</text></g><!--link CE4 to CE6--><g class="link" data-entity-1="ent0011" data-entity-2="ent0013" data-link-type="dependency" data-source-line="31" id="lnk24"><path d="M246.32,296.74 C262.22,265.09 294.67,210.71 340.29,185 C368.78,168.95 398.9775,163.0635 430.3775,161.3435" fill="none" id="CE4-to-CE6" style="stroke:#000000;stroke-width:1;stroke-dasharray:7,7;"/><polygon fill="#000000" points="435.37,161.07,426.1647,157.5682,430.3775,161.3435,426.6023,165.5563,435.37,161.07" style="stroke:#000000;stroke-width:1;stroke-linejoin:miter;stroke-miterlimit:10;"/><text fill="#000000" font-family="Verdana" font-size="13" lengthAdjust="spacing" textLength="63.0068" x="341.29" y="160.4369">&#171;include&#187;</text></g><!--link CE4 to CE7--><g class="link" data-entity-1="ent0011" data-entity-2="ent0014" data-link-type="dependency" data-source-line="32" id="lnk25"><path d="M250.76,297.03 C268.8,271.66 301.12,233.11 340.29,217 C387,197.8 440.0047,217.0711 476.2247,235.7211" fill="none" id="CE4-to-CE7" style="stroke:#000000;stroke-width:1;stroke-dasharray:7,7;"/><polygon fill="#000000" points="480.67,238.01,474.4996,230.3337,476.2247,235.7211,470.8373,237.4462,480.67,238.01" style="stroke:#000000;stroke-width:1;stroke-linejoin:miter;stroke-miterlimit:10;"/><text fill="#000000" font-family="Verdana" font-size="13" lengthAdjust="spacing" textLength="63.0068" x="341.29" y="205.5769">&#171;include&#187;</text></g><!--link CE4 to CE8--><g class="link" data-entity-1="ent0011" data-entity-2="ent0015" data-link-type="dependency" data-source-line="33" id="lnk26"><path d="M247.32,345.23 C264.35,377.28 298.06,433.92 340.29,470 C364.77,490.92 377.2,486.26 405.29,502 C432.67,517.34 458.5231,533.7317 480.3931,548.1217" fill="none" id="CE4-to-CE8" style="stroke:#000000;stroke-width:1;stroke-dasharray:7,7;"/><polygon fill="#000000" points="484.57,550.87,479.2502,542.5815,480.3931,548.1217,474.8529,549.2645,484.57,550.87" style="stroke:#000000;stroke-width:1;stroke-linejoin:miter;stroke-miterlimit:10;"/><text fill="#000000" font-family="Verdana" font-size="13" lengthAdjust="spacing" textLength="63.0068" x="341.29" y="466.0669">&#171;include&#187;</text></g><!--link CE5 to CE2--><g class="link" data-entity-1="ent0012" data-entity-2="ent0009" data-link-type="dependency" data-source-line="34" id="lnk27"><path d="M264.24,497.34 C284.87,481.72 313.55,460.98 340.29,445 C367.93,428.48 376.58,427.58 405.29,413 C427.15,401.9 446.8663,391.6205 467.0063,381.0105" fill="none" id="CE5-to-CE2" style="stroke:#000000;stroke-width:1;stroke-dasharray:7,7;"/><polygon fill="#000000" points="471.43,378.68,461.603,379.3359,467.0063,381.0105,465.3317,386.4138,471.43,378.68" style="stroke:#000000;stroke-width:1;stroke-linejoin:miter;stroke-miterlimit:10;"/><text fill="#000000" font-family="Verdana" font-size="13" lengthAdjust="spacing" textLength="63.0068" x="341.29" y="409.0669">&#171;include&#187;</text></g><!--link CE5 to CE3--><g class="link" data-entity-1="ent0012" data-entity-2="ent0010" data-link-type="dependency" data-source-line="35" id="lnk28"><path d="M282.85,539.13 C293.11,545.14 303.04,552.7 310.29,562 C341.72,602.3 300.7,640.68 340.29,673 C374.27,700.74 420.4166,701.5209 458.7566,696.2509" fill="none" id="CE5-to-CE3" style="stroke:#000000;stroke-width:1;stroke-dasharray:7,7;"/><polygon fill="#000000" points="463.71,695.57,454.2491,692.8328,458.7566,696.2509,455.3385,700.7583,463.71,695.57" style="stroke:#000000;stroke-width:1;stroke-linejoin:miter;stroke-miterlimit:10;"/><text fill="#000000" font-family="Verdana" font-size="13" lengthAdjust="spacing" textLength="63.0068" x="341.29" y="669.0669">&#171;include&#187;</text></g><!--link CE5 to CE6--><g class="link" data-entity-1="ent0012" data-entity-2="ent0013" data-link-type="dependency" data-source-line="36" id="lnk29"><path d="M246.8,495.8 C261.56,464.97 287.85,410.04 310.29,363 C323.65,335.01 321.56,324.72 340.29,300 C344.52,294.42 429.69,221.22 435.29,217 C445.95,208.98 453.6252,203.621 464.9252,196.291" fill="none" id="CE5-to-CE6" style="stroke:#000000;stroke-width:1;stroke-dasharray:7,7;"/><polygon fill="#000000" points="469.12,193.57,459.3926,195.112,464.9252,196.291,463.7463,201.8237,469.12,193.57" style="stroke:#000000;stroke-width:1;stroke-linejoin:miter;stroke-miterlimit:10;"/><text fill="#000000" font-family="Verdana" font-size="13" lengthAdjust="spacing" textLength="63.0068" x="341.29" y="240.2669">&#171;include&#187;</text></g><!--link CE5 to CE8--><g class="link" data-entity-1="ent0012" data-entity-2="ent0015" data-link-type="dependency" data-source-line="37" id="lnk30"><path d="M281.31,539.31 C291.86,545.37 302.31,552.91 310.29,562 C333.98,588.98 310.56,616.87 340.29,637 C388.5,669.64 451.3642,628.0672 487.1242,598.1672" fill="none" id="CE5-to-CE8" style="stroke:#000000;stroke-width:1;stroke-dasharray:7,7;"/><polygon fill="#000000" points="490.96,594.96,481.4897,597.6644,487.1242,598.1672,486.6213,603.8017,490.96,594.96" style="stroke:#000000;stroke-width:1;stroke-linejoin:miter;stroke-miterlimit:10;"/><text fill="#000000" font-family="Verdana" font-size="13" lengthAdjust="spacing" textLength="63.0068" x="341.29" y="633.0669">&#171;include&#187;</text></g><!--link CE4 to CE9--><g class="link" data-entity-1="ent0011" data-entity-2="ent0016" data-link-type="dependency" data-source-line="38" id="lnk31"><path d="M288.39,338.26 C322.68,350.28 367.72,367.74 405.29,388 C406.31,388.55 444.1656,415.256 476.1156,437.816" fill="none" id="CE4-to-CE9" style="stroke:#000000;stroke-width:1;stroke-dasharray:7,7;"/><polygon fill="#000000" points="480.2,440.7,475.1553,432.2412,476.1156,437.816,470.5408,438.7763,480.2,440.7" style="stroke:#000000;stroke-width:1;stroke-linejoin:miter;stroke-miterlimit:10;"/><text fill="#000000" font-family="Verdana" font-size="13" lengthAdjust="spacing" textLength="61.1851" x="342.29" y="354.4569">&#171;extend&#187;</text></g><!--link CE5 to CE9--><g class="link" data-entity-1="ent0012" data-entity-2="ent0016" data-link-type="dependency" data-source-line="39" id="lnk32"><path d="M305.19,529.15 C336.25,531.19 373,530.83 405.29,523 C431.56,516.64 454.2769,505.463 475.0469,493.063" fill="none" id="CE5-to-CE9" style="stroke:#000000;stroke-width:1;stroke-dasharray:7,7;"/><polygon fill="#000000" points="479.34,490.5,469.562,491.679,475.0469,493.063,473.6628,498.548,479.34,490.5" style="stroke:#000000;stroke-width:1;stroke-linejoin:miter;stroke-miterlimit:10;"/><text fill="#000000" font-family="Verdana" font-size="13" lengthAdjust="spacing" textLength="61.1851" x="342.29" y="519.0669">&#171;extend&#187;</text></g><!--link CE2 to fs--><g class="link" data-entity-1="ent0009" data-entity-2="ent0006" data-link-type="dependency" data-source-line="41" id="lnk33"><path d="M563.33,332.25 C592.82,317.45 626.7611,300.4026 656.7711,285.3426" fill="none" id="CE2-to-fs" style="stroke:#000000;stroke-width:1;"/><polygon fill="#000000" points="661.24,283.1,651.402,283.5616,656.7711,285.3426,654.9902,290.7118,661.24,283.1" style="stroke:#000000;stroke-width:1;stroke-linejoin:miter;stroke-miterlimit:10;"/></g><!--link CE3 to filter--><g class="link" data-entity-1="ent0010" data-entity-2="ent0005" data-link-type="dependency" data-source-line="42" id="lnk34"><path d="M577.21,684 C616.92,684 661.48,684 687.11,684" fill="none" id="CE3-to-filter" style="stroke:#000000;stroke-width:1;"/><polygon fill="#000000" points="692.11,684,683.11,680,687.11,684,683.11,688,692.11,684" style="stroke:#000000;stroke-width:1;stroke-linejoin:miter;stroke-miterlimit:10;"/></g><!--link CE5 to pack--><g class="link" data-entity-1="ent0012" data-entity-2="ent0004" data-link-type="dependency" data-source-line="43" id="lnk35"><path d="M283.24,538.84 C293.48,544.86 303.3,552.49 310.29,562 C348.75,614.33 301.11,653.21 340.29,705 C379.14,756.36 450.1534,780.5021 488.2234,790.4821" fill="none" id="CE5-to-pack" style="stroke:#000000;stroke-width:1;"/><polygon fill="#000000" points="493.06,791.75,485.3685,785.5985,488.2234,790.4821,483.3398,793.337,493.06,791.75" style="stroke:#000000;stroke-width:1;stroke-linejoin:miter;stroke-miterlimit:10;"/></g><!--link CE7 to fs--><g class="link" data-entity-1="ent0014" data-entity-2="ent0006" data-link-type="dependency" data-source-line="44" id="lnk36"><path d="M585.16,259 C610.34,259 633.43,259 656.5,259" fill="none" id="CE7-to-fs" style="stroke:#000000;stroke-width:1;"/><polygon fill="#000000" points="661.5,259,652.5,255,656.5,259,652.5,263,661.5,259" style="stroke:#000000;stroke-width:1;stroke-linejoin:miter;stroke-miterlimit:10;"/></g><!--link CE6 to fs--><g class="link" data-entity-1="ent0013" data-entity-2="ent0006" data-link-type="dependency" data-source-line="45" id="lnk37"><path d="M571.53,191.31 C599.71,205.16 629.4928,219.8042 656.7928,233.2242" fill="none" id="CE6-to-fs" style="stroke:#000000;stroke-width:1;"/><polygon fill="#000000" points="661.28,235.43,654.9677,227.8699,656.7928,233.2242,651.4385,235.0493,661.28,235.43" style="stroke:#000000;stroke-width:1;stroke-linejoin:miter;stroke-miterlimit:10;"/></g><?plantuml-src TPHTRn9158RlzrUCt5E-kXHCGs88cYPUc9ZUaPXrcTADsu7iBed6c9GWNnMGIZ4QK8gsmTH0RMgeTaN-J6Ts-HVEVX7RxjxDEUzvpdbdTdRkADjm1uAyo0c84U6M0fGSa8JijW8oWWHvHSWXXk5u9IS1N_BX1WY01viRFi39W1U59zc2i1HpEta9od9EibGQEb8AyTABl68h4F6Ey8ZZdq4hcwTB9trV41KxlMKkbyBZUqzbHU9CMvOkCunXaqDP4G8VEVo5voNyfqiwBJnkQ-UgfWvyu2K3G466F2VJcisaFvdo1qDfj3XfwAT5SjdMBqxntzUaNoVT6jaTcPsJgP0B5QPKiObR5KfflGcUTSdXVXgHW-cYLo7lgrVgb7mQKiNk4NRf4KaZRTnRxDPTwYCkzQkqVtsa3nlMm4MtZqjlyL4JrwOsjUf2iGv5wXtSAEFPEpByYYiVSVdOfbWNAagfHbqxK_7dDxZMm-ebJPWs0zRqW5R_JIPxLivk57Lfj4QvuXVgqgh4vHBf_Y1DPvzhBaYCdil1WDJQfDEyclNfbzCdGxi-vb8VJoFzuboVL_7HcVxps1f4UwWZJHrRUxVf-6qw5AHqzGJlVSFxCznkulbthJnAeu0-_u1R0skppaK8CgyOnhxlmEzFc4T-FMPln9HXQ1LOMJ4ZS1Uihmk85miPc4ZyfuGzbOYd4lLKrZoLs2s5zNJ0UZfWFHsmddCS1t5JWSyLY3BNa1i2OrWo3f7-suO7Ssaz0mPZXEPZOUnsMHQrb_y0?></g></svg>