<svg xmlns="http://www.w3.org/2000/svg" xmlns:xlink="http://www.w3.org/1999/xlink" contentStyleType="text/css" data-diagram-type="DESCRIPTION" height="608px" preserveAspectRatio="none" style="width:819px;height:608px;background:#FFFFFF;" version="1.1" viewBox="0 0 819 608" width="819px" zoomAndPan="magnify"><?plantuml 1.2026.6?><defs/><g><!--cluster ?????--><g class="cluster" data-qualified-name="....." data-source-line="6" id="ent0002"><rect fill="#FFFFFF" height="446" rx="2.5" ry="2.5" style="stroke:#000000;stroke-width:1;" width="636.28" x="168.94" y="12"/><text fill="#000000" font-family="Verdana" font-size="14" font-weight="700" lengthAdjust="spacing" textLength="69.9997" x="452.0802" y="26.9951">&#21387;&#32553;&#23376;&#31995;&#32479;</text></g><!--entity CP1--><g class="entity" data-qualified-name="......CP1" data-source-line="7" id="ent0003"><ellipse cx="469.0579" cy="72.0007" fill="#FFFFFF" rx="59.6479" ry="24.9807" style="stroke:#000000;stroke-width:1;"/><text fill="#000000" font-family="Verdana" font-size="14" lengthAdjust="spacing" textLength="66.1582" x="435.9788" y="66.9537">UC-CP-01</text><text fill="#000000" font-family="Verdana" font-size="14" lengthAdjust="spacing" textLength="83.9996" x="427.0581" y="83.2506">&#36873;&#25321;&#21387;&#32553;&#31639;&#27861;</text></g><!--entity CP2--><g class="entity" data-qualified-name="......CP2" data-source-line="8" id="ent0004"><ellipse cx="469.0579" cy="157.0007" fill="#FFFFFF" rx="59.6479" ry="24.9807" style="stroke:#000000;stroke-width:1;"/><text fill="#000000" font-family="Verdana" font-size="14" lengthAdjust="spacing" textLength="66.1582" x="435.9788" y="151.9537">UC-CP-02</text><text fill="#000000" font-family="Verdana" font-size="14" lengthAdjust="spacing" textLength="83.9996" x="427.0581" y="168.2506">&#35774;&#32622;&#21387;&#32553;&#32423;&#21035;</text></g><!--entity CP3--><g class="entity" data-qualified-name="......CP3" data-source-line="9" id="ent0005"><ellipse cx="234.6771" cy="158.9962" fill="#FFFFFF" rx="48.9871" ry="25.6562" style="stroke:#000000;stroke-width:1;"/><text fill="#000000" font-family="Verdana" font-size="14" lengthAdjust="spacing" textLength="66.1582" x="201.598" y="156.0541">UC-CP-03</text><text fill="#000000" font-family="Verdana" font-size="14" lengthAdjust="spacing" textLength="61.4618" x="203.9462" y="172.351">gzip &#21387;&#32553;</text></g><!--entity CP4--><g class="entity" data-qualified-name="......CP4" data-source-line="10" id="ent0006"><ellipse cx="234.6782" cy="72.9967" fill="#FFFFFF" rx="48.9882" ry="25.6567" style="stroke:#000000;stroke-width:1;"/><text fill="#000000" font-family="Verdana" font-size="14" lengthAdjust="spacing" textLength="66.1582" x="201.5991" y="70.0539">UC-CP-04</text><text fill="#000000" font-family="Verdana" font-size="14" lengthAdjust="spacing" textLength="61.4686" x="203.9439" y="86.3507">zstd &#21387;&#32553;</text></g><!--entity CP5--><g class="entity" data-qualified-name="......CP5" data-source-line="11" id="ent0007"><ellipse cx="234.6763" cy="245.9953" fill="#FFFFFF" rx="49.7363" ry="26.0253" style="stroke:#000000;stroke-width:1;"/><text fill="#000000" font-family="Verdana" font-size="14" lengthAdjust="spacing" textLength="66.1582" x="201.5972" y="242.5264">UC-CP-05</text><text fill="#000000" font-family="Verdana" font-size="14" lengthAdjust="spacing" textLength="65.9052" x="201.7237" y="258.8233">lzma &#21387;&#32553;</text></g><!--entity CP6--><g class="entity" data-qualified-name="......CP6" data-source-line="12" id="ent0008"><ellipse cx="469.0571" cy="242.9962" fill="#FFFFFF" rx="48.9871" ry="25.6562" style="stroke:#000000;stroke-width:1;"/><text fill="#000000" font-family="Verdana" font-size="14" lengthAdjust="spacing" textLength="66.1582" x="435.978" y="240.0541">UC-CP-06</text><text fill="#000000" font-family="Verdana" font-size="14" lengthAdjust="spacing" textLength="61.4618" x="438.3262" y="256.351">gzip &#35299;&#21387;</text></g><!--entity CP7--><g class="entity" data-qualified-name="......CP7" data-source-line="13" id="ent0009"><ellipse cx="469.0582" cy="328.9967" fill="#FFFFFF" rx="48.9882" ry="25.6567" style="stroke:#000000;stroke-width:1;"/><text fill="#000000" font-family="Verdana" font-size="14" lengthAdjust="spacing" textLength="66.1582" x="435.9791" y="326.0539">UC-CP-07</text><text fill="#000000" font-family="Verdana" font-size="14" lengthAdjust="spacing" textLength="61.4686" x="438.3239" y="342.3507">zstd &#35299;&#21387;</text></g><!--entity CP8--><g class="entity" data-qualified-name="......CP8" data-source-line="14" id="ent0010"><ellipse cx="469.0563" cy="415.9953" fill="#FFFFFF" rx="49.7363" ry="26.0253" style="stroke:#000000;stroke-width:1;"/><text fill="#000000" font-family="Verdana" font-size="14" lengthAdjust="spacing" textLength="66.1582" x="435.9772" y="412.5264">UC-CP-08</text><text fill="#000000" font-family="Verdana" font-size="14" lengthAdjust="spacing" textLength="65.9052" x="436.1037" y="428.8233">lzma &#35299;&#21387;</text></g><!--entity CP9--><g class="entity" data-qualified-name="......CP9" data-source-line="15" id="ent0011"><ellipse cx="721.4636" cy="242.9965" fill="#FFFFFF" rx="67.7536" ry="24.5365" style="stroke:#000000;stroke-width:1;"/><text fill="#000000" font-family="Verdana" font-size="14" lengthAdjust="spacing" textLength="66.1582" x="688.3845" y="237.279">UC-CP-09</text><text fill="#000000" font-family="Verdana" font-size="14" lengthAdjust="spacing" textLength="97.9996" x="672.4638" y="253.5759">&#24037;&#21378;&#21019;&#24314;&#21387;&#32553;&#22120;</text></g><!--entity caller--><g class="entity" data-qualified-name="caller" data-source-line="4" id="ent0001"><ellipse cx="66.4702" cy="323.2" fill="#FFFFFF" rx="8" ry="8" style="stroke:#000000;stroke-width:1;"/><path d="M66.4702,331.2 L66.4702,358.2 M53.4702,339.2 L79.4702,339.2 M66.4702,358.2 L53.4702,373.2 M66.4702,358.2 L79.4702,373.2" fill="none" style="stroke:#000000;stroke-width:1;"/><text fill="#000000" font-family="Verdana" font-size="14" lengthAdjust="spacing" textLength="99.4629" x="11" y="388.1951">handleBackup</text><text fill="#000000" font-family="Verdana" font-size="14" lengthAdjust="spacing" textLength="110.9404" x="11" y="404.492">/ handleRestore</text></g><!--link caller to CP1--><g class="link" data-entity-1="ent0001" data-entity-2="ent0003" data-link-type="dependency" data-source-line="18" id="lnk12"><path d="M122.33,359.27 C192.6,353.96 313.2,333.86 379.41,260 C423.34,210.99 373.84,170.36 409.41,115 C415.21,105.97 419.5995,101.1488 428.2495,94.7988" fill="none" id="caller-to-CP1" style="stroke:#000000;stroke-width:1;"/><polygon fill="#000000" points="432.28,91.84,422.658,93.9415,428.2495,94.7988,427.3921,100.3903,432.28,91.84" style="stroke:#000000;stroke-width:1;stroke-linejoin:miter;stroke-miterlimit:10;"/></g><!--link caller to CP2--><g class="link" data-entity-1="ent0001" data-entity-2="ent0004" data-link-type="dependency" data-source-line="19" id="lnk13"><path d="M122.33,377.72 C190.94,394.93 308.02,411.54 379.41,351 C431.6,306.74 372.66,257.71 409.41,200 C415.11,191.05 419.3592,186.3221 427.9092,180.0021" fill="none" id="caller-to-CP2" style="stroke:#000000;stroke-width:1;"/><polygon fill="#000000" points="431.93,177.03,422.3149,179.1631,427.9092,180.0021,427.0703,185.5964,431.93,177.03" style="stroke:#000000;stroke-width:1;stroke-linejoin:miter;stroke-miterlimit:10;"/></g><!--link caller to CP3--><g class="link" data-entity-1="ent0001" data-entity-2="ent0005" data-link-type="dependency" data-source-line="20" id="lnk14"><path d="M87.29,314 C103.4,279.91 128.72,234.3 160.94,202 C171.3,191.61 180.299,185.2079 192.739,178.2979" fill="none" id="caller-to-CP3" style="stroke:#000000;stroke-width:1;"/><polygon fill="#000000" points="197.11,175.87,187.3,176.7435,192.739,178.2979,191.1846,183.737,197.11,175.87" style="stroke:#000000;stroke-width:1;stroke-linejoin:miter;stroke-miterlimit:10;"/></g><!--link caller to CP4--><g class="link" data-entity-1="ent0001" data-entity-2="ent0006" data-link-type="dependency" data-source-line="21" id="lnk15"><path d="M75.73,313.82 C87.08,260.66 111.92,174.11 160.94,116 C170.4,104.78 179.1784,98.1603 191.7084,91.3403" fill="none" id="caller-to-CP4" style="stroke:#000000;stroke-width:1;"/><polygon fill="#000000" points="196.1,88.95,186.2828,89.7393,191.7084,91.3403,190.1073,96.7659,196.1,88.95" style="stroke:#000000;stroke-width:1;stroke-linejoin:miter;stroke-miterlimit:10;"/></g><!--link caller to CP5--><g class="link" data-entity-1="ent0001" data-entity-2="ent0007" data-link-type="dependency" data-source-line="22" id="lnk16"><path d="M122.12,320.18 C131.97,313.02 142.21,305.71 151.94,299 C168.22,287.75 182.4878,278.414 197.7478,268.654" fill="none" id="caller-to-CP5" style="stroke:#000000;stroke-width:1;"/><polygon fill="#000000" points="201.96,265.96,192.2229,267.4395,197.7478,268.654,196.5333,274.179,201.96,265.96" style="stroke:#000000;stroke-width:1;stroke-linejoin:miter;stroke-miterlimit:10;"/></g><!--link caller to CP6--><g class="link" data-entity-1="ent0001" data-entity-2="ent0008" data-link-type="dependency" data-source-line="23" id="lnk17"><path d="M122.03,407.64 C131.49,413.53 141.61,418.66 151.94,422 C248.14,453.1 300.6,485.32 379.41,422 C427.67,383.23 375.61,337.85 409.41,286 C415.76,276.27 421.0255,270.8639 430.4155,264.2339" fill="none" id="caller-to-CP6" style="stroke:#000000;stroke-width:1;"/><polygon fill="#000000" points="434.5,261.35,424.8408,263.2735,430.4155,264.2339,429.4551,269.8087,434.5,261.35" style="stroke:#000000;stroke-width:1;stroke-linejoin:miter;stroke-miterlimit:10;"/></g><!--link caller to CP7--><g class="link" data-entity-1="ent0001" data-entity-2="ent0009" data-link-type="dependency" data-source-line="24" id="lnk18"><path d="M83.92,408.12 C97.19,438.29 119.12,475.04 151.94,493 C240.63,541.53 299.79,555.29 379.41,493 C423.05,458.86 378.56,418.02 409.41,372 C415.88,362.35 421.1855,356.9639 430.5755,350.3339" fill="none" id="caller-to-CP7" style="stroke:#000000;stroke-width:1;"/><polygon fill="#000000" points="434.66,347.45,425.0008,349.3735,430.5755,350.3339,429.6151,355.9087,434.66,347.45" style="stroke:#000000;stroke-width:1;stroke-linejoin:miter;stroke-miterlimit:10;"/></g><!--link caller to CP8--><g class="link" data-entity-1="ent0001" data-entity-2="ent0010" data-link-type="dependency" data-source-line="25" id="lnk19"><path d="M77.13,408.15 C88.82,451.67 113.19,513.84 160.94,543 C243.85,593.62 294.35,582.92 379.41,536 C417.4,515.04 441.481,474.6546 455.071,446.1046" fill="none" id="caller-to-CP8" style="stroke:#000000;stroke-width:1;"/><polygon fill="#000000" points="457.22,441.59,449.7401,447.9971,455.071,446.1046,456.9635,451.4355,457.22,441.59" style="stroke:#000000;stroke-width:1;stroke-linejoin:miter;stroke-miterlimit:10;"/></g><!--link CP1 to CP9--><g class="link" data-entity-1="ent0003" data-entity-2="ent0011" data-link-type="dependency" data-source-line="27" id="lnk20"><path d="M506,91.92 C537.7,109.92 584.77,137.7 623.71,165 C648.44,182.34 671.242,200.8115 690.282,216.9115" fill="none" id="CP1-to-CP9" style="stroke:#000000;stroke-width:1;stroke-dasharray:7,7;"/><polygon fill="#000000" points="694.1,220.14,689.8104,211.2744,690.282,216.9115,684.6448,217.3832,694.1,220.14" style="stroke:#000000;stroke-width:1;stroke-linejoin:miter;stroke-miterlimit:10;"/><text fill="#000000" font-family="Verdana" font-size="13" lengthAdjust="spacing" textLength="63.0068" x="559.71" y="120.7669">&#171;include&#187;</text></g><!--link CP2 to CP9--><g class="link" data-entity-1="ent0004" data-entity-2="ent0011" data-link-type="dependency" data-source-line="28" id="lnk21"><path d="M515.99,172.77 C560.04,187.9 621.6012,209.0458 666.6712,224.5258" fill="none" id="CP2-to-CP9" style="stroke:#000000;stroke-width:1;stroke-dasharray:7,7;"/><polygon fill="#000000" points="671.4,226.15,664.1874,219.4434,666.6712,224.5258,661.5887,227.0095,671.4,226.15" style="stroke:#000000;stroke-width:1;stroke-linejoin:miter;stroke-miterlimit:10;"/><text fill="#000000" font-family="Verdana" font-size="13" lengthAdjust="spacing" textLength="63.0068" x="559.71" y="185.8269">&#171;include&#187;</text></g><!--link CP3 to CP1--><g class="link" data-entity-1="ent0005" data-entity-2="ent0003" data-link-type="dependency" data-source-line="29" id="lnk22"><path d="M275.36,144.14 C316.58,128.71 376.2575,106.3632 419.0975,90.3232" fill="none" id="CP3-to-CP1" style="stroke:#000000;stroke-width:1;stroke-dasharray:7,7;"/><polygon fill="#000000" points="423.78,88.57,413.9488,87.9798,419.0975,90.3232,416.754,95.4718,423.78,88.57" style="stroke:#000000;stroke-width:1;stroke-linejoin:miter;stroke-miterlimit:10;"/><text fill="#000000" font-family="Verdana" font-size="13" lengthAdjust="spacing" textLength="63.0068" x="315.41" y="103.7669">&#171;include&#187;</text></g><!--link CP4 to CP1--><g class="link" data-entity-1="ent0006" data-entity-2="ent0003" data-link-type="dependency" data-source-line="30" id="lnk23"><path d="M284.11,72.79 C320.42,72.63 365.31,72.442 403.97,72.272" fill="none" id="CP4-to-CP1" style="stroke:#000000;stroke-width:1;stroke-dasharray:7,7;"/><polygon fill="#000000" points="408.97,72.25,399.9525,68.2896,403.97,72.272,399.9877,76.2895,408.97,72.25" style="stroke:#000000;stroke-width:1;stroke-linejoin:miter;stroke-miterlimit:10;"/><text fill="#000000" font-family="Verdana" font-size="13" lengthAdjust="spacing" textLength="63.0068" x="315.41" y="68.4769">&#171;include&#187;</text></g><!--link CP5 to CP1--><g class="link" data-entity-1="ent0007" data-entity-2="ent0003" data-link-type="dependency" data-source-line="31" id="lnk24"><path d="M270.73,227.64 C301.3,210.67 345.89,183.51 379.41,153 C395.33,138.51 393.93,129.94 409.41,115 C417.5,107.19 423.0063,102.5609 432.0263,96.0009" fill="none" id="CP5-to-CP1" style="stroke:#000000;stroke-width:1;stroke-dasharray:7,7;"/><polygon fill="#000000" points="436.07,93.06,426.4387,95.1186,432.0263,96.0009,431.1441,101.5885,436.07,93.06" style="stroke:#000000;stroke-width:1;stroke-linejoin:miter;stroke-miterlimit:10;"/><text fill="#000000" font-family="Verdana" font-size="13" lengthAdjust="spacing" textLength="63.0068" x="315.41" y="149.0669">&#171;include&#187;</text></g><!--link CP3 to CP2--><g class="link" data-entity-1="ent0005" data-entity-2="ent0004" data-link-type="dependency" data-source-line="32" id="lnk25"><path d="M262.14,180.6 C269.63,187.17 277.6,194.62 284.41,202 C299.49,218.32 294.54,232.06 314.41,242 C340.25,254.92 353.73,255.22 379.41,242 C399.81,231.5 393.29,216.32 409.41,200 C417.22,192.09 422.5481,187.4833 431.4881,180.9733" fill="none" id="CP3-to-CP2" style="stroke:#000000;stroke-width:1;stroke-dasharray:7,7;"/><polygon fill="#000000" points="435.53,178.03,425.8999,180.0944,431.4881,180.9733,430.6092,186.5614,435.53,178.03" style="stroke:#000000;stroke-width:1;stroke-linejoin:miter;stroke-miterlimit:10;"/><text fill="#000000" font-family="Verdana" font-size="13" lengthAdjust="spacing" textLength="61.1851" x="316.41" y="238.0669">&#171;extend&#187;</text></g><!--link CP6 to CP9--><g class="link" data-entity-1="ent0008" data-entity-2="ent0011" data-link-type="dependency" data-source-line="33" id="lnk26"><path d="M518.34,243 C556.71,243 605.82,243 648.4,243" fill="none" id="CP6-to-CP9" style="stroke:#000000;stroke-width:1;stroke-dasharray:7,7;"/><polygon fill="#000000" points="653.4,243,644.4,239,648.4,243,644.4,247,653.4,243" style="stroke:#000000;stroke-width:1;stroke-linejoin:miter;stroke-miterlimit:10;"/><text fill="#000000" font-family="Verdana" font-size="13" lengthAdjust="spacing" textLength="63.0068" x="559.71" y="239.0669">&#171;include&#187;</text></g><!--link CP7 to CP9--><g class="link" data-entity-1="ent0009" data-entity-2="ent0011" data-link-type="dependency" data-source-line="34" id="lnk27"><path d="M510.85,314.99 C554.78,299.9 619.9313,277.5247 666.7913,261.4247" fill="none" id="CP7-to-CP9" style="stroke:#000000;stroke-width:1;stroke-dasharray:7,7;"/><polygon fill="#000000" points="671.52,259.8,661.7086,258.9415,666.7913,261.4247,664.3081,266.5073,671.52,259.8" style="stroke:#000000;stroke-width:1;stroke-linejoin:miter;stroke-miterlimit:10;"/><text fill="#000000" font-family="Verdana" font-size="13" lengthAdjust="spacing" textLength="63.0068" x="559.71" y="274.3569">&#171;include&#187;</text></g><!--link CP8 to CP9--><g class="link" data-entity-1="ent0010" data-entity-2="ent0011" data-link-type="dependency" data-source-line="35" id="lnk28"><path d="M503.5,396.95 C535.15,378.55 583.65,349.36 623.71,321 C648.36,303.54 671.1674,285.073 690.2274,269.003" fill="none" id="CP8-to-CP9" style="stroke:#000000;stroke-width:1;stroke-dasharray:7,7;"/><polygon fill="#000000" points="694.05,265.78,684.5909,268.5232,690.2274,269.003,689.7476,274.6394,694.05,265.78" style="stroke:#000000;stroke-width:1;stroke-linejoin:miter;stroke-miterlimit:10;"/><text fill="#000000" font-family="Verdana" font-size="13" lengthAdjust="spacing" textLength="63.0068" x="559.71" y="317.0669">&#171;include&#187;</text></g><?plantuml-src TP4zIyD0683t-nMlsLDjFbif7UmVA89RbYCvs-3rMf8hI4KGfqgXk8Y8WuD8BMAN3aAh_fiqzL-O9kTmU1aVdkUzzxZRurtI8p2WE6I8abCEl0zHsEbo2CA8-3piCuImp_iHQ5tC0agEi7ys77Xi7me-9d5cYGOu1XzJIYA4TfEOTIW1BPbEqizvydwRBjVf-ac32mGmZ8cFuyoUjFHMMp-eUkpdwcOpcHTrkhZVBE_o4rljgg8tFBPTVATV2z6lPiduJVI6eZSzrXc50oXo4PgAqFBOAEQ175gAqFOO7VMm7DgAq16hjxFdh1MXemXTiLeANKLO4wkbiAO8wnvBFbwIwNKoVapMA_4J3wzYf8uk4If-37IzcJ-rX8QCfeoMZBQCZeokZ3M4icrGgUoW3eVGQ8JCfyE0D9kPCKgDAKprdx5AZLrg_aupSaFEEM51BfpI2xYbfgOslm00?></g></svg>