<svg xmlns="http://www.w3.org/2000/svg" xmlns:xlink="http://www.w3.org/1999/xlink" contentStyleType="text/css" data-diagram-type="DESCRIPTION" height="973px" preserveAspectRatio="none" style="width:558px;height:973px;background:#FFFFFF;" version="1.1" viewBox="0 0 558 973" width="558px" zoomAndPan="magnify"><?plantuml 1.2026.6?><defs/><g><!--cluster ?????--><g class="cluster" data-qualified-name="....." data-source-line="8" id="ent0004"><rect fill="#FFFFFF" height="827" rx="2.5" ry="2.5" style="stroke:#000000;stroke-width:1;" width="430.18" x="114" y="67.37"/><text fill="#000000" font-family="Verdana" font-size="14" font-weight="700" lengthAdjust="spacing" textLength="69.9997" x="294.0902" y="82.3651">&#35843;&#24230;&#23376;&#31995;&#32479;</text></g><!--entity SC1--><g class="entity" data-qualified-name="......SC1" data-source-line="9" id="ent0005"><ellipse cx="206.0776" cy="234.3668" fill="#FFFFFF" rx="76.0776" ry="24.2668" style="stroke:#000000;stroke-width:1;"/><text fill="#000000" font-family="Verdana" font-size="14" lengthAdjust="spacing" textLength="66.6025" x="172.7763" y="228.2334">UC-SC-01</text><text fill="#000000" font-family="Verdana" font-size="14" lengthAdjust="spacing" textLength="111.9995" x="150.0778" y="244.5302">&#28155;&#21152;&#23450;&#26102;&#22791;&#20221;&#20219;&#21153;</text></g><!--entity SC2--><g class="entity" data-qualified-name="......SC2" data-source-line="10" id="ent0006"><ellipse cx="206.0776" cy="318.3668" fill="#FFFFFF" rx="76.0776" ry="24.2668" style="stroke:#000000;stroke-width:1;"/><text fill="#000000" font-family="Verdana" font-size="14" lengthAdjust="spacing" textLength="66.6025" x="172.7763" y="312.2334">UC-SC-02</text><text fill="#000000" font-family="Verdana" font-size="14" lengthAdjust="spacing" textLength="111.9995" x="150.0778" y="328.5302">&#21024;&#38500;&#23450;&#26102;&#22791;&#20221;&#20219;&#21153;</text></g><!--entity SC3--><g class="entity" data-qualified-name="......SC3" data-source-line="11" id="ent0007"><ellipse cx="206.0841" cy="413.3659" fill="#FFFFFF" rx="49.5141" ry="35.6659" style="stroke:#000000;stroke-width:1;"/><text fill="#000000" font-family="Verdana" font-size="14" lengthAdjust="spacing" textLength="66.6025" x="172.7828" y="403.3567">UC-SC-03</text><text fill="#000000" font-family="Verdana" font-size="14" lengthAdjust="spacing" textLength="69.6169" x="171.2756" y="419.6536">&#21551;&#29992; / &#31105;&#29992;</text><text fill="#000000" font-family="Verdana" font-size="14" lengthAdjust="spacing" textLength="55.9998" x="178.0842" y="435.9504">&#23450;&#26102;&#20219;&#21153;</text></g><!--entity SC4--><g class="entity" data-qualified-name="......SC4" data-source-line="12" id="ent0008"><ellipse cx="206.0828" cy="520.3686" fill="#FFFFFF" rx="48.4028" ry="36.3286" style="stroke:#000000;stroke-width:1;"/><text fill="#000000" font-family="Verdana" font-size="14" lengthAdjust="spacing" textLength="66.6025" x="172.7815" y="510.5111">UC-SC-04</text><text fill="#000000" font-family="Verdana" font-size="14" lengthAdjust="spacing" textLength="55.9998" x="178.0829" y="526.8079">&#21015;&#20986;&#25152;&#26377;</text><text fill="#000000" font-family="Verdana" font-size="14" lengthAdjust="spacing" textLength="55.9998" x="178.0829" y="543.1048">&#23450;&#26102;&#20219;&#21153;</text></g><!--entity SC5--><g class="entity" data-qualified-name="......SC5" data-source-line="13" id="ent0009"><ellipse cx="206.0842" cy="627.3745" fill="#FFFFFF" rx="59.1042" ry="35.6545" style="stroke:#000000;stroke-width:1;"/><text fill="#000000" font-family="Verdana" font-size="14" lengthAdjust="spacing" textLength="66.6025" x="172.7829" y="613.8914">UC-SC-05</text><text fill="#000000" font-family="Verdana" font-size="14" lengthAdjust="spacing" textLength="83.9996" x="164.0844" y="630.1883">&#21152;&#36733;&#20219;&#21153;&#37197;&#32622;</text><text fill="#000000" font-family="Verdana" font-size="14" lengthAdjust="spacing" textLength="80.9578" x="165.6053" y="646.4852">JSON &#25345;&#20037;&#21270;</text></g><!--entity SC6--><g class="entity" data-qualified-name="......SC6" data-source-line="14" id="ent0010"><ellipse cx="467.6728" cy="842.3686" fill="#FFFFFF" rx="48.4028" ry="36.3286" style="stroke:#000000;stroke-width:1;"/><text fill="#000000" font-family="Verdana" font-size="14" lengthAdjust="spacing" textLength="66.6025" x="434.3715" y="832.5111">UC-SC-06</text><text fill="#000000" font-family="Verdana" font-size="14" lengthAdjust="spacing" textLength="55.9998" x="439.6729" y="848.8079">&#35745;&#31639;&#19979;&#27425;</text><text fill="#000000" font-family="Verdana" font-size="14" lengthAdjust="spacing" textLength="55.9998" x="439.6729" y="865.1048">&#35302;&#21457;&#26102;&#38388;</text></g><!--entity SC7--><g class="entity" data-qualified-name="......SC7" data-source-line="15" id="ent0011"><ellipse cx="206.0828" cy="842.3686" fill="#FFFFFF" rx="48.4028" ry="36.3286" style="stroke:#000000;stroke-width:1;"/><text fill="#000000" font-family="Verdana" font-size="14" lengthAdjust="spacing" textLength="66.6025" x="172.7815" y="832.5111">UC-SC-07</text><text fill="#000000" font-family="Verdana" font-size="14" lengthAdjust="spacing" textLength="55.9998" x="178.0829" y="848.8079">&#38459;&#22622;&#31561;&#24453;</text><text fill="#000000" font-family="Verdana" font-size="14" lengthAdjust="spacing" textLength="55.9998" x="178.0829" y="865.1048">&#21040;&#26399;&#35302;&#21457;</text></g><!--entity SC8--><g class="entity" data-qualified-name="......SC8" data-source-line="16" id="ent0012"><ellipse cx="467.6728" cy="731.3686" fill="#FFFFFF" rx="48.4028" ry="36.3286" style="stroke:#000000;stroke-width:1;"/><text fill="#000000" font-family="Verdana" font-size="14" lengthAdjust="spacing" textLength="66.6025" x="434.3715" y="721.5111">UC-SC-08</text><text fill="#000000" font-family="Verdana" font-size="14" lengthAdjust="spacing" textLength="55.9998" x="439.6729" y="737.8079">&#25191;&#34892;&#21040;&#26399;</text><text fill="#000000" font-family="Verdana" font-size="14" lengthAdjust="spacing" textLength="55.9998" x="439.6729" y="754.1048">&#22791;&#20221;&#20219;&#21153;</text></g><!--entity SC9--><g class="entity" data-qualified-name="......SC9" data-source-line="17" id="ent0013"><ellipse cx="467.6678" cy="610.3742" fill="#FFFFFF" rx="46.8178" ry="33.6042" style="stroke:#000000;stroke-width:1;"/><text fill="#000000" font-family="Verdana" font-size="14" lengthAdjust="spacing" textLength="66.6025" x="434.3666" y="603.2804">UC-SC-09</text><text fill="#000000" font-family="Verdana" font-size="14" lengthAdjust="spacing" textLength="69.9997" x="432.668" y="619.5773">&#25353;&#25968;&#37327;&#28120;&#27760;</text><text fill="#000000" font-family="Verdana" font-size="14" lengthAdjust="spacing" textLength="27.9999" x="453.6679" y="635.8742">&#24555;&#29031;</text></g><!--entity SC10--><g class="entity" data-qualified-name="......SC10" data-source-line="18" id="ent0014"><ellipse cx="467.6678" cy="508.3742" fill="#FFFFFF" rx="46.8178" ry="33.6042" style="stroke:#000000;stroke-width:1;"/><text fill="#000000" font-family="Verdana" font-size="14" lengthAdjust="spacing" textLength="66.6025" x="434.3666" y="501.2804">UC-SC-10</text><text fill="#000000" font-family="Verdana" font-size="14" lengthAdjust="spacing" textLength="69.9997" x="432.668" y="517.5773">&#25353;&#22825;&#25968;&#28120;&#27760;</text><text fill="#000000" font-family="Verdana" font-size="14" lengthAdjust="spacing" textLength="27.9999" x="453.6679" y="533.8742">&#24555;&#29031;</text></g><!--entity SC11--><g class="entity" data-qualified-name="......SC11" data-source-line="19" id="ent0015"><ellipse cx="467.6703" cy="370.371" fill="#FFFFFF" rx="60.5103" ry="35.921" style="stroke:#000000;stroke-width:1;"/><text fill="#000000" font-family="Verdana" font-size="14" lengthAdjust="spacing" textLength="66.6025" x="434.3691" y="356.3276">UC-SC-11</text><text fill="#000000" font-family="Verdana" font-size="14" lengthAdjust="spacing" textLength="83.9996" x="425.6705" y="372.6245">&#20445;&#23384;&#20219;&#21153;&#37197;&#32622;</text><text fill="#000000" font-family="Verdana" font-size="14" lengthAdjust="spacing" textLength="85.408" x="424.9663" y="388.9214">&#21040; JSON &#25991;&#20214;</text></g><!--entity SC12--><g class="entity" data-qualified-name="......SC12" data-source-line="20" id="ent0016"><ellipse cx="206.0828" cy="734.3686" fill="#FFFFFF" rx="48.4028" ry="36.3286" style="stroke:#000000;stroke-width:1;"/><text fill="#000000" font-family="Verdana" font-size="14" lengthAdjust="spacing" textLength="66.6025" x="172.7815" y="724.5111">UC-SC-12</text><text fill="#000000" font-family="Verdana" font-size="14" lengthAdjust="spacing" textLength="55.9998" x="178.0829" y="740.8079">&#31435;&#21363;&#25191;&#34892;</text><text fill="#000000" font-family="Verdana" font-size="14" lengthAdjust="spacing" textLength="55.9998" x="178.0829" y="757.1048">&#23450;&#26102;&#20219;&#21153;</text></g><!--entity SC13--><g class="entity" data-qualified-name="......SC13" data-source-line="21" id="ent0017"><ellipse cx="206.0828" cy="138.3686" fill="#FFFFFF" rx="48.4028" ry="36.3286" style="stroke:#000000;stroke-width:1;"/><text fill="#000000" font-family="Verdana" font-size="14" lengthAdjust="spacing" textLength="66.6025" x="172.7815" y="128.5111">UC-SC-13</text><text fill="#000000" font-family="Verdana" font-size="14" lengthAdjust="spacing" textLength="55.9998" x="178.0829" y="144.8079">&#23433;&#20840;&#20572;&#27490;</text><text fill="#000000" font-family="Verdana" font-size="14" lengthAdjust="spacing" textLength="55.9998" x="178.0829" y="161.1048">&#23432;&#25252;&#36827;&#31243;</text></g><!--entity SC14--><g class="entity" data-qualified-name="......SC14" data-source-line="22" id="ent0018"><ellipse cx="467.666" cy="138.3715" fill="#FFFFFF" rx="49.136" ry="35.8815" style="stroke:#000000;stroke-width:1;"/><text fill="#000000" font-family="Verdana" font-size="14" lengthAdjust="spacing" textLength="66.6025" x="434.3648" y="128.4112">UC-SC-14</text><text fill="#000000" font-family="Verdana" font-size="14" lengthAdjust="spacing" textLength="68.5985" x="433.3668" y="144.7081">(GUI) &#32534;&#36753;</text><text fill="#000000" font-family="Verdana" font-size="14" lengthAdjust="spacing" textLength="55.9998" x="439.6662" y="161.005">&#23450;&#26102;&#20219;&#21153;</text></g><!--entity user--><g class="entity" data-qualified-name="user" data-source-line="4" id="ent0001"><ellipse cx="39" cy="288.72" fill="#FFFFFF" rx="8" ry="8" style="stroke:#000000;stroke-width:1;"/><path d="M39,296.72 L39,323.72 M26,304.72 L52,304.72 M39,323.72 L26,338.72 M39,323.72 L52,338.72" fill="none" style="stroke:#000000;stroke-width:1;"/><text fill="#000000" font-family="Verdana" font-size="14" lengthAdjust="spacing" textLength="27.9999" x="25.0001" y="353.7151">&#29992;&#25143;</text></g><!--entity clock--><g class="entity" data-qualified-name="clock" data-source-line="5" id="ent0002"><ellipse cx="38.9999" cy="779.72" fill="#FFFFFF" rx="8" ry="8" style="stroke:#000000;stroke-width:1;"/><path d="M38.9999,787.72 L38.9999,814.72 M25.9999,795.72 L51.9999,795.72 M38.9999,814.72 L25.9999,829.72 M38.9999,814.72 L51.9999,829.72" fill="none" style="stroke:#000000;stroke-width:1;"/><text fill="#000000" font-family="Verdana" font-size="14" lengthAdjust="spacing" textLength="55.9998" x="11" y="844.7151">&#31995;&#32479;&#26102;&#38047;</text></g><!--entity daemon--><g class="entity" data-qualified-name="daemon" data-source-line="6" id="ent0003"><ellipse cx="38.9999" cy="891.72" fill="#FFFFFF" rx="8" ry="8" style="stroke:#000000;stroke-width:1;"/><path d="M38.9999,899.72 L38.9999,926.72 M25.9999,907.72 L51.9999,907.72 M38.9999,926.72 L25.9999,941.72 M38.9999,926.72 L51.9999,941.72" fill="none" style="stroke:#000000;stroke-width:1;"/><text fill="#000000" font-family="Verdana" font-size="14" lengthAdjust="spacing" textLength="55.9998" x="11" y="956.7151">&#23432;&#25252;&#36827;&#31243;</text></g><!--link user to SC1--><g class="link" data-entity-1="ent0001" data-entity-2="ent0005" data-link-type="dependency" data-source-line="25" id="lnk19"><path d="M53.26,309.01 C66.32,300.01 87,286.35 106,276.37 C122.04,267.94 135.532,261.7868 151.842,255.0168" fill="none" id="user-to-SC1" style="stroke:#000000;stroke-width:1;"/><polygon fill="#000000" points="156.46,253.1,146.6142,252.8559,151.842,255.0168,149.6811,260.2447,156.46,253.1" style="stroke:#000000;stroke-width:1;stroke-linejoin:miter;stroke-miterlimit:10;"/></g><!--link user to SC2--><g class="link" data-entity-1="ent0001" data-entity-2="ent0006" data-link-type="dependency" data-source-line="26" id="lnk20"><path d="M53.23,318.37 C70.06,318.37 95.46,318.37 124.67,318.37" fill="none" id="user-to-SC2" style="stroke:#000000;stroke-width:1;"/><polygon fill="#000000" points="129.67,318.37,120.67,314.37,124.67,318.37,120.67,322.37,129.67,318.37" style="stroke:#000000;stroke-width:1;stroke-linejoin:miter;stroke-miterlimit:10;"/></g><!--link user to SC3--><g class="link" data-entity-1="ent0001" data-entity-2="ent0007" data-link-type="dependency" data-source-line="27" id="lnk21"><path d="M53.47,327.36 C66.67,336.08 87.47,349.54 106,360.37 C125.2,371.59 142.524,381.004 160.734,390.574" fill="none" id="user-to-SC3" style="stroke:#000000;stroke-width:1;"/><polygon fill="#000000" points="165.16,392.9,159.054,385.1723,160.734,390.574,155.3324,392.254,165.16,392.9" style="stroke:#000000;stroke-width:1;stroke-linejoin:miter;stroke-miterlimit:10;"/></g><!--link user to SC4--><g class="link" data-entity-1="ent0001" data-entity-2="ent0008" data-link-type="dependency" data-source-line="28" id="lnk22"><path d="M49.75,357.21 C59.51,389.58 77.27,435.27 106,466.37 C121.42,483.07 138.6574,493.6307 157.8774,502.4707" fill="none" id="user-to-SC4" style="stroke:#000000;stroke-width:1;"/><polygon fill="#000000" points="162.42,504.56,155.9148,497.1652,157.8774,502.4707,152.572,504.4333,162.42,504.56" style="stroke:#000000;stroke-width:1;stroke-linejoin:miter;stroke-miterlimit:10;"/></g><!--link user to SC14--><g class="link" data-entity-1="ent0001" data-entity-2="ent0018" data-link-type="dependency" data-source-line="29" id="lnk23"><path d="M45.3,279.31 C54.38,219.04 74.95,107.87 106,84.37 C202.92,11 352.9328,75.6984 424.0728,113.8184" fill="none" id="user-to-SC14" style="stroke:#000000;stroke-width:1;"/><polygon fill="#000000" points="428.48,116.18,422.4364,108.4035,424.0728,113.8184,418.6579,115.4549,428.48,116.18" style="stroke:#000000;stroke-width:1;stroke-linejoin:miter;stroke-miterlimit:10;"/></g><!--link daemon to SC5--><g class="link" data-entity-1="ent0003" data-entity-2="ent0009" data-link-type="dependency" data-source-line="30" id="lnk24"><path d="M60.25,882.41 C62.75,876.78 65.08,870.99 67,865.37 C94.11,785.84 55.57,747.59 106,680.37 C118,664.38 131.7437,654.8143 149.3437,646.5543" fill="none" id="daemon-to-SC5" style="stroke:#000000;stroke-width:1;"/><polygon fill="#000000" points="153.87,644.43,144.0232,644.6327,149.3437,646.5543,147.4221,651.8747,153.87,644.43" style="stroke:#000000;stroke-width:1;stroke-linejoin:miter;stroke-miterlimit:10;"/></g><!--link clock to SC7--><g class="link" data-entity-1="ent0002" data-entity-2="ent0011" data-link-type="dependency" data-source-line="31" id="lnk25"><path d="M67.26,814.82 C92.17,819.8 124.6072,826.2788 154.1372,832.1888" fill="none" id="clock-to-SC7" style="stroke:#000000;stroke-width:1;"/><polygon fill="#000000" points="159.04,833.17,151,827.4816,154.1372,832.1888,149.43,835.326,159.04,833.17" style="stroke:#000000;stroke-width:1;stroke-linejoin:miter;stroke-miterlimit:10;"/></g><!--link user to SC12--><g class="link" data-entity-1="ent0001" data-entity-2="ent0016" data-link-type="dependency" data-source-line="32" id="lnk26"><path d="M42.9,357.49 C49.68,440.12 68.89,629.06 106,680.37 C119.43,698.94 136.6874,709.8431 156.4574,718.3531" fill="none" id="user-to-SC12" style="stroke:#000000;stroke-width:1;"/><polygon fill="#000000" points="161.05,720.33,154.3648,713.0975,156.4574,718.3531,151.2018,720.4457,161.05,720.33" style="stroke:#000000;stroke-width:1;stroke-linejoin:miter;stroke-miterlimit:10;"/></g><!--link user to SC13--><g class="link" data-entity-1="ent0001" data-entity-2="ent0017" data-link-type="dependency" data-source-line="33" id="lnk27"><path d="M53.44,279.39 C64.29,252.39 81.76,217.02 106,192.37 C121.8,176.31 138.8753,165.9077 157.8653,156.9777" fill="none" id="user-to-SC13" style="stroke:#000000;stroke-width:1;"/><polygon fill="#000000" points="162.39,154.85,152.5434,155.0602,157.8653,156.9777,155.9477,162.2997,162.39,154.85" style="stroke:#000000;stroke-width:1;stroke-linejoin:miter;stroke-miterlimit:10;"/></g><!--link SC1 to SC11--><g class="link" data-entity-1="ent0005" data-entity-2="ent0015" data-link-type="dependency" data-source-line="35" id="lnk28"><path d="M252.57,253.99 C287.25,269.37 335.9,291.87 377.15,314.37 C393.57,323.32 406.8912,331.3463 422.0612,340.9963" fill="none" id="SC1-to-SC11" style="stroke:#000000;stroke-width:1;stroke-dasharray:7,7;"/><polygon fill="#000000" points="426.28,343.68,420.8331,335.4744,422.0612,340.9963,416.5393,342.2244,426.28,343.68" style="stroke:#000000;stroke-width:1;stroke-linejoin:miter;stroke-miterlimit:10;"/><text fill="#000000" font-family="Verdana" font-size="13" lengthAdjust="spacing" textLength="63.0068" x="313.15" y="277.7169">&#171;include&#187;</text></g><!--link SC2 to SC11--><g class="link" data-entity-1="ent0006" data-entity-2="ent0015" data-link-type="dependency" data-source-line="36" id="lnk29"><path d="M271.25,331.23 C313.73,339.74 364.0573,349.8183 404.9573,358.0083" fill="none" id="SC2-to-SC11" style="stroke:#000000;stroke-width:1;stroke-dasharray:7,7;"/><polygon fill="#000000" points="409.86,358.99,401.8206,353.3007,404.9573,358.0083,400.2498,361.145,409.86,358.99" style="stroke:#000000;stroke-width:1;stroke-linejoin:miter;stroke-miterlimit:10;"/><text fill="#000000" font-family="Verdana" font-size="13" lengthAdjust="spacing" textLength="63.0068" x="313.15" y="335.7769">&#171;include&#187;</text></g><!--link SC3 to SC11--><g class="link" data-entity-1="ent0007" data-entity-2="ent0015" data-link-type="dependency" data-source-line="37" id="lnk30"><path d="M255.83,411.36 C290.03,409.33 336.7,405.29 377.15,397.37 C389.42,394.97 397.6135,392.9821 409.7735,389.4021" fill="none" id="SC3-to-SC11" style="stroke:#000000;stroke-width:1;stroke-dasharray:7,7;"/><polygon fill="#000000" points="414.57,387.99,404.8067,386.6946,409.7735,389.4021,407.0661,394.369,414.57,387.99" style="stroke:#000000;stroke-width:1;stroke-linejoin:miter;stroke-miterlimit:10;"/><text fill="#000000" font-family="Verdana" font-size="13" lengthAdjust="spacing" textLength="63.0068" x="313.15" y="393.4369">&#171;include&#187;</text></g><!--link SC5 to SC11--><g class="link" data-entity-1="ent0009" data-entity-2="ent0015" data-link-type="dependency" data-source-line="38" id="lnk31"><path d="M263.78,635.94 C300.65,638.15 347.26,634.08 377.15,606.37 C426.7,560.45 380.89,519.61 407.15,457.37 C415.41,437.81 425.4057,422.1243 437.1457,406.4243" fill="none" id="SC5-to-SC11" style="stroke:#000000;stroke-width:1;stroke-dasharray:7,7;"/><polygon fill="#000000" points="440.14,402.42,431.5469,407.2323,437.1457,406.4243,437.9537,412.0231,440.14,402.42" style="stroke:#000000;stroke-width:1;stroke-linejoin:miter;stroke-miterlimit:10;"/><text fill="#000000" font-family="Verdana" font-size="13" lengthAdjust="spacing" textLength="63.0068" x="313.15" y="602.4369">&#171;include&#187;</text></g><!--link SC7 to SC6--><g class="link" data-entity-1="ent0011" data-entity-2="ent0010" data-link-type="dependency" data-source-line="39" id="lnk32"><path d="M254.67,844.02 C272.68,844.57 293.36,845.1 312.15,845.37 C341.04,845.78 348.27,845.86 377.15,845.37 C390.84,845.14 400.6929,844.889 414.2929,844.429" fill="none" id="SC7-to-SC6" style="stroke:#000000;stroke-width:1;stroke-dasharray:7,7;"/><polygon fill="#000000" points="419.29,844.26,410.1599,840.5665,414.2929,844.429,410.4304,848.562,419.29,844.26" style="stroke:#000000;stroke-width:1;stroke-linejoin:miter;stroke-miterlimit:10;"/><text fill="#000000" font-family="Verdana" font-size="13" lengthAdjust="spacing" textLength="63.0068" x="313.15" y="841.4369">&#171;include&#187;</text></g><!--link SC7 to SC8--><g class="link" data-entity-1="ent0011" data-entity-2="ent0012" data-link-type="dependency" data-source-line="40" id="lnk33"><path d="M248.78,824.54 C297.23,803.82 372.0628,771.8262 420.4628,751.1262" fill="none" id="SC7-to-SC8" style="stroke:#000000;stroke-width:1;stroke-dasharray:7,7;"/><polygon fill="#000000" points="425.06,749.16,415.2121,749.0213,420.4628,751.1262,418.358,756.3768,425.06,749.16" style="stroke:#000000;stroke-width:1;stroke-linejoin:miter;stroke-miterlimit:10;"/><text fill="#000000" font-family="Verdana" font-size="13" lengthAdjust="spacing" textLength="63.0068" x="313.15" y="766.5069">&#171;include&#187;</text></g><!--link SC8 to SC9--><g class="link" data-entity-1="ent0012" data-entity-2="ent0013" data-link-type="dependency" data-source-line="41" id="lnk34"><path d="M467.67,694.74 C467.67,678.74 467.67,665.09 467.67,649.4" fill="none" id="SC8-to-SC9" style="stroke:#000000;stroke-width:1;stroke-dasharray:7,7;"/><polygon fill="#000000" points="467.67,644.4,463.67,653.4,467.67,649.4,471.67,653.4,467.67,644.4" style="stroke:#000000;stroke-width:1;stroke-linejoin:miter;stroke-miterlimit:10;"/><text fill="#000000" font-family="Verdana" font-size="13" lengthAdjust="spacing" textLength="61.1851" x="425.67" y="674.0769">&#171;extend&#187;</text></g><!--link SC8 to SC10--><g class="link" data-entity-1="ent0012" data-entity-2="ent0014" data-link-type="dependency" data-source-line="42" id="lnk35"><path d="M427.55,710.39 C374.6,679.84 292.2,620.67 329.66,564.87 C349.93,534.67 384.6241,521.6148 416.2241,515.0648" fill="none" id="SC8-to-SC10" style="stroke:#000000;stroke-width:1;stroke-dasharray:7,7;"/><polygon fill="#000000" points="421.12,514.05,411.4955,511.9599,416.2241,515.0648,413.1192,519.7934,421.12,514.05" style="stroke:#000000;stroke-width:1;stroke-linejoin:miter;stroke-miterlimit:10;"/><text fill="#000000" font-family="Verdana" font-size="13" lengthAdjust="spacing" textLength="61.1851" x="314.15" y="577.9369">&#171;extend&#187;</text></g><!--link SC12 to SC8--><g class="link" data-entity-1="ent0016" data-entity-2="ent0012" data-link-type="dependency" data-source-line="43" id="lnk36"><path d="M254.69,733.82 C301.38,733.28 367.1803,732.5178 413.9203,731.9778" fill="none" id="SC12-to-SC8" style="stroke:#000000;stroke-width:1;stroke-dasharray:7,7;"/><polygon fill="#000000" points="418.92,731.92,409.8744,728.0242,413.9203,731.9778,409.9668,736.0237,418.92,731.92" style="stroke:#000000;stroke-width:1;stroke-linejoin:miter;stroke-miterlimit:10;"/><text fill="#000000" font-family="Verdana" font-size="13" lengthAdjust="spacing" textLength="63.0068" x="313.15" y="728.4969">&#171;include&#187;</text></g><!--link SC13 to SC14--><g class="link" data-entity-1="ent0017" data-entity-2="ent0018" data-link-type="dependency" data-source-line="44" id="lnk37"><path d="M254.69,138.37 C301.09,138.37 366.29,138.37 413.03,138.37" fill="none" id="SC13-to-SC14" style="stroke:#000000;stroke-width:1;stroke-dasharray:7,7;"/><polygon fill="#000000" points="418.03,138.37,409.03,134.37,413.03,138.37,409.03,142.37,418.03,138.37" style="stroke:#000000;stroke-width:1;stroke-linejoin:miter;stroke-miterlimit:10;"/><text fill="#000000" font-family="Verdana" font-size="13" lengthAdjust="spacing" textLength="61.1851" x="314.15" y="134.4369">&#171;extend&#187;</text></g><?plantuml-src TPDDRn916CVl-ob6JdgWCh2ycOOB1wC7FP3Uk6oMjINInS0sCJ4c4aDuRTeQ1LGKC0GmbHLJKxGhvSimiyktyDcNDcmxUzdiy_pdzt-UcNdcZh8dxKleHKx8obnEUgOW9OyAsTqz1MMo1KbKidcPumHHoHUGJty_eTMv3mb5T52K2jVfCqtNUhHzldxNiqGnbnUVNwb4hTBwq5X-rYSDIyq8qhvfQheBycvEGZvZzfPSZCZqsBRoeLSSCak8GX7KdQG_bVG7S5gcSutK-qJz1CN8iBBI5YiDCWFBDvN432gObacrl_uuzAI232e4rF5Fs2-wZ_HH2NuWOHcuq103vSs2RLAveBKtj5jZSZo32yFAUjzOECsjouVwGatBZrDFdo3QBAt-bacpvV1X1Xz9ouOwqDNswa-3_XX0D1wHenFpMjg_7Ix2uA9fUTtHoE2hFgsHoxBP_OnsUpRjS5465uFhg8sDGTDU3zpjeuqnk3XmpHhzC5jNZkYyGt_D05sUwkMn0yLlGpXWGMJu7JWcX0CC2YPcjVn2fXttaKB3o3xM5dHyVkN0c1uCqwEVDiZXcRrLvcLYnW1XSu3K6YbFIAbBfz_CwCOp090nFXZ6v-x3dKVtaFwlPLoUi2lot6kECvyWyliJrk1l1C7D8BGPy2w6v-oNwCHXpdgsJXHrBNLPGjiSVD7MbXLXz01jRsTbCNUGaH89a8BUKiXR2djBKKUAU2gnMqeCMKBS4gINYYHdDlCuS5F0GKylVDqsxwB-0m00?></g></svg>