<svg xmlns="http://www.w3.org/2000/svg" xmlns:xlink="http://www.w3.org/1999/xlink" contentStyleType="text/css" data-diagram-type="DESCRIPTION" height="585px" preserveAspectRatio="none" style="width:634px;height:585px;background:#FFFFFF;" version="1.1" viewBox="0 0 634 585" width="634px" zoomAndPan="magnify"><?plantuml 1.2026.6?><defs/><g><!--cluster ?????--><g class="cluster" data-qualified-name="....." data-source-line="7" id="ent0003"><rect fill="#FFFFFF" height="559" rx="2.5" ry="2.5" style="stroke:#000000;stroke-width:1;" width="460.81" x="160.04" y="12"/><text fill="#000000" font-family="Verdana" font-size="14" font-weight="700" lengthAdjust="spacing" textLength="69.9997" x="355.4452" y="26.9951">&#25171;&#21253;&#23376;&#31995;&#32479;</text></g><!--entity PK1--><g class="entity" data-qualified-name="......PK1" data-source-line="8" id="ent0004"><ellipse cx="245.6506" cy="138.0012" fill="#FFFFFF" rx="51.2206" ry="37.0012" style="stroke:#000000;stroke-width:1;"/><text fill="#000000" font-family="Verdana" font-size="14" lengthAdjust="spacing" textLength="65.5635" x="212.8689" y="125.8626">UC-PK-01</text><text fill="#000000" font-family="Verdana" font-size="14" lengthAdjust="spacing" textLength="69.3367" x="210.9822" y="142.1595">&#25171;&#21253;&#21040; Tar</text><text fill="#000000" font-family="Verdana" font-size="14" lengthAdjust="spacing" textLength="68.4413" x="211.43" y="158.4563">ustar &#26684;&#24335;</text></g><!--entity PK2--><g class="entity" data-qualified-name="......PK2" data-source-line="9" id="ent0005"><ellipse cx="245.6532" cy="257.9957" fill="#FFFFFF" rx="51.3332" ry="31.8957" style="stroke:#000000;stroke-width:1;"/><text fill="#000000" font-family="Verdana" font-size="14" lengthAdjust="spacing" textLength="65.5635" x="212.8715" y="249.559">UC-PK-02</text><text fill="#000000" font-family="Verdana" font-size="14" lengthAdjust="spacing" textLength="81.7783" x="204.7641" y="265.8558">&#20174; Tar ustar</text><text fill="#000000" font-family="Verdana" font-size="14" lengthAdjust="spacing" textLength="27.9999" x="231.6533" y="282.1527">&#35299;&#21253;</text></g><!--entity PK3--><g class="entity" data-qualified-name="......PK3" data-source-line="10" id="ent0006"><ellipse cx="245.651" cy="348.9993" fill="#FFFFFF" rx="69.611" ry="24.4393" style="stroke:#000000;stroke-width:1;"/><text fill="#000000" font-family="Verdana" font-size="14" lengthAdjust="spacing" textLength="65.5635" x="212.8693" y="343.1329">UC-PK-03</text><text fill="#000000" font-family="Verdana" font-size="14" lengthAdjust="spacing" textLength="101.2673" x="195.0174" y="359.4298">&#25171;&#21253;&#21040; Zip &#26684;&#24335;</text></g><!--entity PK4--><g class="entity" data-qualified-name="......PK4" data-source-line="11" id="ent0007"><ellipse cx="245.6541" cy="434.0006" fill="#FFFFFF" rx="53.5341" ry="25.4806" style="stroke:#000000;stroke-width:1;"/><text fill="#000000" font-family="Verdana" font-size="14" lengthAdjust="spacing" textLength="65.5635" x="212.8723" y="429.6889">UC-PK-04</text><text fill="#000000" font-family="Verdana" font-size="14" lengthAdjust="spacing" textLength="73.2674" x="209.0204" y="445.9857">&#20174; Zip &#35299;&#21253;</text></g><!--entity PK5--><g class="entity" data-qualified-name="......PK5" data-source-line="12" id="ent0008"><ellipse cx="522.5497" cy="82.9989" fill="#FFFFFF" rx="53.1197" ry="36.2089" style="stroke:#000000;stroke-width:1;"/><text fill="#000000" font-family="Verdana" font-size="14" lengthAdjust="spacing" textLength="65.5635" x="489.7679" y="70.6754">UC-PK-05</text><text fill="#000000" font-family="Verdana" font-size="14" lengthAdjust="spacing" textLength="73.7869" x="485.6562" y="86.9723">&#22312; Tar &#22836;&#37096;</text><text fill="#000000" font-family="Verdana" font-size="14" lengthAdjust="spacing" textLength="69.9997" x="487.5498" y="103.2692">&#32534;&#30721;&#20803;&#25968;&#25454;</text></g><!--entity PK6--><g class="entity" data-qualified-name="......PK6" data-source-line="13" id="ent0009"><ellipse cx="522.5525" cy="490.9974" fill="#FFFFFF" rx="82.2925" ry="34.6374" style="stroke:#000000;stroke-width:1;"/><text fill="#000000" font-family="Verdana" font-size="14" lengthAdjust="spacing" textLength="65.5635" x="489.7708" y="474.9873">UC-PK-06</text><text fill="#000000" font-family="Verdana" font-size="14" lengthAdjust="spacing" textLength="87.2673" x="478.9189" y="491.2841">&#22312; Zip &#20013;&#23884;&#20837;</text><text fill="#000000" font-family="Verdana" font-size="14" lengthAdjust="spacing" textLength="122.5342" x="461.2855" y="507.581">.backer_zip_meta</text></g><!--entity PK7--><g class="entity" data-qualified-name="......PK7" data-source-line="14" id="ent0010"><ellipse cx="522.5472" cy="185.9951" fill="#FFFFFF" rx="54.9372" ry="31.9251" style="stroke:#000000;stroke-width:1;"/><text fill="#000000" font-family="Verdana" font-size="14" lengthAdjust="spacing" textLength="65.5635" x="489.7655" y="176.3566">UC-PK-07</text><text fill="#000000" font-family="Verdana" font-size="14" lengthAdjust="spacing" textLength="87.7869" x="478.6538" y="192.6535">&#39564;&#35777; Tar &#22836;&#37096;</text><text fill="#000000" font-family="Verdana" font-size="14" lengthAdjust="spacing" textLength="41.9998" x="501.5473" y="208.9504">&#26657;&#39564;&#21644;</text></g><!--entity PK8--><g class="entity" data-qualified-name="......PK8" data-source-line="15" id="ent0011"><ellipse cx="522.5484" cy="321.0047" fill="#FFFFFF" rx="67.6884" ry="24.5147" style="stroke:#000000;stroke-width:1;"/><text fill="#000000" font-family="Verdana" font-size="14" lengthAdjust="spacing" textLength="65.5635" x="489.7666" y="315.2541">UC-PK-08</text><text fill="#000000" font-family="Verdana" font-size="14" lengthAdjust="spacing" textLength="97.9996" x="473.5486" y="331.551">&#24037;&#21378;&#21019;&#24314;&#25171;&#21253;&#22120;</text></g><!--entity be--><g class="entity" data-qualified-name="be" data-source-line="4" id="ent0001"><ellipse cx="62.0247" cy="250.35" fill="#FFFFFF" rx="8" ry="8" style="stroke:#000000;stroke-width:1;"/><path d="M62.0247,258.35 L62.0247,285.35 M49.0247,266.35 L75.0247,266.35 M62.0247,285.35 L49.0247,300.35 M62.0247,285.35 L75.0247,300.35" fill="none" style="stroke:#000000;stroke-width:1;"/><text fill="#000000" font-family="Verdana" font-size="14" lengthAdjust="spacing" textLength="99.7295" x="12.16" y="315.3451">BackupEngine</text></g><!--entity re--><g class="entity" data-qualified-name="re" data-source-line="5" id="ent0002"><ellipse cx="62.02" cy="365.35" fill="#FFFFFF" rx="8" ry="8" style="stroke:#000000;stroke-width:1;"/><path d="M62.02,373.35 L62.02,400.35 M49.02,381.35 L75.02,381.35 M62.02,400.35 L49.02,415.35 M62.02,400.35 L75.02,415.35" fill="none" style="stroke:#000000;stroke-width:1;"/><text fill="#000000" font-family="Verdana" font-size="14" lengthAdjust="spacing" textLength="102.04" x="11" y="430.3451">RestoreEngine</text></g><!--link be to PK1--><g class="link" data-entity-1="ent0001" data-entity-2="ent0004" data-link-type="dependency" data-source-line="18" id="lnk12"><path d="M111.4,241.14 C124.54,230.66 138.8,219.35 152.04,209 C171.03,194.15 188.4045,180.7924 205.8145,167.5124" fill="none" id="be-to-PK1" style="stroke:#000000;stroke-width:1;"/><polygon fill="#000000" points="209.79,164.48,200.2082,166.758,205.8145,167.5124,205.0601,173.1187,209.79,164.48" style="stroke:#000000;stroke-width:1;stroke-linejoin:miter;stroke-miterlimit:10;"/></g><!--link be to PK3--><g class="link" data-entity-1="ent0001" data-entity-2="ent0006" data-link-type="dependency" data-source-line="19" id="lnk13"><path d="M112.17,298.67 C138.65,308.73 166.476,319.3043 192.666,329.2543" fill="none" id="be-to-PK3" style="stroke:#000000;stroke-width:1;"/><polygon fill="#000000" points="197.34,331.03,190.3473,324.0944,192.666,329.2543,187.5061,331.5729,197.34,331.03" style="stroke:#000000;stroke-width:1;stroke-linejoin:miter;stroke-miterlimit:10;"/></g><!--link re to PK2--><g class="link" data-entity-1="ent0002" data-entity-2="ent0005" data-link-type="dependency" data-source-line="20" id="lnk14"><path d="M97.63,356.02 C113.27,339.71 132.59,321.27 152.04,307 C167.88,295.38 182.3563,287.0728 198.9863,278.7728" fill="none" id="re-to-PK2" style="stroke:#000000;stroke-width:1;"/><polygon fill="#000000" points="203.46,276.54,193.621,276.9801,198.9863,278.7728,197.1935,284.1381,203.46,276.54" style="stroke:#000000;stroke-width:1;stroke-linejoin:miter;stroke-miterlimit:10;"/></g><!--link re to PK4--><g class="link" data-entity-1="ent0002" data-entity-2="ent0007" data-link-type="dependency" data-source-line="21" id="lnk15"><path d="M113.13,405.76 C139.07,411.33 165.7013,417.0511 191.3813,422.5611" fill="none" id="re-to-PK4" style="stroke:#000000;stroke-width:1;"/><polygon fill="#000000" points="196.27,423.61,188.3094,417.8109,191.3813,422.5611,186.6311,425.6329,196.27,423.61" style="stroke:#000000;stroke-width:1;stroke-linejoin:miter;stroke-miterlimit:10;"/></g><!--link PK1 to PK5--><g class="link" data-entity-1="ent0004" data-entity-2="ent0008" data-link-type="dependency" data-source-line="23" id="lnk16"><path d="M295.48,128.23 C345.01,118.32 416.3972,104.0411 466.4172,94.0311" fill="none" id="PK1-to-PK5" style="stroke:#000000;stroke-width:1;stroke-dasharray:7,7;"/><polygon fill="#000000" points="471.32,93.05,461.7101,90.8938,466.4172,94.0311,463.2799,98.7383,471.32,93.05" style="stroke:#000000;stroke-width:1;stroke-linejoin:miter;stroke-miterlimit:10;"/><text fill="#000000" font-family="Verdana" font-size="13" lengthAdjust="spacing" textLength="63.0068" x="346.26" y="101.6369">&#171;include&#187;</text></g><!--link PK1 to PK7--><g class="link" data-entity-1="ent0004" data-entity-2="ent0010" data-link-type="dependency" data-source-line="24" id="lnk17"><path d="M296.61,143.46 C329.11,147.32 372.35,153.04 410.26,160 C430.46,163.71 447.6583,167.5023 466.7683,172.0923" fill="none" id="PK1-to-PK7" style="stroke:#000000;stroke-width:1;stroke-dasharray:7,7;"/><polygon fill="#000000" points="471.63,173.26,463.8131,167.2687,466.7683,172.0923,461.9447,175.0475,471.63,173.26" style="stroke:#000000;stroke-width:1;stroke-linejoin:miter;stroke-miterlimit:10;"/><text fill="#000000" font-family="Verdana" font-size="13" lengthAdjust="spacing" textLength="63.0068" x="346.26" y="146.0869">&#171;include&#187;</text></g><!--link PK1 to PK8--><g class="link" data-entity-1="ent0004" data-entity-2="ent0011" data-link-type="dependency" data-source-line="25" id="lnk18"><path d="M276.24,168.21 C288.41,180.75 302.6,195.49 315.26,209 C328.82,223.46 329.21,230.37 345.26,242 C356.67,250.27 424.4304,279.7495 472.8304,300.3795" fill="none" id="PK1-to-PK8" style="stroke:#000000;stroke-width:1;stroke-dasharray:7,7;"/><polygon fill="#000000" points="477.43,302.34,470.7191,295.1314,472.8304,300.3795,467.5823,302.4907,477.43,302.34" style="stroke:#000000;stroke-width:1;stroke-linejoin:miter;stroke-miterlimit:10;"/><text fill="#000000" font-family="Verdana" font-size="13" lengthAdjust="spacing" textLength="63.0068" x="346.26" y="238.0669">&#171;include&#187;</text></g><!--link PK2 to PK7--><g class="link" data-entity-1="ent0005" data-entity-2="ent0010" data-link-type="dependency" data-source-line="26" id="lnk19"><path d="M287.19,238.78 C304.72,231.09 325.68,222.72 345.26,217 C385.83,205.16 428.0975,197.8379 463.4475,192.9279" fill="none" id="PK2-to-PK7" style="stroke:#000000;stroke-width:1;stroke-dasharray:7,7;"/><polygon fill="#000000" points="468.4,192.24,458.9353,189.5162,463.4475,192.9279,460.0359,197.4401,468.4,192.24" style="stroke:#000000;stroke-width:1;stroke-linejoin:miter;stroke-miterlimit:10;"/><text fill="#000000" font-family="Verdana" font-size="13" lengthAdjust="spacing" textLength="63.0068" x="346.26" y="198.3469">&#171;include&#187;</text></g><!--link PK2 to PK8--><g class="link" data-entity-1="ent0005" data-entity-2="ent0011" data-link-type="dependency" data-source-line="27" id="lnk20"><path d="M288.25,275.85 C305.6,282.71 326.14,290.06 345.26,295 C381.66,304.4 418.2561,310.1305 451.8761,314.1905" fill="none" id="PK2-to-PK8" style="stroke:#000000;stroke-width:1;stroke-dasharray:7,7;"/><polygon fill="#000000" points="456.84,314.79,448.3845,309.7398,451.8761,314.1905,447.4254,317.6821,456.84,314.79" style="stroke:#000000;stroke-width:1;stroke-linejoin:miter;stroke-miterlimit:10;"/><text fill="#000000" font-family="Verdana" font-size="13" lengthAdjust="spacing" textLength="63.0068" x="346.26" y="291.0669">&#171;include&#187;</text></g><!--link PK3 to PK6--><g class="link" data-entity-1="ent0006" data-entity-2="ent0009" data-link-type="dependency" data-source-line="28" id="lnk21"><path d="M285.28,369.49 C295.52,375.75 306.23,383.09 315.26,391 C331.19,404.95 327.99,415.76 345.26,428 C376.29,449.98 410.9807,463.6275 444.7207,473.4875" fill="none" id="PK3-to-PK6" style="stroke:#000000;stroke-width:1;stroke-dasharray:7,7;"/><polygon fill="#000000" points="449.52,474.89,442.0033,468.5261,444.7207,473.4875,439.7593,476.2049,449.52,474.89" style="stroke:#000000;stroke-width:1;stroke-linejoin:miter;stroke-miterlimit:10;"/><text fill="#000000" font-family="Verdana" font-size="13" lengthAdjust="spacing" textLength="63.0068" x="346.26" y="424.0669">&#171;include&#187;</text></g><!--link PK3 to PK8--><g class="link" data-entity-1="ent0006" data-entity-2="ent0011" data-link-type="dependency" data-source-line="29" id="lnk22"><path d="M315.34,351.36 C325.38,351.62 335.59,351.85 345.26,352 C374.15,352.44 381.64,355.91 410.26,352 C430.93,349.18 448.3789,344.9601 467.5089,339.2501" fill="none" id="PK3-to-PK8" style="stroke:#000000;stroke-width:1;stroke-dasharray:7,7;"/><polygon fill="#000000" points="472.3,337.82,462.5319,336.5612,467.5089,339.2501,464.82,344.227,472.3,337.82" style="stroke:#000000;stroke-width:1;stroke-linejoin:miter;stroke-miterlimit:10;"/><text fill="#000000" font-family="Verdana" font-size="13" lengthAdjust="spacing" textLength="63.0068" x="346.26" y="348.0669">&#171;include&#187;</text></g><!--link PK4 to PK6--><g class="link" data-entity-1="ent0007" data-entity-2="ent0009" data-link-type="dependency" data-source-line="30" id="lnk23"><path d="M264.66,458.22 C282.41,479.86 311.68,510.09 345.26,523 C383.88,537.85 425.2267,530.2703 460.5867,517.9903" fill="none" id="PK4-to-PK6" style="stroke:#000000;stroke-width:1;stroke-dasharray:7,7;"/><polygon fill="#000000" points="465.31,516.35,455.4958,515.524,460.5867,517.9903,458.1204,523.0812,465.31,516.35" style="stroke:#000000;stroke-width:1;stroke-linejoin:miter;stroke-miterlimit:10;"/><text fill="#000000" font-family="Verdana" font-size="13" lengthAdjust="spacing" textLength="63.0068" x="346.26" y="519.0669">&#171;include&#187;</text></g><!--link PK4 to PK8--><g class="link" data-entity-1="ent0007" data-entity-2="ent0011" data-link-type="dependency" data-source-line="31" id="lnk24"><path d="M292.15,420.8 C325.37,410.66 371.25,395.6 410.26,379 C435.92,368.08 459.3689,355.9896 480.7689,344.2196" fill="none" id="PK4-to-PK8" style="stroke:#000000;stroke-width:1;stroke-dasharray:7,7;"/><polygon fill="#000000" points="485.15,341.81,475.3364,342.6424,480.7689,344.2196,479.1917,349.6521,485.15,341.81" style="stroke:#000000;stroke-width:1;stroke-linejoin:miter;stroke-miterlimit:10;"/><text fill="#000000" font-family="Verdana" font-size="13" lengthAdjust="spacing" textLength="63.0068" x="346.26" y="375.0669">&#171;include&#187;</text></g><?plantuml-src TP5FIm916CRlyodUzgxakluXn4FHoOj4NM91ndNIfNMKtVLIT30H3EmFHK4KP9GaWILK5Ed7SLRz5kskKodkdkQTUTxVyxoyisGMI950MSCgHHhPCS4iWQxc2oRaL9qefbgY2675BEaWh69bjr9UftcL4W6m0LdoAsqGmpx9ZAOJX1m3JFCQ0S4wkc3DEkkUZTxwe_wT0Fi8e68G1HkskhKMIAS2oo6Pyhv63pQnBjEAOM8ThDQ03KvTstGgv06ACXtsJnm4N4AcuwS7suSZeWSIditQLilp8M4FGfg6EBrpxf97RqIcxBRZ3iGUtoUrZan7WwjHgyhgDUkoPns_S3ZY0KUdi1Cq_EgoZoQhjsKQpDhh9tfcJordYiJ4t23gOH2JwUIvENwjpWrWjUxjLtRUv6JCWupRqPzjTdB86ZUi_yqtTDtXI1mT89Gb40WatP_uAyFsN_DI_2ybXEmk20QTImHM895GgQ9LSYIPd55YlafyGH5z6T6N2NCbwgiiCf8l8tapFm00?></g></svg>