<svg xmlns="http://www.w3.org/2000/svg" xmlns:xlink="http://www.w3.org/1999/xlink" contentStyleType="text/css" data-diagram-type="DESCRIPTION" height="1092px" preserveAspectRatio="none" style="width:529px;height:1092px;background:#FFFFFF;" version="1.1" viewBox="0 0 529 1092" width="529px" zoomAndPan="magnify"><?plantuml 1.2026.6?><defs/><g><!--cluster ???????--><g class="cluster" data-qualified-name="......." data-source-line="9" id="ent0005"><rect fill="#FFFFFF" height="750" rx="2.5" ry="2.5" style="stroke:#000000;stroke-width:1;" width="429.27" x="85.9999" y="12"/><text fill="#000000" font-family="Verdana" font-size="14" font-weight="700" lengthAdjust="spacing" textLength="97.9996" x="251.6352" y="26.9951">&#29992;&#25143;&#25509;&#21475;&#23376;&#31995;&#32479;</text></g><!--entity UI1--><g class="entity" data-qualified-name="........UI1" data-source-line="10" id="ent0006"><ellipse cx="181.3562" cy="70.9959" fill="#FFFFFF" rx="77.2463" ry="24.1159" style="stroke:#000000;stroke-width:1;"/><text fill="#000000" font-family="Verdana" font-size="14" lengthAdjust="spacing" textLength="62.3164" x="150.198" y="64.6263">UC-UI-01</text><text fill="#000000" font-family="Verdana" font-size="14" lengthAdjust="spacing" textLength="114.6041" x="124.0542" y="80.9231">&#36890;&#36807; CLI &#25191;&#34892;&#22791;&#20221;</text></g><!--entity UI2--><g class="entity" data-qualified-name="........UI2" data-source-line="11" id="ent0007"><ellipse cx="181.3562" cy="420.9959" fill="#FFFFFF" rx="77.2463" ry="24.1159" style="stroke:#000000;stroke-width:1;"/><text fill="#000000" font-family="Verdana" font-size="14" lengthAdjust="spacing" textLength="62.3164" x="150.198" y="414.6263">UC-UI-02</text><text fill="#000000" font-family="Verdana" font-size="14" lengthAdjust="spacing" textLength="114.6041" x="124.0542" y="430.9231">&#36890;&#36807; CLI &#25191;&#34892;&#36824;&#21407;</text></g><!--entity UI3--><g class="entity" data-qualified-name="........UI3" data-source-line="12" id="ent0008"><ellipse cx="181.3552" cy="713.0038" fill="#FFFFFF" rx="55.4752" ry="32.6238" style="stroke:#000000;stroke-width:1;"/><text fill="#000000" font-family="Verdana" font-size="14" lengthAdjust="spacing" textLength="62.3164" x="150.197" y="701.9643">UC-UI-03</text><text fill="#000000" font-family="Verdana" font-size="14" lengthAdjust="spacing" textLength="86.6042" x="138.0531" y="718.2612">&#36890;&#36807; CLI &#31649;&#29702;</text><text fill="#000000" font-family="Verdana" font-size="14" lengthAdjust="spacing" textLength="55.9998" x="153.3553" y="734.5581">&#35745;&#21010;&#20219;&#21153;</text></g><!--entity UI4--><g class="entity" data-qualified-name="........UI4" data-source-line="13" id="ent0009"><ellipse cx="181.3552" cy="513.0038" fill="#FFFFFF" rx="55.4752" ry="32.6238" style="stroke:#000000;stroke-width:1;"/><text fill="#000000" font-family="Verdana" font-size="14" lengthAdjust="spacing" textLength="62.3164" x="150.197" y="501.9643">UC-UI-04</text><text fill="#000000" font-family="Verdana" font-size="14" lengthAdjust="spacing" textLength="86.6042" x="138.0531" y="518.2612">&#36890;&#36807; CLI &#21551;&#21160;</text><text fill="#000000" font-family="Verdana" font-size="14" lengthAdjust="spacing" textLength="55.9998" x="153.3553" y="534.5581">&#23432;&#25252;&#36827;&#31243;</text></g><!--entity UI5--><g class="entity" data-qualified-name="........UI5" data-source-line="14" id="ent0010"><ellipse cx="181.3642" cy="154.001" fill="#FFFFFF" rx="79.3643" ry="24.071" style="stroke:#000000;stroke-width:1;"/><text fill="#000000" font-family="Verdana" font-size="14" lengthAdjust="spacing" textLength="62.3164" x="150.206" y="147.5606">UC-UI-05</text><text fill="#000000" font-family="Verdana" font-size="14" lengthAdjust="spacing" textLength="118.1246" x="122.3019" y="163.8575">&#36890;&#36807; GUI &#25191;&#34892;&#22791;&#20221;</text></g><!--entity UI6--><g class="entity" data-qualified-name="........UI6" data-source-line="15" id="ent0011"><ellipse cx="181.3642" cy="237.001" fill="#FFFFFF" rx="79.3643" ry="24.071" style="stroke:#000000;stroke-width:1;"/><text fill="#000000" font-family="Verdana" font-size="14" lengthAdjust="spacing" textLength="62.3164" x="150.206" y="230.5606">UC-UI-06</text><text fill="#000000" font-family="Verdana" font-size="14" lengthAdjust="spacing" textLength="118.1246" x="122.3019" y="246.8575">&#36890;&#36807; GUI &#25191;&#34892;&#36824;&#21407;</text></g><!--entity UI7--><g class="entity" data-qualified-name="........UI7" data-source-line="16" id="ent0012"><ellipse cx="181.3561" cy="612.9991" fill="#FFFFFF" rx="56.9361" ry="32.2591" style="stroke:#000000;stroke-width:1;"/><text fill="#000000" font-family="Verdana" font-size="14" lengthAdjust="spacing" textLength="62.3164" x="150.1979" y="601.913">UC-UI-07</text><text fill="#000000" font-family="Verdana" font-size="14" lengthAdjust="spacing" textLength="90.1248" x="136.2937" y="618.2099">&#36890;&#36807; GUI &#31649;&#29702;</text><text fill="#000000" font-family="Verdana" font-size="14" lengthAdjust="spacing" textLength="55.9998" x="153.3562" y="634.5067">&#23450;&#26102;&#20219;&#21153;</text></g><!--entity UI8--><g class="entity" data-qualified-name="........UI8" data-source-line="17" id="ent0013"><ellipse cx="181.361" cy="329.0022" fill="#FFFFFF" rx="58.951" ry="33.3522" style="stroke:#000000;stroke-width:1;"/><text fill="#000000" font-family="Verdana" font-size="14" lengthAdjust="spacing" textLength="62.3164" x="150.2028" y="316.5888">UC-UI-08</text><text fill="#000000" font-family="Verdana" font-size="14" lengthAdjust="spacing" textLength="90.1248" x="136.2986" y="332.8857">&#36890;&#36807; GUI &#37197;&#32622;</text><text fill="#000000" font-family="Verdana" font-size="14" lengthAdjust="spacing" textLength="69.9997" x="146.3611" y="349.1826">&#25345;&#20037;&#21270;&#35774;&#32622;</text></g><!--entity UI9--><g class="entity" data-qualified-name="........UI9" data-source-line="18" id="ent0014"><ellipse cx="441.4961" cy="99.9991" fill="#FFFFFF" rx="56.9361" ry="32.2591" style="stroke:#000000;stroke-width:1;"/><text fill="#000000" font-family="Verdana" font-size="14" lengthAdjust="spacing" textLength="62.3164" x="410.3379" y="88.913">UC-UI-09</text><text fill="#000000" font-family="Verdana" font-size="14" lengthAdjust="spacing" textLength="90.1248" x="396.4337" y="105.2099">&#36890;&#36807; GUI &#35774;&#32622;</text><text fill="#000000" font-family="Verdana" font-size="14" lengthAdjust="spacing" textLength="55.9998" x="413.4962" y="121.5067">&#31579;&#36873;&#26465;&#20214;</text></g><!--entity UI10--><g class="entity" data-qualified-name="........UI10" data-source-line="19" id="ent0015"><ellipse cx="441.5024" cy="216.9952" fill="#FFFFFF" rx="57.7725" ry="30.3252" style="stroke:#000000;stroke-width:1;"/><text fill="#000000" font-family="Verdana" font-size="14" lengthAdjust="spacing" textLength="62.3164" x="410.3442" y="207.319">UC-UI-10</text><text fill="#000000" font-family="Verdana" font-size="14" lengthAdjust="spacing" textLength="97.9996" x="392.5026" y="223.6159">&#21462;&#28040;&#27491;&#22312;&#36827;&#34892;&#30340;</text><text fill="#000000" font-family="Verdana" font-size="14" lengthAdjust="spacing" textLength="27.9999" x="427.5025" y="239.9128">&#25805;&#20316;</text></g><!--entity UI11--><g class="entity" data-qualified-name="........UI11" data-source-line="20" id="ent0016"><ellipse cx="441.5047" cy="349.0045" fill="#FFFFFF" rx="47.1047" ry="33.8045" style="stroke:#000000;stroke-width:1;"/><text fill="#000000" font-family="Verdana" font-size="14" lengthAdjust="spacing" textLength="62.3164" x="410.3465" y="339.9994">UC-UI-11</text><text fill="#000000" font-family="Verdana" font-size="14" lengthAdjust="spacing" textLength="69.9997" x="406.5048" y="356.2963">&#24674;&#22797;&#34920;&#21333;&#21040;</text><text fill="#000000" font-family="Verdana" font-size="14" lengthAdjust="spacing" textLength="41.9998" x="420.5048" y="372.5931">&#40664;&#35748;&#20540;</text></g><!--entity user--><g class="entity" data-qualified-name="user" data-source-line="4" id="ent0001"><ellipse cx="24.9999" cy="358.35" fill="#FFFFFF" rx="8" ry="8" style="stroke:#000000;stroke-width:1;"/><path d="M24.9999,366.35 L24.9999,393.35 M11.9999,374.35 L37.9999,374.35 M24.9999,393.35 L11.9999,408.35 M24.9999,393.35 L37.9999,408.35" fill="none" style="stroke:#000000;stroke-width:1;"/><text fill="#000000" font-family="Verdana" font-size="14" lengthAdjust="spacing" textLength="27.9999" x="11" y="423.3451">&#29992;&#25143;</text></g><!--entity engine--><g class="entity" data-qualified-name="engine" data-source-line="5" id="ent0002"><ellipse cx="441.5047" cy="787.35" fill="#FFFFFF" rx="8" ry="8" style="stroke:#000000;stroke-width:1;"/><path d="M441.5047,795.35 L441.5047,822.35 M428.5047,803.35 L454.5047,803.35 M441.5047,822.35 L428.5047,837.35 M441.5047,822.35 L454.5047,837.35" fill="none" style="stroke:#000000;stroke-width:1;"/><text fill="#000000" font-family="Verdana" font-size="14" lengthAdjust="spacing" textLength="99.7295" x="391.6399" y="852.3451">BackupEngine</text></g><!--entity restore_engine--><g class="entity" data-qualified-name="restore_engine" data-source-line="6" id="ent0003"><ellipse cx="441.5" cy="899.35" fill="#FFFFFF" rx="8" ry="8" style="stroke:#000000;stroke-width:1;"/><path d="M441.5,907.35 L441.5,934.35 M428.5,915.35 L454.5,915.35 M441.5,934.35 L428.5,949.35 M441.5,934.35 L454.5,949.35" fill="none" style="stroke:#000000;stroke-width:1;"/><text fill="#000000" font-family="Verdana" font-size="14" lengthAdjust="spacing" textLength="102.04" x="390.4799" y="964.3451">RestoreEngine</text></g><!--entity scheduler--><g class="entity" data-qualified-name="scheduler" data-source-line="7" id="ent0004"><ellipse cx="441.4998" cy="1011.35" fill="#FFFFFF" rx="8" ry="8" style="stroke:#000000;stroke-width:1;"/><path d="M441.4998,1019.35 L441.4998,1046.35 M428.4998,1027.35 L454.4998,1027.35 M441.4998,1046.35 L428.4998,1061.35 M441.4998,1046.35 L454.4998,1061.35" fill="none" style="stroke:#000000;stroke-width:1;"/><text fill="#000000" font-family="Verdana" font-size="14" lengthAdjust="spacing" textLength="41.9998" x="420.4999" y="1076.3451">&#35843;&#24230;&#22120;</text></g><!--link user to UI1--><g class="link" data-entity-1="ent0001" data-entity-2="ent0006" data-link-type="dependency" data-source-line="23" id="lnk17"><path d="M28.7599,349.03 C34.2599,281.78 48.6599,147.69 77.9999,112 C88.1499,99.65 97.9419,92.8924 112.7619,86.8324" fill="none" id="user-to-UI1" style="stroke:#000000;stroke-width:1;"/><polygon fill="#000000" points="117.3899,84.94,107.5455,84.644,112.7619,86.8324,110.5734,92.0488,117.3899,84.94" style="stroke:#000000;stroke-width:1;stroke-linejoin:miter;stroke-miterlimit:10;"/></g><!--link user to UI2--><g class="link" data-entity-1="ent0001" data-entity-2="ent0007" data-link-type="dependency" data-source-line="24" id="lnk18"><path d="M39.4299,390.87 C56.7399,394.57 83.1505,400.2143 111.8605,406.3543" fill="none" id="user-to-UI2" style="stroke:#000000;stroke-width:1;"/><polygon fill="#000000" points="116.7499,407.4,108.7855,401.6062,111.8605,406.3543,107.1124,409.4293,116.7499,407.4" style="stroke:#000000;stroke-width:1;stroke-linejoin:miter;stroke-miterlimit:10;"/></g><!--link user to UI3--><g class="link" data-entity-1="ent0001" data-entity-2="ent0008" data-link-type="dependency" data-source-line="25" id="lnk19"><path d="M29.0999,427.15 C35.0799,494 50.1499,626.49 77.9999,663 C91.0199,680.06 106.7501,689.7768 125.9001,697.4668" fill="none" id="user-to-UI3" style="stroke:#000000;stroke-width:1;"/><polygon fill="#000000" points="130.5399,699.33,123.6787,692.2643,125.9001,697.4668,120.6976,699.6881,130.5399,699.33" style="stroke:#000000;stroke-width:1;stroke-linejoin:miter;stroke-miterlimit:10;"/></g><!--link user to UI4--><g class="link" data-entity-1="ent0001" data-entity-2="ent0009" data-link-type="dependency" data-source-line="26" id="lnk20"><path d="M39.3999,413.8 C48.5999,429.57 62.0099,449.27 77.9999,463 C94.2099,476.92 110.3815,485.9806 128.9515,494.1306" fill="none" id="user-to-UI4" style="stroke:#000000;stroke-width:1;"/><polygon fill="#000000" points="133.5299,496.14,126.8962,488.8603,128.9515,494.1306,123.6812,496.1859,133.5299,496.14" style="stroke:#000000;stroke-width:1;stroke-linejoin:miter;stroke-miterlimit:10;"/></g><!--link user to UI5--><g class="link" data-entity-1="ent0001" data-entity-2="ent0010" data-link-type="dependency" data-source-line="27" id="lnk21"><path d="M26.5699,349.18 C29.2299,306.43 39.7399,238.06 77.9999,195 C88.4899,183.2 98.2274,176.6458 112.8774,170.6058" fill="none" id="user-to-UI5" style="stroke:#000000;stroke-width:1;"/><polygon fill="#000000" points="117.4999,168.7,107.6547,168.4324,112.8774,170.6058,110.704,175.8285,117.4999,168.7" style="stroke:#000000;stroke-width:1;stroke-linejoin:miter;stroke-miterlimit:10;"/></g><!--link user to UI6--><g class="link" data-entity-1="ent0001" data-entity-2="ent0011" data-link-type="dependency" data-source-line="28" id="lnk22"><path d="M36.4899,349.03 C44.4999,325.76 57.6999,297.11 77.9999,278 C89.7799,266.91 100.3031,260.5508 115.3231,254.4908" fill="none" id="user-to-UI6" style="stroke:#000000;stroke-width:1;"/><polygon fill="#000000" points="119.9599,252.62,110.117,252.2779,115.3231,254.4908,113.1103,259.6969,119.9599,252.62" style="stroke:#000000;stroke-width:1;stroke-linejoin:miter;stroke-miterlimit:10;"/></g><!--link user to UI7--><g class="link" data-entity-1="ent0001" data-entity-2="ent0012" data-link-type="dependency" data-source-line="29" id="lnk23"><path d="M28.6299,427.05 C33.1099,465.62 45.2299,524.3 77.9999,563 C91.6099,579.08 106.9928,588.5111 125.7128,596.2911" fill="none" id="user-to-UI7" style="stroke:#000000;stroke-width:1;"/><polygon fill="#000000" points="130.3299,598.21,123.5542,591.0623,125.7128,596.2911,120.484,598.4497,130.3299,598.21" style="stroke:#000000;stroke-width:1;stroke-linejoin:miter;stroke-miterlimit:10;"/></g><!--link user to UI8--><g class="link" data-entity-1="ent0001" data-entity-2="ent0013" data-link-type="dependency" data-source-line="30" id="lnk24"><path d="M39.1499,382.74 C47.6499,379.35 58.9699,374.88 68.9999,371 C89.4299,363.11 107.3598,356.3096 126.8298,348.9896" fill="none" id="user-to-UI8" style="stroke:#000000;stroke-width:1;"/><polygon fill="#000000" points="131.5099,347.23,121.678,346.6531,126.8298,348.9896,124.4933,354.1414,131.5099,347.23" style="stroke:#000000;stroke-width:1;stroke-linejoin:miter;stroke-miterlimit:10;"/></g><!--link UI1 to UI9--><g class="link" data-entity-1="ent0006" data-entity-2="ent0014" data-link-type="dependency" data-source-line="32" id="lnk25"><path d="M254.6099,79.12 C296.0799,83.78 342.3512,88.9716 380.5212,93.2616" fill="none" id="UI1-to-UI9" style="stroke:#000000;stroke-width:1;stroke-dasharray:7,7;"/><polygon fill="#000000" points="385.4899,93.82,376.993,88.8398,380.5212,93.2616,376.0995,96.7898,385.4899,93.82" style="stroke:#000000;stroke-width:1;stroke-linejoin:miter;stroke-miterlimit:10;"/><text fill="#000000" font-family="Verdana" font-size="13" lengthAdjust="spacing" textLength="61.1851" x="291.7299" y="79.8369">&#171;extend&#187;</text></g><!--link UI5 to UI9--><g class="link" data-entity-1="ent0010" data-entity-2="ent0014" data-link-type="dependency" data-source-line="33" id="lnk26"><path d="M247.4999,140.38 C290.8199,131.31 342.086,120.5944 382.646,112.1044" fill="none" id="UI5-to-UI9" style="stroke:#000000;stroke-width:1;stroke-dasharray:7,7;"/><polygon fill="#000000" points="387.5399,111.08,377.9113,109.0088,382.646,112.1044,379.5504,116.8391,387.5399,111.08" style="stroke:#000000;stroke-width:1;stroke-linejoin:miter;stroke-miterlimit:10;"/><text fill="#000000" font-family="Verdana" font-size="13" lengthAdjust="spacing" textLength="61.1851" x="291.7299" y="115.0769">&#171;extend&#187;</text></g><!--link UI5 to UI10--><g class="link" data-entity-1="ent0010" data-entity-2="ent0015" data-link-type="dependency" data-source-line="34" id="lnk27"><path d="M244.1899,169.09 C288.3399,179.87 342.2024,193.0148 383.8824,203.1848" fill="none" id="UI5-to-UI10" style="stroke:#000000;stroke-width:1;stroke-dasharray:7,7;"/><polygon fill="#000000" points="388.7399,204.37,380.9446,198.3506,383.8824,203.1848,379.0483,206.1226,388.7399,204.37" style="stroke:#000000;stroke-width:1;stroke-linejoin:miter;stroke-miterlimit:10;"/><text fill="#000000" font-family="Verdana" font-size="13" lengthAdjust="spacing" textLength="61.1851" x="291.7299" y="177.7969">&#171;extend&#187;</text></g><!--link UI5 to UI11--><g class="link" data-entity-1="ent0010" data-entity-2="ent0016" data-link-type="dependency" data-source-line="35" id="lnk28"><path d="M231.5999,173.1 C242.1999,178.92 252.6399,186.17 260.7299,195 C284.1499,220.56 267.5499,241.22 290.7299,267 C319.9599,299.52 360.5775,319.9483 393.6975,332.9883" fill="none" id="UI5-to-UI11" style="stroke:#000000;stroke-width:1;stroke-dasharray:7,7;"/><polygon fill="#000000" points="398.3499,334.82,391.441,327.801,393.6975,332.9883,388.5102,335.2448,398.3499,334.82" style="stroke:#000000;stroke-width:1;stroke-linejoin:miter;stroke-miterlimit:10;"/><text fill="#000000" font-family="Verdana" font-size="13" lengthAdjust="spacing" textLength="61.1851" x="291.7299" y="263.0669">&#171;extend&#187;</text></g><!--link UI6 to UI10--><g class="link" data-entity-1="ent0011" data-entity-2="ent0015" data-link-type="dependency" data-source-line="36" id="lnk29"><path d="M259.7999,241.53 C289.2899,242.18 323.1499,241.65 353.7299,238 C365.7299,236.57 373.6124,235.2034 385.5324,232.4034" fill="none" id="UI6-to-UI10" style="stroke:#000000;stroke-width:1;stroke-dasharray:7,7;"/><polygon fill="#000000" points="390.3999,231.26,380.7237,229.4241,385.5324,232.4034,382.5531,237.2121,390.3999,231.26" style="stroke:#000000;stroke-width:1;stroke-linejoin:miter;stroke-miterlimit:10;"/><text fill="#000000" font-family="Verdana" font-size="13" lengthAdjust="spacing" textLength="61.1851" x="291.7299" y="234.0669">&#171;extend&#187;</text></g><!--link UI6 to UI11--><g class="link" data-entity-1="ent0011" data-entity-2="ent0016" data-link-type="dependency" data-source-line="37" id="lnk30"><path d="M231.6599,256.04 C242.2599,261.86 252.6799,269.13 260.7299,278 C284.5799,304.28 261.2999,332.17 290.7299,352 C321.8999,373 360.7201,370.4298 392.8701,363.2498" fill="none" id="UI6-to-UI11" style="stroke:#000000;stroke-width:1;stroke-dasharray:7,7;"/><polygon fill="#000000" points="397.7499,362.16,388.0945,360.2178,392.8701,363.2498,389.8382,368.0255,397.7499,362.16" style="stroke:#000000;stroke-width:1;stroke-linejoin:miter;stroke-miterlimit:10;"/><text fill="#000000" font-family="Verdana" font-size="13" lengthAdjust="spacing" textLength="61.1851" x="291.7299" y="348.0669">&#171;extend&#187;</text></g><!--link UI8 to UI11--><g class="link" data-entity-1="ent0013" data-entity-2="ent0016" data-link-type="dependency" data-source-line="38" id="lnk31"><path d="M223.3899,352.82 C235.7799,360.63 249.1499,369.7 260.7299,379 C275.4299,390.81 273.3099,401.79 290.7299,409 C316.5999,419.72 326.9999,417.34 353.7299,409 C375.0599,402.35 391.8783,391.5493 407.7083,378.7793" fill="none" id="UI8-to-UI11" style="stroke:#000000;stroke-width:1;stroke-dasharray:7,7;"/><polygon fill="#000000" points="411.5999,375.64,402.0836,378.1775,407.7083,378.7793,407.1065,384.4041,411.5999,375.64" style="stroke:#000000;stroke-width:1;stroke-linejoin:miter;stroke-miterlimit:10;"/><text fill="#000000" font-family="Verdana" font-size="13" lengthAdjust="spacing" textLength="61.1851" x="291.7299" y="405.0669">&#171;extend&#187;</text></g><!--link UI1 to engine--><g class="link" data-entity-1="ent0006" data-entity-2="ent0002" data-link-type="dependency" data-source-line="40" id="lnk32"><path d="M234.4499,88.95 C244.6599,94.77 254.2099,102.32 260.7299,112 C299.6099,169.79 276.4999,355.82 290.7299,424 C309.1599,512.33 330.5499,529.8 353.7299,617 C370.6299,680.6 352.0299,704.33 383.7299,762 C386.7699,767.53 387.3558,769.0032 391.5158,774.0132" fill="none" id="UI1-to-engine" style="stroke:#000000;stroke-width:1;"/><polygon fill="#000000" points="394.7099,777.86,392.0379,768.3805,391.5158,774.0132,385.8831,773.4911,394.7099,777.86" style="stroke:#000000;stroke-width:1;stroke-linejoin:miter;stroke-miterlimit:10;"/></g><!--link UI5 to engine--><g class="link" data-entity-1="ent0010" data-entity-2="ent0002" data-link-type="dependency" data-source-line="41" id="lnk33"><path d="M234.9599,172.1 C245.0199,177.9 254.3699,185.4 260.7299,195 C306.6099,264.35 269.0599,487.72 290.7299,568 C315.6499,660.32 327.8499,684.41 383.7299,762 C387.6599,767.46 388.7781,769.1572 393.4981,774.2972" fill="none" id="UI5-to-engine" style="stroke:#000000;stroke-width:1;"/><polygon fill="#000000" points="396.8799,777.98,393.7388,768.6455,393.4981,774.2972,387.8463,774.0565,396.8799,777.98" style="stroke:#000000;stroke-width:1;stroke-linejoin:miter;stroke-miterlimit:10;"/></g><!--link UI2 to restore_engine--><g class="link" data-entity-1="ent0007" data-entity-2="ent0003" data-link-type="dependency" data-source-line="42" id="lnk34"><path d="M233.7099,439.11 C244.2299,445.13 254.0899,452.95 260.7299,463 C343.8399,588.85 215.1599,670.49 290.7299,801 C307.8399,830.56 327.3799,823.28 353.7299,845 C358.9099,849.27 377.0234,866.7759 397.4234,886.7059" fill="none" id="UI2-to-restore_engine" style="stroke:#000000;stroke-width:1;"/><polygon fill="#000000" points="400.9999,890.2,397.3575,881.0494,397.4234,886.7059,391.767,886.7718,400.9999,890.2" style="stroke:#000000;stroke-width:1;stroke-linejoin:miter;stroke-miterlimit:10;"/></g><!--link UI6 to restore_engine--><g class="link" data-entity-1="ent0011" data-entity-2="ent0003" data-link-type="dependency" data-source-line="43" id="lnk35"><path d="M235.0599,255.04 C245.1099,260.84 254.4399,268.36 260.7299,278 C315.1099,361.39 254.4299,632.3 290.7299,725 C306.9799,766.5 330.7399,764.83 353.7299,803 C371.1899,832 364.6599,845.04 383.7299,873 C387.7099,878.83 389.0074,880.8515 393.8974,886.2915" fill="none" id="UI6-to-restore_engine" style="stroke:#000000;stroke-width:1;"/><polygon fill="#000000" points="397.2399,890.01,394.1981,880.6426,393.8974,886.2915,388.2485,885.9907,397.2399,890.01" style="stroke:#000000;stroke-width:1;stroke-linejoin:miter;stroke-miterlimit:10;"/></g><!--link UI3 to scheduler--><g class="link" data-entity-1="ent0008" data-entity-2="ent0004" data-link-type="dependency" data-source-line="44" id="lnk36"><path d="M192.0399,745.44 C207.1799,792.07 240.0799,878.91 290.7299,938 C328.3099,981.85 384.2289,1013.4017 415.6089,1029.1117" fill="none" id="UI3-to-scheduler" style="stroke:#000000;stroke-width:1;"/><polygon fill="#000000" points="420.0799,1031.35,413.8228,1023.7442,415.6089,1029.1117,410.2415,1030.8978,420.0799,1031.35" style="stroke:#000000;stroke-width:1;stroke-linejoin:miter;stroke-miterlimit:10;"/></g><!--link UI4 to scheduler--><g class="link" data-entity-1="ent0009" data-entity-2="ent0004" data-link-type="dependency" data-source-line="45" id="lnk37"><path d="M226.7799,531.99 C239.7799,539.72 252.6499,549.97 260.7299,563 C326.8699,669.77 226.8299,735.87 290.7299,844 C308.0999,873.4 333.5899,860.42 353.7299,888 C380.3299,924.45 360.2899,946.44 383.7299,985 C393.2199,1000.62 404.2097,1011.7824 416.3197,1022.0724" fill="none" id="UI4-to-scheduler" style="stroke:#000000;stroke-width:1;"/><polygon fill="#000000" points="420.1299,1025.31,415.8616,1016.4341,416.3197,1022.0724,410.6814,1022.5305,420.1299,1025.31" style="stroke:#000000;stroke-width:1;stroke-linejoin:miter;stroke-miterlimit:10;"/></g><!--link UI7 to scheduler--><g class="link" data-entity-1="ent0012" data-entity-2="ent0004" data-link-type="dependency" data-source-line="46" id="lnk38"><path d="M226.9999,632.36 C239.8499,640.07 252.5799,650.21 260.7299,663 C315.3999,748.84 239.6699,801.97 290.7299,890 C308.3899,920.45 329.8899,912.1 353.7299,938 C370.5099,956.24 368.1399,965.73 383.7299,985 C394.7899,998.67 405.183,1009.161 416.543,1019.691" fill="none" id="UI7-to-scheduler" style="stroke:#000000;stroke-width:1;"/><polygon fill="#000000" points="420.2099,1023.09,416.3286,1014.0382,416.543,1019.691,410.8902,1019.9053,420.2099,1023.09" style="stroke:#000000;stroke-width:1;stroke-linejoin:miter;stroke-miterlimit:10;"/></g><?plantuml-src XPHTYzD058Rlyol6tdTf-f6silJ2HQJWbT2xW8HqR8DrkYGf229qqNMpjTqjVgnhTsM9MpKtZGj2HMFjdyaawRzmaaqqipl5g-Gzxtdcd3FCp0sz3Hz1iDsH5CHru0CTw5sWAgss3fgA2cLTwIAEasIzguAC_yRoZEyP86cWfq4r2T-Iv8UzxTkefI0OcJ3wJUnxK2DVcFBLoyXzEY-uU8P_ViRlhIX7azkmsUkGAbpOXeHQ7PXqu1rymeVdU3Rslpc-SvO1JpWGTYHB6ibfR6KRzMoE5z6gFmcMUs3hRXru-ry2SuYdUwwpYDPlr7a6b6T0mV8O7vp5K9u15IZ8jqr__494WMrYuvNhE7XWnd210HSf68-_ue4b8cmRtc0QB4zywsKC5nbmwIzyfy6SiSI010P4pIWme3859JDYU-AzcrCpbXbmXO9NkoD_OOl86-wuFtRny2YmVvD0p5SOV9NYBzD5vCzELlrzxuFfElCOhbw7-Hnfy_38cnlUx1oVMcHFoRp-v3bfuFN8NPmcfo77OCaPydO-ukaeC2qyUekD2zA9SnpOKzp_bO0yzvJZmli0ijbQTAvI8fyMXRGefaKfBOIqAAT5XUF8-c1Z8nHLS1DiRiB7EaJDMeqOfVyPV6wjmrzrXBMCi9Qfh76YfiC9uWiVrgLaFf9NdeMm4ZDSYCB_7WYobzSYPJho1m00?></g></svg>