<svg xmlns="http://www.w3.org/2000/svg" xmlns:xlink="http://www.w3.org/1999/xlink" contentStyleType="text/css" data-diagram-type="DESCRIPTION" height="984px" preserveAspectRatio="none" style="width:657px;height:984px;background:#FFFFFF;" version="1.1" viewBox="0 0 657 984" width="657px" zoomAndPan="magnify"><?plantuml 1.2026.6?><defs/><g><!--cluster ?????--><g class="cluster" data-qualified-name="....." data-source-line="7" id="ent0003"><rect fill="#FFFFFF" height="958" rx="2.5" ry="2.5" style="stroke:#000000;stroke-width:1;" width="412.34" x="230.94" y="12"/><text fill="#000000" font-family="Verdana" font-size="14" font-weight="700" lengthAdjust="spacing" textLength="69.9997" x="402.1102" y="26.9951">&#21152;&#23494;&#23376;&#31995;&#32479;</text></g><!--entity EN1--><g class="entity" data-qualified-name="......EN1" data-source-line="8" id="ent0004"><ellipse cx="567.4948" cy="71.9976" fill="#FFFFFF" rx="59.7948" ry="25.0376" style="stroke:#000000;stroke-width:1;"/><text fill="#000000" font-family="Verdana" font-size="14" lengthAdjust="spacing" textLength="67.2588" x="533.8654" y="67.0355">UC-EN-01</text><text fill="#000000" font-family="Verdana" font-size="14" lengthAdjust="spacing" textLength="83.9996" x="525.4949" y="83.3324">&#36873;&#25321;&#21152;&#23494;&#31639;&#27861;</text></g><!--entity EN2--><g class="entity" data-qualified-name="......EN2" data-source-line="9" id="ent0005"><ellipse cx="314.8224" cy="749.0047" fill="#FFFFFF" rx="49.7824" ry="35.6747" style="stroke:#000000;stroke-width:1;"/><text fill="#000000" font-family="Verdana" font-size="14" lengthAdjust="spacing" textLength="67.2588" x="281.193" y="739.0872">UC-EN-02</text><text fill="#000000" font-family="Verdana" font-size="14" lengthAdjust="spacing" textLength="69.9997" x="279.8226" y="755.384">&#21629;&#20196;&#34892;&#21442;&#25968;</text><text fill="#000000" font-family="Verdana" font-size="14" lengthAdjust="spacing" textLength="55.9998" x="286.8225" y="771.6809">&#25552;&#20379;&#23494;&#30721;</text></g><!--entity EN3--><g class="entity" data-qualified-name="......EN3" data-source-line="10" id="ent0006"><ellipse cx="314.8162" cy="843.9972" fill="#FFFFFF" rx="67.8762" ry="24.5772" style="stroke:#000000;stroke-width:1;"/><text fill="#000000" font-family="Verdana" font-size="14" lengthAdjust="spacing" textLength="67.2588" x="281.1868" y="838.3421">UC-EN-03</text><text fill="#000000" font-family="Verdana" font-size="14" lengthAdjust="spacing" textLength="97.9996" x="265.8164" y="854.639">&#20132;&#20114;&#24335;&#36755;&#20837;&#23494;&#30721;</text></g><!--entity EN4--><g class="entity" data-qualified-name="......EN4" data-source-line="11" id="ent0007"><ellipse cx="314.8248" cy="928.9976" fill="#FFFFFF" rx="59.7948" ry="25.0376" style="stroke:#000000;stroke-width:1;"/><text fill="#000000" font-family="Verdana" font-size="14" lengthAdjust="spacing" textLength="67.2588" x="281.1954" y="924.0355">UC-EN-04</text><text fill="#000000" font-family="Verdana" font-size="14" lengthAdjust="spacing" textLength="83.9996" x="272.8249" y="940.3324">&#30830;&#35748;&#23494;&#30721;&#19968;&#33268;</text></g><!--entity EN5--><g class="entity" data-qualified-name="......EN5" data-source-line="12" id="ent0008"><ellipse cx="314.816" cy="450.9962" fill="#FFFFFF" rx="58.056" ry="30.7962" style="stroke:#000000;stroke-width:1;"/><text fill="#000000" font-family="Verdana" font-size="14" lengthAdjust="spacing" textLength="67.2588" x="281.1866" y="441.7849">UC-EN-05</text><text fill="#000000" font-family="Verdana" font-size="14" lengthAdjust="spacing" textLength="96.8379" x="266.3971" y="458.0818">AES-256-GCM</text><text fill="#000000" font-family="Verdana" font-size="14" lengthAdjust="spacing" textLength="27.9999" x="300.8161" y="474.3787">&#21152;&#23494;</text></g><!--entity EN6--><g class="entity" data-qualified-name="......EN6" data-source-line="13" id="ent0009"><ellipse cx="314.8179" cy="291.9959" fill="#FFFFFF" rx="67.0179" ry="24.6159" style="stroke:#000000;stroke-width:1;"/><text fill="#000000" font-family="Verdana" font-size="14" lengthAdjust="spacing" textLength="67.2588" x="281.1885" y="286.3996">UC-EN-06</text><text fill="#000000" font-family="Verdana" font-size="14" lengthAdjust="spacing" textLength="96.5302" x="266.5528" y="302.6965">SM4-CBC &#21152;&#23494;</text></g><!--entity EN7--><g class="entity" data-qualified-name="......EN7" data-source-line="14" id="ent0010"><ellipse cx="314.816" cy="630.9962" fill="#FFFFFF" rx="58.056" ry="30.7962" style="stroke:#000000;stroke-width:1;"/><text fill="#000000" font-family="Verdana" font-size="14" lengthAdjust="spacing" textLength="67.2588" x="281.1866" y="621.7849">UC-EN-07</text><text fill="#000000" font-family="Verdana" font-size="14" lengthAdjust="spacing" textLength="96.8379" x="266.3971" y="638.0818">AES-256-GCM</text><text fill="#000000" font-family="Verdana" font-size="14" lengthAdjust="spacing" textLength="27.9999" x="300.8161" y="654.3787">&#35299;&#23494;</text></g><!--entity EN8--><g class="entity" data-qualified-name="......EN8" data-source-line="15" id="ent0011"><ellipse cx="314.8179" cy="540.9959" fill="#FFFFFF" rx="67.0179" ry="24.6159" style="stroke:#000000;stroke-width:1;"/><text fill="#000000" font-family="Verdana" font-size="14" lengthAdjust="spacing" textLength="67.2588" x="281.1885" y="535.3996">UC-EN-08</text><text fill="#000000" font-family="Verdana" font-size="14" lengthAdjust="spacing" textLength="96.5302" x="266.5528" y="551.6965">SM4-CBC &#35299;&#23494;</text></g><!--entity EN9--><g class="entity" data-qualified-name="......EN9" data-source-line="16" id="ent0012"><ellipse cx="567.4905" cy="747.9974" fill="#FFFFFF" rx="50.3205" ry="37.3974" style="stroke:#000000;stroke-width:1;"/><text fill="#000000" font-family="Verdana" font-size="14" lengthAdjust="spacing" textLength="67.2588" x="533.8611" y="736.5949">UC-EN-09</text><text fill="#000000" font-family="Verdana" font-size="14" lengthAdjust="spacing" textLength="55.9998" x="539.4906" y="752.8918">&#23494;&#38053;&#27966;&#29983;</text><text fill="#000000" font-family="Verdana" font-size="14" lengthAdjust="spacing" textLength="65.8916" x="534.5447" y="769.1887">(PBKDF2)</text></g><!--entity EN10--><g class="entity" data-qualified-name="......EN10" data-source-line="17" id="ent0013"><ellipse cx="567.4897" cy="230.9988" fill="#FFFFFF" rx="49.9097" ry="37.0988" style="stroke:#000000;stroke-width:1;"/><text fill="#000000" font-family="Verdana" font-size="14" lengthAdjust="spacing" textLength="67.2588" x="533.8603" y="220.0227">UC-EN-10</text><text fill="#000000" font-family="Verdana" font-size="14" lengthAdjust="spacing" textLength="55.9998" x="539.4898" y="236.3196">&#29983;&#25104;&#38543;&#26426;</text><text fill="#000000" font-family="Verdana" font-size="14" lengthAdjust="spacing" textLength="63.4511" x="535.7641" y="252.6165">Salt &#21644; IV</text></g><!--entity EN11--><g class="entity" data-qualified-name="......EN11" data-source-line="18" id="ent0014"><ellipse cx="567.4917" cy="859.0016" fill="#FFFFFF" rx="48.7717" ry="36.2716" style="stroke:#000000;stroke-width:1;"/><text fill="#000000" font-family="Verdana" font-size="14" lengthAdjust="spacing" textLength="67.2588" x="533.8624" y="849.228">UC-EN-11</text><text fill="#000000" font-family="Verdana" font-size="14" lengthAdjust="spacing" textLength="65.1532" x="534.9151" y="865.5249">&#26657;&#39564; GCM</text><text fill="#000000" font-family="Verdana" font-size="14" lengthAdjust="spacing" textLength="55.9998" x="539.4919" y="881.8217">&#35748;&#35777;&#26631;&#31614;</text></g><!--entity EN12--><g class="entity" data-qualified-name="......EN12" data-source-line="19" id="ent0015"><ellipse cx="567.4918" cy="549.0032" fill="#FFFFFF" rx="47.0818" ry="35.0432" style="stroke:#000000;stroke-width:1;"/><text fill="#000000" font-family="Verdana" font-size="14" lengthAdjust="spacing" textLength="67.2588" x="533.8624" y="541.0831">UC-EN-12</text><text fill="#000000" font-family="Verdana" font-size="14" lengthAdjust="spacing" textLength="55.9998" x="539.492" y="557.38">&#24037;&#21378;&#21019;&#24314;</text><text fill="#000000" font-family="Verdana" font-size="14" lengthAdjust="spacing" textLength="41.9998" x="546.4919" y="573.6768">&#21152;&#23494;&#22120;</text></g><!--entity EN13--><g class="entity" data-qualified-name="......EN13" data-source-line="20" id="ent0016"><ellipse cx="567.4917" cy="403.0016" fill="#FFFFFF" rx="48.7717" ry="36.2716" style="stroke:#000000;stroke-width:1;"/><text fill="#000000" font-family="Verdana" font-size="14" lengthAdjust="spacing" textLength="67.2588" x="533.8624" y="393.228">UC-EN-13</text><text fill="#000000" font-family="Verdana" font-size="14" lengthAdjust="spacing" textLength="55.9998" x="539.4919" y="409.5249">&#20889;&#20986;&#21152;&#23494;</text><text fill="#000000" font-family="Verdana" font-size="14" lengthAdjust="spacing" textLength="55.9998" x="539.4919" y="425.8217">&#22836;&#37096;&#26684;&#24335;</text></g><!--entity caller--><g class="entity" data-qualified-name="caller" data-source-line="4" id="ent0001"><ellipse cx="66.4702" cy="413.2" fill="#FFFFFF" rx="8" ry="8" style="stroke:#000000;stroke-width:1;"/><path d="M66.4702,421.2 L66.4702,448.2 M53.4702,429.2 L79.4702,429.2 M66.4702,448.2 L53.4702,463.2 M66.4702,448.2 L79.4702,463.2" fill="none" style="stroke:#000000;stroke-width:1;"/><text fill="#000000" font-family="Verdana" font-size="14" lengthAdjust="spacing" textLength="99.4629" x="11" y="478.1951">handleBackup</text><text fill="#000000" font-family="Verdana" font-size="14" lengthAdjust="spacing" textLength="110.9404" x="11" y="494.492">/ handleRestore</text></g><!--entity user--><g class="entity" data-qualified-name="user" data-source-line="5" id="ent0002"><ellipse cx="66.47" cy="814.35" fill="#FFFFFF" rx="8" ry="8" style="stroke:#000000;stroke-width:1;"/><path d="M66.47,822.35 L66.47,849.35 M53.47,830.35 L79.47,830.35 M66.47,849.35 L53.47,864.35 M66.47,849.35 L79.47,864.35" fill="none" style="stroke:#000000;stroke-width:1;"/><text fill="#000000" font-family="Verdana" font-size="14" lengthAdjust="spacing" textLength="27.9999" x="52.4701" y="879.3451">&#29992;&#25143;</text></g><!--link caller to EN1--><g class="link" data-entity-1="ent0001" data-entity-2="ent0004" data-link-type="dependency" data-source-line="23" id="lnk17"><path d="M91.12,403.76 C138.1,316.17 252.67,131.59 412.69,67 C444.77,54.05 478.8048,54.742 509.4948,59.322" fill="none" id="caller-to-EN1" style="stroke:#000000;stroke-width:1;"/><polygon fill="#000000" points="514.44,60.06,506.129,54.7754,509.4948,59.322,504.9482,62.6878,514.44,60.06" style="stroke:#000000;stroke-width:1;stroke-linejoin:miter;stroke-miterlimit:10;"/></g><!--link caller to EN5--><g class="link" data-entity-1="ent0001" data-entity-2="ent0008" data-link-type="dependency" data-source-line="24" id="lnk18"><path d="M122.14,451 C161.97,451 210.82,451 251.3,451" fill="none" id="caller-to-EN5" style="stroke:#000000;stroke-width:1;"/><polygon fill="#000000" points="256.3,451,247.3,447,251.3,451,247.3,455,256.3,451" style="stroke:#000000;stroke-width:1;stroke-linejoin:miter;stroke-miterlimit:10;"/></g><!--link caller to EN6--><g class="link" data-entity-1="ent0001" data-entity-2="ent0009" data-link-type="dependency" data-source-line="25" id="lnk19"><path d="M122.14,415.71 C170.62,384.42 235.6593,342.4519 276.2893,316.2219" fill="none" id="caller-to-EN6" style="stroke:#000000;stroke-width:1;"/><polygon fill="#000000" points="280.49,313.51,270.7593,315.0308,276.2893,316.2219,275.0983,321.7519,280.49,313.51" style="stroke:#000000;stroke-width:1;stroke-linejoin:miter;stroke-miterlimit:10;"/></g><!--link caller to EN7--><g class="link" data-entity-1="ent0001" data-entity-2="ent0010" data-link-type="dependency" data-source-line="26" id="lnk20"><path d="M117.4,498.26 C146.84,524.86 185.55,557.7 222.94,583 C237.87,593.1 250.7105,600.4192 266.1805,608.3492" fill="none" id="caller-to-EN7" style="stroke:#000000;stroke-width:1;"/><polygon fill="#000000" points="270.63,610.63,264.4456,602.9649,266.1805,608.3492,260.7963,610.0841,270.63,610.63" style="stroke:#000000;stroke-width:1;stroke-linejoin:miter;stroke-miterlimit:10;"/></g><!--link caller to EN8--><g class="link" data-entity-1="ent0001" data-entity-2="ent0011" data-link-type="dependency" data-source-line="27" id="lnk21"><path d="M122.14,470.97 C165.38,486.77 220.4234,506.8849 261.6634,521.9449" fill="none" id="caller-to-EN8" style="stroke:#000000;stroke-width:1;"/><polygon fill="#000000" points="266.36,523.66,259.2781,516.8155,261.6634,521.9449,256.534,524.3301,266.36,523.66" style="stroke:#000000;stroke-width:1;stroke-linejoin:miter;stroke-miterlimit:10;"/></g><!--link user to EN2--><g class="link" data-entity-1="ent0002" data-entity-2="ent0005" data-link-type="dependency" data-source-line="28" id="lnk22"><path d="M80.71,838.89 C115.99,825.29 208.7647,789.5085 265.8847,767.4885" fill="none" id="user-to-EN2" style="stroke:#000000;stroke-width:1;"/><polygon fill="#000000" points="270.55,765.69,260.7136,765.195,265.8847,767.4885,263.5912,772.6596,270.55,765.69" style="stroke:#000000;stroke-width:1;stroke-linejoin:miter;stroke-miterlimit:10;"/></g><!--link user to EN3--><g class="link" data-entity-1="ent0002" data-entity-2="ent0006" data-link-type="dependency" data-source-line="29" id="lnk23"><path d="M80.71,844 C111.45,844 184.34,844 241.67,844" fill="none" id="user-to-EN3" style="stroke:#000000;stroke-width:1;"/><polygon fill="#000000" points="246.67,844,237.67,840,241.67,844,237.67,848,246.67,844" style="stroke:#000000;stroke-width:1;stroke-linejoin:miter;stroke-miterlimit:10;"/></g><!--link user to EN4--><g class="link" data-entity-1="ent0002" data-entity-2="ent0007" data-link-type="dependency" data-source-line="30" id="lnk24"><path d="M80.71,848.57 C115.49,860.57 205.9535,891.7791 263.3635,911.5891" fill="none" id="user-to-EN4" style="stroke:#000000;stroke-width:1;"/><polygon fill="#000000" points="268.09,913.22,260.887,906.5031,263.3635,911.5891,258.2775,914.0655,268.09,913.22" style="stroke:#000000;stroke-width:1;stroke-linejoin:miter;stroke-miterlimit:10;"/></g><!--link EN2 to EN5--><g class="link" data-entity-1="ent0005" data-entity-2="ent0008" data-link-type="dependency" data-source-line="32" id="lnk25"><path d="M264.62,747.55 C234.23,743.75 197.63,733.36 177.84,706.5 C168.96,694.45 136.15,610.61 222.94,499 C233.77,485.08 245.252,476.9219 260.882,469.5119" fill="none" id="EN2-to-EN5" style="stroke:#000000;stroke-width:1;stroke-dasharray:7,7;"/><polygon fill="#000000" points="265.4,467.37,255.5541,467.6111,260.882,469.5119,258.9812,474.8398,265.4,467.37" style="stroke:#000000;stroke-width:1;stroke-linejoin:miter;stroke-miterlimit:10;"/><text fill="#000000" font-family="Verdana" font-size="13" lengthAdjust="spacing" textLength="61.1851" x="152.94" y="702.5669">&#171;extend&#187;</text></g><!--link EN3 to EN5--><g class="link" data-entity-1="ent0006" data-entity-2="ent0008" data-link-type="dependency" data-source-line="33" id="lnk26"><path d="M262.02,828.37 C247.83,822.07 233.51,813.49 222.94,802 C177.97,753.1 168.77,725.31 177.84,659.5 C187.95,586.1 176.25,556.54 222.94,499 C234.05,485.3 245.6059,477.21 261.2059,469.78" fill="none" id="EN3-to-EN5" style="stroke:#000000;stroke-width:1;stroke-dasharray:7,7;"/><polygon fill="#000000" points="265.72,467.63,255.8745,467.8887,261.2059,469.78,259.3145,475.1113,265.72,467.63" style="stroke:#000000;stroke-width:1;stroke-linejoin:miter;stroke-miterlimit:10;"/><text fill="#000000" font-family="Verdana" font-size="13" lengthAdjust="spacing" textLength="61.1851" x="152.94" y="672.5669">&#171;extend&#187;</text></g><!--link EN4 to EN5--><g class="link" data-entity-1="ent0007" data-entity-2="ent0008" data-link-type="dependency" data-source-line="34" id="lnk27"><path d="M265.48,914.77 C250.04,908.2 234.14,898.9 222.94,886 C178,834.23 187.97,806.3 177.84,738.5 C171.17,693.9 164.73,576.43 222.94,499 C233.54,484.9 244.9698,476.7073 260.6198,469.3073" fill="none" id="EN4-to-EN5" style="stroke:#000000;stroke-width:1;stroke-dasharray:7,7;"/><polygon fill="#000000" points="265.14,467.17,255.2939,467.4011,260.6198,469.3073,258.7136,474.6333,265.14,467.17" style="stroke:#000000;stroke-width:1;stroke-linejoin:miter;stroke-miterlimit:10;"/><text fill="#000000" font-family="Verdana" font-size="13" lengthAdjust="spacing" textLength="61.1851" x="152.94" y="734.5669">&#171;extend&#187;</text></g><!--link EN2 to EN7--><g class="link" data-entity-1="ent0005" data-entity-2="ent0010" data-link-type="dependency" data-source-line="35" id="lnk28"><path d="M314.82,712.95 C314.82,696.69 314.82,682.66 314.82,667.04" fill="none" id="EN2-to-EN7" style="stroke:#000000;stroke-width:1;stroke-dasharray:7,7;"/><polygon fill="#000000" points="314.82,662.04,310.82,671.04,314.82,667.04,318.82,671.04,314.82,662.04" style="stroke:#000000;stroke-width:1;stroke-linejoin:miter;stroke-miterlimit:10;"/><text fill="#000000" font-family="Verdana" font-size="13" lengthAdjust="spacing" textLength="61.1851" x="272.82" y="692.1269">&#171;extend&#187;</text></g><!--link EN3 to EN7--><g class="link" data-entity-1="ent0006" data-entity-2="ent0010" data-link-type="dependency" data-source-line="36" id="lnk29"><path d="M257.73,830.32 C227.7,819.76 193.86,801.68 177.84,771.5 C150.68,720.35 215.5092,677.3987 265.1492,652.8187" fill="none" id="EN3-to-EN7" style="stroke:#000000;stroke-width:1;stroke-dasharray:7,7;"/><polygon fill="#000000" points="269.63,650.6,259.7896,651.0091,265.1492,652.8187,263.3396,658.1783,269.63,650.6" style="stroke:#000000;stroke-width:1;stroke-linejoin:miter;stroke-miterlimit:10;"/><text fill="#000000" font-family="Verdana" font-size="13" lengthAdjust="spacing" textLength="61.1851" x="152.94" y="767.5669">&#171;extend&#187;</text></g><!--link EN5 to EN1--><g class="link" data-entity-1="ent0008" data-entity-2="ent0004" data-link-type="dependency" data-source-line="37" id="lnk30"><path d="M334.99,421.63 C349.48,398.5 369.14,365.1 382.69,334 C400.56,293.02 387.64,275.02 412.69,238 C433.58,207.13 451.57,211.59 477.69,185 C505.49,156.7 530.1162,124.0375 546.9862,100.2675" fill="none" id="EN5-to-EN1" style="stroke:#000000;stroke-width:1;stroke-dasharray:7,7;"/><polygon fill="#000000" points="549.88,96.19,541.4091,101.2143,546.9862,100.2675,547.933,105.8445,549.88,96.19" style="stroke:#000000;stroke-width:1;stroke-linejoin:miter;stroke-miterlimit:10;"/><text fill="#000000" font-family="Verdana" font-size="13" lengthAdjust="spacing" textLength="63.0068" x="413.69" y="181.0669">&#171;include&#187;</text></g><!--link EN5 to EN9--><g class="link" data-entity-1="ent0008" data-entity-2="ent0012" data-link-type="dependency" data-source-line="38" id="lnk31"><path d="M356.32,472.72 C366.31,479.86 376.04,488.67 382.69,499 C419.74,556.52 374.07,593.52 412.69,650 C439.23,688.81 482.16,713.5414 517.37,729.1714" fill="none" id="EN5-to-EN9" style="stroke:#000000;stroke-width:1;stroke-dasharray:7,7;"/><polygon fill="#000000" points="521.94,731.2,515.337,723.8925,517.37,729.1714,512.0911,731.2044,521.94,731.2" style="stroke:#000000;stroke-width:1;stroke-linejoin:miter;stroke-miterlimit:10;"/><text fill="#000000" font-family="Verdana" font-size="13" lengthAdjust="spacing" textLength="63.0068" x="413.69" y="646.0669">&#171;include&#187;</text></g><!--link EN5 to EN10--><g class="link" data-entity-1="ent0008" data-entity-2="ent0013" data-link-type="dependency" data-source-line="39" id="lnk32"><path d="M334.19,421.55 C351.79,395.19 380.39,356.84 412.69,331 C437.84,310.89 450.33,315.98 477.69,299 C497.16,286.92 513.6496,274.6584 529.9696,261.5684" fill="none" id="EN5-to-EN10" style="stroke:#000000;stroke-width:1;stroke-dasharray:7,7;"/><polygon fill="#000000" points="533.87,258.44,524.3466,260.9509,529.9696,261.5684,529.3521,267.1915,533.87,258.44" style="stroke:#000000;stroke-width:1;stroke-linejoin:miter;stroke-miterlimit:10;"/><text fill="#000000" font-family="Verdana" font-size="13" lengthAdjust="spacing" textLength="63.0068" x="413.69" y="295.0669">&#171;include&#187;</text></g><!--link EN5 to EN12--><g class="link" data-entity-1="ent0008" data-entity-2="ent0015" data-link-type="dependency" data-source-line="40" id="lnk33"><path d="M350.78,475.57 C361.13,482.99 372.44,491.23 382.69,499 C396.3,509.32 397.11,516.02 412.69,523 C446.67,538.22 483.5375,544.1719 514.9975,546.8119" fill="none" id="EN5-to-EN12" style="stroke:#000000;stroke-width:1;stroke-dasharray:7,7;"/><polygon fill="#000000" points="519.98,547.23,511.346,542.4914,514.9975,546.8119,510.677,550.4634,519.98,547.23" style="stroke:#000000;stroke-width:1;stroke-linejoin:miter;stroke-miterlimit:10;"/><text fill="#000000" font-family="Verdana" font-size="13" lengthAdjust="spacing" textLength="63.0068" x="413.69" y="519.0669">&#171;include&#187;</text></g><!--link EN5 to EN13--><g class="link" data-entity-1="ent0008" data-entity-2="ent0016" data-link-type="dependency" data-source-line="41" id="lnk34"><path d="M369.9,440.64 C414.66,432.07 472.6693,420.9706 515.1693,412.8306" fill="none" id="EN5-to-EN13" style="stroke:#000000;stroke-width:1;stroke-dasharray:7,7;"/><polygon fill="#000000" points="520.08,411.89,510.4882,409.6544,515.1693,412.8306,511.9931,417.5116,520.08,411.89" style="stroke:#000000;stroke-width:1;stroke-linejoin:miter;stroke-miterlimit:10;"/><text fill="#000000" font-family="Verdana" font-size="13" lengthAdjust="spacing" textLength="63.0068" x="413.69" y="417.3569">&#171;include&#187;</text></g><!--link EN5 to EN11--><g class="link" data-entity-1="ent0008" data-entity-2="ent0014" data-link-type="dependency" data-source-line="42" id="lnk35"><path d="M356.78,472.43 C366.78,479.57 376.39,488.45 382.69,499 C436.01,588.26 362.61,639.89 412.69,731 C414.57,734.42 485.5612,792.8026 530.1312,829.2926" fill="none" id="EN5-to-EN11" style="stroke:#000000;stroke-width:1;stroke-dasharray:7,7;"/><polygon fill="#000000" points="534,832.46,529.5701,823.6636,530.1312,829.2926,524.5023,829.8537,534,832.46" style="stroke:#000000;stroke-width:1;stroke-linejoin:miter;stroke-miterlimit:10;"/><text fill="#000000" font-family="Verdana" font-size="13" lengthAdjust="spacing" textLength="61.1851" x="414.69" y="727.0669">&#171;extend&#187;</text></g><!--link EN6 to EN1--><g class="link" data-entity-1="ent0009" data-entity-2="ent0004" data-link-type="dependency" data-source-line="43" id="lnk36"><path d="M324.01,267.21 C337.14,231.14 366.24,164.34 412.69,126 C440.95,102.67 475.1213,90.3102 506.7813,82.6202" fill="none" id="EN6-to-EN1" style="stroke:#000000;stroke-width:1;stroke-dasharray:7,7;"/><polygon fill="#000000" points="511.64,81.44,501.9502,79.6773,506.7813,82.6202,503.8384,87.4513,511.64,81.44" style="stroke:#000000;stroke-width:1;stroke-linejoin:miter;stroke-miterlimit:10;"/><text fill="#000000" font-family="Verdana" font-size="13" lengthAdjust="spacing" textLength="63.0068" x="413.69" y="88.5469">&#171;include&#187;</text></g><!--link EN6 to EN9--><g class="link" data-entity-1="ent0009" data-entity-2="ent0012" data-link-type="dependency" data-source-line="44" id="lnk37"><path d="M330.62,316.14 C344.3,338.55 365.1,372.89 382.69,403 C396.35,426.37 394.54,435.92 412.69,456 C436.43,482.25 457.04,473.26 477.69,502 C504.77,539.68 492.34,558.21 507.69,602 C521.07,640.16 536.6788,678.3964 549.1188,707.7464" fill="none" id="EN6-to-EN9" style="stroke:#000000;stroke-width:1;stroke-dasharray:7,7;"/><polygon fill="#000000" points="551.07,712.35,551.2407,702.5026,549.1188,707.7464,543.875,705.6246,551.07,712.35" style="stroke:#000000;stroke-width:1;stroke-linejoin:miter;stroke-miterlimit:10;"/><text fill="#000000" font-family="Verdana" font-size="13" lengthAdjust="spacing" textLength="63.0068" x="413.69" y="452.0669">&#171;include&#187;</text></g><!--link EN6 to EN10--><g class="link" data-entity-1="ent0009" data-entity-2="ent0013" data-link-type="dependency" data-source-line="45" id="lnk38"><path d="M325.45,267.47 C339.34,235.91 368.31,182.48 412.69,160 C438.46,146.95 450.43,150.44 477.69,160 C500.79,168.1 518.7155,181.5657 534.8055,196.8557" fill="none" id="EN6-to-EN10" style="stroke:#000000;stroke-width:1;stroke-dasharray:7,7;"/><polygon fill="#000000" points="538.43,200.3,534.6613,191.2007,534.8055,196.8557,529.1505,196.9999,538.43,200.3" style="stroke:#000000;stroke-width:1;stroke-linejoin:miter;stroke-miterlimit:10;"/><text fill="#000000" font-family="Verdana" font-size="13" lengthAdjust="spacing" textLength="63.0068" x="413.69" y="147.5369">&#171;include&#187;</text></g><!--link EN6 to EN12--><g class="link" data-entity-1="ent0009" data-entity-2="ent0015" data-link-type="dependency" data-source-line="46" id="lnk39"><path d="M347.94,313.59 C366.72,326.13 390.94,342.13 412.69,356 C441.29,374.24 454.87,370.91 477.69,396 C498.02,418.35 492.87,430.67 507.69,457 C519.32,477.65 530.8552,495.8873 542.4352,513.4273" fill="none" id="EN6-to-EN12" style="stroke:#000000;stroke-width:1;stroke-dasharray:7,7;"/><polygon fill="#000000" points="545.19,517.6,543.5695,507.8854,542.4352,513.4273,536.8932,512.2931,545.19,517.6" style="stroke:#000000;stroke-width:1;stroke-linejoin:miter;stroke-miterlimit:10;"/><text fill="#000000" font-family="Verdana" font-size="13" lengthAdjust="spacing" textLength="63.0068" x="413.69" y="352.0669">&#171;include&#187;</text></g><!--link EN6 to EN13--><g class="link" data-entity-1="ent0009" data-entity-2="ent0016" data-link-type="dependency" data-source-line="47" id="lnk40"><path d="M360.96,273.8 C394.94,263.12 441.65,255.05 477.69,274 C515.12,293.67 537.8274,332.4629 551.4674,363.4829" fill="none" id="EN6-to-EN13" style="stroke:#000000;stroke-width:1;stroke-dasharray:7,7;"/><polygon fill="#000000" points="553.48,368.06,553.519,358.2112,551.4674,363.4829,546.1957,361.4314,553.48,368.06" style="stroke:#000000;stroke-width:1;stroke-linejoin:miter;stroke-miterlimit:10;"/><text fill="#000000" font-family="Verdana" font-size="13" lengthAdjust="spacing" textLength="63.0068" x="413.69" y="258.6769">&#171;include&#187;</text></g><!--link EN7 to EN9--><g class="link" data-entity-1="ent0010" data-entity-2="ent0012" data-link-type="dependency" data-source-line="48" id="lnk41"><path d="M349.51,656.18 C361.8,667.09 374.65,680.84 382.69,696 C418.44,763.39 354.23,816 412.69,865 C434.83,883.56 453.12,880.19 477.69,865 C503.05,849.33 490.07,829.05 507.69,805 C515.17,794.79 520.9535,788.2532 530.0135,779.5532" fill="none" id="EN7-to-EN9" style="stroke:#000000;stroke-width:1;stroke-dasharray:7,7;"/><polygon fill="#000000" points="533.62,776.09,524.3578,779.4385,530.0135,779.5532,529.8989,785.2088,533.62,776.09" style="stroke:#000000;stroke-width:1;stroke-linejoin:miter;stroke-miterlimit:10;"/><text fill="#000000" font-family="Verdana" font-size="13" lengthAdjust="spacing" textLength="63.0068" x="413.69" y="861.0669">&#171;include&#187;</text></g><!--link EN7 to EN11--><g class="link" data-entity-1="ent0010" data-entity-2="ent0014" data-link-type="dependency" data-source-line="49" id="lnk42"><path d="M349.76,656.05 C362.09,666.94 374.89,680.71 382.69,696 C424.94,778.81 342.4,842.16 412.69,903 C446.5,932.26 494.4415,910.0711 528.4715,887.5311" fill="none" id="EN7-to-EN11" style="stroke:#000000;stroke-width:1;stroke-dasharray:7,7;"/><polygon fill="#000000" points="532.64,884.77,522.9278,886.4051,528.4715,887.5311,527.3455,893.0747,532.64,884.77" style="stroke:#000000;stroke-width:1;stroke-linejoin:miter;stroke-miterlimit:10;"/><text fill="#000000" font-family="Verdana" font-size="13" lengthAdjust="spacing" textLength="63.0068" x="413.69" y="899.0669">&#171;include&#187;</text></g><!--link EN7 to EN12--><g class="link" data-entity-1="ent0010" data-entity-2="ent0015" data-link-type="dependency" data-source-line="50" id="lnk43"><path d="M373.2,629.57 C404.89,627.23 444.44,621.69 477.69,609 C498.55,601.04 515.3848,590.3796 531.6048,578.0896" fill="none" id="EN7-to-EN12" style="stroke:#000000;stroke-width:1;stroke-dasharray:7,7;"/><polygon fill="#000000" points="535.59,575.07,526.0009,577.3171,531.6048,578.0896,530.8323,583.6935,535.59,575.07" style="stroke:#000000;stroke-width:1;stroke-linejoin:miter;stroke-miterlimit:10;"/><text fill="#000000" font-family="Verdana" font-size="13" lengthAdjust="spacing" textLength="63.0068" x="413.69" y="605.0669">&#171;include&#187;</text></g><!--link EN8 to EN9--><g class="link" data-entity-1="ent0011" data-entity-2="ent0012" data-link-type="dependency" data-source-line="51" id="lnk44"><path d="M358.43,559.95 C367.79,566.02 376.69,573.66 382.69,583 C437.24,667.86 336.79,741.54 412.69,808 C448.27,839.15 498.0418,808.4244 531.6518,780.3644" fill="none" id="EN8-to-EN9" style="stroke:#000000;stroke-width:1;stroke-dasharray:7,7;"/><polygon fill="#000000" points="535.49,777.16,526.0177,779.8574,531.6518,780.3644,531.1448,785.9985,535.49,777.16" style="stroke:#000000;stroke-width:1;stroke-linejoin:miter;stroke-miterlimit:10;"/><text fill="#000000" font-family="Verdana" font-size="13" lengthAdjust="spacing" textLength="63.0068" x="413.69" y="804.0669">&#171;include&#187;</text></g><!--link EN8 to EN12--><g class="link" data-entity-1="ent0011" data-entity-2="ent0015" data-link-type="dependency" data-source-line="52" id="lnk45"><path d="M355.3,560.88 C372.47,568.47 393.11,576.21 412.69,580 C441.05,585.49 449.21,584.83 477.69,580 C493.95,577.24 506.5123,573.5794 521.4423,568.0394" fill="none" id="EN8-to-EN12" style="stroke:#000000;stroke-width:1;stroke-dasharray:7,7;"/><polygon fill="#000000" points="526.13,566.3,516.3006,565.6808,521.4423,568.0394,519.0837,573.1811,526.13,566.3" style="stroke:#000000;stroke-width:1;stroke-linejoin:miter;stroke-miterlimit:10;"/><text fill="#000000" font-family="Verdana" font-size="13" lengthAdjust="spacing" textLength="63.0068" x="413.69" y="576.0669">&#171;include&#187;</text></g><?plantuml-src TLDTRz9G6BxlhpXofHUTj8K2PY4HH6FC5kEYLxrfod4Gws61afWOasr6G2M2o6BcJ8084Kq69YEPWScluRJbNtZeHxQESowVz_aup-bxUiF8mPSGxEbg7d4wV6u0em2A-TsS0RBv8jICV05ndAePXI88vLIKrM5ArLwKznHq6xZu2ImH5eQ0MWAQgkkmwEkjzj2idJj4kKJ6t2fGHRiw127yeOl75NpQjCvcrgmJ0gyvi59fQecmJzDyPfiF2mfQxhytF_vorTRegtbsvEHbjWMANbGG_lnlCUlRlJfk79f7VnHaDfgB-SdAtJtmh2B5AYbeCUqlfYryqR3dN_2xGS0YKImH1LczaJtgkyh5ttsxEl7q4Oe-gg2xcHrUZChyW_GMgUfSoZD4AGPPGJjR4JwTIeE0LgPeOzV2xPy_BWqnYY5-6HxGnYdQ12axhYnR0tCojzeT1Tryd7fqxxvuo_CarZr2c7oTTiUiDPVV6kRtAJbDrGs0MtNmy9c_mZ35HtPkTdlBttNWtcFKjyS7PhTgdSvz6sNrmchrvmFywH3NJl1iwdzTV3pqNPIj2sJhk7ACgrDNJL1_idmxDBiNv1duHebxmt7komOydtJUNW16Wr0EmbWGnhdLl-01yIgGhe88nn4QR3Zvu0xOt8Il38YooIIPIunvX37tScACdBLv56muXE0GUQJfvImCC0ac8uJPbCYc91hbCCBrTZApdSni9xFRoUnsChjTZ7cKpmW2cre_AixCYpDC_m40?></g></svg>