<svg xmlns="http://www.w3.org/2000/svg" xmlns:xlink="http://www.w3.org/1999/xlink" contentStyleType="text/css" data-diagram-type="DESCRIPTION" height="982px" preserveAspectRatio="none" style="width:620px;height:982px;background:#FFFFFF;" version="1.1" viewBox="0 0 620 982" width="620px" zoomAndPan="magnify"><?plantuml 1.2026.6?><defs/><g><!--cluster ?????????--><g class="cluster" data-qualified-name="........." data-source-line="8" id="ent0004"><rect fill="#FFFFFF" height="901" rx="2.5" ry="2.5" style="stroke:#000000;stroke-width:1;" width="446.04" x="160.04" y="67.63"/><text fill="#000000" font-family="Verdana" font-size="14" font-weight="700" lengthAdjust="spacing" textLength="125.9995" x="320.0603" y="82.6251">&#25991;&#20214;&#31995;&#32479;&#25277;&#35937;&#23376;&#31995;&#32479;</text></g><!--entity FS1--><g class="entity" data-qualified-name="..........FS1" data-source-line="9" id="ent0005"><ellipse cx="252.9442" cy="243.6301" fill="#FFFFFF" rx="67.6142" ry="24.4901" style="stroke:#000000;stroke-width:1;"/><text fill="#000000" font-family="Verdana" font-size="14" lengthAdjust="spacing" textLength="64.8799" x="220.5042" y="237.8416">UC-FS-01</text><text fill="#000000" font-family="Verdana" font-size="14" lengthAdjust="spacing" textLength="97.9996" x="203.9444" y="254.1385">&#36882;&#24402;&#36941;&#21382;&#30446;&#24405;&#26641;</text></g><!--entity FS2--><g class="entity" data-qualified-name="..........FS2" data-source-line="10" id="ent0006"><ellipse cx="252.9409" cy="842.6259" fill="#FFFFFF" rx="59.4809" ry="24.9159" style="stroke:#000000;stroke-width:1;"/><text fill="#000000" font-family="Verdana" font-size="14" lengthAdjust="spacing" textLength="64.8799" x="220.501" y="837.4822">UC-FS-02</text><text fill="#000000" font-family="Verdana" font-size="14" lengthAdjust="spacing" textLength="83.9996" x="210.9411" y="853.7791">&#35835;&#21462;&#25991;&#20214;&#20869;&#23481;</text></g><!--entity FS3--><g class="entity" data-qualified-name="..........FS3" data-source-line="11" id="ent0007"><ellipse cx="252.9409" cy="927.6259" fill="#FFFFFF" rx="59.4809" ry="24.9159" style="stroke:#000000;stroke-width:1;"/><text fill="#000000" font-family="Verdana" font-size="14" lengthAdjust="spacing" textLength="64.8799" x="220.501" y="922.4822">UC-FS-03</text><text fill="#000000" font-family="Verdana" font-size="14" lengthAdjust="spacing" textLength="83.9996" x="210.9411" y="938.7791">&#20889;&#20837;&#24120;&#35268;&#25991;&#20214;</text></g><!--entity FS4--><g class="entity" data-qualified-name="..........FS4" data-source-line="12" id="ent0008"><ellipse cx="252.9387" cy="455.6271" fill="#FFFFFF" rx="47.4387" ry="36.4871" style="stroke:#000000;stroke-width:1;"/><text fill="#000000" font-family="Verdana" font-size="14" lengthAdjust="spacing" textLength="64.8799" x="220.4988" y="445.537">UC-FS-04</text><text fill="#000000" font-family="Verdana" font-size="14" lengthAdjust="spacing" textLength="55.9998" x="224.9388" y="461.8339">&#21019;&#24314;&#30446;&#24405;</text><text fill="#000000" font-family="Verdana" font-size="14" lengthAdjust="spacing" textLength="55.9998" x="224.9388" y="478.1308">&#21547;&#29238;&#30446;&#24405;</text></g><!--entity FS5--><g class="entity" data-qualified-name="..........FS5" data-source-line="13" id="ent0009"><ellipse cx="252.9409" cy="551.6259" fill="#FFFFFF" rx="59.4809" ry="24.9159" style="stroke:#000000;stroke-width:1;"/><text fill="#000000" font-family="Verdana" font-size="14" lengthAdjust="spacing" textLength="64.8799" x="220.501" y="546.4822">UC-FS-05</text><text fill="#000000" font-family="Verdana" font-size="14" lengthAdjust="spacing" textLength="83.9996" x="210.9411" y="562.7791">&#21019;&#24314;&#31526;&#21495;&#38142;&#25509;</text></g><!--entity FS6--><g class="entity" data-qualified-name="..........FS6" data-source-line="14" id="ent0010"><ellipse cx="252.9355" cy="643.6304" fill="#FFFFFF" rx="53.2555" ry="32.2504" style="stroke:#000000;stroke-width:1;"/><text fill="#000000" font-family="Verdana" font-size="14" lengthAdjust="spacing" textLength="64.8799" x="220.4955" y="634.087">UC-FS-06</text><text fill="#000000" font-family="Verdana" font-size="14" lengthAdjust="spacing" textLength="83.9996" x="210.9356" y="650.3839">&#21019;&#24314;&#21629;&#21517;&#31649;&#36947;</text><text fill="#000000" font-family="Verdana" font-size="14" lengthAdjust="spacing" textLength="42.1777" x="231.8466" y="666.6807">(FIFO)</text></g><!--entity FS7--><g class="entity" data-qualified-name="..........FS7" data-source-line="15" id="ent0011"><ellipse cx="252.9415" cy="746.6306" fill="#FFFFFF" rx="59.0115" ry="35.6006" style="stroke:#000000;stroke-width:1;"/><text fill="#000000" font-family="Verdana" font-size="14" lengthAdjust="spacing" textLength="64.8799" x="220.5016" y="732.8511">UC-FS-07</text><text fill="#000000" font-family="Verdana" font-size="14" lengthAdjust="spacing" textLength="83.9996" x="210.9417" y="749.148">&#21019;&#24314;&#35774;&#22791;&#33410;&#28857;</text><text fill="#000000" font-family="Verdana" font-size="14" lengthAdjust="spacing" textLength="81.6689" x="212.1071" y="765.4449">block / char</text></g><!--entity FS8--><g class="entity" data-qualified-name="..........FS8" data-source-line="16" id="ent0012"><ellipse cx="522.4639" cy="241.6274" fill="#FFFFFF" rx="65.8539" ry="35.3474" style="stroke:#000000;stroke-width:1;"/><text fill="#000000" font-family="Verdana" font-size="14" lengthAdjust="spacing" textLength="64.8799" x="490.024" y="226.7181">UC-FS-08</text><text fill="#000000" font-family="Verdana" font-size="14" lengthAdjust="spacing" textLength="83.9996" x="480.4641" y="243.015">&#26816;&#27979;&#25991;&#20214;&#31867;&#22411;</text><text fill="#000000" font-family="Verdana" font-size="14" lengthAdjust="spacing" textLength="94.9988" x="474.9645" y="259.3119">lstat &#21306;&#20998; 7 &#31181;</text></g><!--entity FS9--><g class="entity" data-qualified-name="..........FS9" data-source-line="17" id="ent0013"><ellipse cx="522.4642" cy="135.6301" fill="#FFFFFF" rx="67.6142" ry="24.4901" style="stroke:#000000;stroke-width:1;"/><text fill="#000000" font-family="Verdana" font-size="14" lengthAdjust="spacing" textLength="64.8799" x="490.0242" y="129.8416">UC-FS-09</text><text fill="#000000" font-family="Verdana" font-size="14" lengthAdjust="spacing" textLength="97.9996" x="473.4644" y="146.1385">&#35835;&#21462;&#25991;&#20214;&#20803;&#25968;&#25454;</text></g><!--entity FS10--><g class="entity" data-qualified-name="..........FS10" data-source-line="18" id="ent0014"><ellipse cx="252.9446" cy="343.6256" fill="#FFFFFF" rx="76.9046" ry="40.7156" style="stroke:#000000;stroke-width:1;"/><text fill="#000000" font-family="Verdana" font-size="14" lengthAdjust="spacing" textLength="64.8799" x="220.5046" y="322.5345">UC-FS-10</text><text fill="#000000" font-family="Verdana" font-size="14" lengthAdjust="spacing" textLength="97.9996" x="203.9448" y="338.8313">&#24674;&#22797;&#25991;&#20214;&#20803;&#25968;&#25454;</text><text fill="#000000" font-family="Verdana" font-size="14" lengthAdjust="spacing" textLength="127.7363" x="189.0764" y="355.1282">lchown+fchmodat</text><text fill="#000000" font-family="Verdana" font-size="14" lengthAdjust="spacing" textLength="82.4688" x="211.7102" y="371.4251">+utimensat</text></g><!--entity FS11--><g class="entity" data-qualified-name="..........FS11" data-source-line="19" id="ent0015"><ellipse cx="522.464" cy="347.6315" fill="#FFFFFF" rx="49.334" ry="35.3615" style="stroke:#000000;stroke-width:1;"/><text fill="#000000" font-family="Verdana" font-size="14" lengthAdjust="spacing" textLength="64.8799" x="490.024" y="337.3219">UC-FS-11</text><text fill="#000000" font-family="Verdana" font-size="14" lengthAdjust="spacing" textLength="69.9997" x="487.4641" y="353.6187">&#26816;&#27979;&#26159;&#21542;&#21487;</text><text fill="#000000" font-family="Verdana" font-size="14" lengthAdjust="spacing" textLength="55.9998" x="494.4641" y="369.9156">&#24674;&#22797;&#23646;&#20027;</text></g><!--entity FS12--><g class="entity" data-qualified-name="..........FS12" data-source-line="20" id="ent0016"><ellipse cx="252.9421" cy="143.635" fill="#FFFFFF" rx="67.3021" ry="40.545" style="stroke:#000000;stroke-width:1;"/><text fill="#000000" font-family="Verdana" font-size="14" lengthAdjust="spacing" textLength="64.8799" x="220.5021" y="124.0149">UC-FS-12</text><text fill="#000000" font-family="Verdana" font-size="14" lengthAdjust="spacing" textLength="83.9996" x="210.9422" y="140.3118">&#36335;&#24452;&#26144;&#23556;&#36716;&#25442;</text><text fill="#000000" font-family="Verdana" font-size="14" lengthAdjust="spacing" textLength="111.6445" x="197.1198" y="156.6087">source&#8596;relative</text><text fill="#000000" font-family="Verdana" font-size="14" lengthAdjust="spacing" textLength="62.7607" x="221.5617" y="172.9056">&#8596;backup</text></g><!--entity be--><g class="entity" data-qualified-name="be" data-source-line="4" id="ent0001"><ellipse cx="62.0247" cy="347.98" fill="#FFFFFF" rx="8" ry="8" style="stroke:#000000;stroke-width:1;"/><path d="M62.0247,355.98 L62.0247,382.98 M49.0247,363.98 L75.0247,363.98 M62.0247,382.98 L49.0247,397.98 M62.0247,382.98 L75.0247,397.98" fill="none" style="stroke:#000000;stroke-width:1;"/><text fill="#000000" font-family="Verdana" font-size="14" lengthAdjust="spacing" textLength="99.7295" x="12.16" y="412.9751">BackupEngine</text></g><!--entity re--><g class="entity" data-qualified-name="re" data-source-line="5" id="ent0002"><ellipse cx="62.02" cy="552.98" fill="#FFFFFF" rx="8" ry="8" style="stroke:#000000;stroke-width:1;"/><path d="M62.02,560.98 L62.02,587.98 M49.02,568.98 L75.02,568.98 M62.02,587.98 L49.02,602.98 M62.02,587.98 L75.02,602.98" fill="none" style="stroke:#000000;stroke-width:1;"/><text fill="#000000" font-family="Verdana" font-size="14" lengthAdjust="spacing" textLength="102.04" x="11" y="617.9751">RestoreEngine</text></g><!--entity pack--><g class="entity" data-qualified-name="pack" data-source-line="6" id="ent0003"><ellipse cx="62.0177" cy="839.98" fill="#FFFFFF" rx="8" ry="8" style="stroke:#000000;stroke-width:1;"/><path d="M62.0177,847.98 L62.0177,874.98 M49.0177,855.98 L75.0177,855.98 M62.0177,874.98 L49.0177,889.98 M62.0177,874.98 L75.0177,889.98" fill="none" style="stroke:#000000;stroke-width:1;"/><text fill="#000000" font-family="Verdana" font-size="14" lengthAdjust="spacing" textLength="47.1953" x="38.42" y="904.9751">Packer</text></g><!--link be to FS1--><g class="link" data-entity-1="ent0001" data-entity-2="ent0005" data-link-type="dependency" data-source-line="23" id="lnk17"><path d="M94.27,338.7 C110.14,320.79 130.58,300.31 152.04,285.63 C167.18,275.27 180.6363,268.5636 197.2463,261.9336" fill="none" id="be-to-FS1" style="stroke:#000000;stroke-width:1;"/><polygon fill="#000000" points="201.89,260.08,192.0484,259.7015,197.2463,261.9336,195.0141,267.1314,201.89,260.08" style="stroke:#000000;stroke-width:1;stroke-linejoin:miter;stroke-miterlimit:10;"/></g><!--link be to FS2--><g class="link" data-entity-1="ent0001" data-entity-2="ent0006" data-link-type="dependency" data-source-line="24" id="lnk18"><path d="M78.27,416.59 C89.38,446.33 104,488.53 113.04,526.63 C116.58,541.54 142.73,787.46 152.04,799.63 C163.69,814.85 177.1018,823.0491 194.7318,829.4691" fill="none" id="be-to-FS2" style="stroke:#000000;stroke-width:1;"/><polygon fill="#000000" points="199.43,831.18,192.3419,824.3419,194.7318,829.4691,189.6046,831.859,199.43,831.18" style="stroke:#000000;stroke-width:1;stroke-linejoin:miter;stroke-miterlimit:10;"/></g><!--link be to FS4--><g class="link" data-entity-1="ent0001" data-entity-2="ent0008" data-link-type="dependency" data-source-line="25" id="lnk19"><path d="M112.16,397.92 C142.78,410.56 177.0888,424.721 206.0888,436.701" fill="none" id="be-to-FS4" style="stroke:#000000;stroke-width:1;"/><polygon fill="#000000" points="210.71,438.61,203.9191,431.4768,206.0888,436.701,200.8646,438.8707,210.71,438.61" style="stroke:#000000;stroke-width:1;stroke-linejoin:miter;stroke-miterlimit:10;"/></g><!--link be to FS5--><g class="link" data-entity-1="ent0001" data-entity-2="ent0009" data-link-type="dependency" data-source-line="26" id="lnk20"><path d="M81.41,416.51 C96.79,445.49 121.18,484.28 152.04,509.63 C166.87,521.81 181.0662,529.1737 198.4062,535.7637" fill="none" id="be-to-FS5" style="stroke:#000000;stroke-width:1;"/><polygon fill="#000000" points="203.08,537.54,196.0881,530.6036,198.4062,535.7637,193.2461,538.0818,203.08,537.54" style="stroke:#000000;stroke-width:1;stroke-linejoin:miter;stroke-miterlimit:10;"/></g><!--link be to FS6--><g class="link" data-entity-1="ent0001" data-entity-2="ent0010" data-link-type="dependency" data-source-line="27" id="lnk21"><path d="M75.33,416.37 C93.27,470.97 127.19,566.89 152.04,593.63 C166.5,609.19 182.2735,618.6122 200.8435,626.5622" fill="none" id="be-to-FS6" style="stroke:#000000;stroke-width:1;"/><polygon fill="#000000" points="205.44,628.53,198.7406,621.3108,200.8435,626.5622,195.5921,628.6651,205.44,628.53" style="stroke:#000000;stroke-width:1;stroke-linejoin:miter;stroke-miterlimit:10;"/></g><!--link be to FS7--><g class="link" data-entity-1="ent0001" data-entity-2="ent0011" data-link-type="dependency" data-source-line="28" id="lnk22"><path d="M77.2,416.53 C87.82,446.41 102.31,488.83 113.04,526.63 C123.45,563.29 128.79,663.44 152.04,693.63 C164.38,709.65 178.4251,719.2542 196.2351,727.5242" fill="none" id="be-to-FS7" style="stroke:#000000;stroke-width:1;"/><polygon fill="#000000" points="200.77,729.63,194.2917,722.2116,196.2351,727.5242,190.9225,729.4675,200.77,729.63" style="stroke:#000000;stroke-width:1;stroke-linejoin:miter;stroke-miterlimit:10;"/></g><!--link be to FS9--><g class="link" data-entity-1="ent0001" data-entity-2="ent0013" data-link-type="dependency" data-source-line="29" id="lnk23"><path d="M69.12,338.53 C81.29,266.19 110.99,116.03 152.04,85.63 C252.81,11 408.2052,75.6901 479.9852,112.6701" fill="none" id="be-to-FS9" style="stroke:#000000;stroke-width:1;"/><polygon fill="#000000" points="484.43,114.96,478.2613,107.2823,479.9852,112.6701,474.5974,114.394,484.43,114.96" style="stroke:#000000;stroke-width:1;stroke-linejoin:miter;stroke-miterlimit:10;"/></g><!--link be to FS10--><g class="link" data-entity-1="ent0001" data-entity-2="ent0014" data-link-type="dependency" data-source-line="30" id="lnk24"><path d="M112.04,359.65 C122.18,356.52 132.86,353.63 143.04,351.63 C153.64,349.55 159.9464,348.5134 171.0864,347.3634" fill="none" id="be-to-FS10" style="stroke:#000000;stroke-width:1;"/><polygon fill="#000000" points="176.06,346.85,166.6968,343.7953,171.0864,347.3634,167.5183,351.753,176.06,346.85" style="stroke:#000000;stroke-width:1;stroke-linejoin:miter;stroke-miterlimit:10;"/></g><!--link be to FS12--><g class="link" data-entity-1="ent0001" data-entity-2="ent0016" data-link-type="dependency" data-source-line="31" id="lnk25"><path d="M75.32,338.75 C89.06,300.26 114.43,241.47 152.04,201.63 C164.98,187.92 177.5209,178.8912 193.7309,169.8712" fill="none" id="be-to-FS12" style="stroke:#000000;stroke-width:1;"/><polygon fill="#000000" points="198.1,167.44,188.2906,168.3208,193.7309,169.8712,192.1805,175.3114,198.1,167.44" style="stroke:#000000;stroke-width:1;stroke-linejoin:miter;stroke-miterlimit:10;"/></g><!--link re to FS1--><g class="link" data-entity-1="ent0002" data-entity-2="ent0005" data-link-type="dependency" data-source-line="32" id="lnk26"><path d="M76.9,543.64 C87.36,513.71 101.78,471.27 113.04,433.63 C132.54,368.46 107.43,336.98 152.04,285.63 C163.45,272.49 175.0057,265.1869 191.0557,258.8869" fill="none" id="re-to-FS1" style="stroke:#000000;stroke-width:1;"/><polygon fill="#000000" points="195.71,257.06,185.8708,256.625,191.0557,258.8869,188.7938,264.0719,195.71,257.06" style="stroke:#000000;stroke-width:1;stroke-linejoin:miter;stroke-miterlimit:10;"/></g><!--link re to FS2--><g class="link" data-entity-1="ent0002" data-entity-2="ent0006" data-link-type="dependency" data-source-line="33" id="lnk27"><path d="M69.71,621.67 C79.77,669.36 103.08,749.83 152.04,799.63 C165.54,813.37 179.4617,821.2156 196.9617,827.8156" fill="none" id="re-to-FS2" style="stroke:#000000;stroke-width:1;"/><polygon fill="#000000" points="201.64,829.58,194.6305,822.6614,196.9617,827.8156,191.8075,830.1467,201.64,829.58" style="stroke:#000000;stroke-width:1;stroke-linejoin:miter;stroke-miterlimit:10;"/></g><!--link re to FS3--><g class="link" data-entity-1="ent0002" data-entity-2="ent0007" data-link-type="dependency" data-source-line="34" id="lnk28"><path d="M70.24,621.61 C84.3,693.95 117.09,845.22 152.04,884.63 C164.82,899.04 178.592,907.0513 196.172,913.5713" fill="none" id="re-to-FS3" style="stroke:#000000;stroke-width:1;"/><polygon fill="#000000" points="200.86,915.31,193.8126,908.43,196.172,913.5713,191.0307,915.9308,200.86,915.31" style="stroke:#000000;stroke-width:1;stroke-linejoin:miter;stroke-miterlimit:10;"/></g><!--link re to FS4--><g class="link" data-entity-1="ent0002" data-entity-2="ent0008" data-link-type="dependency" data-source-line="35" id="lnk29"><path d="M107.02,543.76 C120.98,532.19 136.77,519.88 152.04,509.63 C171.19,496.77 189.2627,486.6751 208.0627,477.0151" fill="none" id="re-to-FS4" style="stroke:#000000;stroke-width:1;"/><polygon fill="#000000" points="212.51,474.73,202.6768,475.2854,208.0627,477.0151,206.333,482.4011,212.51,474.73" style="stroke:#000000;stroke-width:1;stroke-linejoin:miter;stroke-miterlimit:10;"/></g><!--link re to FS5--><g class="link" data-entity-1="ent0002" data-entity-2="ent0009" data-link-type="dependency" data-source-line="36" id="lnk30"><path d="M113.15,574.4 C138.95,570.17 165.5159,565.809 191.9859,561.469" fill="none" id="re-to-FS5" style="stroke:#000000;stroke-width:1;"/><polygon fill="#000000" points="196.92,560.66,187.3914,558.1689,191.9859,561.469,188.6858,566.0635,196.92,560.66" style="stroke:#000000;stroke-width:1;stroke-linejoin:miter;stroke-miterlimit:10;"/></g><!--link re to FS6--><g class="link" data-entity-1="ent0002" data-entity-2="ent0010" data-link-type="dependency" data-source-line="37" id="lnk31"><path d="M113.15,598.82 C141.79,608.06 172.7123,618.0423 200.7123,627.0923" fill="none" id="re-to-FS6" style="stroke:#000000;stroke-width:1;"/><polygon fill="#000000" points="205.47,628.63,198.1364,622.0559,200.7123,627.0923,195.676,629.6682,205.47,628.63" style="stroke:#000000;stroke-width:1;stroke-linejoin:miter;stroke-miterlimit:10;"/></g><!--link re to FS7--><g class="link" data-entity-1="ent0002" data-entity-2="ent0011" data-link-type="dependency" data-source-line="38" id="lnk32"><path d="M88.32,621.69 C104.56,644.63 127.2,673.08 152.04,693.63 C167.54,706.46 182.1748,715.2801 199.5148,723.9201" fill="none" id="re-to-FS7" style="stroke:#000000;stroke-width:1;"/><polygon fill="#000000" points="203.99,726.15,197.7185,718.556,199.5148,723.9201,194.1507,725.7164,203.99,726.15" style="stroke:#000000;stroke-width:1;stroke-linejoin:miter;stroke-miterlimit:10;"/></g><!--link re to FS10--><g class="link" data-entity-1="ent0002" data-entity-2="ent0014" data-link-type="dependency" data-source-line="39" id="lnk33"><path d="M74.68,543.75 C88.12,504.19 113.45,442.97 152.04,401.63 C163.74,389.09 174.4447,380.9683 189.2747,372.3683" fill="none" id="re-to-FS10" style="stroke:#000000;stroke-width:1;"/><polygon fill="#000000" points="193.6,369.86,183.8078,370.9146,189.2747,372.3683,187.821,377.8352,193.6,369.86" style="stroke:#000000;stroke-width:1;stroke-linejoin:miter;stroke-miterlimit:10;"/></g><!--link re to FS12--><g class="link" data-entity-1="ent0002" data-entity-2="ent0016" data-link-type="dependency" data-source-line="40" id="lnk34"><path d="M78,543.6 C88.97,513.83 103.53,471.62 113.04,433.63 C119.39,408.27 137.16,223.12 152.04,201.63 C162.77,186.13 174.6979,176.5794 191.0579,167.6794" fill="none" id="re-to-FS12" style="stroke:#000000;stroke-width:1;"/><polygon fill="#000000" points="195.45,165.29,185.6326,166.0771,191.0579,167.6794,189.4556,173.1046,195.45,165.29" style="stroke:#000000;stroke-width:1;stroke-linejoin:miter;stroke-miterlimit:10;"/></g><!--link pack to FS2--><g class="link" data-entity-1="ent0003" data-entity-2="ent0006" data-link-type="dependency" data-source-line="41" id="lnk35"><path d="M85.81,866.37 C112.99,862.49 154.4403,856.5675 191.3103,851.2975" fill="none" id="pack-to-FS2" style="stroke:#000000;stroke-width:1;"/><polygon fill="#000000" points="196.26,850.59,186.7846,847.9037,191.3103,851.2975,187.9165,855.8232,196.26,850.59" style="stroke:#000000;stroke-width:1;stroke-linejoin:miter;stroke-miterlimit:10;"/></g><!--link FS1 to FS8--><g class="link" data-entity-1="ent0005" data-entity-2="ent0012" data-link-type="dependency" data-source-line="43" id="lnk36"><path d="M320.76,243.13 C362.24,242.82 410.2801,242.4565 451.4201,242.1565" fill="none" id="FS1-to-FS8" style="stroke:#000000;stroke-width:1;stroke-dasharray:7,7;"/><polygon fill="#000000" points="456.42,242.12,447.3911,238.1857,451.4201,242.1565,447.4494,246.1855,456.42,242.12" style="stroke:#000000;stroke-width:1;stroke-linejoin:miter;stroke-miterlimit:10;"/><text fill="#000000" font-family="Verdana" font-size="13" lengthAdjust="spacing" textLength="63.0068" x="360.85" y="238.4569">&#171;include&#187;</text></g><!--link FS1 to FS9--><g class="link" data-entity-1="ent0005" data-entity-2="ent0013" data-link-type="dependency" data-source-line="44" id="lnk37"><path d="M299.02,225.43 C348.31,205.53 422.2037,175.702 471.5637,155.772" fill="none" id="FS1-to-FS9" style="stroke:#000000;stroke-width:1;stroke-dasharray:7,7;"/><polygon fill="#000000" points="476.2,153.9,466.357,153.5605,471.5637,155.772,469.3522,160.9787,476.2,153.9" style="stroke:#000000;stroke-width:1;stroke-linejoin:miter;stroke-miterlimit:10;"/><text fill="#000000" font-family="Verdana" font-size="13" lengthAdjust="spacing" textLength="63.0068" x="360.85" y="172.8469">&#171;include&#187;</text></g><!--link FS10 to FS11--><g class="link" data-entity-1="ent0014" data-entity-2="ent0015" data-link-type="dependency" data-source-line="45" id="lnk38"><path d="M330.25,344.77 C376.11,345.46 428.1105,346.2359 467.8905,346.8259" fill="none" id="FS10-to-FS11" style="stroke:#000000;stroke-width:1;stroke-dasharray:7,7;"/><polygon fill="#000000" points="472.89,346.9,463.9503,342.767,467.8905,346.8259,463.8317,350.7661,472.89,346.9" style="stroke:#000000;stroke-width:1;stroke-linejoin:miter;stroke-miterlimit:10;"/><text fill="#000000" font-family="Verdana" font-size="13" lengthAdjust="spacing" textLength="63.0068" x="360.85" y="341.3369">&#171;include&#187;</text></g><?plantuml-src RPFDJjj058NtVeffLgrGgEtyLoYBLetKLQiYTjuupf1OEEF8Tjf5LOdG94HGGu22g90eK2YBqeIeAWIiv64gndRUefF4VmMlVExSyvrhUsOUQILOXg0YyIAY9BYe0Kq6YbWiQQ0WAb3GH1bH52zeiW8YptbXgLfvYOeYWX70go0FtTPRg98d3FGKh_U6O52PB5Q8fAXnBe-A4WGHSs_rphYoVXkMySrS6zYzO_ohFIqZu0C5G5M50gyIvyABQ6u-IZCS6Yrluy7sgARZZQPrqC63NVDeQnAVcsT249P3TjV0ctlJORZPm9qRny-6-6CSmislk766-ttxl3wb77yin1yd_jO1DcwdBqEgza-hTJMj72uUmYKyxk87thmUxGpDZJF7dmZn9rq_tXhWjcvrZaUr7GuzphtAlNxYSCaGBkLoTcU8JrVjjHLhvOP3UKaMbi1J89HunQ5J8NIQG-RtPVFFkhDLFGCVhdD8KZLU0_ZpBMurGGfOvxgJaGx9oDpRWSOdS_VIr3iEadc8C3GPMpl1f_ezX4mMIl9xDBCebCfoWTSuD5FLn394Ag-vXu0E2MIyxzZluZRvuLrt0kuTtlKDbmqvGSpu15rtyR1kxX_Xoxezk33r4mwfSbKHuD_c5mLAl2Q-WnmYHNvoIzmublf8KNa8ej7iv7XwalLbt9S9NoPzcV9b9X161pHBRfKtHF67U3BcoxWl4xvC-Z8L2AC3cgN65zZBfiWIc9qT5sdm3CpDYKYGgWMOpGOwcOSTscanpF-zVm00?></g></svg>