<svg xmlns="http://www.w3.org/2000/svg" xmlns:xlink="http://www.w3.org/1999/xlink" contentStyleType="text/css" data-diagram-type="DESCRIPTION" height="454px" preserveAspectRatio="none" style="width:565px;height:454px;background:#FFFFFF;" version="1.1" viewBox="0 0 565 454" width="565px" zoomAndPan="magnify"><?plantuml 1.2026.6?><defs/><g><!--cluster Backer ??--><g class="cluster" data-qualified-name="Backer .." data-source-line="5" id="ent0002"><rect fill="#FFFFFF" height="293" rx="2.5" ry="2.5" style="stroke:#000000;stroke-width:1;" width="465.17" x="85.9999" y="12"/><text fill="#000000" font-family="Verdana" font-size="14" font-weight="700" lengthAdjust="spacing" textLength="87.0009" x="275.0845" y="26.9951">Backer &#31995;&#32479;</text></g><!--entity UC1--><g class="entity" data-qualified-name="Backer ...UC1" data-source-line="6" id="ent0003"><ellipse cx="458.1322" cy="177.9976" fill="#FFFFFF" rx="77.0423" ry="24.5476" style="stroke:#000000;stroke-width:1;"/><text fill="#000000" font-family="Verdana" font-size="14" lengthAdjust="spacing" textLength="75.9541" x="420.1552" y="172.2971">UC-TOP-01</text><text fill="#000000" font-family="Verdana" font-size="14" lengthAdjust="spacing" textLength="111.9995" x="402.1325" y="188.594">&#25191;&#34892;&#30446;&#24405;&#38236;&#20687;&#22791;&#20221;</text></g><!--entity UC2--><g class="entity" data-qualified-name="Backer ...UC2" data-source-line="7" id="ent0004"><ellipse cx="179.0422" cy="71.9976" fill="#FFFFFF" rx="77.0423" ry="24.5476" style="stroke:#000000;stroke-width:1;"/><text fill="#000000" font-family="Verdana" font-size="14" lengthAdjust="spacing" textLength="75.9541" x="141.0652" y="66.2971">UC-TOP-02</text><text fill="#000000" font-family="Verdana" font-size="14" lengthAdjust="spacing" textLength="111.9995" x="123.0425" y="82.594">&#25191;&#34892;&#25171;&#21253;&#24402;&#26723;&#22791;&#20221;</text></g><!--entity UC3--><g class="entity" data-qualified-name="Backer ...UC3" data-source-line="8" id="ent0005"><ellipse cx="458.1283" cy="262.9979" fill="#FFFFFF" rx="61.0584" ry="25.5279" style="stroke:#000000;stroke-width:1;"/><text fill="#000000" font-family="Verdana" font-size="14" lengthAdjust="spacing" textLength="75.9541" x="420.1512" y="258.7549">UC-TOP-03</text><text fill="#000000" font-family="Verdana" font-size="14" lengthAdjust="spacing" textLength="83.9996" x="416.1285" y="275.0517">&#25191;&#34892;&#36824;&#21407;&#25805;&#20316;</text></g><!--entity UC4--><g class="entity" data-qualified-name="Backer ...UC4" data-source-line="9" id="ent0006"><ellipse cx="179.0422" cy="155.9976" fill="#FFFFFF" rx="77.0423" ry="24.5476" style="stroke:#000000;stroke-width:1;"/><text fill="#000000" font-family="Verdana" font-size="14" lengthAdjust="spacing" textLength="75.9541" x="141.0652" y="150.2971">UC-TOP-04</text><text fill="#000000" font-family="Verdana" font-size="14" lengthAdjust="spacing" textLength="111.9995" x="123.0425" y="166.594">&#31649;&#29702;&#23450;&#26102;&#22791;&#20221;&#20219;&#21153;</text></g><!--entity UC5--><g class="entity" data-qualified-name="Backer ...UC5" data-source-line="10" id="ent0007"><ellipse cx="179.0383" cy="252.0019" fill="#FFFFFF" rx="61.0584" ry="36.7919" style="stroke:#000000;stroke-width:1;"/><text fill="#000000" font-family="Verdana" font-size="14" lengthAdjust="spacing" textLength="75.9541" x="141.0612" y="239.2389">UC-TOP-05</text><text fill="#000000" font-family="Verdana" font-size="14" lengthAdjust="spacing" textLength="83.9996" x="137.0385" y="255.5357">&#21551;&#21160;&#23432;&#25252;&#36827;&#31243;</text><text fill="#000000" font-family="Verdana" font-size="14" lengthAdjust="spacing" textLength="83.9996" x="137.0385" y="271.8326">&#23450;&#26102;&#25191;&#34892;&#22791;&#20221;</text></g><!--entity user--><g class="entity" data-qualified-name="user" data-source-line="3" id="ent0001"><ellipse cx="24.9999" cy="222.35" fill="#FFFFFF" rx="8" ry="8" style="stroke:#000000;stroke-width:1;"/><path d="M24.9999,230.35 L24.9999,257.35 M11.9999,238.35 L37.9999,238.35 M24.9999,257.35 L11.9999,272.35 M24.9999,257.35 L37.9999,272.35" fill="none" style="stroke:#000000;stroke-width:1;"/><text fill="#000000" font-family="Verdana" font-size="14" lengthAdjust="spacing" textLength="27.9999" x="11" y="287.3451">&#29992;&#25143;</text></g><!--link user to UC1--><g class="link" data-entity-1="ent0001" data-entity-2="ent0003" data-link-type="dependency" data-source-line="13" id="lnk8"><path d="M39.4499,272.72 C48.6599,284.91 62.0699,299.22 77.9999,306 C150.8299,336.97 178.4999,321.66 256.0799,306 C300.9899,296.93 315.9199,295.36 351.0799,266 C369.8199,250.35 363.1999,236.61 381.0799,220 C390.2499,211.48 397.1035,206.496 408.0735,200.376" fill="none" id="user-to-UC1" style="stroke:#000000;stroke-width:1;"/><polygon fill="#000000" points="412.4399,197.94,402.6315,198.8316,408.0735,200.376,406.5291,205.8179,412.4399,197.94" style="stroke:#000000;stroke-width:1;stroke-linejoin:miter;stroke-miterlimit:10;"/></g><!--link user to UC2--><g class="link" data-entity-1="ent0001" data-entity-2="ent0004" data-link-type="dependency" data-source-line="14" id="lnk9"><path d="M32.0499,212.99 C38.6199,182.58 51.8899,141.1 77.9999,114 C89.1799,102.4 99.4281,95.7917 114.2781,89.5717" fill="none" id="user-to-UC2" style="stroke:#000000;stroke-width:1;"/><polygon fill="#000000" points="118.8899,87.64,109.0434,87.4276,114.2781,89.5717,112.1341,94.8064,118.8899,87.64" style="stroke:#000000;stroke-width:1;stroke-linejoin:miter;stroke-miterlimit:10;"/></g><!--link user to UC3--><g class="link" data-entity-1="ent0001" data-entity-2="ent0005" data-link-type="dependency" data-source-line="15" id="lnk10"><path d="M29.2299,291 C33.6999,317.5 44.2299,350.76 68.9999,368 C171.9099,439.6 235.1399,415.69 351.0799,368 C390.3799,351.83 419.948,317.3617 438.208,291.7417" fill="none" id="user-to-UC3" style="stroke:#000000;stroke-width:1;"/><polygon fill="#000000" points="441.1099,287.67,432.629,292.6774,438.208,291.7417,439.1437,297.3206,441.1099,287.67" style="stroke:#000000;stroke-width:1;stroke-linejoin:miter;stroke-miterlimit:10;"/></g><!--link user to UC4--><g class="link" data-entity-1="ent0001" data-entity-2="ent0006" data-link-type="dependency" data-source-line="16" id="lnk11"><path d="M39.3099,234.88 C49.0299,223.27 63.0799,208.22 77.9999,198 C92.1399,188.31 104.2434,182.096 119.9334,175.666" fill="none" id="user-to-UC4" style="stroke:#000000;stroke-width:1;"/><polygon fill="#000000" points="124.5599,173.77,114.7153,173.4816,119.9334,175.666,117.749,180.8841,124.5599,173.77" style="stroke:#000000;stroke-width:1;stroke-linejoin:miter;stroke-miterlimit:10;"/></g><!--link user to UC5--><g class="link" data-entity-1="ent0001" data-entity-2="ent0007" data-link-type="dependency" data-source-line="17" id="lnk12"><path d="M39.4899,252 C57.0799,252 83.9899,252 112.7599,252" fill="none" id="user-to-UC5" style="stroke:#000000;stroke-width:1;"/><polygon fill="#000000" points="117.7599,252,108.7599,248,112.7599,252,108.7599,256,117.7599,252" style="stroke:#000000;stroke-width:1;stroke-linejoin:miter;stroke-miterlimit:10;"/></g><!--link UC5 to UC1--><g class="link" data-entity-1="ent0007" data-entity-2="ent0003" data-link-type="dependency" data-source-line="19" id="lnk13"><path d="M235.4499,237.2 C282.5099,224.63 345.0593,207.9305 393.1593,195.0805" fill="none" id="UC5-to-UC1" style="stroke:#000000;stroke-width:1;stroke-dasharray:7,7;"/><polygon fill="#000000" points="397.9899,193.79,388.2625,192.2484,393.1593,195.0805,390.3273,199.9774,397.9899,193.79" style="stroke:#000000;stroke-width:1;stroke-linejoin:miter;stroke-miterlimit:10;"/><text fill="#000000" font-family="Verdana" font-size="13" lengthAdjust="spacing" textLength="63.0068" x="287.0799" y="204.4369">&#171;include&#187;</text></g><!--link UC5 to UC3--><g class="link" data-entity-1="ent0007" data-entity-2="ent0005" data-link-type="dependency" data-source-line="20" id="lnk14"><path d="M240.1699,254.38 C286.6399,256.23 345.6739,258.5721 392.1239,260.4121" fill="none" id="UC5-to-UC3" style="stroke:#000000;stroke-width:1;stroke-dasharray:7,7;"/><polygon fill="#000000" points="397.1199,260.61,388.2853,256.2569,392.1239,260.4121,387.9687,264.2506,397.1199,260.61" style="stroke:#000000;stroke-width:1;stroke-linejoin:miter;stroke-miterlimit:10;"/><text fill="#000000" font-family="Verdana" font-size="13" lengthAdjust="spacing" textLength="63.0068" x="287.0799" y="252.5769">&#171;include&#187;</text></g><?plantuml-src RP0nJy9068Rt-nMVtKkaXSKG1la1EiZ6SYadDDQhQO_9E1aLAYeHYKP8I2E9dUfWeaFJy6TwT_WlX099IRfSyjvxp_kzt-snDZadS65XaoABd39WDZXcgysWQJh4OAPD4JQOxO0YNmBH_LK0kz1nYOFGoiUqPH5G3h5nHXoGtv6CfWfS8bYzCR2xzEerzUJeMDqlDgZeVIxylXo7F1xzZIRy-edFxf8eJaFhjM8UfcqnqHlo_WsFduN_iODfUPY-nHRpD_uu5SE799vi03qFA3Me37qvkENXktZzMKz8eeXx_WOhvM7b1kM3B-u5FEmARxQOZsLmlxnBGzODTigMqHL2g_y3LQscEsU4bXLwLfIoeepGye128Gs00wXKJ6fOdIQfLZEElkly0m00?></g></svg>