<svg xmlns="http://www.w3.org/2000/svg" xmlns:xlink="http://www.w3.org/1999/xlink" contentStyleType="text/css" data-diagram-type="CLASS" height="729px" preserveAspectRatio="none" style="width:2217px;height:729px;background:#FFFFFF;" version="1.1" viewBox="0 0 2217 729" width="2217px" zoomAndPan="magnify"><?plantuml 1.2026.6?><defs/><g><g class="title" data-source-line="5"><text fill="#000000" font-family="Verdana" font-size="22" font-weight="700" lengthAdjust="spacing" textLength="286.001" x="964.8458" y="35.4209">&#23376;&#31995;&#32479;&#19977;&#65306;&#21387;&#32553;&#23376;&#31995;&#32479;&#26500;&#20214;&#22270;</text></g><!--cluster ?????--><g class="cluster" data-qualified-name="....." data-source-line="7" id="ent0001"><path d="M13.5,95.7994 L84.4997,95.7994 A3.75,3.75 0 0 1 86.9997,98.2994 L93.9997,118.0962 L1872.5,118.0962 A2.5,2.5 0 0 1 1875,120.5962 L1875,712.1594 A2.5,2.5 0 0 1 1872.5,714.6594 L13.5,714.6594 A2.5,2.5 0 0 1 11,712.1594 L11,98.2994 A2.5,2.5 0 0 1 13.5,95.7994" fill="#FFFFFF" style="stroke:#000000;stroke-width:1;"/><line style="stroke:#000000;stroke-width:1;" x1="11" x2="93.9997" y1="118.0962" y2="118.0962"/><text fill="#000000" font-family="Verdana" font-size="14" font-weight="700" lengthAdjust="spacing" textLength="69.9997" x="15" y="110.7945">&#21387;&#32553;&#23376;&#31995;&#32479;</text></g><!--cluster InterfaceLayer--><g class="cluster" data-qualified-name="......InterfaceLayer" data-source-line="9" id="ent0002"><path d="M1023.5,138.7994 L1066.4998,138.7994 A3.75,3.75 0 0 1 1068.9998,141.2994 L1075.9998,161.0962 L1262.5,161.0962 A2.5,2.5 0 0 1 1265,163.5962 L1265,343.6794 A2.5,2.5 0 0 1 1262.5,346.1794 L1023.5,346.1794 A2.5,2.5 0 0 1 1021,343.6794 L1021,141.2994 A2.5,2.5 0 0 1 1023.5,138.7994" fill="#E8F0FE" style="stroke:#000000;stroke-width:1;"/><line style="stroke:#000000;stroke-width:1;" x1="1021" x2="1075.9998" y1="161.0962" y2="161.0962"/><text fill="#000000" font-family="Verdana" font-size="14" font-weight="700" lengthAdjust="spacing" textLength="41.9998" x="1025" y="153.7945">&#25509;&#21475;&#23618;</text></g><!--cluster FactoryLayer--><g class="cluster" data-qualified-name="......FactoryLayer" data-source-line="20" id="ent0004"><path d="M1291.5,146.9494 L1334.4998,146.9494 A3.75,3.75 0 0 1 1336.9998,149.4494 L1343.9998,169.2462 L1518.5,169.2462 A2.5,2.5 0 0 1 1521,171.7462 L1521,335.5294 A2.5,2.5 0 0 1 1518.5,338.0294 L1291.5,338.0294 A2.5,2.5 0 0 1 1289,335.5294 L1289,149.4494 A2.5,2.5 0 0 1 1291.5,146.9494" fill="#FFF3E0" style="stroke:#000000;stroke-width:1;"/><line style="stroke:#000000;stroke-width:1;" x1="1289" x2="1343.9998" y1="169.2462" y2="169.2462"/><text fill="#000000" font-family="Verdana" font-size="14" font-weight="700" lengthAdjust="spacing" textLength="41.9998" x="1293" y="161.9445">&#24037;&#21378;&#23618;</text></g><!--cluster GzipPkg--><g class="cluster" data-qualified-name="......GzipPkg" data-source-line="30" id="ent0006"><path d="M37.5,395.1794 L167.0498,395.1794 A3.75,3.75 0 0 1 169.5498,397.6794 L176.5498,433.7731 L575.5,433.7731 A2.5,2.5 0 0 1 578,436.2731 L578,688.1594 A2.5,2.5 0 0 1 575.5,690.6594 L37.5,690.6594 A2.5,2.5 0 0 1 35,688.1594 L35,397.6794 A2.5,2.5 0 0 1 37.5,395.1794" fill="#E8F5E9" style="stroke:#000000;stroke-width:1;"/><line style="stroke:#000000;stroke-width:1;" x1="35" x2="176.5498" y1="433.7731" y2="433.7731"/><text fill="#000000" font-family="Verdana" font-size="14" font-weight="700" lengthAdjust="spacing" textLength="128.5498" x="39" y="410.1745">GzipCompressor</text><text fill="#000000" font-family="Verdana" font-size="14" font-weight="700" lengthAdjust="spacing" textLength="76.4598" x="65.045" y="426.4714">Gzip&#21387;&#32553;&#22120;</text></g><!--cluster ZstdPkg--><g class="cluster" data-qualified-name="......ZstdPkg" data-source-line="42" id="ent0012"><path d="M604.5,395.1794 L734.7881,395.1794 A3.75,3.75 0 0 1 737.2881,397.6794 L744.2881,433.7731 L1257.5,433.7731 A2.5,2.5 0 0 1 1260,436.2731 L1260,688.1594 A2.5,2.5 0 0 1 1257.5,690.6594 L604.5,690.6594 A2.5,2.5 0 0 1 602,688.1594 L602,397.6794 A2.5,2.5 0 0 1 604.5,395.1794" fill="#F3E5F5" style="stroke:#000000;stroke-width:1;"/><line style="stroke:#000000;stroke-width:1;" x1="602" x2="744.2881" y1="433.7731" y2="433.7731"/><text fill="#000000" font-family="Verdana" font-size="14" font-weight="700" lengthAdjust="spacing" textLength="129.2881" x="606" y="410.1745">ZstdCompressor</text><text fill="#000000" font-family="Verdana" font-size="14" font-weight="700" lengthAdjust="spacing" textLength="77.1981" x="632.045" y="426.4714">Zstd&#21387;&#32553;&#22120;</text></g><!--cluster LzmaPkg--><g class="cluster" data-qualified-name="......LzmaPkg" data-source-line="53" id="ent0017"><path d="M1286.5,395.1794 L1422.6943,395.1794 A3.75,3.75 0 0 1 1425.1943,397.6794 L1432.1943,433.7731 L1848.5,433.7731 A2.5,2.5 0 0 1 1851,436.2731 L1851,688.1594 A2.5,2.5 0 0 1 1848.5,690.6594 L1286.5,690.6594 A2.5,2.5 0 0 1 1284,688.1594 L1284,397.6794 A2.5,2.5 0 0 1 1286.5,395.1794" fill="#FCE4EC" style="stroke:#000000;stroke-width:1;"/><line style="stroke:#000000;stroke-width:1;" x1="1284" x2="1432.1943" y1="433.7731" y2="433.7731"/><text fill="#000000" font-family="Verdana" font-size="14" font-weight="700" lengthAdjust="spacing" textLength="135.1943" x="1288" y="410.1745">LzmaCompressor</text><text fill="#000000" font-family="Verdana" font-size="14" font-weight="700" lengthAdjust="spacing" textLength="83.1043" x="1314.045" y="426.4714">Lzma&#21387;&#32553;&#22120;</text></g><!--class CompressorInterface--><g class="entity" data-qualified-name="......InterfaceLayer.CompressorInterface" data-source-line="10" id="ent0003"><rect fill="#F1F1F1" height="156.375" rx="2.5" ry="2.5" style="stroke:#333333;stroke-width:1;" width="211.2568" x="1037.37" y="173.7994"/><ellipse cx="1090.2486" cy="195.0962" fill="#FFFFFF" rx="9" ry="9" style="stroke:#000000;stroke-width:1;"/><path d="M1086.9518,189.44 L1086.9518,190.8306 L1089.1393,190.8306 L1086.233,197.9556 L1085.2486,197.9556 L1085.2486,199.3462 L1089.2799,199.3462 L1089.2799,197.9556 L1087.7643,197.9556 L1088.4205,196.2837 L1092.2486,196.2837 L1092.9205,197.9556 L1091.4205,197.9556 L1091.4205,199.3462 L1095.4518,199.3462 L1095.4518,197.9556 L1094.4986,197.9556 L1091.0455,189.44 L1086.9518,189.44 Z M1091.7018,194.8931 L1088.9986,194.8931 L1090.3424,191.6431 L1091.7018,194.8931 Z " fill="#000000"/><text fill="#000000" font-family="Verdana" font-size="14" font-style="italic" lengthAdjust="spacing" textLength="84.1436" x="1114.6766" y="191.7945">Compressor</text><text fill="#000000" font-family="Verdana" font-size="14" font-style="italic" lengthAdjust="spacing" textLength="97.9996" x="1107.7486" y="208.0914">&#21387;&#32553;&#22120;&#25277;&#35937;&#25509;&#21475;</text><line style="stroke:#333333;stroke-width:1;" x1="1038.37" x2="1247.6268" y1="216.3931" y2="216.3931"/><line style="stroke:#333333;stroke-width:1;" x1="1038.37" x2="1247.6268" y1="224.3931" y2="224.3931"/><g data-visibility-modifier="PUBLIC_METHOD"><ellipse cx="1048.37" cy="238.0416" fill="#FFFFFF" rx="3" ry="3" style="stroke:#000000;stroke-width:1;"/></g><text fill="#000000" font-family="Verdana" font-size="14" lengthAdjust="spacing" textLength="169.7568" x="1055.37" y="241.3882">compress(input, output)</text><g data-visibility-modifier="PUBLIC_METHOD"><ellipse cx="1048.37" cy="254.3384" fill="#FFFFFF" rx="3" ry="3" style="stroke:#000000;stroke-width:1;"/></g><text fill="#000000" font-family="Verdana" font-size="14" lengthAdjust="spacing" textLength="187.2568" x="1055.37" y="257.6851">decompress(input, output)</text><g data-visibility-modifier="PUBLIC_METHOD"><ellipse cx="1048.37" cy="270.6353" fill="#FFFFFF" rx="3" ry="3" style="stroke:#000000;stroke-width:1;"/></g><text fill="#000000" font-family="Verdana" font-size="14" lengthAdjust="spacing" textLength="143.6709" x="1055.37" y="273.982">name() : string_view</text><g data-visibility-modifier="PUBLIC_METHOD"><ellipse cx="1048.37" cy="286.9322" fill="#FFFFFF" rx="3" ry="3" style="stroke:#000000;stroke-width:1;"/></g><text fill="#000000" font-family="Verdana" font-size="14" lengthAdjust="spacing" textLength="129.2539" x="1055.37" y="290.2789">defaultLevel() : int</text><g data-visibility-modifier="PUBLIC_METHOD"><ellipse cx="1048.37" cy="303.2291" fill="#FFFFFF" rx="3" ry="3" style="stroke:#000000;stroke-width:1;"/></g><text fill="#000000" font-family="Verdana" font-size="14" lengthAdjust="spacing" textLength="142.167" x="1055.37" y="306.5757">suffix() : string_view</text><g data-visibility-modifier="PUBLIC_METHOD"><ellipse cx="1048.37" cy="319.5259" fill="#FFFFFF" rx="3" ry="3" style="stroke:#000000;stroke-width:1;"/></g><text fill="#000000" font-family="Verdana" font-size="14" lengthAdjust="spacing" textLength="155.9072" x="1055.37" y="322.8726">isValidLevel(int) : bool</text></g><!--class buildCompressor--><g class="entity" data-qualified-name="......FactoryLayer.buildCompressor" data-source-line="21" id="ent0005"><rect fill="#F1F1F1" height="140.0781" rx="2.5" ry="2.5" style="stroke:#333333;stroke-width:1;" width="200.4736" x="1304.76" y="181.9494"/><ellipse cx="1337.1012" cy="203.2462" fill="#FFFFFF" rx="9" ry="9" style="stroke:#000000;stroke-width:1;"/><path d="M1340.5075,205.215 C1339.7887,205.8869 1338.4918,207.0587 1336.7418,207.0587 C1334.5231,207.0587 1333.5543,205.1212 1333.5543,203.1681 C1333.5543,200.7775 1335.0387,199.5119 1336.6793,199.5119 C1338.695,199.5119 1338.9137,201.0275 1339.0856,202.1212 L1340.5075,201.9337 C1340.4137,201.3556 1340.3356,200.7775 1340.3356,199.8087 C1340.3356,199.1369 1340.3825,198.59 1340.4137,198.1681 L1339.0075,198.1681 L1338.8981,199.1212 C1338.3043,198.59 1337.6637,198.0431 1336.445,198.0431 C1334.3981,198.0431 1331.9918,199.8712 1331.9918,203.1837 C1331.9918,206.1212 1333.7575,208.5119 1336.7575,208.5119 C1339.195,208.5119 1340.8981,206.8869 1341.4918,206.3087 L1340.5075,205.215 Z " fill="#000000"/><text fill="#000000" font-family="Verdana" font-size="14" lengthAdjust="spacing" textLength="129.4932" x="1353.3993" y="199.9445">buildCompressor()</text><text fill="#000000" font-family="Verdana" font-size="14" lengthAdjust="spacing" textLength="97.9996" x="1369.1461" y="216.2414">&#21387;&#32553;&#22120;&#24037;&#21378;&#20989;&#25968;</text><line style="stroke:#333333;stroke-width:1;" x1="1305.76" x2="1504.2336" y1="224.5431" y2="224.5431"/><text fill="#000000" font-family="Verdana" font-size="14" lengthAdjust="spacing" textLength="111.9995" x="1310.76" y="241.5382">&#26681;&#25454;&#21517;&#31216;&#21019;&#24314;&#23454;&#20363;</text><text fill="#000000" font-family="Verdana" font-size="14" lengthAdjust="spacing" textLength="177.6387" x="1310.76" y="257.8351">"gzip" &#8594; GzipCompressor</text><text fill="#000000" font-family="Verdana" font-size="14" lengthAdjust="spacing" textLength="177.9326" x="1310.76" y="274.132">"zstd" &#8594; ZstdCompressor</text><text fill="#000000" font-family="Verdana" font-size="14" lengthAdjust="spacing" textLength="188.4736" x="1310.76" y="290.4289">"lzma" &#8594; LzmaCompressor</text><text fill="#000000" font-family="Verdana" font-size="14" lengthAdjust="spacing" textLength="170.3784" x="1310.76" y="306.7257">level=0 &#20351;&#29992;&#31639;&#27861;&#40664;&#35748;&#32423;&#21035;</text><line style="stroke:#333333;stroke-width:1;" x1="1305.76" x2="1504.2336" y1="314.0275" y2="314.0275"/></g><!--class GzipComp--><g class="entity" data-qualified-name="......GzipPkg.GzipComp" data-source-line="31" id="ent0007"><rect fill="#F1F1F1" height="92.8906" rx="2.5" ry="2.5" style="stroke:#333333;stroke-width:1;" width="143.1172" x="373.44" y="446.1794"/><ellipse cx="386.44" cy="460.1794" fill="#FFFFFF" rx="9" ry="9" style="stroke:#000000;stroke-width:1;"/><path d="M389.8463,462.1481 C389.1275,462.82 387.8306,463.9919 386.0806,463.9919 C383.8619,463.9919 382.8931,462.0544 382.8931,460.1012 C382.8931,457.7106 384.3775,456.445 386.0181,456.445 C388.0338,456.445 388.2525,457.9606 388.4244,459.0544 L389.8463,458.8669 C389.7525,458.2887 389.6744,457.7106 389.6744,456.7419 C389.6744,456.07 389.7213,455.5231 389.7525,455.1012 L388.3463,455.1012 L388.2369,456.0544 C387.6431,455.5231 387.0025,454.9762 385.7838,454.9762 C383.7369,454.9762 381.3306,456.8044 381.3306,460.1169 C381.3306,463.0544 383.0963,465.445 386.0963,465.445 C388.5338,465.445 390.2369,463.82 390.8306,463.2419 L389.8463,462.1481 Z " fill="#000000"/><text fill="#000000" font-family="Verdana" font-size="14" lengthAdjust="spacing" textLength="115.1172" x="398.44" y="465.0261">GzipCompressor</text><line style="stroke:#333333;stroke-width:1;" x1="374.44" x2="515.5572" y1="474.1794" y2="474.1794"/><text fill="#000000" font-family="Verdana" font-size="14" lengthAdjust="spacing" textLength="80.0144" x="379.44" y="491.1745">&#24213;&#23618;&#24211;&#65306;zlib</text><text fill="#000000" font-family="Verdana" font-size="14" lengthAdjust="spacing" textLength="78.9069" x="379.44" y="507.4714">&#40664;&#35748;&#32423;&#21035;&#65306;6</text><text fill="#000000" font-family="Verdana" font-size="14" lengthAdjust="spacing" textLength="62.6854" x="379.44" y="523.7682">&#21518;&#32512;&#65306;.gz</text><line style="stroke:#333333;stroke-width:1;" x1="374.44" x2="515.5572" y1="531.07" y2="531.07"/></g><!--class deflateInit--><g class="entity" data-qualified-name="......GzipPkg.deflateInit" data-source-line="36" id="ent0008"><rect fill="#F1F1F1" height="58.5938" rx="2.5" ry="2.5" style="stroke:#333333;stroke-width:1;" width="119.2119" x="51.39" y="616.0694"/><ellipse cx="64.39" cy="637.3662" fill="#FFFFFF" rx="9" ry="9" style="stroke:#000000;stroke-width:1;"/><path d="M67.7963,639.335 C67.0775,640.0069 65.7806,641.1787 64.0306,641.1787 C61.8119,641.1787 60.8431,639.2412 60.8431,637.2881 C60.8431,634.8975 62.3275,633.6319 63.9681,633.6319 C65.9838,633.6319 66.2025,635.1475 66.3744,636.2412 L67.7963,636.0537 C67.7025,635.4756 67.6244,634.8975 67.6244,633.9287 C67.6244,633.2569 67.6713,632.71 67.7025,632.2881 L66.2963,632.2881 L66.1869,633.2412 C65.5931,632.71 64.9525,632.1631 63.7338,632.1631 C61.6869,632.1631 59.2806,633.9912 59.2806,637.3037 C59.2806,640.2412 61.0463,642.6319 64.0463,642.6319 C66.4838,642.6319 68.1869,641.0069 68.7806,640.4287 L67.7963,639.335 Z " fill="#000000"/><text fill="#000000" font-family="Verdana" font-size="14" lengthAdjust="spacing" textLength="91.2119" x="76.39" y="634.0645">deflateInit2()</text><text fill="#000000" font-family="Verdana" font-size="14" lengthAdjust="spacing" textLength="69.9997" x="86.9961" y="650.3614">&#21021;&#22987;&#21270;&#21387;&#32553;</text><line style="stroke:#333333;stroke-width:1;" x1="52.39" x2="169.6019" y1="658.6631" y2="658.6631"/><line style="stroke:#333333;stroke-width:1;" x1="52.39" x2="169.6019" y1="666.6631" y2="666.6631"/></g><!--class deflateDo--><g class="entity" data-qualified-name="......GzipPkg.deflateDo" data-source-line="37" id="ent0009"><rect fill="#F1F1F1" height="58.5938" rx="2.5" ry="2.5" style="stroke:#333333;stroke-width:1;" width="87.9238" x="206.04" y="616.0694"/><ellipse cx="219.04" cy="637.3662" fill="#FFFFFF" rx="9" ry="9" style="stroke:#000000;stroke-width:1;"/><path d="M222.4463,639.335 C221.7275,640.0069 220.4306,641.1787 218.6806,641.1787 C216.4619,641.1787 215.4931,639.2412 215.4931,637.2881 C215.4931,634.8975 216.9775,633.6319 218.6181,633.6319 C220.6338,633.6319 220.8525,635.1475 221.0244,636.2412 L222.4463,636.0537 C222.3525,635.4756 222.2744,634.8975 222.2744,633.9287 C222.2744,633.2569 222.3213,632.71 222.3525,632.2881 L220.9463,632.2881 L220.8369,633.2412 C220.2431,632.71 219.6025,632.1631 218.3838,632.1631 C216.3369,632.1631 213.9306,633.9912 213.9306,637.3037 C213.9306,640.2412 215.6963,642.6319 218.6963,642.6319 C221.1338,642.6319 222.8369,641.0069 223.4306,640.4287 L222.4463,639.335 Z " fill="#000000"/><text fill="#000000" font-family="Verdana" font-size="14" lengthAdjust="spacing" textLength="59.9238" x="231.04" y="634.0645">deflate()</text><text fill="#000000" font-family="Verdana" font-size="14" lengthAdjust="spacing" textLength="55.9998" x="233.002" y="650.3614">&#25191;&#34892;&#21387;&#32553;</text><line style="stroke:#333333;stroke-width:1;" x1="207.04" x2="292.9638" y1="658.6631" y2="658.6631"/><line style="stroke:#333333;stroke-width:1;" x1="207.04" x2="292.9638" y1="666.6631" y2="666.6631"/></g><!--class inflateInit--><g class="entity" data-qualified-name="......GzipPkg.inflateInit" data-source-line="38" id="ent0010"><rect fill="#F1F1F1" height="58.5938" rx="2.5" ry="2.5" style="stroke:#333333;stroke-width:1;" width="114.4746" x="328.76" y="616.0694"/><ellipse cx="341.76" cy="637.3662" fill="#FFFFFF" rx="9" ry="9" style="stroke:#000000;stroke-width:1;"/><path d="M345.1663,639.335 C344.4475,640.0069 343.1506,641.1787 341.4006,641.1787 C339.1819,641.1787 338.2131,639.2412 338.2131,637.2881 C338.2131,634.8975 339.6975,633.6319 341.3381,633.6319 C343.3538,633.6319 343.5725,635.1475 343.7444,636.2412 L345.1663,636.0537 C345.0725,635.4756 344.9944,634.8975 344.9944,633.9287 C344.9944,633.2569 345.0413,632.71 345.0725,632.2881 L343.6663,632.2881 L343.5569,633.2412 C342.9631,632.71 342.3225,632.1631 341.1038,632.1631 C339.0569,632.1631 336.6506,633.9912 336.6506,637.3037 C336.6506,640.2412 338.4163,642.6319 341.4163,642.6319 C343.8538,642.6319 345.5569,641.0069 346.1506,640.4287 L345.1663,639.335 Z " fill="#000000"/><text fill="#000000" font-family="Verdana" font-size="14" lengthAdjust="spacing" textLength="86.4746" x="353.76" y="634.0645">inflateInit2()</text><text fill="#000000" font-family="Verdana" font-size="14" lengthAdjust="spacing" textLength="69.9997" x="361.9975" y="650.3614">&#21021;&#22987;&#21270;&#35299;&#21387;</text><line style="stroke:#333333;stroke-width:1;" x1="329.76" x2="442.2346" y1="658.6631" y2="658.6631"/><line style="stroke:#333333;stroke-width:1;" x1="329.76" x2="442.2346" y1="666.6631" y2="666.6631"/></g><!--class inflateDo--><g class="entity" data-qualified-name="......GzipPkg.inflateDo" data-source-line="39" id="ent0011"><rect fill="#F1F1F1" height="58.5938" rx="2.5" ry="2.5" style="stroke:#333333;stroke-width:1;" width="83.9998" x="478" y="616.0694"/><ellipse cx="491" cy="637.3662" fill="#FFFFFF" rx="9" ry="9" style="stroke:#000000;stroke-width:1;"/><path d="M494.4063,639.335 C493.6875,640.0069 492.3906,641.1787 490.6406,641.1787 C488.4219,641.1787 487.4531,639.2412 487.4531,637.2881 C487.4531,634.8975 488.9375,633.6319 490.5781,633.6319 C492.5938,633.6319 492.8125,635.1475 492.9844,636.2412 L494.4063,636.0537 C494.3125,635.4756 494.2344,634.8975 494.2344,633.9287 C494.2344,633.2569 494.2813,632.71 494.3125,632.2881 L492.9063,632.2881 L492.7969,633.2412 C492.2031,632.71 491.5625,632.1631 490.3438,632.1631 C488.2969,632.1631 485.8906,633.9912 485.8906,637.3037 C485.8906,640.2412 487.6563,642.6319 490.6563,642.6319 C493.0938,642.6319 494.7969,641.0069 495.3906,640.4287 L494.4063,639.335 Z " fill="#000000"/><text fill="#000000" font-family="Verdana" font-size="14" lengthAdjust="spacing" textLength="55.1865" x="503.4066" y="634.0645">inflate()</text><text fill="#000000" font-family="Verdana" font-size="14" lengthAdjust="spacing" textLength="55.9998" x="503" y="650.3614">&#25191;&#34892;&#35299;&#21387;</text><line style="stroke:#333333;stroke-width:1;" x1="479" x2="560.9998" y1="658.6631" y2="658.6631"/><line style="stroke:#333333;stroke-width:1;" x1="479" x2="560.9998" y1="666.6631" y2="666.6631"/></g><!--class ZstdComp--><g class="entity" data-qualified-name="......ZstdPkg.ZstdComp" data-source-line="43" id="ent0013"><rect fill="#F1F1F1" height="92.8906" rx="2.5" ry="2.5" style="stroke:#333333;stroke-width:1;" width="143.4043" x="1071.3" y="446.1794"/><ellipse cx="1084.3" cy="460.1794" fill="#FFFFFF" rx="9" ry="9" style="stroke:#000000;stroke-width:1;"/><path d="M1087.7063,462.1481 C1086.9875,462.82 1085.6906,463.9919 1083.9406,463.9919 C1081.7219,463.9919 1080.7531,462.0544 1080.7531,460.1012 C1080.7531,457.7106 1082.2375,456.445 1083.8781,456.445 C1085.8938,456.445 1086.1125,457.9606 1086.2844,459.0544 L1087.7063,458.8669 C1087.6125,458.2887 1087.5344,457.7106 1087.5344,456.7419 C1087.5344,456.07 1087.5813,455.5231 1087.6125,455.1012 L1086.2063,455.1012 L1086.0969,456.0544 C1085.5031,455.5231 1084.8625,454.9762 1083.6438,454.9762 C1081.5969,454.9762 1079.1906,456.8044 1079.1906,460.1169 C1079.1906,463.0544 1080.9563,465.445 1083.9563,465.445 C1086.3938,465.445 1088.0969,463.82 1088.6906,463.2419 L1087.7063,462.1481 Z " fill="#000000"/><text fill="#000000" font-family="Verdana" font-size="14" lengthAdjust="spacing" textLength="115.4043" x="1096.3" y="465.0261">ZstdCompressor</text><line style="stroke:#333333;stroke-width:1;" x1="1072.3" x2="1213.7043" y1="474.1794" y2="474.1794"/><text fill="#000000" font-family="Verdana" font-size="14" lengthAdjust="spacing" textLength="101.6843" x="1077.3" y="491.1745">&#24213;&#23618;&#24211;&#65306;libzstd</text><text fill="#000000" font-family="Verdana" font-size="14" lengthAdjust="spacing" textLength="78.9069" x="1077.3" y="507.4714">&#40664;&#35748;&#32423;&#21035;&#65306;3</text><text fill="#000000" font-family="Verdana" font-size="14" lengthAdjust="spacing" textLength="66.5818" x="1077.3" y="523.7682">&#21518;&#32512;&#65306;.zst</text><line style="stroke:#333333;stroke-width:1;" x1="1072.3" x2="1213.7043" y1="531.07" y2="531.07"/></g><!--class zstdCompress--><g class="entity" data-qualified-name="......ZstdPkg.zstdCompress" data-source-line="48" id="ent0014"><rect fill="#F1F1F1" height="58.5938" rx="2.5" ry="2.5" style="stroke:#333333;stroke-width:1;" width="151.4775" x="889.26" y="616.0694"/><ellipse cx="902.26" cy="637.3662" fill="#FFFFFF" rx="9" ry="9" style="stroke:#000000;stroke-width:1;"/><path d="M905.6663,639.335 C904.9475,640.0069 903.6506,641.1787 901.9006,641.1787 C899.6819,641.1787 898.7131,639.2412 898.7131,637.2881 C898.7131,634.8975 900.1975,633.6319 901.8381,633.6319 C903.8538,633.6319 904.0725,635.1475 904.2444,636.2412 L905.6663,636.0537 C905.5725,635.4756 905.4944,634.8975 905.4944,633.9287 C905.4944,633.2569 905.5413,632.71 905.5725,632.2881 L904.1663,632.2881 L904.0569,633.2412 C903.4631,632.71 902.8225,632.1631 901.6038,632.1631 C899.5569,632.1631 897.1506,633.9912 897.1506,637.3037 C897.1506,640.2412 898.9163,642.6319 901.9163,642.6319 C904.3538,642.6319 906.0569,641.0069 906.6506,640.4287 L905.6663,639.335 Z " fill="#000000"/><text fill="#000000" font-family="Verdana" font-size="14" lengthAdjust="spacing" textLength="123.4775" x="914.26" y="634.0645">ZSTD_compress()</text><text fill="#000000" font-family="Verdana" font-size="14" lengthAdjust="spacing" textLength="55.9998" x="947.9989" y="650.3614">&#21333;&#27425;&#21387;&#32553;</text><line style="stroke:#333333;stroke-width:1;" x1="890.26" x2="1039.7375" y1="658.6631" y2="658.6631"/><line style="stroke:#333333;stroke-width:1;" x1="890.26" x2="1039.7375" y1="666.6631" y2="666.6631"/></g><!--class zstdDecompress--><g class="entity" data-qualified-name="......ZstdPkg.zstdDecompress" data-source-line="49" id="ent0015"><rect fill="#F1F1F1" height="58.5938" rx="2.5" ry="2.5" style="stroke:#333333;stroke-width:1;" width="168.9775" x="1075.51" y="616.0694"/><ellipse cx="1088.51" cy="637.3662" fill="#FFFFFF" rx="9" ry="9" style="stroke:#000000;stroke-width:1;"/><path d="M1091.9163,639.335 C1091.1975,640.0069 1089.9006,641.1787 1088.1506,641.1787 C1085.9319,641.1787 1084.9631,639.2412 1084.9631,637.2881 C1084.9631,634.8975 1086.4475,633.6319 1088.0881,633.6319 C1090.1038,633.6319 1090.3225,635.1475 1090.4944,636.2412 L1091.9163,636.0537 C1091.8225,635.4756 1091.7444,634.8975 1091.7444,633.9287 C1091.7444,633.2569 1091.7913,632.71 1091.8225,632.2881 L1090.4163,632.2881 L1090.3069,633.2412 C1089.7131,632.71 1089.0725,632.1631 1087.8538,632.1631 C1085.8069,632.1631 1083.4006,633.9912 1083.4006,637.3037 C1083.4006,640.2412 1085.1663,642.6319 1088.1663,642.6319 C1090.6038,642.6319 1092.3069,641.0069 1092.9006,640.4287 L1091.9163,639.335 Z " fill="#000000"/><text fill="#000000" font-family="Verdana" font-size="14" lengthAdjust="spacing" textLength="140.9775" x="1100.51" y="634.0645">ZSTD_decompress()</text><text fill="#000000" font-family="Verdana" font-size="14" lengthAdjust="spacing" textLength="55.9998" x="1142.9989" y="650.3614">&#21333;&#27425;&#35299;&#21387;</text><line style="stroke:#333333;stroke-width:1;" x1="1076.51" x2="1243.4875" y1="658.6631" y2="658.6631"/><line style="stroke:#333333;stroke-width:1;" x1="1076.51" x2="1243.4875" y1="666.6631" y2="666.6631"/></g><!--class zstdSize--><g class="entity" data-qualified-name="......ZstdPkg.zstdSize" data-source-line="50" id="ent0016"><rect fill="#F1F1F1" height="58.5938" rx="2.5" ry="2.5" style="stroke:#333333;stroke-width:1;" width="235.7783" x="618.11" y="616.0694"/><ellipse cx="631.11" cy="637.3662" fill="#FFFFFF" rx="9" ry="9" style="stroke:#000000;stroke-width:1;"/><path d="M634.5163,639.335 C633.7975,640.0069 632.5006,641.1787 630.7506,641.1787 C628.5319,641.1787 627.5631,639.2412 627.5631,637.2881 C627.5631,634.8975 629.0475,633.6319 630.6881,633.6319 C632.7038,633.6319 632.9225,635.1475 633.0944,636.2412 L634.5163,636.0537 C634.4225,635.4756 634.3444,634.8975 634.3444,633.9287 C634.3444,633.2569 634.3913,632.71 634.4225,632.2881 L633.0163,632.2881 L632.9069,633.2412 C632.3131,632.71 631.6725,632.1631 630.4538,632.1631 C628.4069,632.1631 626.0006,633.9912 626.0006,637.3037 C626.0006,640.2412 627.7663,642.6319 630.7663,642.6319 C633.2038,642.6319 634.9069,641.0069 635.5006,640.4287 L634.5163,639.335 Z " fill="#000000"/><text fill="#000000" font-family="Verdana" font-size="14" lengthAdjust="spacing" textLength="207.7783" x="643.11" y="634.0645">ZSTD_getFrameContentSize()</text><text fill="#000000" font-family="Verdana" font-size="14" lengthAdjust="spacing" textLength="69.9997" x="711.9993" y="650.3614">&#33719;&#21462;&#24103;&#22823;&#23567;</text><line style="stroke:#333333;stroke-width:1;" x1="619.11" x2="852.8883" y1="658.6631" y2="658.6631"/><line style="stroke:#333333;stroke-width:1;" x1="619.11" x2="852.8883" y1="666.6631" y2="666.6631"/></g><!--class LzmaComp--><g class="entity" data-qualified-name="......LzmaPkg.LzmaComp" data-source-line="54" id="ent0018"><rect fill="#F1F1F1" height="92.8906" rx="2.5" ry="2.5" style="stroke:#333333;stroke-width:1;" width="149.5088" x="1330.25" y="446.1794"/><ellipse cx="1343.25" cy="460.1794" fill="#FFFFFF" rx="9" ry="9" style="stroke:#000000;stroke-width:1;"/><path d="M1346.6563,462.1481 C1345.9375,462.82 1344.6406,463.9919 1342.8906,463.9919 C1340.6719,463.9919 1339.7031,462.0544 1339.7031,460.1012 C1339.7031,457.7106 1341.1875,456.445 1342.8281,456.445 C1344.8438,456.445 1345.0625,457.9606 1345.2344,459.0544 L1346.6563,458.8669 C1346.5625,458.2887 1346.4844,457.7106 1346.4844,456.7419 C1346.4844,456.07 1346.5313,455.5231 1346.5625,455.1012 L1345.1563,455.1012 L1345.0469,456.0544 C1344.4531,455.5231 1343.8125,454.9762 1342.5938,454.9762 C1340.5469,454.9762 1338.1406,456.8044 1338.1406,460.1169 C1338.1406,463.0544 1339.9063,465.445 1342.9063,465.445 C1345.3438,465.445 1347.0469,463.82 1347.6406,463.2419 L1346.6563,462.1481 Z " fill="#000000"/><text fill="#000000" font-family="Verdana" font-size="14" lengthAdjust="spacing" textLength="121.5088" x="1355.25" y="465.0261">LzmaCompressor</text><line style="stroke:#333333;stroke-width:1;" x1="1331.25" x2="1478.7588" y1="474.1794" y2="474.1794"/><text fill="#000000" font-family="Verdana" font-size="14" lengthAdjust="spacing" textLength="106.1208" x="1336.25" y="491.1745">&#24213;&#23618;&#24211;&#65306;liblzma</text><text fill="#000000" font-family="Verdana" font-size="14" lengthAdjust="spacing" textLength="78.9069" x="1336.25" y="507.4714">&#40664;&#35748;&#32423;&#21035;&#65306;6</text><text fill="#000000" font-family="Verdana" font-size="14" lengthAdjust="spacing" textLength="62.0838" x="1336.25" y="523.7682">&#21518;&#32512;&#65306;.xz</text><line style="stroke:#333333;stroke-width:1;" x1="1331.25" x2="1478.7588" y1="531.07" y2="531.07"/></g><!--class lzmaInit--><g class="entity" data-qualified-name="......LzmaPkg.lzmaInit" data-source-line="59" id="ent0019"><rect fill="#F1F1F1" height="58.5938" rx="2.5" ry="2.5" style="stroke:#333333;stroke-width:1;" width="176.1553" x="1509.92" y="616.0694"/><ellipse cx="1522.92" cy="637.3662" fill="#FFFFFF" rx="9" ry="9" style="stroke:#000000;stroke-width:1;"/><path d="M1526.3263,639.335 C1525.6075,640.0069 1524.3106,641.1787 1522.5606,641.1787 C1520.3419,641.1787 1519.3731,639.2412 1519.3731,637.2881 C1519.3731,634.8975 1520.8575,633.6319 1522.4981,633.6319 C1524.5138,633.6319 1524.7325,635.1475 1524.9044,636.2412 L1526.3263,636.0537 C1526.2325,635.4756 1526.1544,634.8975 1526.1544,633.9287 C1526.1544,633.2569 1526.2013,632.71 1526.2325,632.2881 L1524.8263,632.2881 L1524.7169,633.2412 C1524.1231,632.71 1523.4825,632.1631 1522.2638,632.1631 C1520.2169,632.1631 1517.8106,633.9912 1517.8106,637.3037 C1517.8106,640.2412 1519.5763,642.6319 1522.5763,642.6319 C1525.0138,642.6319 1526.7169,641.0069 1527.3106,640.4287 L1526.3263,639.335 Z " fill="#000000"/><text fill="#000000" font-family="Verdana" font-size="14" lengthAdjust="spacing" textLength="148.1553" x="1534.92" y="634.0645">lzma_easy_encoder()</text><text fill="#000000" font-family="Verdana" font-size="14" lengthAdjust="spacing" textLength="83.9996" x="1566.9978" y="650.3614">&#21021;&#22987;&#21270;&#32534;&#30721;&#22120;</text><line style="stroke:#333333;stroke-width:1;" x1="1510.92" x2="1685.0753" y1="658.6631" y2="658.6631"/><line style="stroke:#333333;stroke-width:1;" x1="1510.92" x2="1685.0753" y1="666.6631" y2="666.6631"/></g><!--class lzmaCode--><g class="entity" data-qualified-name="......LzmaPkg.lzmaCode" data-source-line="60" id="ent0020"><rect fill="#F1F1F1" height="58.5938" rx="2.5" ry="2.5" style="stroke:#333333;stroke-width:1;" width="113.1416" x="1721.43" y="616.0694"/><ellipse cx="1734.43" cy="637.3662" fill="#FFFFFF" rx="9" ry="9" style="stroke:#000000;stroke-width:1;"/><path d="M1737.8363,639.335 C1737.1175,640.0069 1735.8206,641.1787 1734.0706,641.1787 C1731.8519,641.1787 1730.8831,639.2412 1730.8831,637.2881 C1730.8831,634.8975 1732.3675,633.6319 1734.0081,633.6319 C1736.0238,633.6319 1736.2425,635.1475 1736.4144,636.2412 L1737.8363,636.0537 C1737.7425,635.4756 1737.6644,634.8975 1737.6644,633.9287 C1737.6644,633.2569 1737.7113,632.71 1737.7425,632.2881 L1736.3363,632.2881 L1736.2269,633.2412 C1735.6331,632.71 1734.9925,632.1631 1733.7738,632.1631 C1731.7269,632.1631 1729.3206,633.9912 1729.3206,637.3037 C1729.3206,640.2412 1731.0863,642.6319 1734.0863,642.6319 C1736.5238,642.6319 1738.2269,641.0069 1738.8206,640.4287 L1737.8363,639.335 Z " fill="#000000"/><text fill="#000000" font-family="Verdana" font-size="14" lengthAdjust="spacing" textLength="85.1416" x="1746.43" y="634.0645">lzma_code()</text><text fill="#000000" font-family="Verdana" font-size="14" lengthAdjust="spacing" textLength="69.9997" x="1754.001" y="650.3614">&#27969;&#24335;&#32534;&#35299;&#30721;</text><line style="stroke:#333333;stroke-width:1;" x1="1722.43" x2="1833.5716" y1="658.6631" y2="658.6631"/><line style="stroke:#333333;stroke-width:1;" x1="1722.43" x2="1833.5716" y1="666.6631" y2="666.6631"/></g><!--class lzmaAuto--><g class="entity" data-qualified-name="......LzmaPkg.lzmaAuto" data-source-line="61" id="ent0021"><rect fill="#F1F1F1" height="58.5938" rx="2.5" ry="2.5" style="stroke:#333333;stroke-width:1;" width="174.9043" x="1299.55" y="616.0694"/><ellipse cx="1312.55" cy="637.3662" fill="#FFFFFF" rx="9" ry="9" style="stroke:#000000;stroke-width:1;"/><path d="M1315.9563,639.335 C1315.2375,640.0069 1313.9406,641.1787 1312.1906,641.1787 C1309.9719,641.1787 1309.0031,639.2412 1309.0031,637.2881 C1309.0031,634.8975 1310.4875,633.6319 1312.1281,633.6319 C1314.1438,633.6319 1314.3625,635.1475 1314.5344,636.2412 L1315.9563,636.0537 C1315.8625,635.4756 1315.7844,634.8975 1315.7844,633.9287 C1315.7844,633.2569 1315.8313,632.71 1315.8625,632.2881 L1314.4563,632.2881 L1314.3469,633.2412 C1313.7531,632.71 1313.1125,632.1631 1311.8938,632.1631 C1309.8469,632.1631 1307.4406,633.9912 1307.4406,637.3037 C1307.4406,640.2412 1309.2063,642.6319 1312.2063,642.6319 C1314.6438,642.6319 1316.3469,641.0069 1316.9406,640.4287 L1315.9563,639.335 Z " fill="#000000"/><text fill="#000000" font-family="Verdana" font-size="14" lengthAdjust="spacing" textLength="146.9043" x="1324.55" y="634.0645">lzma_auto_decoder()</text><text fill="#000000" font-family="Verdana" font-size="14" lengthAdjust="spacing" textLength="69.9997" x="1363.0023" y="650.3614">&#33258;&#21160;&#35299;&#30721;&#22120;</text><line style="stroke:#333333;stroke-width:1;" x1="1300.55" x2="1473.4543" y1="658.6631" y2="658.6631"/><line style="stroke:#333333;stroke-width:1;" x1="1300.55" x2="1473.4543" y1="666.6631" y2="666.6631"/></g><g class="entity" data-qualified-name="GMN41" data-source-line="89" id="ent0042"><path d="M1891.3,209.1594 L1891.3,294.8234 L2202.6926,294.8234 L2202.6926,219.1594 L2192.6926,209.1594 L1891.3,209.1594" fill="#FFFFFF" style="stroke:#000000;stroke-width:1;"/><path d="M2192.6926,209.1594 L2192.6926,219.1594 L2202.6926,219.1594 L2192.6926,209.1594" fill="#FFFFFF" style="stroke:#000000;stroke-width:1;"/><text fill="#000000" font-family="Verdana" font-size="13" font-weight="700" lengthAdjust="spacing" textLength="95.7482" x="1897.3" y="226.2263">&#36755;&#20837;/&#36755;&#20986;&#35268;&#33539;&#65306;</text><text fill="#000000" font-family="Verdana" font-size="13" lengthAdjust="spacing" textLength="274.1426" x="1897.3" y="241.3591">compress: span&lt;char&gt; &#8594; vector&lt;char&gt;&amp;</text><text fill="#000000" font-family="Verdana" font-size="13" lengthAdjust="spacing" textLength="290.3926" x="1897.3" y="256.4919">decompress: span&lt;char&gt; &#8594; vector&lt;char&gt;&amp;</text><text fill="#000000" font-family="Verdana" font-size="13" lengthAdjust="spacing" textLength="213.8272" x="1897.3" y="271.6247">&#36820;&#22238; Expected&lt;void, ErrorCode&gt;</text><text fill="#000000" font-family="Verdana" font-size="13" lengthAdjust="spacing" textLength="91.0001" x="1897.3" y="286.7575">&#25903;&#25345;&#31354;&#36755;&#20837;&#22788;&#29702;</text></g><g class="entity" data-qualified-name="GMN44" data-source-line="97" id="ent0045"><path d="M1890.61,457.3594 L1890.61,527.8906 L2085.3899,527.8906 L2085.3899,467.3594 L2075.3899,457.3594 L1890.61,457.3594" fill="#FFFFFF" style="stroke:#000000;stroke-width:1;"/><path d="M2075.3899,457.3594 L2075.3899,467.3594 L2085.3899,467.3594 L2075.3899,457.3594" fill="#FFFFFF" style="stroke:#000000;stroke-width:1;"/><text fill="#000000" font-family="Verdana" font-size="13" font-weight="700" lengthAdjust="spacing" textLength="52.0001" x="1896.61" y="474.4263">&#35843;&#29992;&#32773;&#65306;</text><text fill="#000000" font-family="Verdana" font-size="13" lengthAdjust="spacing" textLength="171.6344" x="1896.61" y="489.5591">handleBackup() &#22791;&#20221;&#26102;&#21387;&#32553;</text><text fill="#000000" font-family="Verdana" font-size="13" lengthAdjust="spacing" textLength="173.7799" x="1896.61" y="504.6919">handleRestore() &#24674;&#22797;&#26102;&#35299;&#21387;</text><text fill="#000000" font-family="Verdana" font-size="13" lengthAdjust="spacing" textLength="151.2076" x="1896.61" y="519.8247">BackupWorker &#21518;&#21488;&#32447;&#31243;</text></g><!--reverse link CompressorInterface to GzipComp--><g class="link" data-entity-1="ent0003" data-entity-2="ent0007" data-link-type="extension" data-source-line="66" id="lnk23"><path codeLine="66" d="M1019.303,271.137 C907.613,289.677 746.01,323.7094 602,387.1794 C567.25,402.4894 531.76,425.3694 503.33,445.8194" fill="none" id="CompressorInterface-backto-GzipComp" style="stroke:#000000;stroke-width:1;"/><polygon fill="none" points="1037.06,268.1894,1018.3205,265.2179,1020.2855,277.056,1037.06,268.1894" style="stroke:#000000;stroke-width:1;stroke-linejoin:miter;stroke-miterlimit:10;"/></g><!--reverse link CompressorInterface to ZstdComp--><g class="link" data-entity-1="ent0003" data-entity-2="ent0013" data-link-type="extension" data-source-line="67" id="lnk25"><path codeLine="67" d="M1143,348.4694 C1143,386.5694 1143,413.1994 1143,445.8094" fill="none" id="CompressorInterface-backto-ZstdComp" style="stroke:#000000;stroke-width:1;"/><polygon fill="none" points="1143,330.4694,1137,348.4694,1149,348.4694,1143,330.4694" style="stroke:#000000;stroke-width:1;stroke-linejoin:miter;stroke-miterlimit:10;"/></g><!--reverse link CompressorInterface to LzmaComp--><g class="link" data-entity-1="ent0003" data-entity-2="ent0018" data-link-type="extension" data-source-line="68" id="lnk27"><path codeLine="68" d="M1241.3688,342.5886 C1283.2088,380.6886 1318.9,413.1994 1354.71,445.8094" fill="none" id="CompressorInterface-backto-LzmaComp" style="stroke:#000000;stroke-width:1;"/><polygon fill="none" points="1228.06,330.4694,1237.3291,347.0248,1245.4086,338.1523,1228.06,330.4694" style="stroke:#000000;stroke-width:1;stroke-linejoin:miter;stroke-miterlimit:10;"/></g><!--link buildCompressor to GzipComp--><g class="link" data-entity-1="ent0005" data-entity-2="ent0007" data-link-type="dependency" data-source-line="70" id="lnk28"><path codeLine="70" d="M1325.46,322.2894 C1306.75,335.1094 1286.08,346.7694 1265,354.1794 C1195.41,378.6194 672.05,364.0894 602,387.1794 C564.22,399.6294 530.9148,420.7561 502.1648,442.6961" fill="none" id="buildCompressor-to-GzipComp" style="stroke:#000000;stroke-width:1;stroke-dasharray:7,7;"/><polygon fill="#000000" points="498.19,445.7294,507.7713,443.4493,502.1648,442.6961,502.918,437.0896,498.19,445.7294" style="stroke:#000000;stroke-width:1;stroke-linejoin:miter;stroke-miterlimit:10;"/><text fill="#000000" font-family="Verdana" font-size="13" lengthAdjust="spacing" textLength="26" x="1212.58" y="375.2463">&#21019;&#24314;</text></g><!--link buildCompressor to ZstdComp--><g class="link" data-entity-1="ent0005" data-entity-2="ent0013" data-link-type="dependency" data-source-line="71" id="lnk29"><path codeLine="71" d="M1328.87,322.3294 C1285.2,362.0994 1235.3063,407.5423 1196.9063,442.5223" fill="none" id="buildCompressor-to-ZstdComp" style="stroke:#000000;stroke-width:1;stroke-dasharray:7,7;"/><polygon fill="#000000" points="1193.21,445.8894,1202.557,442.7856,1196.9063,442.5223,1197.1697,436.8716,1193.21,445.8894" style="stroke:#000000;stroke-width:1;stroke-linejoin:miter;stroke-miterlimit:10;"/><text fill="#000000" font-family="Verdana" font-size="13" lengthAdjust="spacing" textLength="26" x="1282.86" y="375.2463">&#21019;&#24314;</text></g><!--link buildCompressor to LzmaComp--><g class="link" data-entity-1="ent0005" data-entity-2="ent0018" data-link-type="dependency" data-source-line="72" id="lnk30"><path codeLine="72" d="M1405,322.3294 C1405,362.0994 1405,405.9094 1405,440.8894" fill="none" id="buildCompressor-to-LzmaComp" style="stroke:#000000;stroke-width:1;stroke-dasharray:7,7;"/><polygon fill="#000000" points="1405,445.8894,1409,436.8894,1405,440.8894,1401,436.8894,1405,445.8894" style="stroke:#000000;stroke-width:1;stroke-linejoin:miter;stroke-miterlimit:10;"/><text fill="#000000" font-family="Verdana" font-size="13" lengthAdjust="spacing" textLength="26" x="1406" y="375.2463">&#21019;&#24314;</text></g><!--link GzipComp to deflateInit--><g class="link" data-entity-1="ent0007" data-entity-2="ent0008" data-link-type="dependency" data-source-line="75" id="lnk31"><path codeLine="75" d="M373.35,525.9594 C313.07,553.1694 232.4071,589.562 175.6371,615.192" fill="none" id="GzipComp-to-deflateInit" style="stroke:#000000;stroke-width:1;"/><polygon fill="#000000" points="171.08,617.2494,180.9287,617.1917,175.6371,615.192,177.6369,609.9004,171.08,617.2494" style="stroke:#000000;stroke-width:1;stroke-linejoin:miter;stroke-miterlimit:10;"/><text fill="#000000" font-family="Verdana" font-size="13" lengthAdjust="spacing" textLength="39" x="268.99" y="582.1363">&#21021;&#22987;&#21270;</text></g><!--link GzipComp to deflateDo--><g class="link" data-entity-1="ent0007" data-entity-2="ent0009" data-link-type="dependency" data-source-line="76" id="lnk32"><path codeLine="76" d="M385.7,539.4594 C353.65,564.2394 319.0255,591.001 291.2055,612.511" fill="none" id="GzipComp-to-deflateDo" style="stroke:#000000;stroke-width:1;"/><polygon fill="#000000" points="287.25,615.5694,296.8167,613.2287,291.2055,612.511,291.9233,606.8999,287.25,615.5694" style="stroke:#000000;stroke-width:1;stroke-linejoin:miter;stroke-miterlimit:10;"/><text fill="#000000" font-family="Verdana" font-size="13" lengthAdjust="spacing" textLength="26" x="342.65" y="582.1363">&#21387;&#32553;</text></g><!--link GzipComp to inflateInit--><g class="link" data-entity-1="ent0007" data-entity-2="ent0010" data-link-type="dependency" data-source-line="77" id="lnk33"><path codeLine="77" d="M427.14,539.2594 C417.37,564.2094 407.3923,589.6933 398.9423,611.2833" fill="none" id="GzipComp-to-inflateInit" style="stroke:#000000;stroke-width:1;"/><polygon fill="#000000" points="397.12,615.9394,404.125,609.0163,398.9423,611.2833,396.6753,606.1006,397.12,615.9394" style="stroke:#000000;stroke-width:1;stroke-linejoin:miter;stroke-miterlimit:10;"/><text fill="#000000" font-family="Verdana" font-size="13" lengthAdjust="spacing" textLength="39" x="414.73" y="582.1363">&#21021;&#22987;&#21270;</text></g><!--link GzipComp to inflateDo--><g class="link" data-entity-1="ent0007" data-entity-2="ent0011" data-link-type="dependency" data-source-line="78" id="lnk34"><path codeLine="78" d="M467.71,539.2594 C480.12,564.2094 492.8931,589.8727 503.6331,611.4627" fill="none" id="GzipComp-to-inflateDo" style="stroke:#000000;stroke-width:1;"/><polygon fill="#000000" points="505.86,615.9394,505.4329,606.0998,503.6331,611.4627,498.2702,609.6629,505.86,615.9394" style="stroke:#000000;stroke-width:1;stroke-linejoin:miter;stroke-miterlimit:10;"/><text fill="#000000" font-family="Verdana" font-size="13" lengthAdjust="spacing" textLength="26" x="490.22" y="582.1363">&#35299;&#21387;</text></g><!--link ZstdComp to zstdCompress--><g class="link" data-entity-1="ent0013" data-entity-2="ent0014" data-link-type="dependency" data-source-line="80" id="lnk35"><path codeLine="80" d="M1089.11,539.2594 C1059.74,564.1294 1028.1155,590.9079 1002.6355,612.4879" fill="none" id="ZstdComp-to-zstdCompress" style="stroke:#000000;stroke-width:1;"/><polygon fill="#000000" points="998.82,615.7194,1008.273,612.9551,1002.6355,612.4879,1003.1027,606.8504,998.82,615.7194" style="stroke:#000000;stroke-width:1;stroke-linejoin:miter;stroke-miterlimit:10;"/></g><!--link ZstdComp to zstdDecompress--><g class="link" data-entity-1="ent0013" data-entity-2="ent0015" data-link-type="dependency" data-source-line="81" id="lnk36"><path codeLine="81" d="M1148.15,539.2594 C1150.96,564.2094 1153.8008,589.3807 1156.2308,610.9707" fill="none" id="ZstdComp-to-zstdDecompress" style="stroke:#000000;stroke-width:1;"/><polygon fill="#000000" points="1156.79,615.9394,1159.7583,606.5485,1156.2308,610.9707,1151.8085,607.4432,1156.79,615.9394" style="stroke:#000000;stroke-width:1;stroke-linejoin:miter;stroke-miterlimit:10;"/></g><!--link ZstdComp to zstdSize--><g class="link" data-entity-1="ent0013" data-entity-2="ent0016" data-link-type="dependency" data-source-line="82" id="lnk37"><path codeLine="82" d="M1071.17,520.2194 C998.95,546.9694 892.6287,586.3528 818.3787,613.8528" fill="none" id="ZstdComp-to-zstdSize" style="stroke:#000000;stroke-width:1;"/><polygon fill="#000000" points="813.69,615.5894,823.519,616.2145,818.3787,613.8528,820.7405,608.7126,813.69,615.5894" style="stroke:#000000;stroke-width:1;stroke-linejoin:miter;stroke-miterlimit:10;"/></g><!--link LzmaComp to lzmaInit--><g class="link" data-entity-1="ent0018" data-entity-2="ent0019" data-link-type="dependency" data-source-line="84" id="lnk38"><path codeLine="84" d="M1463.69,539.4594 C1495.41,564.2394 1529.6595,590.9817 1557.1995,612.4917" fill="none" id="LzmaComp-to-lzmaInit" style="stroke:#000000;stroke-width:1;"/><polygon fill="#000000" points="1561.14,615.5694,1556.5093,606.8771,1557.1995,612.4917,1551.5849,613.1819,1561.14,615.5694" style="stroke:#000000;stroke-width:1;stroke-linejoin:miter;stroke-miterlimit:10;"/></g><!--link LzmaComp to lzmaCode--><g class="link" data-entity-1="ent0018" data-entity-2="ent0020" data-link-type="dependency" data-source-line="85" id="lnk39"><path codeLine="85" d="M1480.03,523.9394 C1551.19,552.6994 1651.9143,593.4057 1716.4143,619.4757" fill="none" id="LzmaComp-to-lzmaCode" style="stroke:#000000;stroke-width:1;"/><polygon fill="#000000" points="1721.05,621.3494,1714.2047,614.2682,1716.4143,619.4757,1711.2069,621.6853,1721.05,621.3494" style="stroke:#000000;stroke-width:1;stroke-linejoin:miter;stroke-miterlimit:10;"/></g><!--link LzmaComp to lzmaAuto--><g class="link" data-entity-1="ent0018" data-entity-2="ent0021" data-link-type="dependency" data-source-line="86" id="lnk40"><path codeLine="86" d="M1399.55,539.2594 C1396.57,564.2094 1393.5633,589.3847 1390.9833,610.9747" fill="none" id="LzmaComp-to-lzmaAuto" style="stroke:#000000;stroke-width:1;"/><polygon fill="#000000" points="1390.39,615.9394,1395.4296,607.4776,1390.9833,610.9747,1387.4862,606.5283,1390.39,615.9394" style="stroke:#000000;stroke-width:1;stroke-linejoin:miter;stroke-miterlimit:10;"/></g><!--link CompressorInterface to GMN41--><g class="link" data-entity-1="ent0003" data-entity-2="ent0042" data-link-type="association" data-source-line="89" id="lnk43"><path d="M1188.84,173.5894 C1216.99,134.2094 1257.13,91.0594 1306.5,72.7994 C1347.56,57.6094 1460.28,65.8594 1503.5,72.7994 C1663.89,98.5594 1841.1,164.5094 1948.22,208.7994" fill="none" id="CompressorInterface-GMN41" style="stroke:#000000;stroke-width:1;stroke-dasharray:7,7;"/></g><!--link buildCompressor to GMN44--><g class="link" data-entity-1="ent0005" data-entity-2="ent0045" data-link-type="association" data-source-line="97" id="lnk46"><path d="M1505.46,272.3694 C1598.51,292.7994 1739,330.0294 1851,387.1794 C1887.5,405.7994 1924.17,434.3994 1950.37,456.9694" fill="none" id="buildCompressor-GMN44" style="stroke:#000000;stroke-width:1;stroke-dasharray:7,7;"/></g><?plantuml-src ZLPjJnj74Fv-lsBhIYseWT1IgZO2IwsngqXyg9ggbI8ajBONS-9yQzsTARYj5C9x01irGDgYqj20JFf2YQ8cgMtWlqJUkykd_eNExftNTpv3QilotSppxCuyCpjtRrXJ94zGGSEghfZJgbx01iwZZ8PDynDgP8cHe1erq9k3uXE1uCnqpg15FUl3Kk_ohw9OggKHnFxSSfxMdVelpHTh_pP-OkLrf_5O6ktznMRz6TixLvG2h8Dp1CKw837qZQ8W9Drs-OXL7h4dTsC8c-YcRX5Z4cV869uZi7domzH0AWaK11-SDYq3PomlK1HBq7p18AP9ZN7Tt-N7O_lUcVlam5jLBDb6oSNzzH1w1sLyRm-8KBIk8LgquBzN-hFaTGWTvqbFBxg183XLpqtCgEJh07qI5pLhZCmGJO1KtP9EipWvgSvUobNDBx6cPZqky3WkJQac0Dyf_1SKaZq_OkMxBI5Je1CrvdmPKwdKO7B0JzjNBrrKjMnRd9xUW8Z-MYjdziwfMAu3B0Mq7_vZRvwmhKsdUifMzrYznaxsc-VhlZkMAwc567gv_3tw5AxQ2xJy9TFAUlxRS1NrQwKyzlnZS1NnQroRaG7KFBjmje-TamVsqvrNzH_SaqEdLcMhlryYLJYMSPtVozn5ljposNHEDE1GygEmSc6wn7EJ58RLTg0Kh7OV3ab9KzE-EHWSU3veeRVAJkCE6Ffp9Hcpt0-QICCMkQchrdkYJAi_i-ewszZrOXO1131Tg9nbhrNTWuqePPG62Qf-oLvkzH5m1J60wK9jxnMbYBt2jGZNVLpdz-5QS8ke1VJmK6eeN8imNU8lhGMKWlTSzt8CHie1s6WzRj_wOdH2ZWKkqkQE_ST1GDfI8Ae8Cp1I93SW5UUEIaY4dIDM2eOrIL2OPhfrIoq9nTtoSrRPPI-gxB3AJYjo9UwFQ1u-I-CwlmzhpYsUveda-yb4MFCmNUAlqfoVu_zx16Qx707Edo3Od9iWUeR2CopKcqvZrtautugTOpjxK_0vKNJdt_EiKG4Ig0uyIKg0FqB2HOkAalcRkYk_iNl77ZEuuyU04qA3r6-ZaP4HvDIhzje5lrJaUEWh5lg-ZNTx9YcoRQ_0I9clm2YTixg_FzwUJpUGDwQxecG8Lw9a41Bb9yoMbruj7Bkd2p2BEzBkYmSdb63wjUiA6gKS8Zeox0-CdiiNaSC68Dx1KWBg0Y1qF2EUmE6B-CHn2fG1pBBT8bRHJn6hQ1H5fnP1XfgRiX2Tx5f7X8RJSVVyFbiwkix_LcfkTT7TM80ZCdmz7GT_AqnuVIXWVJWpXOsuU5RE4Fxmzmnl0R0zSLuBTI-ssTu-IiuMm46ompDKpLv3ISEW1a-7Rsjl_sLlp3kFQrvmx73HsLfMY9v5F2a_jJIrB9hdkNMqa9-NQ1Btpb8xcociPpN2Np-B1NWdOeShpVgP_U2PtmOjmEV4X83v6vSz_oixt0I4NsE4FF9Nr9Y6bnuOAAnowjGkdEFrTdJ_0G00?></g></svg>