<svg xmlns="http://www.w3.org/2000/svg" xmlns:xlink="http://www.w3.org/1999/xlink" contentStyleType="text/css" data-diagram-type="CLASS" height="721px" preserveAspectRatio="none" style="width:2588px;height:721px;background:#FFFFFF;" version="1.1" viewBox="0 0 2588 721" width="2588px" zoomAndPan="magnify"><?plantuml 1.2026.6?><defs/><g><g class="title" data-source-line="5"><text fill="#000000" font-family="Verdana" font-size="22" font-weight="700" lengthAdjust="spacing" textLength="330.0011" x="1128.1573" y="35.4209">&#23376;&#31995;&#32479;&#20108;&#65306;&#26680;&#24515;&#24341;&#25806;&#23376;&#31995;&#32479;&#26500;&#20214;&#22270;</text></g><!--cluster ???????--><g class="cluster" data-qualified-name="......." data-source-line="7" id="ent0001"><path d="M13.5,57.6094 L112.4996,57.6094 A3.75,3.75 0 0 1 114.9996,60.1094 L121.9996,79.9063 L1964.5,79.9063 A2.5,2.5 0 0 1 1967,82.4063 L1967,596.6494 A2.5,2.5 0 0 1 1964.5,599.1494 L13.5,599.1494 A2.5,2.5 0 0 1 11,596.6494 L11,60.1094 A2.5,2.5 0 0 1 13.5,57.6094" fill="#FFFFFF" style="stroke:#000000;stroke-width:1;"/><line style="stroke:#000000;stroke-width:1;" x1="11" x2="121.9996" y1="79.9063" y2="79.9063"/><text fill="#000000" font-family="Verdana" font-size="14" font-weight="700" lengthAdjust="spacing" textLength="97.9996" x="15" y="72.6045">&#26680;&#24515;&#24341;&#25806;&#23376;&#31995;&#32479;</text></g><!--cluster Types--><g class="cluster" data-qualified-name="........Types" data-source-line="9" id="ent0002"><path d="M37.5,108.4594 L181.4528,108.4594 A3.75,3.75 0 0 1 183.9528,110.9594 L190.9528,130.7562 L492.5,130.7562 A2.5,2.5 0 0 1 495,133.2562 L495,400.0894 A2.5,2.5 0 0 1 492.5,402.5894 L37.5,402.5894 A2.5,2.5 0 0 1 35,400.0894 L35,110.9594 A2.5,2.5 0 0 1 37.5,108.4594" fill="#E8F0FE" style="stroke:#000000;stroke-width:1;"/><line style="stroke:#000000;stroke-width:1;" x1="35" x2="190.9528" y1="130.7562" y2="130.7562"/><text fill="#000000" font-family="Verdana" font-size="14" font-weight="700" lengthAdjust="spacing" textLength="142.9528" x="39" y="123.4545">&#31867;&#22411;&#23450;&#20041;&#65288;types.h&#65289;</text></g><!--cluster ErrorCodePkg--><g class="cluster" data-qualified-name="........ErrorCodePkg" data-source-line="17" id="ent0008"><path d="M206.5,451.5894 L377.0446,451.5894 A3.75,3.75 0 0 1 379.5446,454.0894 L386.5446,473.8862 L492.5,473.8862 A2.5,2.5 0 0 1 495,476.3862 L495,572.6494 A2.5,2.5 0 0 1 492.5,575.1494 L206.5,575.1494 A2.5,2.5 0 0 1 204,572.6494 L204,454.0894 A2.5,2.5 0 0 1 206.5,451.5894" fill="#FCE4EC" style="stroke:#000000;stroke-width:1;"/><line style="stroke:#000000;stroke-width:1;" x1="204" x2="386.5446" y1="473.8862" y2="473.8862"/><text fill="#000000" font-family="Verdana" font-size="14" font-weight="700" lengthAdjust="spacing" textLength="169.5446" x="208" y="466.5845">&#38169;&#35823;&#30721;&#65288;error_code.h&#65289;</text></g><!--cluster Utils--><g class="cluster" data-qualified-name="........Utils" data-source-line="22" id="ent0011"><path d="M1227.5,279.0194 L1284.4998,279.0194 A3.75,3.75 0 0 1 1286.9998,281.5194 L1293.9998,301.3162 L1553.5,301.3162 A2.5,2.5 0 0 1 1556,303.8162 L1556,400.0894 A2.5,2.5 0 0 1 1553.5,402.5894 L1227.5,402.5894 A2.5,2.5 0 0 1 1225,400.0894 L1225,281.5194 A2.5,2.5 0 0 1 1227.5,279.0194" fill="#FFF3E0" style="stroke:#000000;stroke-width:1;"/><line style="stroke:#000000;stroke-width:1;" x1="1225" x2="1293.9998" y1="301.3162" y2="301.3162"/><text fill="#000000" font-family="Verdana" font-size="14" font-weight="700" lengthAdjust="spacing" textLength="55.9998" x="1229" y="294.0145">&#22522;&#30784;&#24037;&#20855;</text></g><!--cluster BackupEnginePkg--><g class="cluster" data-qualified-name="........BackupEnginePkg" data-source-line="27" id="ent0014"><path d="M521.5,100.6094 L634.0283,100.6094 A3.75,3.75 0 0 1 636.5283,103.1094 L643.5283,139.2031 L1198.5,139.2031 A2.5,2.5 0 0 1 1201,141.7031 L1201,565.6694 A2.5,2.5 0 0 1 1198.5,568.1694 L521.5,568.1694 A2.5,2.5 0 0 1 519,565.6694 L519,103.1094 A2.5,2.5 0 0 1 521.5,100.6094" fill="#E8F5E9" style="stroke:#000000;stroke-width:1;"/><line style="stroke:#000000;stroke-width:1;" x1="519" x2="643.5283" y1="139.2031" y2="139.2031"/><text fill="#000000" font-family="Verdana" font-size="14" font-weight="700" lengthAdjust="spacing" textLength="111.5283" x="523" y="115.6045">BackupEngine</text><text fill="#000000" font-family="Verdana" font-size="14" font-weight="700" lengthAdjust="spacing" textLength="55.9998" x="550.7643" y="131.9014">&#22791;&#20221;&#24341;&#25806;</text></g><!--cluster RestoreEnginePkg--><g class="cluster" data-qualified-name="........RestoreEnginePkg" data-source-line="36" id="ent0021"><path d="M1582.5,100.6094 L1698.6309,100.6094 A3.75,3.75 0 0 1 1701.1309,103.1094 L1708.1309,139.2031 L1940.5,139.2031 A2.5,2.5 0 0 1 1943,141.7031 L1943,565.6694 A2.5,2.5 0 0 1 1940.5,568.1694 L1582.5,568.1694 A2.5,2.5 0 0 1 1580,565.6694 L1580,103.1094 A2.5,2.5 0 0 1 1582.5,100.6094" fill="#F3E5F5" style="stroke:#000000;stroke-width:1;"/><line style="stroke:#000000;stroke-width:1;" x1="1580" x2="1708.1309" y1="139.2031" y2="139.2031"/><text fill="#000000" font-family="Verdana" font-size="14" font-weight="700" lengthAdjust="spacing" textLength="115.1309" x="1584" y="115.6045">RestoreEngine</text><text fill="#000000" font-family="Verdana" font-size="14" font-weight="700" lengthAdjust="spacing" textLength="55.9998" x="1613.5656" y="131.9014">&#24674;&#22797;&#24341;&#25806;</text></g><!--class FileType--><g class="entity" data-qualified-name="........Types.FileType" data-source-line="10" id="ent0003"><rect fill="#F1F1F1" height="72.5625" rx="2.5" ry="2.5" style="stroke:#333333;stroke-width:1;" width="111.9996" x="51" y="143.4594"/><ellipse cx="64" cy="171.7406" fill="#FFFFFF" rx="9" ry="9" style="stroke:#000000;stroke-width:1;"/><path d="M67.4063,173.7094 C66.6875,174.3812 65.3906,175.5531 63.6406,175.5531 C61.4219,175.5531 60.4531,173.6156 60.4531,171.6625 C60.4531,169.2719 61.9375,168.0062 63.5781,168.0062 C65.5938,168.0062 65.8125,169.5219 65.9844,170.6156 L67.4063,170.4281 C67.3125,169.85 67.2344,169.2719 67.2344,168.3031 C67.2344,167.6312 67.2813,167.0844 67.3125,166.6625 L65.9063,166.6625 L65.7969,167.6156 C65.2031,167.0844 64.5625,166.5375 63.3438,166.5375 C61.2969,166.5375 58.8906,168.3656 58.8906,171.6781 C58.8906,174.6156 60.6563,177.0062 63.6563,177.0062 C66.0938,177.0062 67.7969,175.3812 68.3906,174.8031 L67.4063,173.7094 Z " fill="#000000"/><text fill="#000000" font-family="Verdana" font-size="12" font-style="italic" lengthAdjust="spacing" textLength="38.6838" x="98.6579" y="159.598">&#171;&#26522;&#20030;&#187;</text><text fill="#000000" font-family="Verdana" font-size="14" lengthAdjust="spacing" textLength="58.7822" x="88.6087" y="175.4232">FileType</text><text fill="#000000" font-family="Verdana" font-size="14" lengthAdjust="spacing" textLength="83.9996" x="76" y="191.7201">&#25991;&#20214;&#31867;&#22411;&#26522;&#20030;</text><line style="stroke:#333333;stroke-width:1;" x1="52" x2="161.9996" y1="200.0219" y2="200.0219"/><line style="stroke:#333333;stroke-width:1;" x1="52" x2="161.9996" y1="208.0219" y2="208.0219"/></g><!--class Metadata--><g class="entity" data-qualified-name="........Types.Metadata" data-source-line="11" id="ent0004"><rect fill="#F1F1F1" height="72.5625" rx="2.5" ry="2.5" style="stroke:#333333;stroke-width:1;" width="111.9996" x="198" y="143.4594"/><ellipse cx="211" cy="171.7406" fill="#FFFFFF" rx="9" ry="9" style="stroke:#000000;stroke-width:1;"/><path d="M214.4063,173.7094 C213.6875,174.3812 212.3906,175.5531 210.6406,175.5531 C208.4219,175.5531 207.4531,173.6156 207.4531,171.6625 C207.4531,169.2719 208.9375,168.0062 210.5781,168.0062 C212.5938,168.0062 212.8125,169.5219 212.9844,170.6156 L214.4063,170.4281 C214.3125,169.85 214.2344,169.2719 214.2344,168.3031 C214.2344,167.6312 214.2813,167.0844 214.3125,166.6625 L212.9063,166.6625 L212.7969,167.6156 C212.2031,167.0844 211.5625,166.5375 210.3438,166.5375 C208.2969,166.5375 205.8906,168.3656 205.8906,171.6781 C205.8906,174.6156 207.6563,177.0062 210.6563,177.0062 C213.0938,177.0062 214.7969,175.3812 215.3906,174.8031 L214.4063,173.7094 Z " fill="#000000"/><text fill="#000000" font-family="Verdana" font-size="12" font-style="italic" lengthAdjust="spacing" textLength="50.6839" x="239.6579" y="159.598">&#171;&#32467;&#26500;&#20307;&#187;</text><text fill="#000000" font-family="Verdana" font-size="14" lengthAdjust="spacing" textLength="66.2949" x="231.8524" y="175.4232">Metadata</text><text fill="#000000" font-family="Verdana" font-size="14" lengthAdjust="spacing" textLength="83.9996" x="223" y="191.7201">&#20803;&#25968;&#25454;&#32467;&#26500;&#20307;</text><line style="stroke:#333333;stroke-width:1;" x1="199" x2="308.9996" y1="200.0219" y2="200.0219"/><line style="stroke:#333333;stroke-width:1;" x1="199" x2="308.9996" y1="208.0219" y2="208.0219"/></g><!--class FileEntry--><g class="entity" data-qualified-name="........Types.FileEntry" data-source-line="12" id="ent0005"><rect fill="#F1F1F1" height="72.5625" rx="2.5" ry="2.5" style="stroke:#333333;stroke-width:1;" width="89.6943" x="129.15" y="314.0194"/><ellipse cx="142.15" cy="342.3006" fill="#FFFFFF" rx="9" ry="9" style="stroke:#000000;stroke-width:1;"/><path d="M145.5563,344.2694 C144.8375,344.9412 143.5406,346.1131 141.7906,346.1131 C139.5719,346.1131 138.6031,344.1756 138.6031,342.2225 C138.6031,339.8319 140.0875,338.5662 141.7281,338.5662 C143.7438,338.5662 143.9625,340.0819 144.1344,341.1756 L145.5563,340.9881 C145.4625,340.41 145.3844,339.8319 145.3844,338.8631 C145.3844,338.1912 145.4313,337.6444 145.4625,337.2225 L144.0563,337.2225 L143.9469,338.1756 C143.3531,337.6444 142.7125,337.0975 141.4938,337.0975 C139.4469,337.0975 137.0406,338.9256 137.0406,342.2381 C137.0406,345.1756 138.8063,347.5662 141.8063,347.5662 C144.2438,347.5662 145.9469,345.9412 146.5406,345.3631 L145.5563,344.2694 Z " fill="#000000"/><text fill="#000000" font-family="Verdana" font-size="12" font-style="italic" lengthAdjust="spacing" textLength="50.6839" x="159.6552" y="330.158">&#171;&#32467;&#26500;&#20307;&#187;</text><text fill="#000000" font-family="Verdana" font-size="14" lengthAdjust="spacing" textLength="61.6943" x="154.15" y="345.9832">FileEntry</text><text fill="#000000" font-family="Verdana" font-size="14" lengthAdjust="spacing" textLength="55.9998" x="156.9973" y="362.2801">&#25991;&#20214;&#26465;&#30446;</text><line style="stroke:#333333;stroke-width:1;" x1="130.15" x2="217.8443" y1="370.5819" y2="370.5819"/><line style="stroke:#333333;stroke-width:1;" x1="130.15" x2="217.8443" y1="378.5819" y2="378.5819"/></g><!--class OperationStats--><g class="entity" data-qualified-name="........Types.OperationStats" data-source-line="13" id="ent0006"><rect fill="#F1F1F1" height="72.5625" rx="2.5" ry="2.5" style="stroke:#333333;stroke-width:1;" width="133.4102" x="345.29" y="143.4594"/><ellipse cx="358.29" cy="171.7406" fill="#FFFFFF" rx="9" ry="9" style="stroke:#000000;stroke-width:1;"/><path d="M361.6963,173.7094 C360.9775,174.3812 359.6806,175.5531 357.9306,175.5531 C355.7119,175.5531 354.7431,173.6156 354.7431,171.6625 C354.7431,169.2719 356.2275,168.0062 357.8681,168.0062 C359.8838,168.0062 360.1025,169.5219 360.2744,170.6156 L361.6963,170.4281 C361.6025,169.85 361.5244,169.2719 361.5244,168.3031 C361.5244,167.6312 361.5713,167.0844 361.6025,166.6625 L360.1963,166.6625 L360.0869,167.6156 C359.4931,167.0844 358.8525,166.5375 357.6338,166.5375 C355.5869,166.5375 353.1806,168.3656 353.1806,171.6781 C353.1806,174.6156 354.9463,177.0062 357.9463,177.0062 C360.3838,177.0062 362.0869,175.3812 362.6806,174.8031 L361.6963,173.7094 Z " fill="#000000"/><text fill="#000000" font-family="Verdana" font-size="12" font-style="italic" lengthAdjust="spacing" textLength="50.6839" x="397.6531" y="159.598">&#171;&#32467;&#26500;&#20307;&#187;</text><text fill="#000000" font-family="Verdana" font-size="14" lengthAdjust="spacing" textLength="105.4102" x="370.29" y="175.4232">OperationStats</text><text fill="#000000" font-family="Verdana" font-size="14" lengthAdjust="spacing" textLength="55.9998" x="394.9952" y="191.7201">&#25805;&#20316;&#32479;&#35745;</text><line style="stroke:#333333;stroke-width:1;" x1="346.29" x2="477.7002" y1="200.0219" y2="200.0219"/><line style="stroke:#333333;stroke-width:1;" x1="346.29" x2="477.7002" y1="208.0219" y2="208.0219"/></g><!--class BackupResult--><g class="entity" data-qualified-name="........Types.BackupResult" data-source-line="14" id="ent0007"><rect fill="#F1F1F1" height="72.5625" rx="2.5" ry="2.5" style="stroke:#333333;stroke-width:1;" width="123.6348" x="273.18" y="314.0194"/><ellipse cx="286.18" cy="342.3006" fill="#FFFFFF" rx="9" ry="9" style="stroke:#000000;stroke-width:1;"/><path d="M289.5863,344.2694 C288.8675,344.9412 287.5706,346.1131 285.8206,346.1131 C283.6019,346.1131 282.6331,344.1756 282.6331,342.2225 C282.6331,339.8319 284.1175,338.5662 285.7581,338.5662 C287.7738,338.5662 287.9925,340.0819 288.1644,341.1756 L289.5863,340.9881 C289.4925,340.41 289.4144,339.8319 289.4144,338.8631 C289.4144,338.1912 289.4613,337.6444 289.4925,337.2225 L288.0863,337.2225 L287.9769,338.1756 C287.3831,337.6444 286.7425,337.0975 285.5238,337.0975 C283.4769,337.0975 281.0706,338.9256 281.0706,342.2381 C281.0706,345.1756 282.8363,347.5662 285.8363,347.5662 C288.2738,347.5662 289.9769,345.9412 290.5706,345.3631 L289.5863,344.2694 Z " fill="#000000"/><text fill="#000000" font-family="Verdana" font-size="12" font-style="italic" lengthAdjust="spacing" textLength="50.6839" x="320.6554" y="330.158">&#171;&#32467;&#26500;&#20307;&#187;</text><text fill="#000000" font-family="Verdana" font-size="14" lengthAdjust="spacing" textLength="95.6348" x="298.18" y="345.9832">BackupResult</text><text fill="#000000" font-family="Verdana" font-size="14" lengthAdjust="spacing" textLength="55.9998" x="317.9975" y="362.2801">&#22791;&#20221;&#32467;&#26524;</text><line style="stroke:#333333;stroke-width:1;" x1="274.18" x2="395.8148" y1="370.5819" y2="370.5819"/><line style="stroke:#333333;stroke-width:1;" x1="274.18" x2="395.8148" y1="378.5819" y2="378.5819"/></g><!--class ErrorCode--><g class="entity" data-qualified-name="........ErrorCodePkg.ErrorCode" data-source-line="18" id="ent0009"><rect fill="#F1F1F1" height="72.5625" rx="2.5" ry="2.5" style="stroke:#333333;stroke-width:1;" width="98.5195" x="219.74" y="486.5894"/><ellipse cx="232.74" cy="514.8706" fill="#FFFFFF" rx="9" ry="9" style="stroke:#000000;stroke-width:1;"/><path d="M236.1463,516.8394 C235.4275,517.5113 234.1306,518.6831 232.3806,518.6831 C230.1619,518.6831 229.1931,516.7456 229.1931,514.7925 C229.1931,512.4019 230.6775,511.1363 232.3181,511.1363 C234.3338,511.1363 234.5525,512.6519 234.7244,513.7456 L236.1463,513.5581 C236.0525,512.98 235.9744,512.4019 235.9744,511.4331 C235.9744,510.7613 236.0213,510.2144 236.0525,509.7925 L234.6463,509.7925 L234.5369,510.7456 C233.9431,510.2144 233.3025,509.6675 232.0838,509.6675 C230.0369,509.6675 227.6306,511.4956 227.6306,514.8081 C227.6306,517.7456 229.3963,520.1363 232.3963,520.1363 C234.8338,520.1363 236.5369,518.5113 237.1306,517.9331 L236.1463,516.8394 Z " fill="#000000"/><text fill="#000000" font-family="Verdana" font-size="12" font-style="italic" lengthAdjust="spacing" textLength="38.6838" x="260.6579" y="502.728">&#171;&#26522;&#20030;&#187;</text><text fill="#000000" font-family="Verdana" font-size="14" lengthAdjust="spacing" textLength="70.5195" x="244.74" y="518.5532">ErrorCode</text><text fill="#000000" font-family="Verdana" font-size="14" lengthAdjust="spacing" textLength="69.9997" x="244.9999" y="534.8501">&#38169;&#35823;&#30721;&#26522;&#20030;</text><line style="stroke:#333333;stroke-width:1;" x1="220.74" x2="317.2595" y1="543.1519" y2="543.1519"/><line style="stroke:#333333;stroke-width:1;" x1="220.74" x2="317.2595" y1="551.1519" y2="551.1519"/></g><!--class toString--><g class="entity" data-qualified-name="........ErrorCodePkg.toString" data-source-line="19" id="ent0010"><rect fill="#F1F1F1" height="58.5938" rx="2.5" ry="2.5" style="stroke:#333333;stroke-width:1;" width="125.9996" x="353" y="493.5694"/><ellipse cx="366" cy="514.8662" fill="#FFFFFF" rx="9" ry="9" style="stroke:#000000;stroke-width:1;"/><path d="M369.4063,516.835 C368.6875,517.5069 367.3906,518.6787 365.6406,518.6787 C363.4219,518.6787 362.4531,516.7412 362.4531,514.7881 C362.4531,512.3975 363.9375,511.1319 365.5781,511.1319 C367.5938,511.1319 367.8125,512.6475 367.9844,513.7412 L369.4063,513.5537 C369.3125,512.9756 369.2344,512.3975 369.2344,511.4287 C369.2344,510.7569 369.2813,510.21 369.3125,509.7881 L367.9063,509.7881 L367.7969,510.7412 C367.2031,510.21 366.5625,509.6631 365.3438,509.6631 C363.2969,509.6631 360.8906,511.4912 360.8906,514.8037 C360.8906,517.7412 362.6563,520.1319 365.6563,520.1319 C368.0938,520.1319 369.7969,518.5069 370.3906,517.9287 L369.4063,516.835 Z " fill="#000000"/><text fill="#000000" font-family="Verdana" font-size="14" lengthAdjust="spacing" textLength="66.7598" x="393.6199" y="511.5645">toString()</text><text fill="#000000" font-family="Verdana" font-size="14" lengthAdjust="spacing" textLength="97.9996" x="378" y="527.8614">&#38169;&#35823;&#30721;&#36716;&#23383;&#31526;&#20018;</text><line style="stroke:#333333;stroke-width:1;" x1="354" x2="477.9996" y1="536.1631" y2="536.1631"/><line style="stroke:#333333;stroke-width:1;" x1="354" x2="477.9996" y1="544.1631" y2="544.1631"/></g><!--class Expected--><g class="entity" data-qualified-name="........Utils.Expected" data-source-line="23" id="ent0012"><rect fill="#F1F1F1" height="72.5625" rx="2.5" ry="2.5" style="stroke:#333333;stroke-width:1;" width="138.626" x="1240.69" y="314.0194"/><ellipse cx="1253.69" cy="342.3006" fill="#FFFFFF" rx="9" ry="9" style="stroke:#000000;stroke-width:1;"/><path d="M1257.0963,344.2694 C1256.3775,344.9412 1255.0806,346.1131 1253.3306,346.1131 C1251.1119,346.1131 1250.1431,344.1756 1250.1431,342.2225 C1250.1431,339.8319 1251.6275,338.5662 1253.2681,338.5662 C1255.2838,338.5662 1255.5025,340.0819 1255.6744,341.1756 L1257.0963,340.9881 C1257.0025,340.41 1256.9244,339.8319 1256.9244,338.8631 C1256.9244,338.1912 1256.9713,337.6444 1257.0025,337.2225 L1255.5963,337.2225 L1255.4869,338.1756 C1254.8931,337.6444 1254.2525,337.0975 1253.0338,337.0975 C1250.9869,337.0975 1248.5806,338.9256 1248.5806,342.2381 C1248.5806,345.1756 1250.3463,347.5662 1253.3463,347.5662 C1255.7838,347.5662 1257.4869,345.9412 1258.0806,345.3631 L1257.0963,344.2694 Z " fill="#000000"/><text fill="#000000" font-family="Verdana" font-size="12" font-style="italic" lengthAdjust="spacing" textLength="101.877" x="1270.0645" y="330.158">&#171;C++23 polyfill&#187;</text><text fill="#000000" font-family="Verdana" font-size="14" lengthAdjust="spacing" textLength="110.626" x="1265.69" y="345.9832">Expected&lt;T,E&gt;</text><text fill="#000000" font-family="Verdana" font-size="14" lengthAdjust="spacing" textLength="69.9997" x="1286.0031" y="362.2801">&#26399;&#26395;&#20540;&#31867;&#22411;</text><line style="stroke:#333333;stroke-width:1;" x1="1241.69" x2="1378.316" y1="370.5819" y2="370.5819"/><line style="stroke:#333333;stroke-width:1;" x1="1241.69" x2="1378.316" y1="378.5819" y2="378.5819"/></g><!--class Span--><g class="entity" data-qualified-name="........Utils.Span" data-source-line="24" id="ent0013"><rect fill="#F1F1F1" height="72.5625" rx="2.5" ry="2.5" style="stroke:#333333;stroke-width:1;" width="125.877" x="1414.06" y="314.0194"/><ellipse cx="1427.06" cy="342.3006" fill="#FFFFFF" rx="9" ry="9" style="stroke:#000000;stroke-width:1;"/><path d="M1430.4663,344.2694 C1429.7475,344.9412 1428.4506,346.1131 1426.7006,346.1131 C1424.4819,346.1131 1423.5131,344.1756 1423.5131,342.2225 C1423.5131,339.8319 1424.9975,338.5662 1426.6381,338.5662 C1428.6538,338.5662 1428.8725,340.0819 1429.0444,341.1756 L1430.4663,340.9881 C1430.3725,340.41 1430.2944,339.8319 1430.2944,338.8631 C1430.2944,338.1912 1430.3413,337.6444 1430.3725,337.2225 L1428.9663,337.2225 L1428.8569,338.1756 C1428.2631,337.6444 1427.6225,337.0975 1426.4038,337.0975 C1424.3569,337.0975 1421.9506,338.9256 1421.9506,342.2381 C1421.9506,345.1756 1423.7163,347.5662 1426.7163,347.5662 C1429.1538,347.5662 1430.8569,345.9412 1431.4506,345.3631 L1430.4663,344.2694 Z " fill="#000000"/><text fill="#000000" font-family="Verdana" font-size="12" font-style="italic" lengthAdjust="spacing" textLength="101.877" x="1437.06" y="330.158">&#171;C++20 polyfill&#187;</text><text fill="#000000" font-family="Verdana" font-size="14" lengthAdjust="spacing" textLength="67.2383" x="1454.3793" y="345.9832">Span&lt;T&gt;</text><text fill="#000000" font-family="Verdana" font-size="14" lengthAdjust="spacing" textLength="69.9997" x="1452.9986" y="362.2801">&#38750;&#25317;&#26377;&#35270;&#22270;</text><line style="stroke:#333333;stroke-width:1;" x1="1415.06" x2="1538.937" y1="370.5819" y2="370.5819"/><line style="stroke:#333333;stroke-width:1;" x1="1415.06" x2="1538.937" y1="378.5819" y2="378.5819"/></g><!--class BackupEngine--><g class="entity" data-qualified-name="........BackupEnginePkg.BackupEngine" data-source-line="28" id="ent0015"><rect fill="#F1F1F1" height="56.2656" rx="2.5" ry="2.5" style="stroke:#333333;stroke-width:1;" width="127.7295" x="1057.14" y="151.6094"/><ellipse cx="1070.14" cy="171.7422" fill="#FFFFFF" rx="9" ry="9" style="stroke:#000000;stroke-width:1;"/><path d="M1073.5463,173.7109 C1072.8275,174.3828 1071.5306,175.5547 1069.7806,175.5547 C1067.5619,175.5547 1066.5931,173.6172 1066.5931,171.6641 C1066.5931,169.2734 1068.0775,168.0078 1069.7181,168.0078 C1071.7338,168.0078 1071.9525,169.5234 1072.1244,170.6172 L1073.5463,170.4297 C1073.4525,169.8516 1073.3744,169.2734 1073.3744,168.3047 C1073.3744,167.6328 1073.4213,167.0859 1073.4525,166.6641 L1072.0463,166.6641 L1071.9369,167.6172 C1071.3431,167.0859 1070.7025,166.5391 1069.4838,166.5391 C1067.4369,166.5391 1065.0306,168.3672 1065.0306,171.6797 C1065.0306,174.6172 1066.7963,177.0078 1069.7963,177.0078 C1072.2338,177.0078 1073.9369,175.3828 1074.5306,174.8047 L1073.5463,173.7109 Z " fill="#000000"/><text fill="#000000" font-family="Verdana" font-size="12" font-style="italic" lengthAdjust="spacing" textLength="38.6838" x="1112.6629" y="167.748">&#171;&#20027;&#31867;&#187;</text><text fill="#000000" font-family="Verdana" font-size="14" lengthAdjust="spacing" textLength="99.7295" x="1082.14" y="183.5732">BackupEngine</text><line style="stroke:#333333;stroke-width:1;" x1="1058.14" x2="1183.8695" y1="191.875" y2="191.875"/><line style="stroke:#333333;stroke-width:1;" x1="1058.14" x2="1183.8695" y1="199.875" y2="199.875"/></g><!--class backup_method--><g class="entity" data-qualified-name="........BackupEnginePkg.backup_method" data-source-line="29" id="ent0016"><rect fill="#F1F1F1" height="58.5938" rx="2.5" ry="2.5" style="stroke:#333333;stroke-width:1;" width="89.9541" x="1076.02" y="321.0094"/><ellipse cx="1089.02" cy="342.3063" fill="#FFFFFF" rx="9" ry="9" style="stroke:#000000;stroke-width:1;"/><path d="M1092.4263,344.275 C1091.7075,344.9469 1090.4106,346.1188 1088.6606,346.1188 C1086.4419,346.1188 1085.4731,344.1813 1085.4731,342.2281 C1085.4731,339.8375 1086.9575,338.5719 1088.5981,338.5719 C1090.6138,338.5719 1090.8325,340.0875 1091.0044,341.1813 L1092.4263,340.9938 C1092.3325,340.4156 1092.2544,339.8375 1092.2544,338.8688 C1092.2544,338.1969 1092.3013,337.65 1092.3325,337.2281 L1090.9263,337.2281 L1090.8169,338.1813 C1090.2231,337.65 1089.5825,337.1031 1088.3638,337.1031 C1086.3169,337.1031 1083.9106,338.9313 1083.9106,342.2438 C1083.9106,345.1813 1085.6763,347.5719 1088.6763,347.5719 C1091.1138,347.5719 1092.8169,345.9469 1093.4106,345.3688 L1092.4263,344.275 Z " fill="#000000"/><text fill="#000000" font-family="Verdana" font-size="14" lengthAdjust="spacing" textLength="61.9541" x="1101.02" y="339.0045">backup()</text><text fill="#000000" font-family="Verdana" font-size="14" lengthAdjust="spacing" textLength="55.9998" x="1103.9972" y="355.3014">&#25191;&#34892;&#22791;&#20221;</text><line style="stroke:#333333;stroke-width:1;" x1="1077.02" x2="1164.9741" y1="363.6031" y2="363.6031"/><line style="stroke:#333333;stroke-width:1;" x1="1077.02" x2="1164.9741" y1="371.6031" y2="371.6031"/></g><!--class walkCollect--><g class="entity" data-qualified-name="........BackupEnginePkg.walkCollect" data-source-line="30" id="ent0017"><rect fill="#F1F1F1" height="58.5938" rx="2.5" ry="2.5" style="stroke:#333333;stroke-width:1;" width="146.207" x="534.9" y="493.5694"/><ellipse cx="547.9" cy="514.8662" fill="#FFFFFF" rx="9" ry="9" style="stroke:#000000;stroke-width:1;"/><path d="M551.3063,516.835 C550.5875,517.5069 549.2906,518.6787 547.5406,518.6787 C545.3219,518.6787 544.3531,516.7412 544.3531,514.7881 C544.3531,512.3975 545.8375,511.1319 547.4781,511.1319 C549.4938,511.1319 549.7125,512.6475 549.8844,513.7412 L551.3063,513.5537 C551.2125,512.9756 551.1344,512.3975 551.1344,511.4287 C551.1344,510.7569 551.1813,510.21 551.2125,509.7881 L549.8063,509.7881 L549.6969,510.7412 C549.1031,510.21 548.4625,509.6631 547.2438,509.6631 C545.1969,509.6631 542.7906,511.4912 542.7906,514.8037 C542.7906,517.7412 544.5563,520.1319 547.5563,520.1319 C549.9938,520.1319 551.6969,518.5069 552.2906,517.9287 L551.3063,516.835 Z " fill="#000000"/><text fill="#000000" font-family="Verdana" font-size="14" lengthAdjust="spacing" textLength="118.207" x="559.9" y="511.5645">walkAndCollect()</text><text fill="#000000" font-family="Verdana" font-size="14" lengthAdjust="spacing" textLength="83.9996" x="577.0037" y="527.8614">&#36941;&#21382;&#25910;&#38598;&#25991;&#20214;</text><line style="stroke:#333333;stroke-width:1;" x1="535.9" x2="680.107" y1="536.1631" y2="536.1631"/><line style="stroke:#333333;stroke-width:1;" x1="535.9" x2="680.107" y1="544.1631" y2="544.1631"/></g><!--class filterEntries--><g class="entity" data-qualified-name="........BackupEnginePkg.filterEntries" data-source-line="31" id="ent0018"><rect fill="#F1F1F1" height="58.5938" rx="2.5" ry="2.5" style="stroke:#333333;stroke-width:1;" width="120.251" x="1064.87" y="493.5694"/><ellipse cx="1077.87" cy="514.8662" fill="#FFFFFF" rx="9" ry="9" style="stroke:#000000;stroke-width:1;"/><path d="M1081.2763,516.835 C1080.5575,517.5069 1079.2606,518.6787 1077.5106,518.6787 C1075.2919,518.6787 1074.3231,516.7412 1074.3231,514.7881 C1074.3231,512.3975 1075.8075,511.1319 1077.4481,511.1319 C1079.4638,511.1319 1079.6825,512.6475 1079.8544,513.7412 L1081.2763,513.5537 C1081.1825,512.9756 1081.1044,512.3975 1081.1044,511.4287 C1081.1044,510.7569 1081.1513,510.21 1081.1825,509.7881 L1079.7763,509.7881 L1079.6669,510.7412 C1079.0731,510.21 1078.4325,509.6631 1077.2138,509.6631 C1075.1669,509.6631 1072.7606,511.4912 1072.7606,514.8037 C1072.7606,517.7412 1074.5263,520.1319 1077.5263,520.1319 C1079.9638,520.1319 1081.6669,518.5069 1082.2606,517.9287 L1081.2763,516.835 Z " fill="#000000"/><text fill="#000000" font-family="Verdana" font-size="14" lengthAdjust="spacing" textLength="92.251" x="1089.87" y="511.5645">filterEntries()</text><text fill="#000000" font-family="Verdana" font-size="14" lengthAdjust="spacing" textLength="83.9996" x="1093.9957" y="527.8614">&#36807;&#28388;&#25991;&#20214;&#26465;&#30446;</text><line style="stroke:#333333;stroke-width:1;" x1="1065.87" x2="1184.121" y1="536.1631" y2="536.1631"/><line style="stroke:#333333;stroke-width:1;" x1="1065.87" x2="1184.121" y1="544.1631" y2="544.1631"/></g><!--class writeEntries--><g class="entity" data-qualified-name="........BackupEnginePkg.writeEntries" data-source-line="32" id="ent0019"><rect fill="#F1F1F1" height="58.5938" rx="2.5" ry="2.5" style="stroke:#333333;stroke-width:1;" width="122.8828" x="716.56" y="493.5694"/><ellipse cx="729.56" cy="514.8662" fill="#FFFFFF" rx="9" ry="9" style="stroke:#000000;stroke-width:1;"/><path d="M732.9663,516.835 C732.2475,517.5069 730.9506,518.6787 729.2006,518.6787 C726.9819,518.6787 726.0131,516.7412 726.0131,514.7881 C726.0131,512.3975 727.4975,511.1319 729.1381,511.1319 C731.1538,511.1319 731.3725,512.6475 731.5444,513.7412 L732.9663,513.5537 C732.8725,512.9756 732.7944,512.3975 732.7944,511.4287 C732.7944,510.7569 732.8413,510.21 732.8725,509.7881 L731.4663,509.7881 L731.3569,510.7412 C730.7631,510.21 730.1225,509.6631 728.9038,509.6631 C726.8569,509.6631 724.4506,511.4912 724.4506,514.8037 C724.4506,517.7412 726.2163,520.1319 729.2163,520.1319 C731.6538,520.1319 733.3569,518.5069 733.9506,517.9287 L732.9663,516.835 Z " fill="#000000"/><text fill="#000000" font-family="Verdana" font-size="14" lengthAdjust="spacing" textLength="94.8828" x="741.56" y="511.5645">writeEntries()</text><text fill="#000000" font-family="Verdana" font-size="14" lengthAdjust="spacing" textLength="83.9996" x="747.0016" y="527.8614">&#20889;&#20837;&#30446;&#26631;&#20301;&#32622;</text><line style="stroke:#333333;stroke-width:1;" x1="717.56" x2="838.4428" y1="536.1631" y2="536.1631"/><line style="stroke:#333333;stroke-width:1;" x1="717.56" x2="838.4428" y1="544.1631" y2="544.1631"/></g><!--class restoreMeta--><g class="entity" data-qualified-name="........BackupEnginePkg.restoreMeta" data-source-line="33" id="ent0020"><rect fill="#F1F1F1" height="58.5938" rx="2.5" ry="2.5" style="stroke:#333333;stroke-width:1;" width="155.3057" x="874.35" y="493.5694"/><ellipse cx="887.35" cy="514.8662" fill="#FFFFFF" rx="9" ry="9" style="stroke:#000000;stroke-width:1;"/><path d="M890.7563,516.835 C890.0375,517.5069 888.7406,518.6787 886.9906,518.6787 C884.7719,518.6787 883.8031,516.7412 883.8031,514.7881 C883.8031,512.3975 885.2875,511.1319 886.9281,511.1319 C888.9438,511.1319 889.1625,512.6475 889.3344,513.7412 L890.7563,513.5537 C890.6625,512.9756 890.5844,512.3975 890.5844,511.4287 C890.5844,510.7569 890.6313,510.21 890.6625,509.7881 L889.2563,509.7881 L889.1469,510.7412 C888.5531,510.21 887.9125,509.6631 886.6938,509.6631 C884.6469,509.6631 882.2406,511.4912 882.2406,514.8037 C882.2406,517.7412 884.0063,520.1319 887.0063,520.1319 C889.4438,520.1319 891.1469,518.5069 891.7406,517.9287 L890.7563,516.835 Z " fill="#000000"/><text fill="#000000" font-family="Verdana" font-size="14" lengthAdjust="spacing" textLength="127.3057" x="899.35" y="511.5645">restoreMetadata()</text><text fill="#000000" font-family="Verdana" font-size="14" lengthAdjust="spacing" textLength="69.9997" x="928.003" y="527.8614">&#24674;&#22797;&#20803;&#25968;&#25454;</text><line style="stroke:#333333;stroke-width:1;" x1="875.35" x2="1028.6557" y1="536.1631" y2="536.1631"/><line style="stroke:#333333;stroke-width:1;" x1="875.35" x2="1028.6557" y1="544.1631" y2="544.1631"/></g><!--class RestoreEngine--><g class="entity" data-qualified-name="........RestoreEnginePkg.RestoreEngine" data-source-line="37" id="ent0022"><rect fill="#F1F1F1" height="56.2656" rx="2.5" ry="2.5" style="stroke:#333333;stroke-width:1;" width="130.04" x="1633.98" y="151.6094"/><ellipse cx="1646.98" cy="171.7422" fill="#FFFFFF" rx="9" ry="9" style="stroke:#000000;stroke-width:1;"/><path d="M1650.3863,173.7109 C1649.6675,174.3828 1648.3706,175.5547 1646.6206,175.5547 C1644.4019,175.5547 1643.4331,173.6172 1643.4331,171.6641 C1643.4331,169.2734 1644.9175,168.0078 1646.5581,168.0078 C1648.5738,168.0078 1648.7925,169.5234 1648.9644,170.6172 L1650.3863,170.4297 C1650.2925,169.8516 1650.2144,169.2734 1650.2144,168.3047 C1650.2144,167.6328 1650.2613,167.0859 1650.2925,166.6641 L1648.8863,166.6641 L1648.7769,167.6172 C1648.1831,167.0859 1647.5425,166.5391 1646.3238,166.5391 C1644.2769,166.5391 1641.8706,168.3672 1641.8706,171.6797 C1641.8706,174.6172 1643.6363,177.0078 1646.6363,177.0078 C1649.0738,177.0078 1650.7769,175.3828 1651.3706,174.8047 L1650.3863,173.7109 Z " fill="#000000"/><text fill="#000000" font-family="Verdana" font-size="12" font-style="italic" lengthAdjust="spacing" textLength="38.6838" x="1690.6581" y="167.748">&#171;&#20027;&#31867;&#187;</text><text fill="#000000" font-family="Verdana" font-size="14" lengthAdjust="spacing" textLength="102.04" x="1658.98" y="183.5732">RestoreEngine</text><line style="stroke:#333333;stroke-width:1;" x1="1634.98" x2="1763.02" y1="191.875" y2="191.875"/><line style="stroke:#333333;stroke-width:1;" x1="1634.98" x2="1763.02" y1="199.875" y2="199.875"/></g><!--class restore_method--><g class="entity" data-qualified-name="........RestoreEnginePkg.restore_method" data-source-line="38" id="ent0023"><rect fill="#F1F1F1" height="58.5938" rx="2.5" ry="2.5" style="stroke:#333333;stroke-width:1;" width="89.0107" x="1697.49" y="321.0094"/><ellipse cx="1710.49" cy="342.3063" fill="#FFFFFF" rx="9" ry="9" style="stroke:#000000;stroke-width:1;"/><path d="M1713.8963,344.275 C1713.1775,344.9469 1711.8806,346.1188 1710.1306,346.1188 C1707.9119,346.1188 1706.9431,344.1813 1706.9431,342.2281 C1706.9431,339.8375 1708.4275,338.5719 1710.0681,338.5719 C1712.0838,338.5719 1712.3025,340.0875 1712.4744,341.1813 L1713.8963,340.9938 C1713.8025,340.4156 1713.7244,339.8375 1713.7244,338.8688 C1713.7244,338.1969 1713.7713,337.65 1713.8025,337.2281 L1712.3963,337.2281 L1712.2869,338.1813 C1711.6931,337.65 1711.0525,337.1031 1709.8338,337.1031 C1707.7869,337.1031 1705.3806,338.9313 1705.3806,342.2438 C1705.3806,345.1813 1707.1463,347.5719 1710.1463,347.5719 C1712.5838,347.5719 1714.2869,345.9469 1714.8806,345.3688 L1713.8963,344.275 Z " fill="#000000"/><text fill="#000000" font-family="Verdana" font-size="14" lengthAdjust="spacing" textLength="61.0107" x="1722.49" y="339.0045">restore()</text><text fill="#000000" font-family="Verdana" font-size="14" lengthAdjust="spacing" textLength="55.9998" x="1724.9955" y="355.3014">&#25191;&#34892;&#24674;&#22797;</text><line style="stroke:#333333;stroke-width:1;" x1="1698.49" x2="1785.5007" y1="363.6031" y2="363.6031"/><line style="stroke:#333333;stroke-width:1;" x1="1698.49" x2="1785.5007" y1="371.6031" y2="371.6031"/></g><!--class restoreDir--><g class="entity" data-qualified-name="........RestoreEnginePkg.restoreDir" data-source-line="39" id="ent0024"><rect fill="#F1F1F1" height="58.5938" rx="2.5" ry="2.5" style="stroke:#333333;stroke-width:1;" width="153.8428" x="1596.08" y="493.5694"/><ellipse cx="1609.08" cy="514.8662" fill="#FFFFFF" rx="9" ry="9" style="stroke:#000000;stroke-width:1;"/><path d="M1612.4863,516.835 C1611.7675,517.5069 1610.4706,518.6787 1608.7206,518.6787 C1606.5019,518.6787 1605.5331,516.7412 1605.5331,514.7881 C1605.5331,512.3975 1607.0175,511.1319 1608.6581,511.1319 C1610.6738,511.1319 1610.8925,512.6475 1611.0644,513.7412 L1612.4863,513.5537 C1612.3925,512.9756 1612.3144,512.3975 1612.3144,511.4287 C1612.3144,510.7569 1612.3613,510.21 1612.3925,509.7881 L1610.9863,509.7881 L1610.8769,510.7412 C1610.2831,510.21 1609.6425,509.6631 1608.4238,509.6631 C1606.3769,509.6631 1603.9706,511.4912 1603.9706,514.8037 C1603.9706,517.7412 1605.7363,520.1319 1608.7363,520.1319 C1611.1738,520.1319 1612.8769,518.5069 1613.4706,517.9287 L1612.4863,516.835 Z " fill="#000000"/><text fill="#000000" font-family="Verdana" font-size="14" lengthAdjust="spacing" textLength="125.8428" x="1621.08" y="511.5645">restoreDirectory()</text><text fill="#000000" font-family="Verdana" font-size="14" lengthAdjust="spacing" textLength="83.9996" x="1642.0016" y="527.8614">&#30446;&#24405;&#27169;&#24335;&#24674;&#22797;</text><line style="stroke:#333333;stroke-width:1;" x1="1597.08" x2="1748.9228" y1="536.1631" y2="536.1631"/><line style="stroke:#333333;stroke-width:1;" x1="1597.08" x2="1748.9228" y1="544.1631" y2="544.1631"/></g><!--class restoreArchive--><g class="entity" data-qualified-name="........RestoreEnginePkg.restoreArchive" data-source-line="40" id="ent0025"><rect fill="#F1F1F1" height="58.5938" rx="2.5" ry="2.5" style="stroke:#333333;stroke-width:1;" width="141.7021" x="1785.15" y="493.5694"/><ellipse cx="1798.15" cy="514.8662" fill="#FFFFFF" rx="9" ry="9" style="stroke:#000000;stroke-width:1;"/><path d="M1801.5563,516.835 C1800.8375,517.5069 1799.5406,518.6787 1797.7906,518.6787 C1795.5719,518.6787 1794.6031,516.7412 1794.6031,514.7881 C1794.6031,512.3975 1796.0875,511.1319 1797.7281,511.1319 C1799.7438,511.1319 1799.9625,512.6475 1800.1344,513.7412 L1801.5563,513.5537 C1801.4625,512.9756 1801.3844,512.3975 1801.3844,511.4287 C1801.3844,510.7569 1801.4313,510.21 1801.4625,509.7881 L1800.0563,509.7881 L1799.9469,510.7412 C1799.3531,510.21 1798.7125,509.6631 1797.4938,509.6631 C1795.4469,509.6631 1793.0406,511.4912 1793.0406,514.8037 C1793.0406,517.7412 1794.8063,520.1319 1797.8063,520.1319 C1800.2438,520.1319 1801.9469,518.5069 1802.5406,517.9287 L1801.5563,516.835 Z " fill="#000000"/><text fill="#000000" font-family="Verdana" font-size="14" lengthAdjust="spacing" textLength="113.7021" x="1810.15" y="511.5645">restoreArchive()</text><text fill="#000000" font-family="Verdana" font-size="14" lengthAdjust="spacing" textLength="83.9996" x="1825.0013" y="527.8614">&#24402;&#26723;&#27169;&#24335;&#24674;&#22797;</text><line style="stroke:#333333;stroke-width:1;" x1="1786.15" x2="1925.8521" y1="536.1631" y2="536.1631"/><line style="stroke:#333333;stroke-width:1;" x1="1786.15" x2="1925.8521" y1="544.1631" y2="544.1631"/></g><!--class fs_interface--><g class="entity" data-qualified-name="fs_interface" data-source-line="67" id="ent0040"><rect fill="#F1F1F1" height="44" rx="2.5" ry="2.5" style="stroke:#333333;stroke-width:1;" width="109.6621" x="719.17" y="662.1494"/><ellipse cx="732.17" cy="676.1494" fill="#FFFFFF" rx="9" ry="9" style="stroke:#000000;stroke-width:1;"/><path d="M735.5763,678.1181 C734.8575,678.79 733.5606,679.9619 731.8106,679.9619 C729.5919,679.9619 728.6231,678.0244 728.6231,676.0713 C728.6231,673.6806 730.1075,672.415 731.7481,672.415 C733.7638,672.415 733.9825,673.9306 734.1544,675.0244 L735.5763,674.8369 C735.4825,674.2588 735.4044,673.6806 735.4044,672.7119 C735.4044,672.04 735.4513,671.4931 735.4825,671.0713 L734.0763,671.0713 L733.9669,672.0244 C733.3731,671.4931 732.7325,670.9463 731.5138,670.9463 C729.4669,670.9463 727.0606,672.7744 727.0606,676.0869 C727.0606,679.0244 728.8263,681.415 731.8263,681.415 C734.2638,681.415 735.9669,679.79 736.5606,679.2119 L735.5763,678.1181 Z " fill="#000000"/><text fill="#000000" font-family="Verdana" font-size="14" lengthAdjust="spacing" textLength="81.6621" x="744.17" y="680.9961">fs_interface</text><line style="stroke:#333333;stroke-width:1;" x1="720.17" x2="827.8321" y1="690.1494" y2="690.1494"/><line style="stroke:#333333;stroke-width:1;" x1="720.17" x2="827.8321" y1="698.1494" y2="698.1494"/></g><!--class filter_interface--><g class="entity" data-qualified-name="filter_interface" data-source-line="71" id="ent0044"><rect fill="#F1F1F1" height="44" rx="2.5" ry="2.5" style="stroke:#333333;stroke-width:1;" width="130.0059" x="1151" y="662.1494"/><ellipse cx="1164" cy="676.1494" fill="#FFFFFF" rx="9" ry="9" style="stroke:#000000;stroke-width:1;"/><path d="M1167.4063,678.1181 C1166.6875,678.79 1165.3906,679.9619 1163.6406,679.9619 C1161.4219,679.9619 1160.4531,678.0244 1160.4531,676.0713 C1160.4531,673.6806 1161.9375,672.415 1163.5781,672.415 C1165.5938,672.415 1165.8125,673.9306 1165.9844,675.0244 L1167.4063,674.8369 C1167.3125,674.2588 1167.2344,673.6806 1167.2344,672.7119 C1167.2344,672.04 1167.2813,671.4931 1167.3125,671.0713 L1165.9063,671.0713 L1165.7969,672.0244 C1165.2031,671.4931 1164.5625,670.9463 1163.3438,670.9463 C1161.2969,670.9463 1158.8906,672.7744 1158.8906,676.0869 C1158.8906,679.0244 1160.6563,681.415 1163.6563,681.415 C1166.0938,681.415 1167.7969,679.79 1168.3906,679.2119 L1167.4063,678.1181 Z " fill="#000000"/><text fill="#000000" font-family="Verdana" font-size="14" lengthAdjust="spacing" textLength="102.0059" x="1176" y="680.9961">filter_interface</text><line style="stroke:#333333;stroke-width:1;" x1="1152" x2="1280.0059" y1="690.1494" y2="690.1494"/><line style="stroke:#333333;stroke-width:1;" x1="1152" x2="1280.0059" y1="698.1494" y2="698.1494"/></g><!--class packer_interface--><g class="entity" data-qualified-name="packer_interface" data-source-line="72" id="ent0046"><rect fill="#F1F1F1" height="44" rx="2.5" ry="2.5" style="stroke:#333333;stroke-width:1;" width="145.0791" x="1855.46" y="662.1494"/><ellipse cx="1868.46" cy="676.1494" fill="#FFFFFF" rx="9" ry="9" style="stroke:#000000;stroke-width:1;"/><path d="M1871.8663,678.1181 C1871.1475,678.79 1869.8506,679.9619 1868.1006,679.9619 C1865.8819,679.9619 1864.9131,678.0244 1864.9131,676.0713 C1864.9131,673.6806 1866.3975,672.415 1868.0381,672.415 C1870.0538,672.415 1870.2725,673.9306 1870.4444,675.0244 L1871.8663,674.8369 C1871.7725,674.2588 1871.6944,673.6806 1871.6944,672.7119 C1871.6944,672.04 1871.7413,671.4931 1871.7725,671.0713 L1870.3663,671.0713 L1870.2569,672.0244 C1869.6631,671.4931 1869.0225,670.9463 1867.8038,670.9463 C1865.7569,670.9463 1863.3506,672.7744 1863.3506,676.0869 C1863.3506,679.0244 1865.1163,681.415 1868.1163,681.415 C1870.5538,681.415 1872.2569,679.79 1872.8506,679.2119 L1871.8663,678.1181 Z " fill="#000000"/><text fill="#000000" font-family="Verdana" font-size="14" lengthAdjust="spacing" textLength="117.0791" x="1880.46" y="680.9961">packer_interface</text><line style="stroke:#333333;stroke-width:1;" x1="1856.46" x2="1999.5391" y1="690.1494" y2="690.1494"/><line style="stroke:#333333;stroke-width:1;" x1="1856.46" x2="1999.5391" y1="698.1494" y2="698.1494"/></g><g class="entity" data-qualified-name="GMN49" data-source-line="76" id="ent0050"><path d="M2126.56,472.4694 L2126.56,573.2662 L2351.4404,573.2662 L2351.4404,482.4694 L2341.4404,472.4694 L2126.56,472.4694" fill="#FFFFFF" style="stroke:#000000;stroke-width:1;"/><path d="M2341.4404,472.4694 L2341.4404,482.4694 L2351.4404,482.4694 L2341.4404,472.4694" fill="#FFFFFF" style="stroke:#000000;stroke-width:1;"/><text fill="#000000" font-family="Verdana" font-size="13" font-weight="700" lengthAdjust="spacing" textLength="65.0001" x="2132.56" y="489.5363">&#22791;&#20221;&#27969;&#31243;&#65306;</text><text fill="#000000" font-family="Verdana" font-size="13" lengthAdjust="spacing" textLength="125.5504" x="2132.56" y="504.6691">1. walk() &#36941;&#21382;&#28304;&#30446;&#24405;</text><text fill="#000000" font-family="Verdana" font-size="13" lengthAdjust="spacing" textLength="134.4878" x="2132.56" y="519.8019">2. Filter::apply() &#36807;&#28388;</text><text fill="#000000" font-family="Verdana" font-size="13" lengthAdjust="spacing" textLength="198.3072" x="2132.56" y="534.9347">3. &#36880;&#25991;&#20214; read&#8594;write &#25110; packer</text><text fill="#000000" font-family="Verdana" font-size="13" lengthAdjust="spacing" textLength="203.8804" x="2132.56" y="550.0675">4. restoreMetadata() &#24674;&#22797;&#20803;&#25968;&#25454;</text><text fill="#000000" font-family="Verdana" font-size="13" lengthAdjust="spacing" textLength="135.4717" x="2132.56" y="565.2003">5. &#36820;&#22238; BackupResult</text></g><g class="entity" data-qualified-name="GMN52" data-source-line="85" id="ent0053"><path d="M2386.68,472.4694 L2386.68,573.2662 L2573.3158,573.2662 L2573.3158,482.4694 L2563.3158,472.4694 L2386.68,472.4694" fill="#FFFFFF" style="stroke:#000000;stroke-width:1;"/><path d="M2563.3158,472.4694 L2563.3158,482.4694 L2573.3158,482.4694 L2563.3158,472.4694" fill="#FFFFFF" style="stroke:#000000;stroke-width:1;"/><text fill="#000000" font-family="Verdana" font-size="13" font-weight="700" lengthAdjust="spacing" textLength="65.0001" x="2392.68" y="489.5363">&#24674;&#22797;&#27969;&#31243;&#65306;</text><text fill="#000000" font-family="Verdana" font-size="13" lengthAdjust="spacing" textLength="124.9156" x="2392.68" y="504.6691">1. &#21028;&#26029;&#24402;&#26723;/&#30446;&#24405;&#27169;&#24335;</text><text fill="#000000" font-family="Verdana" font-size="13" lengthAdjust="spacing" textLength="120.5358" x="2392.68" y="519.8019">2. &#30446;&#24405;&#65306;&#36880;&#25991;&#20214;&#24674;&#22797;</text><text fill="#000000" font-family="Verdana" font-size="13" lengthAdjust="spacing" textLength="165.6358" x="2392.68" y="534.9347">3. &#24402;&#26723;&#65306;Packer::unpack()</text><text fill="#000000" font-family="Verdana" font-size="13" lengthAdjust="spacing" textLength="81.5357" x="2392.68" y="550.0675">4. &#24674;&#22797;&#20803;&#25968;&#25454;</text><text fill="#000000" font-family="Verdana" font-size="13" lengthAdjust="spacing" textLength="135.4717" x="2392.68" y="565.2003">5. &#36820;&#22238; BackupResult</text></g><!--link FileType to FileEntry--><g class="link" data-entity-1="ent0003" data-entity-2="ent0005" data-link-type="dependency" data-source-line="45" id="lnk26"><path codeLine="45" d="M121.21,216.4894 C132.58,245.0994 146.6037,280.3727 157.9637,308.9627" fill="none" id="FileType-to-FileEntry" style="stroke:#000000;stroke-width:1;"/><polygon fill="#000000" points="159.81,313.6094,160.204,303.7684,157.9637,308.9627,152.7694,306.7225,159.81,313.6094" style="stroke:#000000;stroke-width:1;stroke-linejoin:miter;stroke-miterlimit:10;"/><text fill="#000000" font-family="Verdana" font-size="13" lengthAdjust="spacing" textLength="52.0001" x="139.49" y="259.0863">&#31867;&#22411;&#23383;&#27573;</text></g><!--link Metadata to FileEntry--><g class="link" data-entity-1="ent0004" data-entity-2="ent0005" data-link-type="dependency" data-source-line="46" id="lnk27"><path codeLine="46" d="M237.03,216.4894 C223.46,245.0994 206.654,280.5024 193.084,309.0924" fill="none" id="Metadata-to-FileEntry" style="stroke:#000000;stroke-width:1;"/><polygon fill="#000000" points="190.94,313.6094,198.4127,307.1939,193.084,309.0924,191.1855,303.7636,190.94,313.6094" style="stroke:#000000;stroke-width:1;stroke-linejoin:miter;stroke-miterlimit:10;"/><text fill="#000000" font-family="Verdana" font-size="13" lengthAdjust="spacing" textLength="65.0001" x="222.17" y="259.0863">&#20803;&#25968;&#25454;&#23383;&#27573;</text></g><!--link OperationStats to BackupResult--><g class="link" data-entity-1="ent0006" data-entity-2="ent0007" data-link-type="dependency" data-source-line="47" id="lnk28"><path codeLine="47" d="M395.67,216.4894 C382.6,245.0994 366.4475,280.4714 353.3875,309.0614" fill="none" id="OperationStats-to-BackupResult" style="stroke:#000000;stroke-width:1;"/><polygon fill="#000000" points="351.31,313.6094,358.6879,307.0851,353.3875,309.0614,351.4112,303.761,351.31,313.6094" style="stroke:#000000;stroke-width:1;stroke-linejoin:miter;stroke-miterlimit:10;"/><text fill="#000000" font-family="Verdana" font-size="13" lengthAdjust="spacing" textLength="52.0001" x="381.4" y="259.0863">&#32479;&#35745;&#23383;&#27573;</text></g><!--link BackupResult to ErrorCode--><g class="link" data-entity-1="ent0007" data-entity-2="ent0009" data-link-type="dependency" data-source-line="48" id="lnk29"><path codeLine="48" d="M321.16,387.0594 C309.9,416.1694 295.8843,452.3963 284.6243,481.4963" fill="none" id="BackupResult-to-ErrorCode" style="stroke:#000000;stroke-width:1;"/><polygon fill="#000000" points="282.82,486.1594,289.7983,479.2093,284.6243,481.4963,282.3373,476.3224,282.82,486.1594" style="stroke:#000000;stroke-width:1;stroke-linejoin:miter;stroke-miterlimit:10;"/><text fill="#000000" font-family="Verdana" font-size="13" lengthAdjust="spacing" textLength="65.0001" x="308.91" y="431.6563">&#38169;&#35823;&#30721;&#23383;&#27573;</text></g><!--link BackupEngine to backup_method--><g class="link" data-entity-1="ent0015" data-entity-2="ent0016" data-link-type="dependency" data-source-line="51" id="lnk30"><path codeLine="51" d="M1121,208.1994 C1121,239.1694 1121,284.3094 1121,315.7294" fill="none" id="BackupEngine-to-backup_method" style="stroke:#000000;stroke-width:1;"/><polygon fill="#000000" points="1121,320.7294,1125,311.7294,1121,315.7294,1117,311.7294,1121,320.7294" style="stroke:#000000;stroke-width:1;stroke-linejoin:miter;stroke-miterlimit:10;"/><text fill="#000000" font-family="Verdana" font-size="13" lengthAdjust="spacing" textLength="26" x="1122" y="259.0863">&#20837;&#21475;</text></g><!--link backup_method to walkCollect--><g class="link" data-entity-1="ent0016" data-entity-2="ent0017" data-link-type="dependency" data-source-line="52" id="lnk31"><path codeLine="52" d="M1075.79,353.9294 C995.85,360.1094 826,380.2194 699,443.5894 C674.39,455.8694 654.4966,472.7649 637.5766,489.6749" fill="none" id="backup_method-to-walkCollect" style="stroke:#000000;stroke-width:1;"/><polygon fill="#000000" points="634.04,493.2094,643.2334,489.6766,637.5766,489.6749,637.5783,484.018,634.04,493.2094" style="stroke:#000000;stroke-width:1;stroke-linejoin:miter;stroke-miterlimit:10;"/><text fill="#000000" font-family="Verdana" font-size="13" lengthAdjust="spacing" textLength="34.271" x="753.56" y="431.6563">&#31532;1&#27493;</text></g><!--link backup_method to filterEntries--><g class="link" data-entity-1="ent0016" data-entity-2="ent0018" data-link-type="dependency" data-source-line="53" id="lnk32"><path codeLine="53" d="M1121.67,379.8494 C1122.41,411.3394 1123.4726,456.7108 1124.2126,488.2308" fill="none" id="backup_method-to-filterEntries" style="stroke:#000000;stroke-width:1;"/><polygon fill="#000000" points="1124.33,493.2294,1128.1177,484.138,1124.2126,488.2308,1120.1199,484.3257,1124.33,493.2294" style="stroke:#000000;stroke-width:1;stroke-linejoin:miter;stroke-miterlimit:10;"/><text fill="#000000" font-family="Verdana" font-size="13" lengthAdjust="spacing" textLength="34.271" x="1123.88" y="431.6563">&#31532;2&#27493;</text></g><!--link backup_method to writeEntries--><g class="link" data-entity-1="ent0016" data-entity-2="ent0019" data-link-type="dependency" data-source-line="54" id="lnk33"><path codeLine="54" d="M1075.82,360.6294 C1021,373.3494 927.2,399.7194 857,443.5894 C835.71,456.8894 818.9863,473.1274 804.4163,489.5674" fill="none" id="backup_method-to-writeEntries" style="stroke:#000000;stroke-width:1;"/><polygon fill="#000000" points="801.1,493.3094,810.0629,489.2269,804.4163,489.5674,804.0758,483.9208,801.1,493.3094" style="stroke:#000000;stroke-width:1;stroke-linejoin:miter;stroke-miterlimit:10;"/><text fill="#000000" font-family="Verdana" font-size="13" lengthAdjust="spacing" textLength="34.271" x="897.88" y="431.6563">&#31532;3&#27493;</text></g><!--link backup_method to restoreMeta--><g class="link" data-entity-1="ent0016" data-entity-2="ent0020" data-link-type="dependency" data-source-line="55" id="lnk34"><path codeLine="55" d="M1092.71,379.8494 C1061.52,411.3394 1015.1292,458.1575 983.8992,489.6775" fill="none" id="backup_method-to-restoreMeta" style="stroke:#000000;stroke-width:1;"/><polygon fill="#000000" points="980.38,493.2294,989.556,489.6514,983.8992,489.6775,983.873,484.0207,980.38,493.2294" style="stroke:#000000;stroke-width:1;stroke-linejoin:miter;stroke-miterlimit:10;"/><text fill="#000000" font-family="Verdana" font-size="13" lengthAdjust="spacing" textLength="34.271" x="1052.64" y="431.6563">&#31532;4&#27493;</text></g><!--link BackupEngine to Expected--><g class="link" data-entity-1="ent0015" data-entity-2="ent0012" data-link-type="dependency" data-source-line="57" id="lnk35"><path codeLine="57" d="M1151.79,208.1994 C1184,236.9294 1230.9783,278.8315 1266.2783,310.3115" fill="none" id="BackupEngine-to-Expected" style="stroke:#000000;stroke-width:1;stroke-dasharray:7,7;"/><polygon fill="#000000" points="1270.01,313.6394,1265.9553,304.6639,1266.2783,310.3115,1260.6307,310.6346,1270.01,313.6394" style="stroke:#000000;stroke-width:1;stroke-linejoin:miter;stroke-miterlimit:10;"/><text fill="#000000" font-family="Verdana" font-size="13" lengthAdjust="spacing" textLength="52.0001" x="1210.83" y="259.0863">&#36820;&#22238;&#31867;&#22411;</text></g><!--link RestoreEngine to restore_method--><g class="link" data-entity-1="ent0022" data-entity-2="ent0023" data-link-type="dependency" data-source-line="60" id="lnk36"><path codeLine="60" d="M1706,208.1994 C1713.91,239.1694 1725.4534,284.4647 1733.4734,315.8847" fill="none" id="RestoreEngine-to-restore_method" style="stroke:#000000;stroke-width:1;"/><polygon fill="#000000" points="1734.71,320.7294,1736.3598,311.0197,1733.4734,315.8847,1728.6084,312.9983,1734.71,320.7294" style="stroke:#000000;stroke-width:1;stroke-linejoin:miter;stroke-miterlimit:10;"/><text fill="#000000" font-family="Verdana" font-size="13" lengthAdjust="spacing" textLength="26" x="1720.21" y="259.0863">&#20837;&#21475;</text></g><!--link restore_method to restoreDir--><g class="link" data-entity-1="ent0023" data-entity-2="ent0024" data-link-type="dependency" data-source-line="61" id="lnk37"><path codeLine="61" d="M1730.45,379.8494 C1717.71,411.3394 1699.2149,457.0742 1686.4649,488.5942" fill="none" id="restore_method-to-restoreDir" style="stroke:#000000;stroke-width:1;"/><polygon fill="#000000" points="1684.59,493.2294,1691.673,486.3861,1686.4649,488.5942,1684.2568,483.3862,1684.59,493.2294" style="stroke:#000000;stroke-width:1;stroke-linejoin:miter;stroke-miterlimit:10;"/><text fill="#000000" font-family="Verdana" font-size="13" lengthAdjust="spacing" textLength="52.0001" x="1714.68" y="431.6563">&#30446;&#24405;&#27169;&#24335;</text></g><!--link restore_method to restoreArchive--><g class="link" data-entity-1="ent0023" data-entity-2="ent0025" data-link-type="dependency" data-source-line="62" id="lnk38"><path codeLine="62" d="M1761.08,379.8494 C1782.12,411.3394 1813.0113,457.5526 1834.0813,489.0726" fill="none" id="restore_method-to-restoreArchive" style="stroke:#000000;stroke-width:1;"/><polygon fill="#000000" points="1836.86,493.2294,1835.1838,483.5242,1834.0813,489.0726,1828.533,487.9701,1836.86,493.2294" style="stroke:#000000;stroke-width:1;stroke-linejoin:miter;stroke-miterlimit:10;"/><text fill="#000000" font-family="Verdana" font-size="13" lengthAdjust="spacing" textLength="52.0001" x="1796.58" y="431.6563">&#24402;&#26723;&#27169;&#24335;</text></g><!--link RestoreEngine to Expected--><g class="link" data-entity-1="ent0022" data-entity-2="ent0012" data-link-type="dependency" data-source-line="64" id="lnk39"><path codeLine="64" d="M1633.56,191.6394 C1570.07,204.1494 1472.51,228.6294 1397,271.0194 C1376.98,282.2694 1361.2503,295.329 1345.9403,310.339" fill="none" id="RestoreEngine-to-Expected" style="stroke:#000000;stroke-width:1;stroke-dasharray:7,7;"/><polygon fill="#000000" points="1342.37,313.8394,1351.5969,310.395,1345.9403,310.339,1345.9963,304.6824,1342.37,313.8394" style="stroke:#000000;stroke-width:1;stroke-linejoin:miter;stroke-miterlimit:10;"/><text fill="#000000" font-family="Verdana" font-size="13" lengthAdjust="spacing" textLength="52.0001" x="1444.06" y="259.0863">&#36820;&#22238;&#31867;&#22411;</text></g><!--link walkCollect to fs_interface--><g class="link" data-entity-1="ent0017" data-entity-2="ent0040" data-link-type="dependency" data-source-line="67" id="lnk41"><path codeLine="67" d="M604.28,552.4294 C602.79,576.3694 604.73,610.0694 623,632.1494 C646.38,660.3894 681.0826,672.2103 713.8726,677.8603" fill="none" id="walkCollect-to-fs_interface" style="stroke:#000000;stroke-width:1;stroke-dasharray:7,7;"/><polygon fill="#000000" points="718.8,678.7094,710.6099,673.2392,713.8726,677.8603,709.2515,681.123,718.8,678.7094" style="stroke:#000000;stroke-width:1;stroke-linejoin:miter;stroke-miterlimit:10;"/><text fill="#000000" font-family="Verdana" font-size="13" lengthAdjust="spacing" textLength="138.7471" x="624" y="628.2163">FSAbstraction::walk()</text></g><!--link writeEntries to fs_interface--><g class="link" data-entity-1="ent0019" data-entity-2="ent0040" data-link-type="dependency" data-source-line="68" id="lnk42"><path codeLine="68" d="M774.7,552.3394 C772.52,574.1594 770.2,605.0294 771,632.1494 C771.29,641.8994 771.5576,647.6998 772.1476,656.8298" fill="none" id="writeEntries-to-fs_interface" style="stroke:#000000;stroke-width:1;stroke-dasharray:7,7;"/><polygon fill="#000000" points="772.47,661.8194,775.8813,652.5802,772.1476,656.8298,767.8979,653.0961,772.47,661.8194" style="stroke:#000000;stroke-width:1;stroke-linejoin:miter;stroke-miterlimit:10;"/><text fill="#000000" font-family="Verdana" font-size="13" lengthAdjust="spacing" textLength="141.6924" x="772" y="628.2163">FSAbstraction::write()</text></g><!--link restoreMeta to fs_interface--><g class="link" data-entity-1="ent0020" data-entity-2="ent0040" data-link-type="dependency" data-source-line="69" id="lnk43"><path codeLine="69" d="M950.02,552.2894 C946.88,576.4594 938.79,610.5894 918,632.1494 C894.62,656.3894 863.8698,668.0397 833.9098,674.7297" fill="none" id="restoreMeta-to-fs_interface" style="stroke:#000000;stroke-width:1;stroke-dasharray:7,7;"/><polygon fill="#000000" points="829.03,675.8194,838.6854,677.7619,833.9098,674.7297,836.942,669.9541,829.03,675.8194" style="stroke:#000000;stroke-width:1;stroke-linejoin:miter;stroke-miterlimit:10;"/><text fill="#000000" font-family="Verdana" font-size="13" lengthAdjust="spacing" textLength="217.0771" x="930.11" y="628.2163">FSAbstraction::restoreMetadata()</text></g><!--link filterEntries to filter_interface--><g class="link" data-entity-1="ent0018" data-entity-2="ent0044" data-link-type="dependency" data-source-line="71" id="lnk45"><path codeLine="71" d="M1141.27,552.3494 C1159.26,583.8394 1185.3596,629.518 1201.4596,657.698" fill="none" id="filterEntries-to-filter_interface" style="stroke:#000000;stroke-width:1;stroke-dasharray:7,7;"/><polygon fill="#000000" points="1203.94,662.0394,1202.9485,652.2406,1201.4596,657.698,1196.0022,656.2091,1203.94,662.0394" style="stroke:#000000;stroke-width:1;stroke-linejoin:miter;stroke-miterlimit:10;"/><text fill="#000000" font-family="Verdana" font-size="13" lengthAdjust="spacing" textLength="87.8198" x="1187.57" y="628.2163">Filter::apply()</text></g><!--link backup_method to packer_interface--><g class="link" data-entity-1="ent0016" data-entity-2="ent0046" data-link-type="dependency" data-source-line="72" id="lnk47"><path codeLine="72" d="M1160.39,380.0694 C1179.01,391.9594 1202.13,404.3894 1225,410.5894 C1244.25,415.7994 1927.88,405.5794 1943,418.5894 C2015.77,481.1694 2009.91,542.7494 1975,632.1494 C1970.66,643.2494 1966.1705,649.8488 1957.9805,658.1088" fill="none" id="backup_method-to-packer_interface" style="stroke:#000000;stroke-width:1;stroke-dasharray:7,7;"/><polygon fill="#000000" points="1954.46,661.6594,1963.6373,658.0848,1957.9805,658.1088,1957.9564,652.452,1954.46,661.6594" style="stroke:#000000;stroke-width:1;stroke-linejoin:miter;stroke-miterlimit:10;"/><text fill="#000000" font-family="Verdana" font-size="13" lengthAdjust="spacing" textLength="93.6216" x="2000.98" y="527.4363">Packer::pack()</text></g><!--link restoreArchive to packer_interface--><g class="link" data-entity-1="ent0025" data-entity-2="ent0046" data-link-type="dependency" data-source-line="73" id="lnk48"><path codeLine="73" d="M1850.28,552.2494 C1847.13,575.1394 1846.12,607.4794 1859,632.1494 C1865.27,644.1694 1871.7233,651.1944 1882.6933,658.9844" fill="none" id="restoreArchive-to-packer_interface" style="stroke:#000000;stroke-width:1;stroke-dasharray:7,7;"/><polygon fill="#000000" points="1886.77,661.8794,1881.7479,653.4072,1882.6933,658.9844,1877.116,659.9298,1886.77,661.8794" style="stroke:#000000;stroke-width:1;stroke-linejoin:miter;stroke-miterlimit:10;"/><text fill="#000000" font-family="Verdana" font-size="13" lengthAdjust="spacing" textLength="110.1001" x="1860" y="628.2163">Packer::unpack()</text></g><!--link backup_method to GMN49--><g class="link" data-entity-1="ent0016" data-entity-2="ent0050" data-link-type="association" data-source-line="76" id="lnk51"><path d="M1160.39,380.0794 C1179,391.9694 1202.13,404.3994 1225,410.5894 C1267.8,422.1594 1979.24,411.4394 2023,418.5894 C2072.23,426.6294 2122.76,449.8294 2162.57,472.1994" fill="none" id="backup_method-GMN49" style="stroke:#000000;stroke-width:1;stroke-dasharray:7,7;"/></g><!--link restore_method to GMN52--><g class="link" data-entity-1="ent0023" data-entity-2="ent0053" data-link-type="association" data-source-line="85" id="lnk54"><path d="M1786.6,354.6694 C1911.79,364.5894 2264.13,396.1194 2369,443.5894 C2385.86,451.2194 2402.82,461.5294 2418.23,472.1594" fill="none" id="restore_method-GMN52" style="stroke:#000000;stroke-width:1;stroke-dasharray:7,7;"/></g><?plantuml-src bLRVJnj747w_ls9B7feeZKCmIArbB55glrMD0dr3GeUzm8dZphfRsgAg4eXYG0I2me-8txY1XWSWRICIYctuNohldNdYN-ZixlcywpDDQZzvv_jcP-QRcVLdP1IFOvGtTSFIt373okkEFewofkwwNzjE3Zkzjcaxw5wSVo8GFJisujWJLYw0PPwmhwOHWvWOqTCL_rt9B-rNBv_VbhUyWmjwFKFBwzxgScZozdwjbjxJxIjDouCtVGIZjfR0DlIpfY4KWlm_ItHlaPvjLVzUk2tFayayTcEZj-M5DgIxg9_zHFVINsRQCsbW8lZma55RnZ0nCmzOtiOSt2qSUNjRrOihpgq3K38fJbCfcVyj9dfE9_g0HMTdlFK_lAKplxJAygYiSduT0FpGeBfWDwGjuapMO_1sY_xsMNWxjzrD_owF7PqOjjL7TEA2ZzMbQcK7QbGxAt8VAk1kHqo_YVmpx4wO1D8vX50g7Bh3tSZcY9DV53LkrZPhRz_w1zCW1NOSsndCsZdSq2FDpdhXwEdO2BH9RxeptQlA4Y86hD2P94felaCLOlSHnx16xZ-G-BNA2JrzvP_yNhtuYtkfeoBnq_rBlpX5FnpHsGyS-JqnJ6YWJ2OJJxStHVfJ7cS9pYNxlqYdeFex-zxEDfqgYqOIqGOG2BRtuSEEEChRvkImOPfgq7rvtKhsWu-RtJrlySZRMQYzAS0iS1_C6F3RLRuQkb0fROqO5gwBA6P74b6OUV5X9hhINwafoQ082uAeNfGWEpNu8GvXzVOMtjIApyNDd2rCW-EOZDevcVEZRexry6rXGdsuLjDBTBdWhRs_sIw8MU0U6310oNme0S4E6my3kunUkvxpIeUH8L9mIW2EGR34fuLDEdi4DEzWhbfPyYk2ByDakeDTOZkuFk4y-UdVwE5Ik0euNO95v7ecR7Mz0df3ByKkfYMUxifqgO8fg2Zl3ic2k1gQYTlbc5k85bY-CHnGmtOc6HqgHYlhtd6Hbbz4dG2qXOCU9pjg_C1lfvMNNl7rNVG0o4i7nViSTNTtes3Vpxw3vu0TQE6QVlGe9MtDH1rv-iexEzV2PToC2XKBW4qxay6L_GT--O8Du8gDWHiBAe721HI0WnIKeQA5sPkPOvw9SivyAVF3OpsYBrvhwZ43IcF20ZmvUUAT7hN0AVCWa1sjaNBd2s2yDL3gSO7hP3WrbrWirLY52LIxNgFRUqAUUatKjfMAeXga6oDbQJgNeD27B3QfL_y377GTyojrfzOKo2UaH0yt88dgrMxjV0EUmzhcbdzvNIiU-uUNtZABk6vQu8dA6ZBlm-wWOO5QmtgM1PFfwnboYQDdMMyc4Wnz_u6coFG9B0O7cYpQnrcHRQTfQYDn5_n4TSEF4WazdpTXMpGr3oEnRTX4UigF4WbcQaHQ5-KZf0ahe6cMJJ0QiWcnnv4z77c9aaCfyKvvvzF-yIByAqq-7c8xyaaCYTAYu4MwN15z0xQEM7DAIBmxO8l7qCtKYdY0e9Fqt3-5bxpQo9lV2486M6SCHQg9cfuEW7N5WevITe-6hHnYYKNIYonjo4zuRP4VdOU7ybGqzsDbA7YAuWGOOJx2aqXIqC0QAJbFxl-dyYy0?></g></svg>